solid OpenSCAD_Model
  facet normal 1 -0 0
    outer loop
      vertex 75 425 50
      vertex 75 429 -50
      vertex 75 429 50
    endloop
  endfacet
  facet normal 1 0 0
    outer loop
      vertex 75 429 -50
      vertex 75 425 50
      vertex 75 425 -50
    endloop
  endfacet
  facet normal 0 0 1
    outer loop
      vertex 73 425 50
      vertex 75 425 50
      vertex 75 429 50
    endloop
  endfacet
  facet normal 0 0 1
    outer loop
      vertex 75 425 50
      vertex 73 425 50
      vertex 75 -425 50
    endloop
  endfacet
  facet normal 0 0 1
    outer loop
      vertex 73 -425 50
      vertex 75 -425 50
      vertex 73 425 50
    endloop
  endfacet
  facet normal -0 0 1
    outer loop
      vertex -50 429 50
      vertex 73 425 50
      vertex 75 429 50
    endloop
  endfacet
  facet normal 0 0 1
    outer loop
      vertex 73 425 50
      vertex -50 429 50
      vertex -50 425 50
    endloop
  endfacet
  facet normal -0 0 1
    outer loop
      vertex 75 425 50
      vertex 77 -425 50
      vertex 77 425 50
    endloop
  endfacet
  facet normal 0 0 1
    outer loop
      vertex 77 -425 50
      vertex 75 425 50
      vertex 75 -425 50
    endloop
  endfacet
  facet normal 0 0 1
    outer loop
      vertex 75 -425 50
      vertex 73 -425 50
      vertex 75 -429 50
    endloop
  endfacet
  facet normal 0 0 1
    outer loop
      vertex -50 -429 50
      vertex 73 -425 50
      vertex -50 -425 50
    endloop
  endfacet
  facet normal 0 0 1
    outer loop
      vertex 73 -425 50
      vertex -50 -429 50
      vertex 75 -429 50
    endloop
  endfacet
  facet normal 0 0 -1
    outer loop
      vertex 73 -425 -50
      vertex 75 -425 -50
      vertex 75 -429 -50
    endloop
  endfacet
  facet normal 0 0 -1
    outer loop
      vertex 75 -425 -50
      vertex 73 -425 -50
      vertex 75 425 -50
    endloop
  endfacet
  facet normal 0 0 -1
    outer loop
      vertex 73 425 -50
      vertex 75 425 -50
      vertex 73 -425 -50
    endloop
  endfacet
  facet normal 0 0 -1
    outer loop
      vertex -50 -429 -50
      vertex 73 -425 -50
      vertex 75 -429 -50
    endloop
  endfacet
  facet normal -0 0 -1
    outer loop
      vertex 73 -425 -50
      vertex -50 -429 -50
      vertex -50 -425 -50
    endloop
  endfacet
  facet normal 0 0 -1
    outer loop
      vertex 75 -425 -50
      vertex 77 425 -50
      vertex 77 -425 -50
    endloop
  endfacet
  facet normal -0 0 -1
    outer loop
      vertex 77 425 -50
      vertex 75 -425 -50
      vertex 75 425 -50
    endloop
  endfacet
  facet normal 0 0 -1
    outer loop
      vertex 75 425 -50
      vertex 73 425 -50
      vertex 75 429 -50
    endloop
  endfacet
  facet normal 0 0 -1
    outer loop
      vertex -50 429 -50
      vertex 73 425 -50
      vertex -50 425 -50
    endloop
  endfacet
  facet normal 0 0 -1
    outer loop
      vertex 73 425 -50
      vertex -50 429 -50
      vertex 75 429 -50
    endloop
  endfacet
  facet normal -1 0 0
    outer loop
      vertex -50 425 -50
      vertex -50 429 50
      vertex -50 429 -50
    endloop
  endfacet
  facet normal -1 -0 0
    outer loop
      vertex -50 429 50
      vertex -50 425 -50
      vertex -50 425 50
    endloop
  endfacet
  facet normal 0 1 -0
    outer loop
      vertex 75 429 -50
      vertex -50 429 50
      vertex 75 429 50
    endloop
  endfacet
  facet normal 0 1 0
    outer loop
      vertex -50 429 50
      vertex 75 429 -50
      vertex -50 429 -50
    endloop
  endfacet
  facet normal 0 -1 0
    outer loop
      vertex -50 425 -50
      vertex 73 425 50
      vertex -50 425 50
    endloop
  endfacet
  facet normal 0 -1 -0
    outer loop
      vertex 73 425 50
      vertex -50 425 -50
      vertex 73 425 -50
    endloop
  endfacet
  facet normal 0 1 -0
    outer loop
      vertex 77 425 -50
      vertex 75 425 50
      vertex 77 425 50
    endloop
  endfacet
  facet normal 0 1 0
    outer loop
      vertex 75 425 50
      vertex 77 425 -50
      vertex 75 425 -50
    endloop
  endfacet
  facet normal 1 -0 0
    outer loop
      vertex 75 -429 50
      vertex 75 -425 -50
      vertex 75 -425 50
    endloop
  endfacet
  facet normal 1 0 0
    outer loop
      vertex 75 -425 -50
      vertex 75 -429 50
      vertex 75 -429 -50
    endloop
  endfacet
  facet normal -1 0 0
    outer loop
      vertex -50 -429 -50
      vertex -50 -425 50
      vertex -50 -425 -50
    endloop
  endfacet
  facet normal -1 -0 0
    outer loop
      vertex -50 -425 50
      vertex -50 -429 -50
      vertex -50 -429 50
    endloop
  endfacet
  facet normal 0 1 -0
    outer loop
      vertex 73 -425 -50
      vertex -50 -425 50
      vertex 73 -425 50
    endloop
  endfacet
  facet normal 0 1 0
    outer loop
      vertex -50 -425 50
      vertex 73 -425 -50
      vertex -50 -425 -50
    endloop
  endfacet
  facet normal 0 -1 0
    outer loop
      vertex 75 -425 -50
      vertex 77 -425 50
      vertex 75 -425 50
    endloop
  endfacet
  facet normal 0 -1 -0
    outer loop
      vertex 77 -425 50
      vertex 75 -425 -50
      vertex 77 -425 -50
    endloop
  endfacet
  facet normal 0 -1 0
    outer loop
      vertex -50 -429 -50
      vertex 75 -429 50
      vertex -50 -429 50
    endloop
  endfacet
  facet normal 0 -1 -0
    outer loop
      vertex 75 -429 50
      vertex -50 -429 -50
      vertex 75 -429 -50
    endloop
  endfacet
  facet normal 1 -0 0
    outer loop
      vertex 77 -425 50
      vertex 77 425 -50
      vertex 77 425 50
    endloop
  endfacet
  facet normal 1 0 0
    outer loop
      vertex 77 425 -50
      vertex 77 -425 50
      vertex 77 -425 -50
    endloop
  endfacet
  facet normal -1 0 0
    outer loop
      vertex 73 -425 -50
      vertex 73 425 50
      vertex 73 425 -50
    endloop
  endfacet
  facet normal -1 -0 0
    outer loop
      vertex 73 425 50
      vertex 73 -425 -50
      vertex 73 -425 50
    endloop
  endfacet
endsolid OpenSCAD_Model
