solid OpenSCAD_Model
  facet normal -1 0 0
    outer loop
      vertex 0 24 -20
      vertex 0 25 -0.5
      vertex 0 25 -20
    endloop
  endfacet
  facet normal -1 -0 0
    outer loop
      vertex 0 25 -0.5
      vertex 0 24 -20
      vertex 0 24 -0.5
    endloop
  endfacet
  facet normal 1 -0 0
    outer loop
      vertex 40 24 0
      vertex 40 25 -59.5747
      vertex 40 25 0
    endloop
  endfacet
  facet normal 1 0 0
    outer loop
      vertex 40 25 -59.5747
      vertex 40 24 0
      vertex 40 24 -59.5747
    endloop
  endfacet
  facet normal 0 1 0
    outer loop
      vertex 0 25 -20
      vertex 10 25 0
      vertex 40 25 0
    endloop
  endfacet
  facet normal 0 1 0
    outer loop
      vertex 10 25 0
      vertex 0 25 -20
      vertex 0 25 -0.5
    endloop
  endfacet
  facet normal 0 1 -0
    outer loop
      vertex 40 25 -59.5747
      vertex 0 25 -20
      vertex 40 25 0
    endloop
  endfacet
  facet normal 0 1 -0
    outer loop
      vertex 39.5955 25 -59.7061
      vertex 0 25 -20
      vertex 40 25 -59.5747
    endloop
  endfacet
  facet normal 0 1 0
    outer loop
      vertex 20 25 -60
      vertex 39.5955 25 -59.7061
      vertex 39.5955 25 -60
    endloop
  endfacet
  facet normal 0 1 0
    outer loop
      vertex 39.5955 25 -59.7061
      vertex 20 25 -60
      vertex 0 25 -20
    endloop
  endfacet
  facet normal 0 1 0
    outer loop
      vertex 0 25 -0.5
      vertex 10 25 0.5
      vertex 10 25 0
    endloop
  endfacet
  facet normal 0 1 0
    outer loop
      vertex 10 25 0.5
      vertex 0 25 -0.5
      vertex -10 25 0.5
    endloop
  endfacet
  facet normal 0 1 0
    outer loop
      vertex -10 25 0.5
      vertex 0 25 -0.5
      vertex -10 25 -0.5
    endloop
  endfacet
  facet normal -0.894427 0 -0.447214
    outer loop
      vertex 20 24 -60
      vertex 0 25 -20
      vertex 20 25 -60
    endloop
  endfacet
  facet normal -0.894427 -0 -0.447214
    outer loop
      vertex 0 25 -20
      vertex 20 24 -60
      vertex 0 24 -20
    endloop
  endfacet
  facet normal -0 0 1
    outer loop
      vertex 10 25 0
      vertex 40 24 0
      vertex 40 25 0
    endloop
  endfacet
  facet normal 0 0 1
    outer loop
      vertex 40 24 0
      vertex 10 25 0
      vertex 10 24 0
    endloop
  endfacet
  facet normal 0 0 -1
    outer loop
      vertex 20 24 -60
      vertex 39.5955 25 -60
      vertex 39.5955 24 -60
    endloop
  endfacet
  facet normal -0 0 -1
    outer loop
      vertex 39.5955 25 -60
      vertex 20 24 -60
      vertex 20 25 -60
    endloop
  endfacet
  facet normal 0 -1 0
    outer loop
      vertex 0 24 -0.5
      vertex 0 24 -20
      vertex 10 24 -0.5
    endloop
  endfacet
  facet normal 0 -1 0
    outer loop
      vertex 10 24 -0.5
      vertex 40 24 0
      vertex 10 24 0
    endloop
  endfacet
  facet normal 0 -1 0
    outer loop
      vertex 0 24 -20
      vertex 40 24 0
      vertex 10 24 -0.5
    endloop
  endfacet
  facet normal 0 -1 0
    outer loop
      vertex 0 24 -20
      vertex 40 24 -59.5747
      vertex 40 24 0
    endloop
  endfacet
  facet normal 0 -1 0
    outer loop
      vertex 0 24 -20
      vertex 39.5955 24 -59.7061
      vertex 40 24 -59.5747
    endloop
  endfacet
  facet normal 0 -1 0
    outer loop
      vertex 20 24 -60
      vertex 39.5955 24 -59.7061
      vertex 0 24 -20
    endloop
  endfacet
  facet normal 0 -1 -0
    outer loop
      vertex 39.5955 24 -59.7061
      vertex 20 24 -60
      vertex 39.5955 24 -60
    endloop
  endfacet
  facet normal 0 -1 0
    outer loop
      vertex 0 -25 -0.5
      vertex 10 -25 0.5
      vertex -10 -25 0.5
    endloop
  endfacet
  facet normal 0 -1 0
    outer loop
      vertex 0 -25 -0.5
      vertex -10 -25 0.5
      vertex -10 -25 -0.5
    endloop
  endfacet
  facet normal 0 -1 -0
    outer loop
      vertex 10 -25 0.5
      vertex 0 -25 -0.5
      vertex 10 -25 0
    endloop
  endfacet
  facet normal 0 -1 0
    outer loop
      vertex 0 -25 -20
      vertex 10 -25 0
      vertex 0 -25 -0.5
    endloop
  endfacet
  facet normal 0 -1 -0
    outer loop
      vertex 10 -25 0
      vertex 0 -25 -20
      vertex 40 -25 0
    endloop
  endfacet
  facet normal 0 -1 0
    outer loop
      vertex 0 -25 -20
      vertex 40 -25 -59.5747
      vertex 40 -25 0
    endloop
  endfacet
  facet normal 0 -1 0
    outer loop
      vertex 0 -25 -20
      vertex 39.5955 -25 -59.7061
      vertex 40 -25 -59.5747
    endloop
  endfacet
  facet normal 0 -1 0
    outer loop
      vertex 20 -25 -60
      vertex 39.5955 -25 -59.7061
      vertex 0 -25 -20
    endloop
  endfacet
  facet normal 0 -1 -0
    outer loop
      vertex 39.5955 -25 -59.7061
      vertex 20 -25 -60
      vertex 39.5955 -25 -60
    endloop
  endfacet
  facet normal -1 0 0
    outer loop
      vertex 0 -25 -20
      vertex 0 -24 -0.5
      vertex 0 -24 -20
    endloop
  endfacet
  facet normal -1 -0 0
    outer loop
      vertex 0 -24 -0.5
      vertex 0 -25 -20
      vertex 0 -25 -0.5
    endloop
  endfacet
  facet normal 0 1 0
    outer loop
      vertex 40 -24 0
      vertex 10 -24 -0.5
      vertex 10 -24 0
    endloop
  endfacet
  facet normal 0 1 0
    outer loop
      vertex 10 -24 -0.5
      vertex 0 -24 -20
      vertex 0 -24 -0.5
    endloop
  endfacet
  facet normal 0 1 0
    outer loop
      vertex 40 -24 0
      vertex 0 -24 -20
      vertex 10 -24 -0.5
    endloop
  endfacet
  facet normal 0 1 -0
    outer loop
      vertex 40 -24 -59.5747
      vertex 0 -24 -20
      vertex 40 -24 0
    endloop
  endfacet
  facet normal 0 1 -0
    outer loop
      vertex 39.5955 -24 -59.7061
      vertex 0 -24 -20
      vertex 40 -24 -59.5747
    endloop
  endfacet
  facet normal 0 1 0
    outer loop
      vertex 20 -24 -60
      vertex 39.5955 -24 -59.7061
      vertex 39.5955 -24 -60
    endloop
  endfacet
  facet normal 0 1 0
    outer loop
      vertex 39.5955 -24 -59.7061
      vertex 20 -24 -60
      vertex 0 -24 -20
    endloop
  endfacet
  facet normal 1 -0 0
    outer loop
      vertex 40 -25 0
      vertex 40 -24 -59.5747
      vertex 40 -24 0
    endloop
  endfacet
  facet normal 1 0 0
    outer loop
      vertex 40 -24 -59.5747
      vertex 40 -25 0
      vertex 40 -25 -59.5747
    endloop
  endfacet
  facet normal -0.894427 0 -0.447214
    outer loop
      vertex 20 -25 -60
      vertex 0 -24 -20
      vertex 20 -24 -60
    endloop
  endfacet
  facet normal -0.894427 -0 -0.447214
    outer loop
      vertex 0 -24 -20
      vertex 20 -25 -60
      vertex 0 -25 -20
    endloop
  endfacet
  facet normal 0 0 -1
    outer loop
      vertex 20 -25 -60
      vertex 39.5955 -24 -60
      vertex 39.5955 -25 -60
    endloop
  endfacet
  facet normal -0 0 -1
    outer loop
      vertex 39.5955 -24 -60
      vertex 20 -25 -60
      vertex 20 -24 -60
    endloop
  endfacet
  facet normal -0 0 1
    outer loop
      vertex 10 -24 0
      vertex 40 -25 0
      vertex 40 -24 0
    endloop
  endfacet
  facet normal 0 0 1
    outer loop
      vertex 40 -25 0
      vertex 10 -24 0
      vertex 10 -25 0
    endloop
  endfacet
  facet normal 1 0 0
    outer loop
      vertex 10 25 0.5
      vertex 10 24 0
      vertex 10 25 0
    endloop
  endfacet
  facet normal 1 0 0
    outer loop
      vertex 10 24 0
      vertex 10 -24 0
      vertex 10 24 -0.5
    endloop
  endfacet
  facet normal 1 0 0
    outer loop
      vertex 10 25 0.5
      vertex 10 -24 0
      vertex 10 24 0
    endloop
  endfacet
  facet normal 1 -0 0
    outer loop
      vertex 10 -25 0.5
      vertex 10 -24 0
      vertex 10 25 0.5
    endloop
  endfacet
  facet normal 1 0 0
    outer loop
      vertex 10 -24 0
      vertex 10 -25 0.5
      vertex 10 -25 0
    endloop
  endfacet
  facet normal 1 0 0
    outer loop
      vertex 10 24 -0.5
      vertex 10 -24 0
      vertex 10 -24 -0.5
    endloop
  endfacet
  facet normal -0 0 1
    outer loop
      vertex -10 25 0.5
      vertex 10 -25 0.5
      vertex 10 25 0.5
    endloop
  endfacet
  facet normal 0 0 1
    outer loop
      vertex 10 -25 0.5
      vertex -10 25 0.5
      vertex -10 -25 0.5
    endloop
  endfacet
  facet normal 0 0 -1
    outer loop
      vertex -10 -25 -0.5
      vertex 0 -24 -0.5
      vertex 0 -25 -0.5
    endloop
  endfacet
  facet normal -0 0 -1
    outer loop
      vertex 0 -24 -0.5
      vertex -10 -25 -0.5
      vertex 0 24 -0.5
    endloop
  endfacet
  facet normal 0 0 -1
    outer loop
      vertex -10 25 -0.5
      vertex 0 24 -0.5
      vertex -10 -25 -0.5
    endloop
  endfacet
  facet normal 0 0 -1
    outer loop
      vertex 0 24 -0.5
      vertex -10 25 -0.5
      vertex 0 25 -0.5
    endloop
  endfacet
  facet normal 0 0 -1
    outer loop
      vertex 0 -24 -0.5
      vertex 10 24 -0.5
      vertex 10 -24 -0.5
    endloop
  endfacet
  facet normal -0 0 -1
    outer loop
      vertex 10 24 -0.5
      vertex 0 -24 -0.5
      vertex 0 24 -0.5
    endloop
  endfacet
  facet normal -1 0 0
    outer loop
      vertex -10 -25 -0.5
      vertex -10 25 0.5
      vertex -10 25 -0.5
    endloop
  endfacet
  facet normal -1 -0 0
    outer loop
      vertex -10 25 0.5
      vertex -10 -25 -0.5
      vertex -10 -25 0.5
    endloop
  endfacet
  facet normal 0.308953 0 -0.951077
    outer loop
      vertex 39.5955 24 -59.7061
      vertex 40 25 -59.5747
      vertex 40 24 -59.5747
    endloop
  endfacet
  facet normal 0.308953 0 -0.951077
    outer loop
      vertex 40 25 -59.5747
      vertex 39.5955 24 -59.7061
      vertex 39.5955 25 -59.7061
    endloop
  endfacet
  facet normal 0.308953 0 -0.951077
    outer loop
      vertex 39.5955 -25 -59.7061
      vertex 40 -24 -59.5747
      vertex 40 -25 -59.5747
    endloop
  endfacet
  facet normal 0.308953 0 -0.951077
    outer loop
      vertex 40 -24 -59.5747
      vertex 39.5955 -25 -59.7061
      vertex 39.5955 -24 -59.7061
    endloop
  endfacet
  facet normal 1 -0 0
    outer loop
      vertex 39.5955 24 -59.7061
      vertex 39.5955 25 -60
      vertex 39.5955 25 -59.7061
    endloop
  endfacet
  facet normal 1 0 0
    outer loop
      vertex 39.5955 25 -60
      vertex 39.5955 24 -59.7061
      vertex 39.5955 24 -60
    endloop
  endfacet
  facet normal 1 -0 0
    outer loop
      vertex 39.5955 -25 -59.7061
      vertex 39.5955 -24 -60
      vertex 39.5955 -24 -59.7061
    endloop
  endfacet
  facet normal 1 0 0
    outer loop
      vertex 39.5955 -24 -60
      vertex 39.5955 -25 -59.7061
      vertex 39.5955 -25 -60
    endloop
  endfacet
endsolid OpenSCAD_Model
