solid OpenSCAD_Model
  facet normal 0.98769 -0.156426 0
    outer loop
      vertex 58.6889 -12.4747 20
      vertex 59.6713 -6.27171 -20
      vertex 59.6713 -6.27171 20
    endloop
  endfacet
  facet normal 0.98769 -0.156426 0
    outer loop
      vertex 59.6713 -6.27171 -20
      vertex 58.6889 -12.4747 20
      vertex 58.6889 -12.4747 -20
    endloop
  endfacet
  facet normal 0.98769 0.156426 0
    outer loop
      vertex 59.6713 6.27171 20
      vertex 58.6889 12.4747 -20
      vertex 58.6889 12.4747 20
    endloop
  endfacet
  facet normal 0.98769 0.156426 0
    outer loop
      vertex 58.6889 12.4747 -20
      vertex 59.6713 6.27171 20
      vertex 59.6713 6.27171 -20
    endloop
  endfacet
  facet normal 0.998629 0.0523381 0
    outer loop
      vertex 60 0 20
      vertex 59.6713 6.27171 -20
      vertex 59.6713 6.27171 20
    endloop
  endfacet
  facet normal 0.998629 0.0523381 0
    outer loop
      vertex 59.6713 6.27171 -20
      vertex 60 0 20
      vertex 60 0 -20
    endloop
  endfacet
  facet normal 0.965924 0.258825 0
    outer loop
      vertex 58.6889 12.4747 20
      vertex 57.0634 18.541 -20
      vertex 57.0634 18.541 20
    endloop
  endfacet
  facet normal 0.965924 0.258825 0
    outer loop
      vertex 57.0634 18.541 -20
      vertex 58.6889 12.4747 20
      vertex 58.6889 12.4747 -20
    endloop
  endfacet
  facet normal -0.83867 0.54464 0
    outer loop
      vertex -51.9615 30 -20
      vertex -48.541 35.2671 20
      vertex -48.541 35.2671 -20
    endloop
  endfacet
  facet normal -0.83867 0.54464 0
    outer loop
      vertex -48.541 35.2671 20
      vertex -51.9615 30 -20
      vertex -51.9615 30 20
    endloop
  endfacet
  facet normal 0.83867 0.54464 0
    outer loop
      vertex 51.9615 30 20
      vertex 48.541 35.2671 -20
      vertex 48.541 35.2671 20
    endloop
  endfacet
  facet normal 0.83867 0.54464 0
    outer loop
      vertex 48.541 35.2671 -20
      vertex 51.9615 30 20
      vertex 51.9615 30 -20
    endloop
  endfacet
  facet normal 0.707107 0.707107 0
    outer loop
      vertex 44.5887 40.1478 20
      vertex 40.1478 44.5887 -20
      vertex 40.1478 44.5887 20
    endloop
  endfacet
  facet normal 0.707107 0.707107 0
    outer loop
      vertex 40.1478 44.5887 -20
      vertex 44.5887 40.1478 20
      vertex 44.5887 40.1478 -20
    endloop
  endfacet
  facet normal -0.933579 0.358372 0
    outer loop
      vertex -57.0634 18.541 -20
      vertex -54.8127 24.4042 20
      vertex -54.8127 24.4042 -20
    endloop
  endfacet
  facet normal -0.933579 0.358372 0
    outer loop
      vertex -54.8127 24.4042 20
      vertex -57.0634 18.541 -20
      vertex -57.0634 18.541 20
    endloop
  endfacet
  facet normal 0.933579 0.358372 0
    outer loop
      vertex 57.0634 18.541 20
      vertex 54.8127 24.4042 -20
      vertex 54.8127 24.4042 20
    endloop
  endfacet
  facet normal 0.933579 0.358372 0
    outer loop
      vertex 54.8127 24.4042 -20
      vertex 57.0634 18.541 20
      vertex 57.0634 18.541 -20
    endloop
  endfacet
  facet normal -0.707107 0.707107 0
    outer loop
      vertex -44.5887 40.1478 -20
      vertex -40.1478 44.5887 20
      vertex -40.1478 44.5887 -20
    endloop
  endfacet
  facet normal -0.707107 0.707107 0
    outer loop
      vertex -40.1478 44.5887 20
      vertex -44.5887 40.1478 -20
      vertex -44.5887 40.1478 20
    endloop
  endfacet
  facet normal -0.777147 0.629319 0
    outer loop
      vertex -48.541 35.2671 -20
      vertex -44.5887 40.1478 20
      vertex -44.5887 40.1478 -20
    endloop
  endfacet
  facet normal -0.777147 0.629319 0
    outer loop
      vertex -44.5887 40.1478 20
      vertex -48.541 35.2671 -20
      vertex -48.541 35.2671 20
    endloop
  endfacet
  facet normal -0.98769 0.156426 0
    outer loop
      vertex -59.6713 6.27171 -20
      vertex -58.6889 12.4747 20
      vertex -58.6889 12.4747 -20
    endloop
  endfacet
  facet normal -0.98769 0.156426 0
    outer loop
      vertex -58.6889 12.4747 20
      vertex -59.6713 6.27171 -20
      vertex -59.6713 6.27171 20
    endloop
  endfacet
  facet normal -0.45399 0.891007 0
    outer loop
      vertex -24.4042 54.8127 -20
      vertex -30 51.9615 20
      vertex -24.4042 54.8127 20
    endloop
  endfacet
  facet normal -0.45399 0.891007 0
    outer loop
      vertex -30 51.9615 20
      vertex -24.4042 54.8127 -20
      vertex -30 51.9615 -20
    endloop
  endfacet
  facet normal 0.54464 -0.83867 0
    outer loop
      vertex 30 -51.9615 -20
      vertex 35.2671 -48.541 20
      vertex 30 -51.9615 20
    endloop
  endfacet
  facet normal 0.54464 -0.83867 0
    outer loop
      vertex 35.2671 -48.541 20
      vertex 30 -51.9615 -20
      vertex 35.2671 -48.541 -20
    endloop
  endfacet
  facet normal -0.777147 -0.629319 0
    outer loop
      vertex -44.5887 -40.1478 -20
      vertex -48.541 -35.2671 20
      vertex -48.541 -35.2671 -20
    endloop
  endfacet
  facet normal -0.777147 -0.629319 0
    outer loop
      vertex -48.541 -35.2671 20
      vertex -44.5887 -40.1478 -20
      vertex -44.5887 -40.1478 20
    endloop
  endfacet
  facet normal 0.258825 -0.965924 0
    outer loop
      vertex 12.4747 -58.6889 -20
      vertex 18.541 -57.0634 20
      vertex 12.4747 -58.6889 20
    endloop
  endfacet
  facet normal 0.258825 -0.965924 0
    outer loop
      vertex 18.541 -57.0634 20
      vertex 12.4747 -58.6889 -20
      vertex 18.541 -57.0634 -20
    endloop
  endfacet
  facet normal -0.998629 -0.0523381 0
    outer loop
      vertex -59.6713 -6.27171 -20
      vertex -60 0 20
      vertex -60 0 -20
    endloop
  endfacet
  facet normal -0.998629 -0.0523381 0
    outer loop
      vertex -60 0 20
      vertex -59.6713 -6.27171 -20
      vertex -59.6713 -6.27171 20
    endloop
  endfacet
  facet normal 0.629319 -0.777147 0
    outer loop
      vertex 35.2671 -48.541 -20
      vertex 40.1478 -44.5887 20
      vertex 35.2671 -48.541 20
    endloop
  endfacet
  facet normal 0.629319 -0.777147 0
    outer loop
      vertex 40.1478 -44.5887 20
      vertex 35.2671 -48.541 -20
      vertex 40.1478 -44.5887 -20
    endloop
  endfacet
  facet normal -0.891007 0.45399 0
    outer loop
      vertex -54.8127 24.4042 -20
      vertex -51.9615 30 20
      vertex -51.9615 30 -20
    endloop
  endfacet
  facet normal -0.891007 0.45399 0
    outer loop
      vertex -51.9615 30 20
      vertex -54.8127 24.4042 -20
      vertex -54.8127 24.4042 20
    endloop
  endfacet
  facet normal -0.998629 0.0523381 0
    outer loop
      vertex -60 0 -20
      vertex -59.6713 6.27171 20
      vertex -59.6713 6.27171 -20
    endloop
  endfacet
  facet normal -0.998629 0.0523381 0
    outer loop
      vertex -59.6713 6.27171 20
      vertex -60 0 -20
      vertex -60 0 20
    endloop
  endfacet
  facet normal 0.45399 -0.891007 0
    outer loop
      vertex 24.4042 -54.8127 -20
      vertex 30 -51.9615 20
      vertex 24.4042 -54.8127 20
    endloop
  endfacet
  facet normal 0.45399 -0.891007 0
    outer loop
      vertex 30 -51.9615 20
      vertex 24.4042 -54.8127 -20
      vertex 30 -51.9615 -20
    endloop
  endfacet
  facet normal -0.891007 -0.45399 0
    outer loop
      vertex -51.9615 -30 -20
      vertex -54.8127 -24.4042 20
      vertex -54.8127 -24.4042 -20
    endloop
  endfacet
  facet normal -0.891007 -0.45399 0
    outer loop
      vertex -54.8127 -24.4042 20
      vertex -51.9615 -30 -20
      vertex -51.9615 -30 20
    endloop
  endfacet
  facet normal -0.0523381 -0.998629 0
    outer loop
      vertex -6.27171 -59.6713 -20
      vertex 0 -60 20
      vertex -6.27171 -59.6713 20
    endloop
  endfacet
  facet normal -0.0523381 -0.998629 -0
    outer loop
      vertex 0 -60 20
      vertex -6.27171 -59.6713 -20
      vertex 0 -60 -20
    endloop
  endfacet
  facet normal -0.156426 -0.98769 0
    outer loop
      vertex -12.4747 -58.6889 -20
      vertex -6.27171 -59.6713 20
      vertex -12.4747 -58.6889 20
    endloop
  endfacet
  facet normal -0.156426 -0.98769 -0
    outer loop
      vertex -6.27171 -59.6713 20
      vertex -12.4747 -58.6889 -20
      vertex -6.27171 -59.6713 -20
    endloop
  endfacet
  facet normal -0.707107 -0.707107 0
    outer loop
      vertex -40.1478 -44.5887 -20
      vertex -44.5887 -40.1478 20
      vertex -44.5887 -40.1478 -20
    endloop
  endfacet
  facet normal -0.707107 -0.707107 0
    outer loop
      vertex -44.5887 -40.1478 20
      vertex -40.1478 -44.5887 -20
      vertex -40.1478 -44.5887 20
    endloop
  endfacet
  facet normal 0.258825 0.965924 -0
    outer loop
      vertex 18.541 57.0634 -20
      vertex 12.4747 58.6889 20
      vertex 18.541 57.0634 20
    endloop
  endfacet
  facet normal 0.258825 0.965924 0
    outer loop
      vertex 12.4747 58.6889 20
      vertex 18.541 57.0634 -20
      vertex 12.4747 58.6889 -20
    endloop
  endfacet
  facet normal 0.777147 -0.629319 0
    outer loop
      vertex 44.5887 -40.1478 20
      vertex 48.541 -35.2671 -20
      vertex 48.541 -35.2671 20
    endloop
  endfacet
  facet normal 0.777147 -0.629319 0
    outer loop
      vertex 48.541 -35.2671 -20
      vertex 44.5887 -40.1478 20
      vertex 44.5887 -40.1478 -20
    endloop
  endfacet
  facet normal -0.258825 0.965924 0
    outer loop
      vertex -12.4747 58.6889 -20
      vertex -18.541 57.0634 20
      vertex -12.4747 58.6889 20
    endloop
  endfacet
  facet normal -0.258825 0.965924 0
    outer loop
      vertex -18.541 57.0634 20
      vertex -12.4747 58.6889 -20
      vertex -18.541 57.0634 -20
    endloop
  endfacet
  facet normal 0.0523381 0.998629 -0
    outer loop
      vertex 6.27171 59.6713 -20
      vertex 0 60 20
      vertex 6.27171 59.6713 20
    endloop
  endfacet
  facet normal 0.0523381 0.998629 0
    outer loop
      vertex 0 60 20
      vertex 6.27171 59.6713 -20
      vertex 0 60 -20
    endloop
  endfacet
  facet normal 0.54464 0.83867 -0
    outer loop
      vertex 35.2671 48.541 -20
      vertex 30 51.9615 20
      vertex 35.2671 48.541 20
    endloop
  endfacet
  facet normal 0.54464 0.83867 0
    outer loop
      vertex 30 51.9615 20
      vertex 35.2671 48.541 -20
      vertex 30 51.9615 -20
    endloop
  endfacet
  facet normal -0.258825 -0.965924 0
    outer loop
      vertex -18.541 -57.0634 -20
      vertex -12.4747 -58.6889 20
      vertex -18.541 -57.0634 20
    endloop
  endfacet
  facet normal -0.258825 -0.965924 -0
    outer loop
      vertex -12.4747 -58.6889 20
      vertex -18.541 -57.0634 -20
      vertex -12.4747 -58.6889 -20
    endloop
  endfacet
  facet normal 0.965924 -0.258825 0
    outer loop
      vertex 57.0634 -18.541 20
      vertex 58.6889 -12.4747 -20
      vertex 58.6889 -12.4747 20
    endloop
  endfacet
  facet normal 0.965924 -0.258825 0
    outer loop
      vertex 58.6889 -12.4747 -20
      vertex 57.0634 -18.541 20
      vertex 57.0634 -18.541 -20
    endloop
  endfacet
  facet normal -0.629319 -0.777147 0
    outer loop
      vertex -40.1478 -44.5887 -20
      vertex -35.2671 -48.541 20
      vertex -40.1478 -44.5887 20
    endloop
  endfacet
  facet normal -0.629319 -0.777147 -0
    outer loop
      vertex -35.2671 -48.541 20
      vertex -40.1478 -44.5887 -20
      vertex -35.2671 -48.541 -20
    endloop
  endfacet
  facet normal 0 0 -1
    outer loop
      vertex 59.6713 -6.27171 -20
      vertex 59.6713 6.27171 -20
      vertex 60 0 -20
    endloop
  endfacet
  facet normal 0 0 -1
    outer loop
      vertex 58.6889 -12.4747 -20
      vertex 59.6713 6.27171 -20
      vertex 59.6713 -6.27171 -20
    endloop
  endfacet
  facet normal 0 0 -1
    outer loop
      vertex 58.6889 -12.4747 -20
      vertex 58.6889 12.4747 -20
      vertex 59.6713 6.27171 -20
    endloop
  endfacet
  facet normal 0 0 -1
    outer loop
      vertex 57.0634 -18.541 -20
      vertex 58.6889 12.4747 -20
      vertex 58.6889 -12.4747 -20
    endloop
  endfacet
  facet normal 0 0 -1
    outer loop
      vertex 57.0634 -18.541 -20
      vertex 57.0634 18.541 -20
      vertex 58.6889 12.4747 -20
    endloop
  endfacet
  facet normal 0 0 -1
    outer loop
      vertex 54.8127 -24.4042 -20
      vertex 57.0634 18.541 -20
      vertex 57.0634 -18.541 -20
    endloop
  endfacet
  facet normal 0 0 -1
    outer loop
      vertex 54.8127 -24.4042 -20
      vertex 54.8127 24.4042 -20
      vertex 57.0634 18.541 -20
    endloop
  endfacet
  facet normal 0 0 -1
    outer loop
      vertex 51.9615 -30 -20
      vertex 54.8127 24.4042 -20
      vertex 54.8127 -24.4042 -20
    endloop
  endfacet
  facet normal 0 0 -1
    outer loop
      vertex 51.9615 -30 -20
      vertex 51.9615 30 -20
      vertex 54.8127 24.4042 -20
    endloop
  endfacet
  facet normal 0 0 -1
    outer loop
      vertex 48.541 -35.2671 -20
      vertex 51.9615 30 -20
      vertex 51.9615 -30 -20
    endloop
  endfacet
  facet normal 0 0 -1
    outer loop
      vertex 48.541 -35.2671 -20
      vertex 48.541 35.2671 -20
      vertex 51.9615 30 -20
    endloop
  endfacet
  facet normal 0 0 -1
    outer loop
      vertex 44.5887 -40.1478 -20
      vertex 48.541 35.2671 -20
      vertex 48.541 -35.2671 -20
    endloop
  endfacet
  facet normal 0 0 -1
    outer loop
      vertex 44.5887 -40.1478 -20
      vertex 44.5887 40.1478 -20
      vertex 48.541 35.2671 -20
    endloop
  endfacet
  facet normal 0 0 -1
    outer loop
      vertex 40.1478 -44.5887 -20
      vertex 44.5887 40.1478 -20
      vertex 44.5887 -40.1478 -20
    endloop
  endfacet
  facet normal 0 0 -1
    outer loop
      vertex 40.1478 -44.5887 -20
      vertex 40.1478 44.5887 -20
      vertex 44.5887 40.1478 -20
    endloop
  endfacet
  facet normal 0 0 -1
    outer loop
      vertex 35.2671 -48.541 -20
      vertex 40.1478 44.5887 -20
      vertex 40.1478 -44.5887 -20
    endloop
  endfacet
  facet normal 0 0 -1
    outer loop
      vertex 35.2671 -48.541 -20
      vertex 35.2671 48.541 -20
      vertex 40.1478 44.5887 -20
    endloop
  endfacet
  facet normal 0 0 -1
    outer loop
      vertex 30 -51.9615 -20
      vertex 35.2671 48.541 -20
      vertex 35.2671 -48.541 -20
    endloop
  endfacet
  facet normal 0 0 -1
    outer loop
      vertex 30 -51.9615 -20
      vertex 30 51.9615 -20
      vertex 35.2671 48.541 -20
    endloop
  endfacet
  facet normal 0 0 -1
    outer loop
      vertex 24.4042 -54.8127 -20
      vertex 30 51.9615 -20
      vertex 30 -51.9615 -20
    endloop
  endfacet
  facet normal 0 0 -1
    outer loop
      vertex 24.4042 -54.8127 -20
      vertex 24.4042 54.8127 -20
      vertex 30 51.9615 -20
    endloop
  endfacet
  facet normal 0 0 -1
    outer loop
      vertex 18.541 -57.0634 -20
      vertex 24.4042 54.8127 -20
      vertex 24.4042 -54.8127 -20
    endloop
  endfacet
  facet normal 0 0 -1
    outer loop
      vertex 18.541 -57.0634 -20
      vertex 18.541 57.0634 -20
      vertex 24.4042 54.8127 -20
    endloop
  endfacet
  facet normal 0 0 -1
    outer loop
      vertex 12.4747 -58.6889 -20
      vertex 18.541 57.0634 -20
      vertex 18.541 -57.0634 -20
    endloop
  endfacet
  facet normal 0 0 -1
    outer loop
      vertex 12.4747 -58.6889 -20
      vertex 12.4747 58.6889 -20
      vertex 18.541 57.0634 -20
    endloop
  endfacet
  facet normal 0 0 -1
    outer loop
      vertex 6.27171 -59.6713 -20
      vertex 12.4747 58.6889 -20
      vertex 12.4747 -58.6889 -20
    endloop
  endfacet
  facet normal 0 0 -1
    outer loop
      vertex 6.27171 -59.6713 -20
      vertex 6.27171 59.6713 -20
      vertex 12.4747 58.6889 -20
    endloop
  endfacet
  facet normal 0 0 -1
    outer loop
      vertex 0 -60 -20
      vertex 6.27171 59.6713 -20
      vertex 6.27171 -59.6713 -20
    endloop
  endfacet
  facet normal 0 0 -1
    outer loop
      vertex 0 -60 -20
      vertex 0 60 -20
      vertex 6.27171 59.6713 -20
    endloop
  endfacet
  facet normal 0 0 -1
    outer loop
      vertex -6.27171 -59.6713 -20
      vertex 0 60 -20
      vertex 0 -60 -20
    endloop
  endfacet
  facet normal 0 0 -1
    outer loop
      vertex -6.27171 -59.6713 -20
      vertex -6.27171 59.6713 -20
      vertex 0 60 -20
    endloop
  endfacet
  facet normal 0 0 -1
    outer loop
      vertex -12.4747 -58.6889 -20
      vertex -6.27171 59.6713 -20
      vertex -6.27171 -59.6713 -20
    endloop
  endfacet
  facet normal 0 0 -1
    outer loop
      vertex -12.4747 -58.6889 -20
      vertex -12.4747 58.6889 -20
      vertex -6.27171 59.6713 -20
    endloop
  endfacet
  facet normal 0 0 -1
    outer loop
      vertex -18.541 -57.0634 -20
      vertex -12.4747 58.6889 -20
      vertex -12.4747 -58.6889 -20
    endloop
  endfacet
  facet normal 0 0 -1
    outer loop
      vertex -18.541 -57.0634 -20
      vertex -18.541 57.0634 -20
      vertex -12.4747 58.6889 -20
    endloop
  endfacet
  facet normal 0 0 -1
    outer loop
      vertex -24.4042 -54.8127 -20
      vertex -18.541 57.0634 -20
      vertex -18.541 -57.0634 -20
    endloop
  endfacet
  facet normal 0 0 -1
    outer loop
      vertex -24.4042 -54.8127 -20
      vertex -24.4042 54.8127 -20
      vertex -18.541 57.0634 -20
    endloop
  endfacet
  facet normal 0 0 -1
    outer loop
      vertex -30 -51.9615 -20
      vertex -24.4042 54.8127 -20
      vertex -24.4042 -54.8127 -20
    endloop
  endfacet
  facet normal 0 0 -1
    outer loop
      vertex -30 -51.9615 -20
      vertex -30 51.9615 -20
      vertex -24.4042 54.8127 -20
    endloop
  endfacet
  facet normal 0 0 -1
    outer loop
      vertex -35.2671 -48.541 -20
      vertex -30 51.9615 -20
      vertex -30 -51.9615 -20
    endloop
  endfacet
  facet normal 0 0 -1
    outer loop
      vertex -35.2671 -48.541 -20
      vertex -35.2671 48.541 -20
      vertex -30 51.9615 -20
    endloop
  endfacet
  facet normal 0 0 -1
    outer loop
      vertex -40.1478 -44.5887 -20
      vertex -35.2671 48.541 -20
      vertex -35.2671 -48.541 -20
    endloop
  endfacet
  facet normal 0 0 -1
    outer loop
      vertex -40.1478 -44.5887 -20
      vertex -40.1478 44.5887 -20
      vertex -35.2671 48.541 -20
    endloop
  endfacet
  facet normal 0 0 -1
    outer loop
      vertex -44.5887 -40.1478 -20
      vertex -40.1478 44.5887 -20
      vertex -40.1478 -44.5887 -20
    endloop
  endfacet
  facet normal 0 0 -1
    outer loop
      vertex -44.5887 -40.1478 -20
      vertex -44.5887 40.1478 -20
      vertex -40.1478 44.5887 -20
    endloop
  endfacet
  facet normal 0 0 -1
    outer loop
      vertex -48.541 -35.2671 -20
      vertex -44.5887 40.1478 -20
      vertex -44.5887 -40.1478 -20
    endloop
  endfacet
  facet normal 0 0 -1
    outer loop
      vertex -48.541 -35.2671 -20
      vertex -48.541 35.2671 -20
      vertex -44.5887 40.1478 -20
    endloop
  endfacet
  facet normal 0 0 -1
    outer loop
      vertex -51.9615 -30 -20
      vertex -48.541 35.2671 -20
      vertex -48.541 -35.2671 -20
    endloop
  endfacet
  facet normal 0 0 -1
    outer loop
      vertex -51.9615 -30 -20
      vertex -51.9615 30 -20
      vertex -48.541 35.2671 -20
    endloop
  endfacet
  facet normal 0 0 -1
    outer loop
      vertex -54.8127 -24.4042 -20
      vertex -51.9615 30 -20
      vertex -51.9615 -30 -20
    endloop
  endfacet
  facet normal 0 0 -1
    outer loop
      vertex -54.8127 -24.4042 -20
      vertex -54.8127 24.4042 -20
      vertex -51.9615 30 -20
    endloop
  endfacet
  facet normal 0 0 -1
    outer loop
      vertex -57.0634 -18.541 -20
      vertex -54.8127 24.4042 -20
      vertex -54.8127 -24.4042 -20
    endloop
  endfacet
  facet normal 0 0 -1
    outer loop
      vertex -57.0634 -18.541 -20
      vertex -57.0634 18.541 -20
      vertex -54.8127 24.4042 -20
    endloop
  endfacet
  facet normal 0 0 -1
    outer loop
      vertex -58.6889 -12.4747 -20
      vertex -57.0634 18.541 -20
      vertex -57.0634 -18.541 -20
    endloop
  endfacet
  facet normal 0 0 -1
    outer loop
      vertex -58.6889 -12.4747 -20
      vertex -58.6889 12.4747 -20
      vertex -57.0634 18.541 -20
    endloop
  endfacet
  facet normal 0 0 -1
    outer loop
      vertex -59.6713 -6.27171 -20
      vertex -58.6889 12.4747 -20
      vertex -58.6889 -12.4747 -20
    endloop
  endfacet
  facet normal 0 0 -1
    outer loop
      vertex -59.6713 -6.27171 -20
      vertex -59.6713 6.27171 -20
      vertex -58.6889 12.4747 -20
    endloop
  endfacet
  facet normal 0 -0 -1
    outer loop
      vertex -59.6713 6.27171 -20
      vertex -59.6713 -6.27171 -20
      vertex -60 0 -20
    endloop
  endfacet
  facet normal 0.156426 0.98769 -0
    outer loop
      vertex 12.4747 58.6889 -20
      vertex 6.27171 59.6713 20
      vertex 12.4747 58.6889 20
    endloop
  endfacet
  facet normal 0.156426 0.98769 0
    outer loop
      vertex 6.27171 59.6713 20
      vertex 12.4747 58.6889 -20
      vertex 6.27171 59.6713 -20
    endloop
  endfacet
  facet normal 0.45399 0.891007 -0
    outer loop
      vertex 30 51.9615 -20
      vertex 24.4042 54.8127 20
      vertex 30 51.9615 20
    endloop
  endfacet
  facet normal 0.45399 0.891007 0
    outer loop
      vertex 24.4042 54.8127 20
      vertex 30 51.9615 -20
      vertex 24.4042 54.8127 -20
    endloop
  endfacet
  facet normal 0.933579 -0.358372 0
    outer loop
      vertex 54.8127 -24.4042 20
      vertex 57.0634 -18.541 -20
      vertex 57.0634 -18.541 20
    endloop
  endfacet
  facet normal 0.933579 -0.358372 0
    outer loop
      vertex 57.0634 -18.541 -20
      vertex 54.8127 -24.4042 20
      vertex 54.8127 -24.4042 -20
    endloop
  endfacet
  facet normal 0.156426 -0.98769 0
    outer loop
      vertex 6.27171 -59.6713 -20
      vertex 12.4747 -58.6889 20
      vertex 6.27171 -59.6713 20
    endloop
  endfacet
  facet normal 0.156426 -0.98769 0
    outer loop
      vertex 12.4747 -58.6889 20
      vertex 6.27171 -59.6713 -20
      vertex 12.4747 -58.6889 -20
    endloop
  endfacet
  facet normal 0.629319 0.777147 -0
    outer loop
      vertex 40.1478 44.5887 -20
      vertex 35.2671 48.541 20
      vertex 40.1478 44.5887 20
    endloop
  endfacet
  facet normal 0.629319 0.777147 0
    outer loop
      vertex 35.2671 48.541 20
      vertex 40.1478 44.5887 -20
      vertex 35.2671 48.541 -20
    endloop
  endfacet
  facet normal 0.83867 -0.54464 0
    outer loop
      vertex 48.541 -35.2671 20
      vertex 51.9615 -30 -20
      vertex 51.9615 -30 20
    endloop
  endfacet
  facet normal 0.83867 -0.54464 0
    outer loop
      vertex 51.9615 -30 -20
      vertex 48.541 -35.2671 20
      vertex 48.541 -35.2671 -20
    endloop
  endfacet
  facet normal 0.0523381 -0.998629 0
    outer loop
      vertex 0 -60 -20
      vertex 6.27171 -59.6713 20
      vertex 0 -60 20
    endloop
  endfacet
  facet normal 0.0523381 -0.998629 0
    outer loop
      vertex 6.27171 -59.6713 20
      vertex 0 -60 -20
      vertex 6.27171 -59.6713 -20
    endloop
  endfacet
  facet normal -0.933579 -0.358372 0
    outer loop
      vertex -54.8127 -24.4042 -20
      vertex -57.0634 -18.541 20
      vertex -57.0634 -18.541 -20
    endloop
  endfacet
  facet normal -0.933579 -0.358372 0
    outer loop
      vertex -57.0634 -18.541 20
      vertex -54.8127 -24.4042 -20
      vertex -54.8127 -24.4042 20
    endloop
  endfacet
  facet normal -0.0523381 0.998629 0
    outer loop
      vertex 0 60 -20
      vertex -6.27171 59.6713 20
      vertex 0 60 20
    endloop
  endfacet
  facet normal -0.0523381 0.998629 0
    outer loop
      vertex -6.27171 59.6713 20
      vertex 0 60 -20
      vertex -6.27171 59.6713 -20
    endloop
  endfacet
  facet normal 0.707107 -0.707107 0
    outer loop
      vertex 40.1478 -44.5887 20
      vertex 44.5887 -40.1478 -20
      vertex 44.5887 -40.1478 20
    endloop
  endfacet
  facet normal 0.707107 -0.707107 0
    outer loop
      vertex 44.5887 -40.1478 -20
      vertex 40.1478 -44.5887 20
      vertex 40.1478 -44.5887 -20
    endloop
  endfacet
  facet normal -0.965924 0.258825 0
    outer loop
      vertex -58.6889 12.4747 -20
      vertex -57.0634 18.541 20
      vertex -57.0634 18.541 -20
    endloop
  endfacet
  facet normal -0.965924 0.258825 0
    outer loop
      vertex -57.0634 18.541 20
      vertex -58.6889 12.4747 -20
      vertex -58.6889 12.4747 20
    endloop
  endfacet
  facet normal 0.358372 0.933579 -0
    outer loop
      vertex 24.4042 54.8127 -20
      vertex 18.541 57.0634 20
      vertex 24.4042 54.8127 20
    endloop
  endfacet
  facet normal 0.358372 0.933579 0
    outer loop
      vertex 18.541 57.0634 20
      vertex 24.4042 54.8127 -20
      vertex 18.541 57.0634 -20
    endloop
  endfacet
  facet normal 0.891007 0.45399 0
    outer loop
      vertex 54.8127 24.4042 20
      vertex 51.9615 30 -20
      vertex 51.9615 30 20
    endloop
  endfacet
  facet normal 0.891007 0.45399 0
    outer loop
      vertex 51.9615 30 -20
      vertex 54.8127 24.4042 20
      vertex 54.8127 24.4042 -20
    endloop
  endfacet
  facet normal 0.777147 0.629319 0
    outer loop
      vertex 48.541 35.2671 20
      vertex 44.5887 40.1478 -20
      vertex 44.5887 40.1478 20
    endloop
  endfacet
  facet normal 0.777147 0.629319 0
    outer loop
      vertex 44.5887 40.1478 -20
      vertex 48.541 35.2671 20
      vertex 48.541 35.2671 -20
    endloop
  endfacet
  facet normal 0.998629 -0.0523381 0
    outer loop
      vertex 59.6713 -6.27171 20
      vertex 60 0 -20
      vertex 60 0 20
    endloop
  endfacet
  facet normal 0.998629 -0.0523381 0
    outer loop
      vertex 60 0 -20
      vertex 59.6713 -6.27171 20
      vertex 59.6713 -6.27171 -20
    endloop
  endfacet
  facet normal -0.629319 0.777147 0
    outer loop
      vertex -35.2671 48.541 -20
      vertex -40.1478 44.5887 20
      vertex -35.2671 48.541 20
    endloop
  endfacet
  facet normal -0.629319 0.777147 0
    outer loop
      vertex -40.1478 44.5887 20
      vertex -35.2671 48.541 -20
      vertex -40.1478 44.5887 -20
    endloop
  endfacet
  facet normal -0.54464 0.83867 0
    outer loop
      vertex -30 51.9615 -20
      vertex -35.2671 48.541 20
      vertex -30 51.9615 20
    endloop
  endfacet
  facet normal -0.54464 0.83867 0
    outer loop
      vertex -35.2671 48.541 20
      vertex -30 51.9615 -20
      vertex -35.2671 48.541 -20
    endloop
  endfacet
  facet normal 0.358372 -0.933579 0
    outer loop
      vertex 18.541 -57.0634 -20
      vertex 24.4042 -54.8127 20
      vertex 18.541 -57.0634 20
    endloop
  endfacet
  facet normal 0.358372 -0.933579 0
    outer loop
      vertex 24.4042 -54.8127 20
      vertex 18.541 -57.0634 -20
      vertex 24.4042 -54.8127 -20
    endloop
  endfacet
  facet normal -0.45399 -0.891007 0
    outer loop
      vertex -30 -51.9615 -20
      vertex -24.4042 -54.8127 20
      vertex -30 -51.9615 20
    endloop
  endfacet
  facet normal -0.45399 -0.891007 -0
    outer loop
      vertex -24.4042 -54.8127 20
      vertex -30 -51.9615 -20
      vertex -24.4042 -54.8127 -20
    endloop
  endfacet
  facet normal -0.156426 0.98769 0
    outer loop
      vertex -6.27171 59.6713 -20
      vertex -12.4747 58.6889 20
      vertex -6.27171 59.6713 20
    endloop
  endfacet
  facet normal -0.156426 0.98769 0
    outer loop
      vertex -12.4747 58.6889 20
      vertex -6.27171 59.6713 -20
      vertex -12.4747 58.6889 -20
    endloop
  endfacet
  facet normal -0.965924 -0.258825 0
    outer loop
      vertex -57.0634 -18.541 -20
      vertex -58.6889 -12.4747 20
      vertex -58.6889 -12.4747 -20
    endloop
  endfacet
  facet normal -0.965924 -0.258825 0
    outer loop
      vertex -58.6889 -12.4747 20
      vertex -57.0634 -18.541 -20
      vertex -57.0634 -18.541 20
    endloop
  endfacet
  facet normal -0.83867 -0.54464 0
    outer loop
      vertex -48.541 -35.2671 -20
      vertex -51.9615 -30 20
      vertex -51.9615 -30 -20
    endloop
  endfacet
  facet normal -0.83867 -0.54464 0
    outer loop
      vertex -51.9615 -30 20
      vertex -48.541 -35.2671 -20
      vertex -48.541 -35.2671 20
    endloop
  endfacet
  facet normal -0.358372 -0.933579 0
    outer loop
      vertex -24.4042 -54.8127 -20
      vertex -18.541 -57.0634 20
      vertex -24.4042 -54.8127 20
    endloop
  endfacet
  facet normal -0.358372 -0.933579 -0
    outer loop
      vertex -18.541 -57.0634 20
      vertex -24.4042 -54.8127 -20
      vertex -18.541 -57.0634 -20
    endloop
  endfacet
  facet normal -0.98769 -0.156426 0
    outer loop
      vertex -58.6889 -12.4747 -20
      vertex -59.6713 -6.27171 20
      vertex -59.6713 -6.27171 -20
    endloop
  endfacet
  facet normal -0.98769 -0.156426 0
    outer loop
      vertex -59.6713 -6.27171 20
      vertex -58.6889 -12.4747 -20
      vertex -58.6889 -12.4747 20
    endloop
  endfacet
  facet normal 0.891007 -0.45399 0
    outer loop
      vertex 51.9615 -30 20
      vertex 54.8127 -24.4042 -20
      vertex 54.8127 -24.4042 20
    endloop
  endfacet
  facet normal 0.891007 -0.45399 0
    outer loop
      vertex 54.8127 -24.4042 -20
      vertex 51.9615 -30 20
      vertex 51.9615 -30 -20
    endloop
  endfacet
  facet normal -0.358372 0.933579 0
    outer loop
      vertex -18.541 57.0634 -20
      vertex -24.4042 54.8127 20
      vertex -18.541 57.0634 20
    endloop
  endfacet
  facet normal -0.358372 0.933579 0
    outer loop
      vertex -24.4042 54.8127 20
      vertex -18.541 57.0634 -20
      vertex -24.4042 54.8127 -20
    endloop
  endfacet
  facet normal 0 0 1
    outer loop
      vertex 59.6713 6.27171 20
      vertex 59.6713 -6.27171 20
      vertex 60 0 20
    endloop
  endfacet
  facet normal 0 0 1
    outer loop
      vertex 58.6889 12.4747 20
      vertex 59.6713 -6.27171 20
      vertex 59.6713 6.27171 20
    endloop
  endfacet
  facet normal 0 0 1
    outer loop
      vertex 58.6889 12.4747 20
      vertex 58.6889 -12.4747 20
      vertex 59.6713 -6.27171 20
    endloop
  endfacet
  facet normal 0 0 1
    outer loop
      vertex 57.0634 18.541 20
      vertex 58.6889 -12.4747 20
      vertex 58.6889 12.4747 20
    endloop
  endfacet
  facet normal 0 0 1
    outer loop
      vertex 57.0634 18.541 20
      vertex 57.0634 -18.541 20
      vertex 58.6889 -12.4747 20
    endloop
  endfacet
  facet normal 0 0 1
    outer loop
      vertex 54.8127 24.4042 20
      vertex 57.0634 -18.541 20
      vertex 57.0634 18.541 20
    endloop
  endfacet
  facet normal 0 0 1
    outer loop
      vertex 54.8127 24.4042 20
      vertex 54.8127 -24.4042 20
      vertex 57.0634 -18.541 20
    endloop
  endfacet
  facet normal 0 0 1
    outer loop
      vertex 51.9615 30 20
      vertex 54.8127 -24.4042 20
      vertex 54.8127 24.4042 20
    endloop
  endfacet
  facet normal 0 0 1
    outer loop
      vertex 51.9615 30 20
      vertex 51.9615 -30 20
      vertex 54.8127 -24.4042 20
    endloop
  endfacet
  facet normal 0 0 1
    outer loop
      vertex 48.541 35.2671 20
      vertex 51.9615 -30 20
      vertex 51.9615 30 20
    endloop
  endfacet
  facet normal 0 0 1
    outer loop
      vertex 48.541 35.2671 20
      vertex 48.541 -35.2671 20
      vertex 51.9615 -30 20
    endloop
  endfacet
  facet normal 0 0 1
    outer loop
      vertex 44.5887 40.1478 20
      vertex 48.541 -35.2671 20
      vertex 48.541 35.2671 20
    endloop
  endfacet
  facet normal 0 0 1
    outer loop
      vertex 44.5887 40.1478 20
      vertex 44.5887 -40.1478 20
      vertex 48.541 -35.2671 20
    endloop
  endfacet
  facet normal 0 0 1
    outer loop
      vertex 40.1478 44.5887 20
      vertex 44.5887 -40.1478 20
      vertex 44.5887 40.1478 20
    endloop
  endfacet
  facet normal 0 0 1
    outer loop
      vertex 40.1478 44.5887 20
      vertex 40.1478 -44.5887 20
      vertex 44.5887 -40.1478 20
    endloop
  endfacet
  facet normal 0 0 1
    outer loop
      vertex 35.2671 48.541 20
      vertex 40.1478 -44.5887 20
      vertex 40.1478 44.5887 20
    endloop
  endfacet
  facet normal 0 0 1
    outer loop
      vertex 35.2671 48.541 20
      vertex 35.2671 -48.541 20
      vertex 40.1478 -44.5887 20
    endloop
  endfacet
  facet normal 0 0 1
    outer loop
      vertex 30 51.9615 20
      vertex 35.2671 -48.541 20
      vertex 35.2671 48.541 20
    endloop
  endfacet
  facet normal 0 0 1
    outer loop
      vertex 30 51.9615 20
      vertex 30 -51.9615 20
      vertex 35.2671 -48.541 20
    endloop
  endfacet
  facet normal 0 0 1
    outer loop
      vertex 24.4042 54.8127 20
      vertex 30 -51.9615 20
      vertex 30 51.9615 20
    endloop
  endfacet
  facet normal 0 0 1
    outer loop
      vertex 24.4042 54.8127 20
      vertex 24.4042 -54.8127 20
      vertex 30 -51.9615 20
    endloop
  endfacet
  facet normal 0 0 1
    outer loop
      vertex 18.541 57.0634 20
      vertex 24.4042 -54.8127 20
      vertex 24.4042 54.8127 20
    endloop
  endfacet
  facet normal 0 0 1
    outer loop
      vertex 18.541 57.0634 20
      vertex 18.541 -57.0634 20
      vertex 24.4042 -54.8127 20
    endloop
  endfacet
  facet normal 0 0 1
    outer loop
      vertex 12.4747 58.6889 20
      vertex 18.541 -57.0634 20
      vertex 18.541 57.0634 20
    endloop
  endfacet
  facet normal 0 0 1
    outer loop
      vertex 12.4747 58.6889 20
      vertex 12.4747 -58.6889 20
      vertex 18.541 -57.0634 20
    endloop
  endfacet
  facet normal 0 0 1
    outer loop
      vertex 6.27171 59.6713 20
      vertex 12.4747 -58.6889 20
      vertex 12.4747 58.6889 20
    endloop
  endfacet
  facet normal 0 0 1
    outer loop
      vertex 6.27171 59.6713 20
      vertex 6.27171 -59.6713 20
      vertex 12.4747 -58.6889 20
    endloop
  endfacet
  facet normal 0 0 1
    outer loop
      vertex 0 60 20
      vertex 6.27171 -59.6713 20
      vertex 6.27171 59.6713 20
    endloop
  endfacet
  facet normal 0 0 1
    outer loop
      vertex 0 60 20
      vertex 0 -60 20
      vertex 6.27171 -59.6713 20
    endloop
  endfacet
  facet normal -0 0 1
    outer loop
      vertex -6.27171 59.6713 20
      vertex 0 -60 20
      vertex 0 60 20
    endloop
  endfacet
  facet normal 0 0 1
    outer loop
      vertex -6.27171 59.6713 20
      vertex -6.27171 -59.6713 20
      vertex 0 -60 20
    endloop
  endfacet
  facet normal -0 0 1
    outer loop
      vertex -12.4747 58.6889 20
      vertex -6.27171 -59.6713 20
      vertex -6.27171 59.6713 20
    endloop
  endfacet
  facet normal 0 0 1
    outer loop
      vertex -12.4747 58.6889 20
      vertex -12.4747 -58.6889 20
      vertex -6.27171 -59.6713 20
    endloop
  endfacet
  facet normal -0 0 1
    outer loop
      vertex -18.541 57.0634 20
      vertex -12.4747 -58.6889 20
      vertex -12.4747 58.6889 20
    endloop
  endfacet
  facet normal 0 0 1
    outer loop
      vertex -18.541 57.0634 20
      vertex -18.541 -57.0634 20
      vertex -12.4747 -58.6889 20
    endloop
  endfacet
  facet normal -0 0 1
    outer loop
      vertex -24.4042 54.8127 20
      vertex -18.541 -57.0634 20
      vertex -18.541 57.0634 20
    endloop
  endfacet
  facet normal 0 0 1
    outer loop
      vertex -24.4042 54.8127 20
      vertex -24.4042 -54.8127 20
      vertex -18.541 -57.0634 20
    endloop
  endfacet
  facet normal -0 0 1
    outer loop
      vertex -30 51.9615 20
      vertex -24.4042 -54.8127 20
      vertex -24.4042 54.8127 20
    endloop
  endfacet
  facet normal 0 0 1
    outer loop
      vertex -30 51.9615 20
      vertex -30 -51.9615 20
      vertex -24.4042 -54.8127 20
    endloop
  endfacet
  facet normal -0 0 1
    outer loop
      vertex -35.2671 48.541 20
      vertex -30 -51.9615 20
      vertex -30 51.9615 20
    endloop
  endfacet
  facet normal 0 0 1
    outer loop
      vertex -35.2671 48.541 20
      vertex -35.2671 -48.541 20
      vertex -30 -51.9615 20
    endloop
  endfacet
  facet normal -0 0 1
    outer loop
      vertex -40.1478 44.5887 20
      vertex -35.2671 -48.541 20
      vertex -35.2671 48.541 20
    endloop
  endfacet
  facet normal 0 0 1
    outer loop
      vertex -40.1478 44.5887 20
      vertex -40.1478 -44.5887 20
      vertex -35.2671 -48.541 20
    endloop
  endfacet
  facet normal -0 0 1
    outer loop
      vertex -44.5887 40.1478 20
      vertex -40.1478 -44.5887 20
      vertex -40.1478 44.5887 20
    endloop
  endfacet
  facet normal 0 0 1
    outer loop
      vertex -44.5887 40.1478 20
      vertex -44.5887 -40.1478 20
      vertex -40.1478 -44.5887 20
    endloop
  endfacet
  facet normal -0 0 1
    outer loop
      vertex -48.541 35.2671 20
      vertex -44.5887 -40.1478 20
      vertex -44.5887 40.1478 20
    endloop
  endfacet
  facet normal 0 0 1
    outer loop
      vertex -48.541 35.2671 20
      vertex -48.541 -35.2671 20
      vertex -44.5887 -40.1478 20
    endloop
  endfacet
  facet normal -0 0 1
    outer loop
      vertex -51.9615 30 20
      vertex -48.541 -35.2671 20
      vertex -48.541 35.2671 20
    endloop
  endfacet
  facet normal 0 0 1
    outer loop
      vertex -51.9615 30 20
      vertex -51.9615 -30 20
      vertex -48.541 -35.2671 20
    endloop
  endfacet
  facet normal -0 0 1
    outer loop
      vertex -54.8127 24.4042 20
      vertex -51.9615 -30 20
      vertex -51.9615 30 20
    endloop
  endfacet
  facet normal 0 0 1
    outer loop
      vertex -54.8127 24.4042 20
      vertex -54.8127 -24.4042 20
      vertex -51.9615 -30 20
    endloop
  endfacet
  facet normal -0 0 1
    outer loop
      vertex -57.0634 18.541 20
      vertex -54.8127 -24.4042 20
      vertex -54.8127 24.4042 20
    endloop
  endfacet
  facet normal 0 0 1
    outer loop
      vertex -57.0634 18.541 20
      vertex -57.0634 -18.541 20
      vertex -54.8127 -24.4042 20
    endloop
  endfacet
  facet normal -0 0 1
    outer loop
      vertex -58.6889 12.4747 20
      vertex -57.0634 -18.541 20
      vertex -57.0634 18.541 20
    endloop
  endfacet
  facet normal 0 0 1
    outer loop
      vertex -58.6889 12.4747 20
      vertex -58.6889 -12.4747 20
      vertex -57.0634 -18.541 20
    endloop
  endfacet
  facet normal -0 0 1
    outer loop
      vertex -59.6713 6.27171 20
      vertex -58.6889 -12.4747 20
      vertex -58.6889 12.4747 20
    endloop
  endfacet
  facet normal 0 0 1
    outer loop
      vertex -59.6713 6.27171 20
      vertex -59.6713 -6.27171 20
      vertex -58.6889 -12.4747 20
    endloop
  endfacet
  facet normal 0 -0 1
    outer loop
      vertex -59.6713 -6.27171 20
      vertex -59.6713 6.27171 20
      vertex -60 0 20
    endloop
  endfacet
  facet normal -0.54464 -0.83867 0
    outer loop
      vertex -35.2671 -48.541 -20
      vertex -30 -51.9615 20
      vertex -35.2671 -48.541 20
    endloop
  endfacet
  facet normal -0.54464 -0.83867 -0
    outer loop
      vertex -30 -51.9615 20
      vertex -35.2671 -48.541 -20
      vertex -30 -51.9615 -20
    endloop
  endfacet
endsolid OpenSCAD_Model
