solid OpenSCAD_Model
  facet normal 0 1 -0
    outer loop
      vertex 40 28.125 64.5
      vertex 30 28.125 65.5
      vertex 50 28.125 65.5
    endloop
  endfacet
  facet normal 0 1 0
    outer loop
      vertex 40 28.125 64.5
      vertex 50 28.125 65.5
      vertex 50 28.125 64.5
    endloop
  endfacet
  facet normal 0 1 0
    outer loop
      vertex 30 28.125 65.5
      vertex 40 28.125 64.5
      vertex 30 28.125 65
    endloop
  endfacet
  facet normal 0 1 -0
    outer loop
      vertex 40 28.125 45
      vertex 30 28.125 65
      vertex 40 28.125 64.5
    endloop
  endfacet
  facet normal 0 1 0
    outer loop
      vertex 30 28.125 65
      vertex 40 28.125 45
      vertex 0 28.125 65
    endloop
  endfacet
  facet normal 0 1 0
    outer loop
      vertex 0 28.125 65
      vertex 40 28.125 45
      vertex -10 28.125 50
    endloop
  endfacet
  facet normal 0 1 -0
    outer loop
      vertex 10 28.125 -10
      vertex -10 28.125 50
      vertex 40 28.125 45
    endloop
  endfacet
  facet normal 0 1 0
    outer loop
      vertex -10 28.125 50
      vertex 10 28.125 -10
      vertex -10 28.125 -10
    endloop
  endfacet
  facet normal 0.877896 0 -0.478852
    outer loop
      vertex 40 27.125 45
      vertex 10 28.125 -10
      vertex 40 28.125 45
    endloop
  endfacet
  facet normal 0.877896 0 -0.478852
    outer loop
      vertex 10 28.125 -10
      vertex 40 27.125 45
      vertex 10 27.125 -10
    endloop
  endfacet
  facet normal -1 0 0
    outer loop
      vertex -10 27.125 -10
      vertex -10 28.125 50
      vertex -10 28.125 -10
    endloop
  endfacet
  facet normal -1 -0 0
    outer loop
      vertex -10 28.125 50
      vertex -10 27.125 -10
      vertex -10 27.125 50
    endloop
  endfacet
  facet normal 1 -0 0
    outer loop
      vertex 40 27.125 64.5
      vertex 40 28.125 45
      vertex 40 28.125 64.5
    endloop
  endfacet
  facet normal 1 0 0
    outer loop
      vertex 40 28.125 45
      vertex 40 27.125 64.5
      vertex 40 27.125 45
    endloop
  endfacet
  facet normal -0.83205 0 0.5547
    outer loop
      vertex -10 27.125 50
      vertex 0 28.125 65
      vertex -10 28.125 50
    endloop
  endfacet
  facet normal -0.83205 0 0.5547
    outer loop
      vertex 0 28.125 65
      vertex -10 27.125 50
      vertex 0 27.125 65
    endloop
  endfacet
  facet normal -0 0 1
    outer loop
      vertex 0 28.125 65
      vertex 30 27.125 65
      vertex 30 28.125 65
    endloop
  endfacet
  facet normal 0 0 1
    outer loop
      vertex 30 27.125 65
      vertex 0 28.125 65
      vertex 0 27.125 65
    endloop
  endfacet
  facet normal 0 0 -1
    outer loop
      vertex -10 27.125 -10
      vertex 10 28.125 -10
      vertex 10 27.125 -10
    endloop
  endfacet
  facet normal -0 0 -1
    outer loop
      vertex 10 28.125 -10
      vertex -10 27.125 -10
      vertex -10 28.125 -10
    endloop
  endfacet
  facet normal 0 -1 0
    outer loop
      vertex 0 27.125 65
      vertex 30 27.125 64.5
      vertex 30 27.125 65
    endloop
  endfacet
  facet normal 0 -1 0
    outer loop
      vertex -10 27.125 50
      vertex 30 27.125 64.5
      vertex 0 27.125 65
    endloop
  endfacet
  facet normal 0 -1 0
    outer loop
      vertex 40 27.125 45
      vertex 30 27.125 64.5
      vertex -10 27.125 50
    endloop
  endfacet
  facet normal 0 -1 0
    outer loop
      vertex 30 27.125 64.5
      vertex 40 27.125 45
      vertex 40 27.125 64.5
    endloop
  endfacet
  facet normal 0 -1 0
    outer loop
      vertex 10 27.125 -10
      vertex -10 27.125 50
      vertex -10 27.125 -10
    endloop
  endfacet
  facet normal 0 -1 0
    outer loop
      vertex -10 27.125 50
      vertex 10 27.125 -10
      vertex 40 27.125 45
    endloop
  endfacet
  facet normal 0.877896 0 -0.478852
    outer loop
      vertex 40 -28.125 45
      vertex 10 -27.125 -10
      vertex 40 -27.125 45
    endloop
  endfacet
  facet normal 0.877896 0 -0.478852
    outer loop
      vertex 10 -27.125 -10
      vertex 40 -28.125 45
      vertex 10 -28.125 -10
    endloop
  endfacet
  facet normal 0 -1 0
    outer loop
      vertex 40 -28.125 45
      vertex 30 -28.125 65
      vertex 0 -28.125 65
    endloop
  endfacet
  facet normal 0 -1 0
    outer loop
      vertex 40 -28.125 45
      vertex 0 -28.125 65
      vertex -10 -28.125 50
    endloop
  endfacet
  facet normal 0 -1 0
    outer loop
      vertex 30 -28.125 65
      vertex 40 -28.125 45
      vertex 40 -28.125 64.5
    endloop
  endfacet
  facet normal 0 -1 0
    outer loop
      vertex 10 -28.125 -10
      vertex -10 -28.125 50
      vertex -10 -28.125 -10
    endloop
  endfacet
  facet normal 0 -1 0
    outer loop
      vertex -10 -28.125 50
      vertex 10 -28.125 -10
      vertex 40 -28.125 45
    endloop
  endfacet
  facet normal 0 -1 0
    outer loop
      vertex 40 -28.125 64.5
      vertex 30 -28.125 65.5
      vertex 30 -28.125 65
    endloop
  endfacet
  facet normal 0 -1 0
    outer loop
      vertex 30 -28.125 65.5
      vertex 40 -28.125 64.5
      vertex 50 -28.125 65.5
    endloop
  endfacet
  facet normal 0 -1 -0
    outer loop
      vertex 50 -28.125 65.5
      vertex 40 -28.125 64.5
      vertex 50 -28.125 64.5
    endloop
  endfacet
  facet normal 1 -0 0
    outer loop
      vertex 40 -28.125 64.5
      vertex 40 -27.125 45
      vertex 40 -27.125 64.5
    endloop
  endfacet
  facet normal 1 0 0
    outer loop
      vertex 40 -27.125 45
      vertex 40 -28.125 64.5
      vertex 40 -28.125 45
    endloop
  endfacet
  facet normal -0.83205 0 0.5547
    outer loop
      vertex -10 -28.125 50
      vertex 0 -27.125 65
      vertex -10 -27.125 50
    endloop
  endfacet
  facet normal -0.83205 0 0.5547
    outer loop
      vertex 0 -27.125 65
      vertex -10 -28.125 50
      vertex 0 -28.125 65
    endloop
  endfacet
  facet normal 0 0 -1
    outer loop
      vertex -10 -28.125 -10
      vertex 10 -27.125 -10
      vertex 10 -28.125 -10
    endloop
  endfacet
  facet normal -0 0 -1
    outer loop
      vertex 10 -27.125 -10
      vertex -10 -28.125 -10
      vertex -10 -27.125 -10
    endloop
  endfacet
  facet normal -0 0 1
    outer loop
      vertex 0 -27.125 65
      vertex 30 -28.125 65
      vertex 30 -27.125 65
    endloop
  endfacet
  facet normal 0 0 1
    outer loop
      vertex 30 -28.125 65
      vertex 0 -27.125 65
      vertex 0 -28.125 65
    endloop
  endfacet
  facet normal -1 0 0
    outer loop
      vertex -10 -28.125 -10
      vertex -10 -27.125 50
      vertex -10 -27.125 -10
    endloop
  endfacet
  facet normal -1 -0 0
    outer loop
      vertex -10 -27.125 50
      vertex -10 -28.125 -10
      vertex -10 -28.125 50
    endloop
  endfacet
  facet normal 0 1 -0
    outer loop
      vertex 40 -27.125 45
      vertex 30 -27.125 64.5
      vertex 40 -27.125 64.5
    endloop
  endfacet
  facet normal 0 1 0
    outer loop
      vertex 30 -27.125 64.5
      vertex 40 -27.125 45
      vertex -10 -27.125 50
    endloop
  endfacet
  facet normal 0 1 -0
    outer loop
      vertex 10 -27.125 -10
      vertex -10 -27.125 50
      vertex 40 -27.125 45
    endloop
  endfacet
  facet normal 0 1 0
    outer loop
      vertex -10 -27.125 50
      vertex 10 -27.125 -10
      vertex -10 -27.125 -10
    endloop
  endfacet
  facet normal 0 1 -0
    outer loop
      vertex 30 -27.125 64.5
      vertex 0 -27.125 65
      vertex 30 -27.125 65
    endloop
  endfacet
  facet normal 0 1 0
    outer loop
      vertex 0 -27.125 65
      vertex 30 -27.125 64.5
      vertex -10 -27.125 50
    endloop
  endfacet
  facet normal 1 -0 0
    outer loop
      vertex 50 -28.125 65.5
      vertex 50 28.125 64.5
      vertex 50 28.125 65.5
    endloop
  endfacet
  facet normal 1 0 0
    outer loop
      vertex 50 28.125 64.5
      vertex 50 -28.125 65.5
      vertex 50 -28.125 64.5
    endloop
  endfacet
  facet normal -0 0 1
    outer loop
      vertex 30 28.125 65.5
      vertex 50 -28.125 65.5
      vertex 50 28.125 65.5
    endloop
  endfacet
  facet normal 0 0 1
    outer loop
      vertex 50 -28.125 65.5
      vertex 30 28.125 65.5
      vertex 30 -28.125 65.5
    endloop
  endfacet
  facet normal 0 0 -1
    outer loop
      vertex 30 -27.125 64.5
      vertex 40 27.125 64.5
      vertex 40 -27.125 64.5
    endloop
  endfacet
  facet normal -0 0 -1
    outer loop
      vertex 40 27.125 64.5
      vertex 30 -27.125 64.5
      vertex 30 27.125 64.5
    endloop
  endfacet
  facet normal 0 0 -1
    outer loop
      vertex 40 -27.125 64.5
      vertex 50 -28.125 64.5
      vertex 40 -28.125 64.5
    endloop
  endfacet
  facet normal 0 0 -1
    outer loop
      vertex 50 -28.125 64.5
      vertex 40 -27.125 64.5
      vertex 50 28.125 64.5
    endloop
  endfacet
  facet normal 0 0 -1
    outer loop
      vertex 40 27.125 64.5
      vertex 50 28.125 64.5
      vertex 40 -27.125 64.5
    endloop
  endfacet
  facet normal -0 0 -1
    outer loop
      vertex 50 28.125 64.5
      vertex 40 27.125 64.5
      vertex 40 28.125 64.5
    endloop
  endfacet
  facet normal -1 0 0
    outer loop
      vertex 30 27.125 64.5
      vertex 30 -27.125 64.5
      vertex 30 27.125 65
    endloop
  endfacet
  facet normal -1 0 0
    outer loop
      vertex 30 27.125 65
      vertex 30 28.125 65.5
      vertex 30 28.125 65
    endloop
  endfacet
  facet normal -1 0 0
    outer loop
      vertex 30 -27.125 65
      vertex 30 27.125 65
      vertex 30 -27.125 64.5
    endloop
  endfacet
  facet normal -1 0 0
    outer loop
      vertex 30 27.125 65
      vertex 30 -27.125 65
      vertex 30 28.125 65.5
    endloop
  endfacet
  facet normal -1 0 0
    outer loop
      vertex 30 -28.125 65.5
      vertex 30 -27.125 65
      vertex 30 -28.125 65
    endloop
  endfacet
  facet normal -1 0 0
    outer loop
      vertex 30 -27.125 65
      vertex 30 -28.125 65.5
      vertex 30 28.125 65.5
    endloop
  endfacet
endsolid OpenSCAD_Model
