solid OpenSCAD_Model
  facet normal -0.406738 -0.913545 0
    outer loop
      vertex -35 -60.6218 -25
      vertex -21.6312 -66.574 25
      vertex -35 -60.6218 25
    endloop
  endfacet
  facet normal -0.406738 -0.913545 -0
    outer loop
      vertex -21.6312 -66.574 25
      vertex -35 -60.6218 -25
      vertex -21.6312 -66.574 -25
    endloop
  endfacet
  facet normal -0.951058 -0.309013 0
    outer loop
      vertex -63.9482 -28.4716 -25
      vertex -68.4703 -14.5538 25
      vertex -68.4703 -14.5538 -25
    endloop
  endfacet
  facet normal -0.951058 -0.309013 0
    outer loop
      vertex -68.4703 -14.5538 25
      vertex -63.9482 -28.4716 -25
      vertex -63.9482 -28.4716 25
    endloop
  endfacet
  facet normal 0.951058 0.309013 0
    outer loop
      vertex 68.4703 14.5538 25
      vertex 63.9482 28.4716 -25
      vertex 63.9482 28.4716 25
    endloop
  endfacet
  facet normal 0.951058 0.309013 0
    outer loop
      vertex 63.9482 28.4716 -25
      vertex 68.4703 14.5538 25
      vertex 68.4703 14.5538 -25
    endloop
  endfacet
  facet normal 0.994522 0.104531 0
    outer loop
      vertex 70 0 25
      vertex 68.4703 14.5538 -25
      vertex 68.4703 14.5538 25
    endloop
  endfacet
  facet normal 0.994522 0.104531 0
    outer loop
      vertex 68.4703 14.5538 -25
      vertex 70 0 25
      vertex 70 0 -25
    endloop
  endfacet
  facet normal 0.866025 0.5 0
    outer loop
      vertex 63.9482 28.4716 25
      vertex 56.6312 41.145 -25
      vertex 56.6312 41.145 25
    endloop
  endfacet
  facet normal 0.866025 0.5 0
    outer loop
      vertex 56.6312 41.145 -25
      vertex 63.9482 28.4716 25
      vertex 63.9482 28.4716 -25
    endloop
  endfacet
  facet normal 0.587789 -0.809014 0
    outer loop
      vertex 35 -60.6218 -25
      vertex 46.8391 -52.0201 25
      vertex 35 -60.6218 25
    endloop
  endfacet
  facet normal 0.587789 -0.809014 0
    outer loop
      vertex 46.8391 -52.0201 25
      vertex 35 -60.6218 -25
      vertex 46.8391 -52.0201 -25
    endloop
  endfacet
  facet normal 0.406738 0.913545 -0
    outer loop
      vertex 35 60.6218 -25
      vertex 21.6312 66.574 25
      vertex 35 60.6218 25
    endloop
  endfacet
  facet normal 0.406738 0.913545 0
    outer loop
      vertex 21.6312 66.574 25
      vertex 35 60.6218 -25
      vertex 21.6312 66.574 -25
    endloop
  endfacet
  facet normal 0.994522 -0.104531 0
    outer loop
      vertex 68.4703 -14.5538 25
      vertex 70 0 -25
      vertex 70 0 25
    endloop
  endfacet
  facet normal 0.994522 -0.104531 0
    outer loop
      vertex 70 0 -25
      vertex 68.4703 -14.5538 25
      vertex 68.4703 -14.5538 -25
    endloop
  endfacet
  facet normal 0.743141 0.669135 0
    outer loop
      vertex 56.6312 41.145 25
      vertex 46.8391 52.0201 -25
      vertex 46.8391 52.0201 25
    endloop
  endfacet
  facet normal 0.743141 0.669135 0
    outer loop
      vertex 46.8391 52.0201 -25
      vertex 56.6312 41.145 25
      vertex 56.6312 41.145 -25
    endloop
  endfacet
  facet normal -0.866025 0.5 0
    outer loop
      vertex -63.9482 28.4716 -25
      vertex -56.6312 41.145 25
      vertex -56.6312 41.145 -25
    endloop
  endfacet
  facet normal -0.866025 0.5 0
    outer loop
      vertex -56.6312 41.145 25
      vertex -63.9482 28.4716 -25
      vertex -63.9482 28.4716 25
    endloop
  endfacet
  facet normal 0.743141 -0.669135 0
    outer loop
      vertex 46.8391 -52.0201 25
      vertex 56.6312 -41.145 -25
      vertex 56.6312 -41.145 25
    endloop
  endfacet
  facet normal 0.743141 -0.669135 0
    outer loop
      vertex 56.6312 -41.145 -25
      vertex 46.8391 -52.0201 25
      vertex 46.8391 -52.0201 -25
    endloop
  endfacet
  facet normal -0.743141 0.669135 0
    outer loop
      vertex -56.6312 41.145 -25
      vertex -46.8391 52.0201 25
      vertex -46.8391 52.0201 -25
    endloop
  endfacet
  facet normal -0.743141 0.669135 0
    outer loop
      vertex -46.8391 52.0201 25
      vertex -56.6312 41.145 -25
      vertex -56.6312 41.145 25
    endloop
  endfacet
  facet normal 0.866025 -0.5 0
    outer loop
      vertex 56.6312 -41.145 25
      vertex 63.9482 -28.4716 -25
      vertex 63.9482 -28.4716 25
    endloop
  endfacet
  facet normal 0.866025 -0.5 0
    outer loop
      vertex 63.9482 -28.4716 -25
      vertex 56.6312 -41.145 25
      vertex 56.6312 -41.145 -25
    endloop
  endfacet
  facet normal -0.587789 0.809014 0
    outer loop
      vertex -35 60.6218 -25
      vertex -46.8391 52.0201 25
      vertex -35 60.6218 25
    endloop
  endfacet
  facet normal -0.587789 0.809014 0
    outer loop
      vertex -46.8391 52.0201 25
      vertex -35 60.6218 -25
      vertex -46.8391 52.0201 -25
    endloop
  endfacet
  facet normal 0 0 1
    outer loop
      vertex 10 0 25
      vertex 70 0 25
      vertex 68.4703 14.5538 25
    endloop
  endfacet
  facet normal 0 0 1
    outer loop
      vertex 9.78148 2.07912 25
      vertex 68.4703 14.5538 25
      vertex 63.9482 28.4716 25
    endloop
  endfacet
  facet normal 0 0 1
    outer loop
      vertex 70 0 25
      vertex 10 0 25
      vertex 68.4703 -14.5538 25
    endloop
  endfacet
  facet normal 0 0 1
    outer loop
      vertex 9.13545 4.06737 25
      vertex 63.9482 28.4716 25
      vertex 56.6312 41.145 25
    endloop
  endfacet
  facet normal -0 0 1
    outer loop
      vertex 9.78148 -2.07912 25
      vertex 68.4703 -14.5538 25
      vertex 10 0 25
    endloop
  endfacet
  facet normal 0 0 1
    outer loop
      vertex 8.09017 5.87785 25
      vertex 56.6312 41.145 25
      vertex 46.8391 52.0201 25
    endloop
  endfacet
  facet normal 0 0 1
    outer loop
      vertex 68.4703 -14.5538 25
      vertex 9.78148 -2.07912 25
      vertex 63.9482 -28.4716 25
    endloop
  endfacet
  facet normal 0 0 1
    outer loop
      vertex 6.69131 7.43145 25
      vertex 46.8391 52.0201 25
      vertex 35 60.6218 25
    endloop
  endfacet
  facet normal -0 0 1
    outer loop
      vertex 9.13545 -4.06737 25
      vertex 63.9482 -28.4716 25
      vertex 9.78148 -2.07912 25
    endloop
  endfacet
  facet normal 0 0 1
    outer loop
      vertex 5 8.66025 25
      vertex 35 60.6218 25
      vertex 21.6312 66.574 25
    endloop
  endfacet
  facet normal 0 0 1
    outer loop
      vertex 63.9482 -28.4716 25
      vertex 9.13545 -4.06737 25
      vertex 56.6312 -41.145 25
    endloop
  endfacet
  facet normal -0 0 1
    outer loop
      vertex 8.09017 -5.87785 25
      vertex 56.6312 -41.145 25
      vertex 9.13545 -4.06737 25
    endloop
  endfacet
  facet normal 0 0 1
    outer loop
      vertex 68.4703 14.5538 25
      vertex 9.78148 2.07912 25
      vertex 10 0 25
    endloop
  endfacet
  facet normal 0 0 1
    outer loop
      vertex 63.9482 28.4716 25
      vertex 9.13545 4.06737 25
      vertex 9.78148 2.07912 25
    endloop
  endfacet
  facet normal 0 0 1
    outer loop
      vertex 56.6312 41.145 25
      vertex 8.09017 5.87785 25
      vertex 9.13545 4.06737 25
    endloop
  endfacet
  facet normal 0 0 1
    outer loop
      vertex 3.09017 9.51056 25
      vertex 21.6312 66.574 25
      vertex 7.31699 69.6165 25
    endloop
  endfacet
  facet normal 0 0 1
    outer loop
      vertex 46.8391 52.0201 25
      vertex 6.69131 7.43145 25
      vertex 8.09017 5.87785 25
    endloop
  endfacet
  facet normal 0 0 1
    outer loop
      vertex 35 60.6218 25
      vertex 5 8.66025 25
      vertex 6.69131 7.43145 25
    endloop
  endfacet
  facet normal 0 0 1
    outer loop
      vertex 21.6312 66.574 25
      vertex 3.09017 9.51056 25
      vertex 5 8.66025 25
    endloop
  endfacet
  facet normal 0 0 1
    outer loop
      vertex 7.31699 69.6165 25
      vertex 1.04528 9.94522 25
      vertex 3.09017 9.51056 25
    endloop
  endfacet
  facet normal 0 0 1
    outer loop
      vertex 7.31699 69.6165 25
      vertex -1.04528 9.94522 25
      vertex 1.04528 9.94522 25
    endloop
  endfacet
  facet normal -0 0 1
    outer loop
      vertex -7.31699 69.6165 25
      vertex -1.04528 9.94522 25
      vertex 7.31699 69.6165 25
    endloop
  endfacet
  facet normal 0 0 1
    outer loop
      vertex -1.04528 9.94522 25
      vertex -7.31699 69.6165 25
      vertex -3.09017 9.51056 25
    endloop
  endfacet
  facet normal -0 0 1
    outer loop
      vertex -21.6312 66.574 25
      vertex -3.09017 9.51056 25
      vertex -7.31699 69.6165 25
    endloop
  endfacet
  facet normal 0 0 1
    outer loop
      vertex -3.09017 9.51056 25
      vertex -21.6312 66.574 25
      vertex -5 8.66025 25
    endloop
  endfacet
  facet normal -0 0 1
    outer loop
      vertex -35 60.6218 25
      vertex -5 8.66025 25
      vertex -21.6312 66.574 25
    endloop
  endfacet
  facet normal 0 0 1
    outer loop
      vertex -5 8.66025 25
      vertex -35 60.6218 25
      vertex -6.69131 7.43145 25
    endloop
  endfacet
  facet normal -0 0 1
    outer loop
      vertex -46.8391 52.0201 25
      vertex -6.69131 7.43145 25
      vertex -35 60.6218 25
    endloop
  endfacet
  facet normal 0 0 1
    outer loop
      vertex -6.69131 7.43145 25
      vertex -46.8391 52.0201 25
      vertex -8.09017 5.87785 25
    endloop
  endfacet
  facet normal -0 0 1
    outer loop
      vertex -56.6312 41.145 25
      vertex -8.09017 5.87785 25
      vertex -46.8391 52.0201 25
    endloop
  endfacet
  facet normal 0 0 1
    outer loop
      vertex 56.6312 -41.145 25
      vertex 8.09017 -5.87785 25
      vertex 46.8391 -52.0201 25
    endloop
  endfacet
  facet normal -0 0 1
    outer loop
      vertex 6.69131 -7.43145 25
      vertex 46.8391 -52.0201 25
      vertex 8.09017 -5.87785 25
    endloop
  endfacet
  facet normal 0 0 1
    outer loop
      vertex 46.8391 -52.0201 25
      vertex 6.69131 -7.43145 25
      vertex 35 -60.6218 25
    endloop
  endfacet
  facet normal -0 0 1
    outer loop
      vertex 5 -8.66025 25
      vertex 35 -60.6218 25
      vertex 6.69131 -7.43145 25
    endloop
  endfacet
  facet normal 0 0 1
    outer loop
      vertex 35 -60.6218 25
      vertex 5 -8.66025 25
      vertex 21.6312 -66.574 25
    endloop
  endfacet
  facet normal -0 0 1
    outer loop
      vertex 3.09017 -9.51056 25
      vertex 21.6312 -66.574 25
      vertex 5 -8.66025 25
    endloop
  endfacet
  facet normal 0 0 1
    outer loop
      vertex 21.6312 -66.574 25
      vertex 3.09017 -9.51056 25
      vertex 7.31699 -69.6165 25
    endloop
  endfacet
  facet normal -0 0 1
    outer loop
      vertex 1.04528 -9.94522 25
      vertex 7.31699 -69.6165 25
      vertex 3.09017 -9.51056 25
    endloop
  endfacet
  facet normal -0 0 1
    outer loop
      vertex -1.04528 -9.94522 25
      vertex 7.31699 -69.6165 25
      vertex 1.04528 -9.94522 25
    endloop
  endfacet
  facet normal 0 0 1
    outer loop
      vertex -7.31699 -69.6165 25
      vertex -1.04528 -9.94522 25
      vertex -3.09017 -9.51056 25
    endloop
  endfacet
  facet normal 0 0 1
    outer loop
      vertex -21.6312 -66.574 25
      vertex -3.09017 -9.51056 25
      vertex -5 -8.66025 25
    endloop
  endfacet
  facet normal 0 0 1
    outer loop
      vertex -35 -60.6218 25
      vertex -5 -8.66025 25
      vertex -6.69131 -7.43145 25
    endloop
  endfacet
  facet normal 0 0 1
    outer loop
      vertex -1.04528 -9.94522 25
      vertex -7.31699 -69.6165 25
      vertex 7.31699 -69.6165 25
    endloop
  endfacet
  facet normal 0 0 1
    outer loop
      vertex -46.8391 -52.0201 25
      vertex -6.69131 -7.43145 25
      vertex -8.09017 -5.87785 25
    endloop
  endfacet
  facet normal 0 0 1
    outer loop
      vertex -56.6312 -41.145 25
      vertex -8.09017 -5.87785 25
      vertex -9.13545 -4.06737 25
    endloop
  endfacet
  facet normal 0 0 1
    outer loop
      vertex -63.9482 -28.4716 25
      vertex -9.13545 -4.06737 25
      vertex -9.78148 -2.07912 25
    endloop
  endfacet
  facet normal 0 0 1
    outer loop
      vertex -68.4703 -14.5538 25
      vertex -9.78148 -2.07912 25
      vertex -10 0 25
    endloop
  endfacet
  facet normal 0 0 1
    outer loop
      vertex -8.09017 5.87785 25
      vertex -56.6312 41.145 25
      vertex -9.13545 4.06737 25
    endloop
  endfacet
  facet normal 0 0 1
    outer loop
      vertex -3.09017 -9.51056 25
      vertex -21.6312 -66.574 25
      vertex -7.31699 -69.6165 25
    endloop
  endfacet
  facet normal -0 0 1
    outer loop
      vertex -63.9482 28.4716 25
      vertex -9.13545 4.06737 25
      vertex -56.6312 41.145 25
    endloop
  endfacet
  facet normal 0 0 1
    outer loop
      vertex -5 -8.66025 25
      vertex -35 -60.6218 25
      vertex -21.6312 -66.574 25
    endloop
  endfacet
  facet normal 0 0 1
    outer loop
      vertex -9.13545 4.06737 25
      vertex -63.9482 28.4716 25
      vertex -9.78148 2.07912 25
    endloop
  endfacet
  facet normal 0 0 1
    outer loop
      vertex -6.69131 -7.43145 25
      vertex -46.8391 -52.0201 25
      vertex -35 -60.6218 25
    endloop
  endfacet
  facet normal -0 0 1
    outer loop
      vertex -68.4703 14.5538 25
      vertex -9.78148 2.07912 25
      vertex -63.9482 28.4716 25
    endloop
  endfacet
  facet normal 0 0 1
    outer loop
      vertex -8.09017 -5.87785 25
      vertex -56.6312 -41.145 25
      vertex -46.8391 -52.0201 25
    endloop
  endfacet
  facet normal 0 0 1
    outer loop
      vertex -9.78148 2.07912 25
      vertex -68.4703 14.5538 25
      vertex -10 0 25
    endloop
  endfacet
  facet normal 0 0 1
    outer loop
      vertex -9.13545 -4.06737 25
      vertex -63.9482 -28.4716 25
      vertex -56.6312 -41.145 25
    endloop
  endfacet
  facet normal 0 0 1
    outer loop
      vertex -70 0 25
      vertex -10 0 25
      vertex -68.4703 14.5538 25
    endloop
  endfacet
  facet normal 0 0 1
    outer loop
      vertex -9.78148 -2.07912 25
      vertex -68.4703 -14.5538 25
      vertex -63.9482 -28.4716 25
    endloop
  endfacet
  facet normal 0 0 1
    outer loop
      vertex -10 0 25
      vertex -70 0 25
      vertex -68.4703 -14.5538 25
    endloop
  endfacet
  facet normal 0.951058 -0.309013 0
    outer loop
      vertex 63.9482 -28.4716 25
      vertex 68.4703 -14.5538 -25
      vertex 68.4703 -14.5538 25
    endloop
  endfacet
  facet normal 0.951058 -0.309013 0
    outer loop
      vertex 68.4703 -14.5538 -25
      vertex 63.9482 -28.4716 25
      vertex 63.9482 -28.4716 -25
    endloop
  endfacet
  facet normal 0 1 -0
    outer loop
      vertex 7.31699 69.6165 -25
      vertex -7.31699 69.6165 25
      vertex 7.31699 69.6165 25
    endloop
  endfacet
  facet normal 0 1 0
    outer loop
      vertex -7.31699 69.6165 25
      vertex 7.31699 69.6165 -25
      vertex -7.31699 69.6165 -25
    endloop
  endfacet
  facet normal -0.587789 -0.809014 0
    outer loop
      vertex -46.8391 -52.0201 -25
      vertex -35 -60.6218 25
      vertex -46.8391 -52.0201 25
    endloop
  endfacet
  facet normal -0.587789 -0.809014 -0
    outer loop
      vertex -35 -60.6218 25
      vertex -46.8391 -52.0201 -25
      vertex -35 -60.6218 -25
    endloop
  endfacet
  facet normal 0 0 -1
    outer loop
      vertex 10 0 -25
      vertex 70 0 -25
      vertex 68.4703 -14.5538 -25
    endloop
  endfacet
  facet normal 0 0 -1
    outer loop
      vertex 9.78148 -2.07912 -25
      vertex 68.4703 -14.5538 -25
      vertex 63.9482 -28.4716 -25
    endloop
  endfacet
  facet normal 0 0 -1
    outer loop
      vertex 70 0 -25
      vertex 10 0 -25
      vertex 68.4703 14.5538 -25
    endloop
  endfacet
  facet normal 0 0 -1
    outer loop
      vertex 9.13545 -4.06737 -25
      vertex 63.9482 -28.4716 -25
      vertex 56.6312 -41.145 -25
    endloop
  endfacet
  facet normal 0 0 -1
    outer loop
      vertex 9.78148 2.07912 -25
      vertex 68.4703 14.5538 -25
      vertex 10 0 -25
    endloop
  endfacet
  facet normal 0 0 -1
    outer loop
      vertex 8.09017 -5.87785 -25
      vertex 56.6312 -41.145 -25
      vertex 46.8391 -52.0201 -25
    endloop
  endfacet
  facet normal -0 0 -1
    outer loop
      vertex 68.4703 14.5538 -25
      vertex 9.78148 2.07912 -25
      vertex 63.9482 28.4716 -25
    endloop
  endfacet
  facet normal 0 0 -1
    outer loop
      vertex 6.69131 -7.43145 -25
      vertex 46.8391 -52.0201 -25
      vertex 35 -60.6218 -25
    endloop
  endfacet
  facet normal 0 0 -1
    outer loop
      vertex 9.13545 4.06737 -25
      vertex 63.9482 28.4716 -25
      vertex 9.78148 2.07912 -25
    endloop
  endfacet
  facet normal 0 0 -1
    outer loop
      vertex 5 -8.66025 -25
      vertex 35 -60.6218 -25
      vertex 21.6312 -66.574 -25
    endloop
  endfacet
  facet normal -0 0 -1
    outer loop
      vertex 63.9482 28.4716 -25
      vertex 9.13545 4.06737 -25
      vertex 56.6312 41.145 -25
    endloop
  endfacet
  facet normal 0 0 -1
    outer loop
      vertex 8.09017 5.87785 -25
      vertex 56.6312 41.145 -25
      vertex 9.13545 4.06737 -25
    endloop
  endfacet
  facet normal 0 0 -1
    outer loop
      vertex 68.4703 -14.5538 -25
      vertex 9.78148 -2.07912 -25
      vertex 10 0 -25
    endloop
  endfacet
  facet normal 0 0 -1
    outer loop
      vertex 63.9482 -28.4716 -25
      vertex 9.13545 -4.06737 -25
      vertex 9.78148 -2.07912 -25
    endloop
  endfacet
  facet normal 0 0 -1
    outer loop
      vertex 56.6312 -41.145 -25
      vertex 8.09017 -5.87785 -25
      vertex 9.13545 -4.06737 -25
    endloop
  endfacet
  facet normal 0 0 -1
    outer loop
      vertex 3.09017 -9.51056 -25
      vertex 21.6312 -66.574 -25
      vertex 7.31699 -69.6165 -25
    endloop
  endfacet
  facet normal 0 0 -1
    outer loop
      vertex 46.8391 -52.0201 -25
      vertex 6.69131 -7.43145 -25
      vertex 8.09017 -5.87785 -25
    endloop
  endfacet
  facet normal 0 0 -1
    outer loop
      vertex 35 -60.6218 -25
      vertex 5 -8.66025 -25
      vertex 6.69131 -7.43145 -25
    endloop
  endfacet
  facet normal 0 0 -1
    outer loop
      vertex 21.6312 -66.574 -25
      vertex 3.09017 -9.51056 -25
      vertex 5 -8.66025 -25
    endloop
  endfacet
  facet normal 0 0 -1
    outer loop
      vertex 7.31699 -69.6165 -25
      vertex 1.04528 -9.94522 -25
      vertex 3.09017 -9.51056 -25
    endloop
  endfacet
  facet normal 0 0 -1
    outer loop
      vertex 7.31699 -69.6165 -25
      vertex -1.04528 -9.94522 -25
      vertex 1.04528 -9.94522 -25
    endloop
  endfacet
  facet normal 0 0 -1
    outer loop
      vertex -7.31699 -69.6165 -25
      vertex -1.04528 -9.94522 -25
      vertex 7.31699 -69.6165 -25
    endloop
  endfacet
  facet normal -0 0 -1
    outer loop
      vertex -1.04528 -9.94522 -25
      vertex -7.31699 -69.6165 -25
      vertex -3.09017 -9.51056 -25
    endloop
  endfacet
  facet normal 0 0 -1
    outer loop
      vertex -21.6312 -66.574 -25
      vertex -3.09017 -9.51056 -25
      vertex -7.31699 -69.6165 -25
    endloop
  endfacet
  facet normal -0 0 -1
    outer loop
      vertex -3.09017 -9.51056 -25
      vertex -21.6312 -66.574 -25
      vertex -5 -8.66025 -25
    endloop
  endfacet
  facet normal 0 0 -1
    outer loop
      vertex -35 -60.6218 -25
      vertex -5 -8.66025 -25
      vertex -21.6312 -66.574 -25
    endloop
  endfacet
  facet normal -0 0 -1
    outer loop
      vertex -5 -8.66025 -25
      vertex -35 -60.6218 -25
      vertex -6.69131 -7.43145 -25
    endloop
  endfacet
  facet normal 0 0 -1
    outer loop
      vertex -46.8391 -52.0201 -25
      vertex -6.69131 -7.43145 -25
      vertex -35 -60.6218 -25
    endloop
  endfacet
  facet normal -0 0 -1
    outer loop
      vertex -6.69131 -7.43145 -25
      vertex -46.8391 -52.0201 -25
      vertex -8.09017 -5.87785 -25
    endloop
  endfacet
  facet normal 0 0 -1
    outer loop
      vertex -56.6312 -41.145 -25
      vertex -8.09017 -5.87785 -25
      vertex -46.8391 -52.0201 -25
    endloop
  endfacet
  facet normal -0 0 -1
    outer loop
      vertex 56.6312 41.145 -25
      vertex 8.09017 5.87785 -25
      vertex 46.8391 52.0201 -25
    endloop
  endfacet
  facet normal 0 0 -1
    outer loop
      vertex 6.69131 7.43145 -25
      vertex 46.8391 52.0201 -25
      vertex 8.09017 5.87785 -25
    endloop
  endfacet
  facet normal -0 0 -1
    outer loop
      vertex 46.8391 52.0201 -25
      vertex 6.69131 7.43145 -25
      vertex 35 60.6218 -25
    endloop
  endfacet
  facet normal 0 0 -1
    outer loop
      vertex 5 8.66025 -25
      vertex 35 60.6218 -25
      vertex 6.69131 7.43145 -25
    endloop
  endfacet
  facet normal -0 0 -1
    outer loop
      vertex 35 60.6218 -25
      vertex 5 8.66025 -25
      vertex 21.6312 66.574 -25
    endloop
  endfacet
  facet normal 0 0 -1
    outer loop
      vertex 3.09017 9.51056 -25
      vertex 21.6312 66.574 -25
      vertex 5 8.66025 -25
    endloop
  endfacet
  facet normal -0 0 -1
    outer loop
      vertex 21.6312 66.574 -25
      vertex 3.09017 9.51056 -25
      vertex 7.31699 69.6165 -25
    endloop
  endfacet
  facet normal 0 0 -1
    outer loop
      vertex 1.04528 9.94522 -25
      vertex 7.31699 69.6165 -25
      vertex 3.09017 9.51056 -25
    endloop
  endfacet
  facet normal 0 0 -1
    outer loop
      vertex -1.04528 9.94522 -25
      vertex 7.31699 69.6165 -25
      vertex 1.04528 9.94522 -25
    endloop
  endfacet
  facet normal 0 0 -1
    outer loop
      vertex -7.31699 69.6165 -25
      vertex -1.04528 9.94522 -25
      vertex -3.09017 9.51056 -25
    endloop
  endfacet
  facet normal 0 0 -1
    outer loop
      vertex -21.6312 66.574 -25
      vertex -3.09017 9.51056 -25
      vertex -5 8.66025 -25
    endloop
  endfacet
  facet normal 0 0 -1
    outer loop
      vertex -35 60.6218 -25
      vertex -5 8.66025 -25
      vertex -6.69131 7.43145 -25
    endloop
  endfacet
  facet normal 0 0 -1
    outer loop
      vertex -1.04528 9.94522 -25
      vertex -7.31699 69.6165 -25
      vertex 7.31699 69.6165 -25
    endloop
  endfacet
  facet normal 0 0 -1
    outer loop
      vertex -46.8391 52.0201 -25
      vertex -6.69131 7.43145 -25
      vertex -8.09017 5.87785 -25
    endloop
  endfacet
  facet normal 0 0 -1
    outer loop
      vertex -56.6312 41.145 -25
      vertex -8.09017 5.87785 -25
      vertex -9.13545 4.06737 -25
    endloop
  endfacet
  facet normal 0 0 -1
    outer loop
      vertex -63.9482 28.4716 -25
      vertex -9.13545 4.06737 -25
      vertex -9.78148 2.07912 -25
    endloop
  endfacet
  facet normal 0 0 -1
    outer loop
      vertex -68.4703 14.5538 -25
      vertex -9.78148 2.07912 -25
      vertex -10 0 -25
    endloop
  endfacet
  facet normal -0 0 -1
    outer loop
      vertex -8.09017 -5.87785 -25
      vertex -56.6312 -41.145 -25
      vertex -9.13545 -4.06737 -25
    endloop
  endfacet
  facet normal 0 0 -1
    outer loop
      vertex -3.09017 9.51056 -25
      vertex -21.6312 66.574 -25
      vertex -7.31699 69.6165 -25
    endloop
  endfacet
  facet normal 0 0 -1
    outer loop
      vertex -63.9482 -28.4716 -25
      vertex -9.13545 -4.06737 -25
      vertex -56.6312 -41.145 -25
    endloop
  endfacet
  facet normal 0 0 -1
    outer loop
      vertex -5 8.66025 -25
      vertex -35 60.6218 -25
      vertex -21.6312 66.574 -25
    endloop
  endfacet
  facet normal -0 0 -1
    outer loop
      vertex -9.13545 -4.06737 -25
      vertex -63.9482 -28.4716 -25
      vertex -9.78148 -2.07912 -25
    endloop
  endfacet
  facet normal 0 0 -1
    outer loop
      vertex -6.69131 7.43145 -25
      vertex -46.8391 52.0201 -25
      vertex -35 60.6218 -25
    endloop
  endfacet
  facet normal 0 0 -1
    outer loop
      vertex -68.4703 -14.5538 -25
      vertex -9.78148 -2.07912 -25
      vertex -63.9482 -28.4716 -25
    endloop
  endfacet
  facet normal 0 0 -1
    outer loop
      vertex -8.09017 5.87785 -25
      vertex -56.6312 41.145 -25
      vertex -46.8391 52.0201 -25
    endloop
  endfacet
  facet normal -0 0 -1
    outer loop
      vertex -9.78148 -2.07912 -25
      vertex -68.4703 -14.5538 -25
      vertex -10 0 -25
    endloop
  endfacet
  facet normal 0 0 -1
    outer loop
      vertex -9.13545 4.06737 -25
      vertex -63.9482 28.4716 -25
      vertex -56.6312 41.145 -25
    endloop
  endfacet
  facet normal 0 0 -1
    outer loop
      vertex -70 0 -25
      vertex -10 0 -25
      vertex -68.4703 -14.5538 -25
    endloop
  endfacet
  facet normal 0 0 -1
    outer loop
      vertex -9.78148 2.07912 -25
      vertex -68.4703 14.5538 -25
      vertex -63.9482 28.4716 -25
    endloop
  endfacet
  facet normal 0 0 -1
    outer loop
      vertex -10 0 -25
      vertex -70 0 -25
      vertex -68.4703 14.5538 -25
    endloop
  endfacet
  facet normal -0.406738 0.913545 0
    outer loop
      vertex -21.6312 66.574 -25
      vertex -35 60.6218 25
      vertex -21.6312 66.574 25
    endloop
  endfacet
  facet normal -0.406738 0.913545 0
    outer loop
      vertex -35 60.6218 25
      vertex -21.6312 66.574 -25
      vertex -35 60.6218 -25
    endloop
  endfacet
  facet normal -0.994522 -0.104531 0
    outer loop
      vertex -68.4703 -14.5538 -25
      vertex -70 0 25
      vertex -70 0 -25
    endloop
  endfacet
  facet normal -0.994522 -0.104531 0
    outer loop
      vertex -70 0 25
      vertex -68.4703 -14.5538 -25
      vertex -68.4703 -14.5538 25
    endloop
  endfacet
  facet normal -0.743141 -0.669135 0
    outer loop
      vertex -46.8391 -52.0201 -25
      vertex -56.6312 -41.145 25
      vertex -56.6312 -41.145 -25
    endloop
  endfacet
  facet normal -0.743141 -0.669135 0
    outer loop
      vertex -56.6312 -41.145 25
      vertex -46.8391 -52.0201 -25
      vertex -46.8391 -52.0201 25
    endloop
  endfacet
  facet normal -0.866025 -0.5 0
    outer loop
      vertex -56.6312 -41.145 -25
      vertex -63.9482 -28.4716 25
      vertex -63.9482 -28.4716 -25
    endloop
  endfacet
  facet normal -0.866025 -0.5 0
    outer loop
      vertex -63.9482 -28.4716 25
      vertex -56.6312 -41.145 -25
      vertex -56.6312 -41.145 25
    endloop
  endfacet
  facet normal 0.207907 -0.978149 0
    outer loop
      vertex 7.31699 -69.6165 -25
      vertex 21.6312 -66.574 25
      vertex 7.31699 -69.6165 25
    endloop
  endfacet
  facet normal 0.207907 -0.978149 0
    outer loop
      vertex 21.6312 -66.574 25
      vertex 7.31699 -69.6165 -25
      vertex 21.6312 -66.574 -25
    endloop
  endfacet
  facet normal -0.994522 0.104531 0
    outer loop
      vertex -70 0 -25
      vertex -68.4703 14.5538 25
      vertex -68.4703 14.5538 -25
    endloop
  endfacet
  facet normal -0.994522 0.104531 0
    outer loop
      vertex -68.4703 14.5538 25
      vertex -70 0 -25
      vertex -70 0 25
    endloop
  endfacet
  facet normal 0.207907 0.978149 -0
    outer loop
      vertex 21.6312 66.574 -25
      vertex 7.31699 69.6165 25
      vertex 21.6312 66.574 25
    endloop
  endfacet
  facet normal 0.207907 0.978149 0
    outer loop
      vertex 7.31699 69.6165 25
      vertex 21.6312 66.574 -25
      vertex 7.31699 69.6165 -25
    endloop
  endfacet
  facet normal 0.587789 0.809014 -0
    outer loop
      vertex 46.8391 52.0201 -25
      vertex 35 60.6218 25
      vertex 46.8391 52.0201 25
    endloop
  endfacet
  facet normal 0.587789 0.809014 0
    outer loop
      vertex 35 60.6218 25
      vertex 46.8391 52.0201 -25
      vertex 35 60.6218 -25
    endloop
  endfacet
  facet normal -0.207907 0.978149 0
    outer loop
      vertex -7.31699 69.6165 -25
      vertex -21.6312 66.574 25
      vertex -7.31699 69.6165 25
    endloop
  endfacet
  facet normal -0.207907 0.978149 0
    outer loop
      vertex -21.6312 66.574 25
      vertex -7.31699 69.6165 -25
      vertex -21.6312 66.574 -25
    endloop
  endfacet
  facet normal 0.406738 -0.913545 0
    outer loop
      vertex 21.6312 -66.574 -25
      vertex 35 -60.6218 25
      vertex 21.6312 -66.574 25
    endloop
  endfacet
  facet normal 0.406738 -0.913545 0
    outer loop
      vertex 35 -60.6218 25
      vertex 21.6312 -66.574 -25
      vertex 35 -60.6218 -25
    endloop
  endfacet
  facet normal 0 -1 0
    outer loop
      vertex -7.31699 -69.6165 -25
      vertex 7.31699 -69.6165 25
      vertex -7.31699 -69.6165 25
    endloop
  endfacet
  facet normal 0 -1 -0
    outer loop
      vertex 7.31699 -69.6165 25
      vertex -7.31699 -69.6165 -25
      vertex 7.31699 -69.6165 -25
    endloop
  endfacet
  facet normal -0.207907 -0.978149 0
    outer loop
      vertex -21.6312 -66.574 -25
      vertex -7.31699 -69.6165 25
      vertex -21.6312 -66.574 25
    endloop
  endfacet
  facet normal -0.207907 -0.978149 -0
    outer loop
      vertex -7.31699 -69.6165 25
      vertex -21.6312 -66.574 -25
      vertex -7.31699 -69.6165 -25
    endloop
  endfacet
  facet normal -0.951058 0.309013 0
    outer loop
      vertex -68.4703 14.5538 -25
      vertex -63.9482 28.4716 25
      vertex -63.9482 28.4716 -25
    endloop
  endfacet
  facet normal -0.951058 0.309013 0
    outer loop
      vertex -63.9482 28.4716 25
      vertex -68.4703 14.5538 -25
      vertex -68.4703 14.5538 25
    endloop
  endfacet
  facet normal 0.743147 0.669129 0
    outer loop
      vertex -6.69131 -7.43145 25
      vertex -8.09017 -5.87785 -25
      vertex -8.09017 -5.87785 25
    endloop
  endfacet
  facet normal 0.743147 0.669129 0
    outer loop
      vertex -8.09017 -5.87785 -25
      vertex -6.69131 -7.43145 25
      vertex -6.69131 -7.43145 -25
    endloop
  endfacet
  facet normal -0.951055 -0.309021 0
    outer loop
      vertex 9.78148 2.07912 -25
      vertex 9.13545 4.06737 25
      vertex 9.13545 4.06737 -25
    endloop
  endfacet
  facet normal -0.951055 -0.309021 0
    outer loop
      vertex 9.13545 4.06737 25
      vertex 9.78148 2.07912 -25
      vertex 9.78148 2.07912 25
    endloop
  endfacet
  facet normal -0.994522 -0.104526 0
    outer loop
      vertex 10 0 -25
      vertex 9.78148 2.07912 25
      vertex 9.78148 2.07912 -25
    endloop
  endfacet
  facet normal -0.994522 -0.104526 0
    outer loop
      vertex 9.78148 2.07912 25
      vertex 10 0 -25
      vertex 10 0 25
    endloop
  endfacet
  facet normal -0.866026 -0.5 0
    outer loop
      vertex 9.13545 4.06737 -25
      vertex 8.09017 5.87785 25
      vertex 8.09017 5.87785 -25
    endloop
  endfacet
  facet normal -0.866026 -0.5 0
    outer loop
      vertex 8.09017 5.87785 25
      vertex 9.13545 4.06737 -25
      vertex 9.13545 4.06737 25
    endloop
  endfacet
  facet normal -0.951055 0.309021 0
    outer loop
      vertex 9.13545 -4.06737 -25
      vertex 9.78148 -2.07912 25
      vertex 9.78148 -2.07912 -25
    endloop
  endfacet
  facet normal -0.951055 0.309021 0
    outer loop
      vertex 9.78148 -2.07912 25
      vertex 9.13545 -4.06737 -25
      vertex 9.13545 -4.06737 25
    endloop
  endfacet
  facet normal 0.587783 -0.809019 0
    outer loop
      vertex -6.69131 7.43145 -25
      vertex -5 8.66025 25
      vertex -6.69131 7.43145 25
    endloop
  endfacet
  facet normal 0.587783 -0.809019 0
    outer loop
      vertex -5 8.66025 25
      vertex -6.69131 7.43145 -25
      vertex -5 8.66025 -25
    endloop
  endfacet
  facet normal -0.587783 0.809019 0
    outer loop
      vertex 6.69131 -7.43145 -25
      vertex 5 -8.66025 25
      vertex 6.69131 -7.43145 25
    endloop
  endfacet
  facet normal -0.587783 0.809019 0
    outer loop
      vertex 5 -8.66025 25
      vertex 6.69131 -7.43145 -25
      vertex 5 -8.66025 -25
    endloop
  endfacet
  facet normal -0.743147 0.669129 0
    outer loop
      vertex 6.69131 -7.43145 -25
      vertex 8.09017 -5.87785 25
      vertex 8.09017 -5.87785 -25
    endloop
  endfacet
  facet normal -0.743147 0.669129 0
    outer loop
      vertex 8.09017 -5.87785 25
      vertex 6.69131 -7.43145 -25
      vertex 6.69131 -7.43145 25
    endloop
  endfacet
  facet normal -0.994522 0.104526 0
    outer loop
      vertex 9.78148 -2.07912 -25
      vertex 10 0 25
      vertex 10 0 -25
    endloop
  endfacet
  facet normal -0.994522 0.104526 0
    outer loop
      vertex 10 0 25
      vertex 9.78148 -2.07912 -25
      vertex 9.78148 -2.07912 25
    endloop
  endfacet
  facet normal 0.406736 0.913546 -0
    outer loop
      vertex -3.09017 -9.51056 -25
      vertex -5 -8.66025 25
      vertex -3.09017 -9.51056 25
    endloop
  endfacet
  facet normal 0.406736 0.913546 0
    outer loop
      vertex -5 -8.66025 25
      vertex -3.09017 -9.51056 -25
      vertex -5 -8.66025 -25
    endloop
  endfacet
  facet normal -0.406736 -0.913546 0
    outer loop
      vertex 3.09017 9.51056 -25
      vertex 5 8.66025 25
      vertex 3.09017 9.51056 25
    endloop
  endfacet
  facet normal -0.406736 -0.913546 -0
    outer loop
      vertex 5 8.66025 25
      vertex 3.09017 9.51056 -25
      vertex 5 8.66025 -25
    endloop
  endfacet
  facet normal -0.743147 -0.669129 0
    outer loop
      vertex 8.09017 5.87785 -25
      vertex 6.69131 7.43145 25
      vertex 6.69131 7.43145 -25
    endloop
  endfacet
  facet normal -0.743147 -0.669129 0
    outer loop
      vertex 6.69131 7.43145 25
      vertex 8.09017 5.87785 -25
      vertex 8.09017 5.87785 25
    endloop
  endfacet
  facet normal 0.587783 0.809019 -0
    outer loop
      vertex -5 -8.66025 -25
      vertex -6.69131 -7.43145 25
      vertex -5 -8.66025 25
    endloop
  endfacet
  facet normal 0.587783 0.809019 0
    outer loop
      vertex -6.69131 -7.43145 25
      vertex -5 -8.66025 -25
      vertex -6.69131 -7.43145 -25
    endloop
  endfacet
  facet normal 0.743147 -0.669129 0
    outer loop
      vertex -8.09017 5.87785 25
      vertex -6.69131 7.43145 -25
      vertex -6.69131 7.43145 25
    endloop
  endfacet
  facet normal 0.743147 -0.669129 0
    outer loop
      vertex -6.69131 7.43145 -25
      vertex -8.09017 5.87785 25
      vertex -8.09017 5.87785 -25
    endloop
  endfacet
  facet normal 0 -1 0
    outer loop
      vertex -1.04528 9.94522 -25
      vertex 1.04528 9.94522 25
      vertex -1.04528 9.94522 25
    endloop
  endfacet
  facet normal 0 -1 -0
    outer loop
      vertex 1.04528 9.94522 25
      vertex -1.04528 9.94522 -25
      vertex 1.04528 9.94522 -25
    endloop
  endfacet
  facet normal -0.406736 0.913546 0
    outer loop
      vertex 5 -8.66025 -25
      vertex 3.09017 -9.51056 25
      vertex 5 -8.66025 25
    endloop
  endfacet
  facet normal -0.406736 0.913546 0
    outer loop
      vertex 3.09017 -9.51056 25
      vertex 5 -8.66025 -25
      vertex 3.09017 -9.51056 -25
    endloop
  endfacet
  facet normal -0.207914 0.978147 0
    outer loop
      vertex 3.09017 -9.51056 -25
      vertex 1.04528 -9.94522 25
      vertex 3.09017 -9.51056 25
    endloop
  endfacet
  facet normal -0.207914 0.978147 0
    outer loop
      vertex 1.04528 -9.94522 25
      vertex 3.09017 -9.51056 -25
      vertex 1.04528 -9.94522 -25
    endloop
  endfacet
  facet normal 0.951055 -0.309021 0
    outer loop
      vertex -9.78148 2.07912 25
      vertex -9.13545 4.06737 -25
      vertex -9.13545 4.06737 25
    endloop
  endfacet
  facet normal 0.951055 -0.309021 0
    outer loop
      vertex -9.13545 4.06737 -25
      vertex -9.78148 2.07912 25
      vertex -9.78148 2.07912 -25
    endloop
  endfacet
  facet normal 0.951055 0.309021 0
    outer loop
      vertex -9.13545 -4.06737 25
      vertex -9.78148 -2.07912 -25
      vertex -9.78148 -2.07912 25
    endloop
  endfacet
  facet normal 0.951055 0.309021 0
    outer loop
      vertex -9.78148 -2.07912 -25
      vertex -9.13545 -4.06737 25
      vertex -9.13545 -4.06737 -25
    endloop
  endfacet
  facet normal 0.406736 -0.913546 0
    outer loop
      vertex -5 8.66025 -25
      vertex -3.09017 9.51056 25
      vertex -5 8.66025 25
    endloop
  endfacet
  facet normal 0.406736 -0.913546 0
    outer loop
      vertex -3.09017 9.51056 25
      vertex -5 8.66025 -25
      vertex -3.09017 9.51056 -25
    endloop
  endfacet
  facet normal 0.207914 0.978147 -0
    outer loop
      vertex -1.04528 -9.94522 -25
      vertex -3.09017 -9.51056 25
      vertex -1.04528 -9.94522 25
    endloop
  endfacet
  facet normal 0.207914 0.978147 0
    outer loop
      vertex -3.09017 -9.51056 25
      vertex -1.04528 -9.94522 -25
      vertex -3.09017 -9.51056 -25
    endloop
  endfacet
  facet normal -0.207914 -0.978147 0
    outer loop
      vertex 1.04528 9.94522 -25
      vertex 3.09017 9.51056 25
      vertex 1.04528 9.94522 25
    endloop
  endfacet
  facet normal -0.207914 -0.978147 -0
    outer loop
      vertex 3.09017 9.51056 25
      vertex 1.04528 9.94522 -25
      vertex 3.09017 9.51056 -25
    endloop
  endfacet
  facet normal 0.994522 0.104526 0
    outer loop
      vertex -9.78148 -2.07912 25
      vertex -10 0 -25
      vertex -10 0 25
    endloop
  endfacet
  facet normal 0.994522 0.104526 0
    outer loop
      vertex -10 0 -25
      vertex -9.78148 -2.07912 25
      vertex -9.78148 -2.07912 -25
    endloop
  endfacet
  facet normal 0.866026 0.5 0
    outer loop
      vertex -8.09017 -5.87785 25
      vertex -9.13545 -4.06737 -25
      vertex -9.13545 -4.06737 25
    endloop
  endfacet
  facet normal 0.866026 0.5 0
    outer loop
      vertex -9.13545 -4.06737 -25
      vertex -8.09017 -5.87785 25
      vertex -8.09017 -5.87785 -25
    endloop
  endfacet
  facet normal 0.866026 -0.5 0
    outer loop
      vertex -9.13545 4.06737 25
      vertex -8.09017 5.87785 -25
      vertex -8.09017 5.87785 25
    endloop
  endfacet
  facet normal 0.866026 -0.5 0
    outer loop
      vertex -8.09017 5.87785 -25
      vertex -9.13545 4.06737 25
      vertex -9.13545 4.06737 -25
    endloop
  endfacet
  facet normal -0.866026 0.5 0
    outer loop
      vertex 8.09017 -5.87785 -25
      vertex 9.13545 -4.06737 25
      vertex 9.13545 -4.06737 -25
    endloop
  endfacet
  facet normal -0.866026 0.5 0
    outer loop
      vertex 9.13545 -4.06737 25
      vertex 8.09017 -5.87785 -25
      vertex 8.09017 -5.87785 25
    endloop
  endfacet
  facet normal -0.587783 -0.809019 0
    outer loop
      vertex 5 8.66025 -25
      vertex 6.69131 7.43145 25
      vertex 5 8.66025 25
    endloop
  endfacet
  facet normal -0.587783 -0.809019 -0
    outer loop
      vertex 6.69131 7.43145 25
      vertex 5 8.66025 -25
      vertex 6.69131 7.43145 -25
    endloop
  endfacet
  facet normal 0.207914 -0.978147 0
    outer loop
      vertex -3.09017 9.51056 -25
      vertex -1.04528 9.94522 25
      vertex -3.09017 9.51056 25
    endloop
  endfacet
  facet normal 0.207914 -0.978147 0
    outer loop
      vertex -1.04528 9.94522 25
      vertex -3.09017 9.51056 -25
      vertex -1.04528 9.94522 -25
    endloop
  endfacet
  facet normal 0 1 -0
    outer loop
      vertex 1.04528 -9.94522 -25
      vertex -1.04528 -9.94522 25
      vertex 1.04528 -9.94522 25
    endloop
  endfacet
  facet normal 0 1 0
    outer loop
      vertex -1.04528 -9.94522 25
      vertex 1.04528 -9.94522 -25
      vertex -1.04528 -9.94522 -25
    endloop
  endfacet
  facet normal 0.994522 -0.104526 0
    outer loop
      vertex -10 0 25
      vertex -9.78148 2.07912 -25
      vertex -9.78148 2.07912 25
    endloop
  endfacet
  facet normal 0.994522 -0.104526 0
    outer loop
      vertex -9.78148 2.07912 -25
      vertex -10 0 25
      vertex -10 0 -25
    endloop
  endfacet
endsolid OpenSCAD_Model
