solid OpenSCAD_Model
  facet normal -0.743145 -0.66913 0
    outer loop
      vertex -40.1478 -44.5887 -15
      vertex -48.541 -35.2671 15
      vertex -48.541 -35.2671 -15
    endloop
  endfacet
  facet normal -0.743145 -0.66913 0
    outer loop
      vertex -48.541 -35.2671 15
      vertex -40.1478 -44.5887 -15
      vertex -40.1478 -44.5887 15
    endloop
  endfacet
  facet normal 0.951055 0.309022 0
    outer loop
      vertex 58.6889 12.4747 15
      vertex 54.8127 24.4042 -15
      vertex 54.8127 24.4042 15
    endloop
  endfacet
  facet normal 0.951055 0.309022 0
    outer loop
      vertex 54.8127 24.4042 -15
      vertex 58.6889 12.4747 15
      vertex 58.6889 12.4747 -15
    endloop
  endfacet
  facet normal 0.994522 0.104525 0
    outer loop
      vertex 60 0 15
      vertex 58.6889 12.4747 -15
      vertex 58.6889 12.4747 15
    endloop
  endfacet
  facet normal 0.994522 0.104525 0
    outer loop
      vertex 58.6889 12.4747 -15
      vertex 60 0 15
      vertex 60 0 -15
    endloop
  endfacet
  facet normal 0.866025 0.5 0
    outer loop
      vertex 54.8127 24.4042 15
      vertex 48.541 35.2671 -15
      vertex 48.541 35.2671 15
    endloop
  endfacet
  facet normal 0.866025 0.5 0
    outer loop
      vertex 48.541 35.2671 -15
      vertex 54.8127 24.4042 15
      vertex 54.8127 24.4042 -15
    endloop
  endfacet
  facet normal 0.951055 -0.309022 0
    outer loop
      vertex 54.8127 -24.4042 15
      vertex 58.6889 -12.4747 -15
      vertex 58.6889 -12.4747 15
    endloop
  endfacet
  facet normal 0.951055 -0.309022 0
    outer loop
      vertex 58.6889 -12.4747 -15
      vertex 54.8127 -24.4042 15
      vertex 54.8127 -24.4042 -15
    endloop
  endfacet
  facet normal 0.587785 -0.809017 0
    outer loop
      vertex 30 -51.9615 -15
      vertex 40.1478 -44.5887 15
      vertex 30 -51.9615 15
    endloop
  endfacet
  facet normal 0.587785 -0.809017 0
    outer loop
      vertex 40.1478 -44.5887 15
      vertex 30 -51.9615 -15
      vertex 40.1478 -44.5887 -15
    endloop
  endfacet
  facet normal 0.743145 -0.66913 0
    outer loop
      vertex 40.1478 -44.5887 15
      vertex 48.541 -35.2671 -15
      vertex 48.541 -35.2671 15
    endloop
  endfacet
  facet normal 0.743145 -0.66913 0
    outer loop
      vertex 48.541 -35.2671 -15
      vertex 40.1478 -44.5887 15
      vertex 40.1478 -44.5887 -15
    endloop
  endfacet
  facet normal 0.994522 -0.104525 0
    outer loop
      vertex 58.6889 -12.4747 15
      vertex 60 0 -15
      vertex 60 0 15
    endloop
  endfacet
  facet normal 0.994522 -0.104525 0
    outer loop
      vertex 60 0 -15
      vertex 58.6889 -12.4747 15
      vertex 58.6889 -12.4747 -15
    endloop
  endfacet
  facet normal -0.406738 -0.913545 0
    outer loop
      vertex -30 -51.9615 -15
      vertex -18.541 -57.0634 15
      vertex -30 -51.9615 15
    endloop
  endfacet
  facet normal -0.406738 -0.913545 -0
    outer loop
      vertex -18.541 -57.0634 15
      vertex -30 -51.9615 -15
      vertex -18.541 -57.0634 -15
    endloop
  endfacet
  facet normal 0.406738 0.913545 -0
    outer loop
      vertex 30 51.9615 -15
      vertex 18.541 57.0634 15
      vertex 30 51.9615 15
    endloop
  endfacet
  facet normal 0.406738 0.913545 0
    outer loop
      vertex 18.541 57.0634 15
      vertex 30 51.9615 -15
      vertex 18.541 57.0634 -15
    endloop
  endfacet
  facet normal 0.743145 0.66913 0
    outer loop
      vertex 48.541 35.2671 15
      vertex 40.1478 44.5887 -15
      vertex 40.1478 44.5887 15
    endloop
  endfacet
  facet normal 0.743145 0.66913 0
    outer loop
      vertex 40.1478 44.5887 -15
      vertex 48.541 35.2671 15
      vertex 48.541 35.2671 -15
    endloop
  endfacet
  facet normal -0.587785 -0.809017 0
    outer loop
      vertex -40.1478 -44.5887 -15
      vertex -30 -51.9615 15
      vertex -40.1478 -44.5887 15
    endloop
  endfacet
  facet normal -0.587785 -0.809017 -0
    outer loop
      vertex -30 -51.9615 15
      vertex -40.1478 -44.5887 -15
      vertex -30 -51.9615 -15
    endloop
  endfacet
  facet normal -0.743145 0.66913 0
    outer loop
      vertex -48.541 35.2671 -15
      vertex -40.1478 44.5887 15
      vertex -40.1478 44.5887 -15
    endloop
  endfacet
  facet normal -0.743145 0.66913 0
    outer loop
      vertex -40.1478 44.5887 15
      vertex -48.541 35.2671 -15
      vertex -48.541 35.2671 15
    endloop
  endfacet
  facet normal 0 1 -0
    outer loop
      vertex 6.27171 59.6713 -15
      vertex -6.27171 59.6713 15
      vertex 6.27171 59.6713 15
    endloop
  endfacet
  facet normal 0 1 0
    outer loop
      vertex -6.27171 59.6713 15
      vertex 6.27171 59.6713 -15
      vertex -6.27171 59.6713 -15
    endloop
  endfacet
  facet normal 0.406738 -0.913545 0
    outer loop
      vertex 18.541 -57.0634 -15
      vertex 30 -51.9615 15
      vertex 18.541 -57.0634 15
    endloop
  endfacet
  facet normal 0.406738 -0.913545 0
    outer loop
      vertex 30 -51.9615 15
      vertex 18.541 -57.0634 -15
      vertex 30 -51.9615 -15
    endloop
  endfacet
  facet normal 0.20791 -0.978148 0
    outer loop
      vertex 6.27171 -59.6713 -15
      vertex 18.541 -57.0634 15
      vertex 6.27171 -59.6713 15
    endloop
  endfacet
  facet normal 0.20791 -0.978148 0
    outer loop
      vertex 18.541 -57.0634 15
      vertex 6.27171 -59.6713 -15
      vertex 18.541 -57.0634 -15
    endloop
  endfacet
  facet normal -0.951055 0.309022 0
    outer loop
      vertex -58.6889 12.4747 -15
      vertex -54.8127 24.4042 15
      vertex -54.8127 24.4042 -15
    endloop
  endfacet
  facet normal -0.951055 0.309022 0
    outer loop
      vertex -54.8127 24.4042 15
      vertex -58.6889 12.4747 -15
      vertex -58.6889 12.4747 15
    endloop
  endfacet
  facet normal 0 0 -1
    outer loop
      vertex 10 0 -15
      vertex 60 0 -15
      vertex 58.6889 -12.4747 -15
    endloop
  endfacet
  facet normal 0 0 -1
    outer loop
      vertex 9.78148 -2.07912 -15
      vertex 58.6889 -12.4747 -15
      vertex 54.8127 -24.4042 -15
    endloop
  endfacet
  facet normal 0 0 -1
    outer loop
      vertex 60 0 -15
      vertex 10 0 -15
      vertex 58.6889 12.4747 -15
    endloop
  endfacet
  facet normal 0 0 -1
    outer loop
      vertex 9.13545 -4.06737 -15
      vertex 54.8127 -24.4042 -15
      vertex 48.541 -35.2671 -15
    endloop
  endfacet
  facet normal 0 0 -1
    outer loop
      vertex 9.78148 2.07912 -15
      vertex 58.6889 12.4747 -15
      vertex 10 0 -15
    endloop
  endfacet
  facet normal 0 0 -1
    outer loop
      vertex 8.09017 -5.87785 -15
      vertex 48.541 -35.2671 -15
      vertex 40.1478 -44.5887 -15
    endloop
  endfacet
  facet normal -0 0 -1
    outer loop
      vertex 58.6889 12.4747 -15
      vertex 9.78148 2.07912 -15
      vertex 54.8127 24.4042 -15
    endloop
  endfacet
  facet normal 0 0 -1
    outer loop
      vertex 6.69131 -7.43145 -15
      vertex 40.1478 -44.5887 -15
      vertex 30 -51.9615 -15
    endloop
  endfacet
  facet normal 0 0 -1
    outer loop
      vertex 9.13545 4.06737 -15
      vertex 54.8127 24.4042 -15
      vertex 9.78148 2.07912 -15
    endloop
  endfacet
  facet normal 0 0 -1
    outer loop
      vertex 5 -8.66025 -15
      vertex 30 -51.9615 -15
      vertex 18.541 -57.0634 -15
    endloop
  endfacet
  facet normal -0 0 -1
    outer loop
      vertex 54.8127 24.4042 -15
      vertex 9.13545 4.06737 -15
      vertex 48.541 35.2671 -15
    endloop
  endfacet
  facet normal 0 0 -1
    outer loop
      vertex 8.09017 5.87785 -15
      vertex 48.541 35.2671 -15
      vertex 9.13545 4.06737 -15
    endloop
  endfacet
  facet normal 0 0 -1
    outer loop
      vertex 58.6889 -12.4747 -15
      vertex 9.78148 -2.07912 -15
      vertex 10 0 -15
    endloop
  endfacet
  facet normal 0 0 -1
    outer loop
      vertex 54.8127 -24.4042 -15
      vertex 9.13545 -4.06737 -15
      vertex 9.78148 -2.07912 -15
    endloop
  endfacet
  facet normal 0 0 -1
    outer loop
      vertex 48.541 -35.2671 -15
      vertex 8.09017 -5.87785 -15
      vertex 9.13545 -4.06737 -15
    endloop
  endfacet
  facet normal 0 0 -1
    outer loop
      vertex 40.1478 -44.5887 -15
      vertex 6.69131 -7.43145 -15
      vertex 8.09017 -5.87785 -15
    endloop
  endfacet
  facet normal 0 0 -1
    outer loop
      vertex 3.09017 -9.51056 -15
      vertex 18.541 -57.0634 -15
      vertex 6.27171 -59.6713 -15
    endloop
  endfacet
  facet normal 0 0 -1
    outer loop
      vertex 30 -51.9615 -15
      vertex 5 -8.66025 -15
      vertex 6.69131 -7.43145 -15
    endloop
  endfacet
  facet normal 0 0 -1
    outer loop
      vertex 18.541 -57.0634 -15
      vertex 3.09017 -9.51056 -15
      vertex 5 -8.66025 -15
    endloop
  endfacet
  facet normal 0 0 -1
    outer loop
      vertex 6.27171 -59.6713 -15
      vertex 1.04528 -9.94522 -15
      vertex 3.09017 -9.51056 -15
    endloop
  endfacet
  facet normal 0 0 -1
    outer loop
      vertex 6.27171 -59.6713 -15
      vertex -1.04528 -9.94522 -15
      vertex 1.04528 -9.94522 -15
    endloop
  endfacet
  facet normal 0 0 -1
    outer loop
      vertex -6.27171 -59.6713 -15
      vertex -1.04528 -9.94522 -15
      vertex 6.27171 -59.6713 -15
    endloop
  endfacet
  facet normal -0 0 -1
    outer loop
      vertex -1.04528 -9.94522 -15
      vertex -6.27171 -59.6713 -15
      vertex -3.09017 -9.51056 -15
    endloop
  endfacet
  facet normal 0 0 -1
    outer loop
      vertex -18.541 -57.0634 -15
      vertex -3.09017 -9.51056 -15
      vertex -6.27171 -59.6713 -15
    endloop
  endfacet
  facet normal -0 0 -1
    outer loop
      vertex -3.09017 -9.51056 -15
      vertex -18.541 -57.0634 -15
      vertex -5 -8.66025 -15
    endloop
  endfacet
  facet normal 0 0 -1
    outer loop
      vertex -30 -51.9615 -15
      vertex -5 -8.66025 -15
      vertex -18.541 -57.0634 -15
    endloop
  endfacet
  facet normal -0 0 -1
    outer loop
      vertex -5 -8.66025 -15
      vertex -30 -51.9615 -15
      vertex -6.69131 -7.43145 -15
    endloop
  endfacet
  facet normal 0 0 -1
    outer loop
      vertex -40.1478 -44.5887 -15
      vertex -6.69131 -7.43145 -15
      vertex -30 -51.9615 -15
    endloop
  endfacet
  facet normal -0 0 -1
    outer loop
      vertex -6.69131 -7.43145 -15
      vertex -40.1478 -44.5887 -15
      vertex -8.09017 -5.87785 -15
    endloop
  endfacet
  facet normal 0 0 -1
    outer loop
      vertex -48.541 -35.2671 -15
      vertex -8.09017 -5.87785 -15
      vertex -40.1478 -44.5887 -15
    endloop
  endfacet
  facet normal -0 0 -1
    outer loop
      vertex 48.541 35.2671 -15
      vertex 8.09017 5.87785 -15
      vertex 40.1478 44.5887 -15
    endloop
  endfacet
  facet normal 0 0 -1
    outer loop
      vertex 6.69131 7.43145 -15
      vertex 40.1478 44.5887 -15
      vertex 8.09017 5.87785 -15
    endloop
  endfacet
  facet normal -0 0 -1
    outer loop
      vertex 40.1478 44.5887 -15
      vertex 6.69131 7.43145 -15
      vertex 30 51.9615 -15
    endloop
  endfacet
  facet normal 0 0 -1
    outer loop
      vertex 5 8.66025 -15
      vertex 30 51.9615 -15
      vertex 6.69131 7.43145 -15
    endloop
  endfacet
  facet normal -0 0 -1
    outer loop
      vertex 30 51.9615 -15
      vertex 5 8.66025 -15
      vertex 18.541 57.0634 -15
    endloop
  endfacet
  facet normal 0 0 -1
    outer loop
      vertex 3.09017 9.51056 -15
      vertex 18.541 57.0634 -15
      vertex 5 8.66025 -15
    endloop
  endfacet
  facet normal -0 0 -1
    outer loop
      vertex 18.541 57.0634 -15
      vertex 3.09017 9.51056 -15
      vertex 6.27171 59.6713 -15
    endloop
  endfacet
  facet normal 0 0 -1
    outer loop
      vertex 1.04528 9.94522 -15
      vertex 6.27171 59.6713 -15
      vertex 3.09017 9.51056 -15
    endloop
  endfacet
  facet normal 0 0 -1
    outer loop
      vertex -1.04528 9.94522 -15
      vertex 6.27171 59.6713 -15
      vertex 1.04528 9.94522 -15
    endloop
  endfacet
  facet normal 0 0 -1
    outer loop
      vertex -6.27171 59.6713 -15
      vertex -1.04528 9.94522 -15
      vertex -3.09017 9.51056 -15
    endloop
  endfacet
  facet normal 0 0 -1
    outer loop
      vertex -18.541 57.0634 -15
      vertex -3.09017 9.51056 -15
      vertex -5 8.66025 -15
    endloop
  endfacet
  facet normal 0 0 -1
    outer loop
      vertex -1.04528 9.94522 -15
      vertex -6.27171 59.6713 -15
      vertex 6.27171 59.6713 -15
    endloop
  endfacet
  facet normal 0 0 -1
    outer loop
      vertex -30 51.9615 -15
      vertex -5 8.66025 -15
      vertex -6.69131 7.43145 -15
    endloop
  endfacet
  facet normal 0 0 -1
    outer loop
      vertex -40.1478 44.5887 -15
      vertex -6.69131 7.43145 -15
      vertex -8.09017 5.87785 -15
    endloop
  endfacet
  facet normal 0 0 -1
    outer loop
      vertex -48.541 35.2671 -15
      vertex -8.09017 5.87785 -15
      vertex -9.13545 4.06737 -15
    endloop
  endfacet
  facet normal 0 0 -1
    outer loop
      vertex -54.8127 24.4042 -15
      vertex -9.13545 4.06737 -15
      vertex -9.78148 2.07912 -15
    endloop
  endfacet
  facet normal 0 0 -1
    outer loop
      vertex -58.6889 12.4747 -15
      vertex -9.78148 2.07912 -15
      vertex -10 0 -15
    endloop
  endfacet
  facet normal -0 0 -1
    outer loop
      vertex -8.09017 -5.87785 -15
      vertex -48.541 -35.2671 -15
      vertex -9.13545 -4.06737 -15
    endloop
  endfacet
  facet normal 0 0 -1
    outer loop
      vertex -3.09017 9.51056 -15
      vertex -18.541 57.0634 -15
      vertex -6.27171 59.6713 -15
    endloop
  endfacet
  facet normal 0 0 -1
    outer loop
      vertex -54.8127 -24.4042 -15
      vertex -9.13545 -4.06737 -15
      vertex -48.541 -35.2671 -15
    endloop
  endfacet
  facet normal 0 0 -1
    outer loop
      vertex -5 8.66025 -15
      vertex -30 51.9615 -15
      vertex -18.541 57.0634 -15
    endloop
  endfacet
  facet normal -0 0 -1
    outer loop
      vertex -9.13545 -4.06737 -15
      vertex -54.8127 -24.4042 -15
      vertex -9.78148 -2.07912 -15
    endloop
  endfacet
  facet normal 0 0 -1
    outer loop
      vertex -6.69131 7.43145 -15
      vertex -40.1478 44.5887 -15
      vertex -30 51.9615 -15
    endloop
  endfacet
  facet normal 0 0 -1
    outer loop
      vertex -58.6889 -12.4747 -15
      vertex -9.78148 -2.07912 -15
      vertex -54.8127 -24.4042 -15
    endloop
  endfacet
  facet normal 0 0 -1
    outer loop
      vertex -8.09017 5.87785 -15
      vertex -48.541 35.2671 -15
      vertex -40.1478 44.5887 -15
    endloop
  endfacet
  facet normal -0 0 -1
    outer loop
      vertex -9.78148 -2.07912 -15
      vertex -58.6889 -12.4747 -15
      vertex -10 0 -15
    endloop
  endfacet
  facet normal 0 0 -1
    outer loop
      vertex -9.13545 4.06737 -15
      vertex -54.8127 24.4042 -15
      vertex -48.541 35.2671 -15
    endloop
  endfacet
  facet normal 0 0 -1
    outer loop
      vertex -60 0 -15
      vertex -10 0 -15
      vertex -58.6889 -12.4747 -15
    endloop
  endfacet
  facet normal 0 0 -1
    outer loop
      vertex -9.78148 2.07912 -15
      vertex -58.6889 12.4747 -15
      vertex -54.8127 24.4042 -15
    endloop
  endfacet
  facet normal 0 0 -1
    outer loop
      vertex -10 0 -15
      vertex -60 0 -15
      vertex -58.6889 12.4747 -15
    endloop
  endfacet
  facet normal -0.951055 -0.309022 0
    outer loop
      vertex -54.8127 -24.4042 -15
      vertex -58.6889 -12.4747 15
      vertex -58.6889 -12.4747 -15
    endloop
  endfacet
  facet normal -0.951055 -0.309022 0
    outer loop
      vertex -58.6889 -12.4747 15
      vertex -54.8127 -24.4042 -15
      vertex -54.8127 -24.4042 15
    endloop
  endfacet
  facet normal -0.406738 0.913545 0
    outer loop
      vertex -18.541 57.0634 -15
      vertex -30 51.9615 15
      vertex -18.541 57.0634 15
    endloop
  endfacet
  facet normal -0.406738 0.913545 0
    outer loop
      vertex -30 51.9615 15
      vertex -18.541 57.0634 -15
      vertex -30 51.9615 -15
    endloop
  endfacet
  facet normal 0 0 1
    outer loop
      vertex 10 0 15
      vertex 60 0 15
      vertex 58.6889 12.4747 15
    endloop
  endfacet
  facet normal 0 0 1
    outer loop
      vertex 9.78148 2.07912 15
      vertex 58.6889 12.4747 15
      vertex 54.8127 24.4042 15
    endloop
  endfacet
  facet normal 0 0 1
    outer loop
      vertex 60 0 15
      vertex 10 0 15
      vertex 58.6889 -12.4747 15
    endloop
  endfacet
  facet normal 0 0 1
    outer loop
      vertex 9.13545 4.06737 15
      vertex 54.8127 24.4042 15
      vertex 48.541 35.2671 15
    endloop
  endfacet
  facet normal -0 0 1
    outer loop
      vertex 9.78148 -2.07912 15
      vertex 58.6889 -12.4747 15
      vertex 10 0 15
    endloop
  endfacet
  facet normal 0 0 1
    outer loop
      vertex 8.09017 5.87785 15
      vertex 48.541 35.2671 15
      vertex 40.1478 44.5887 15
    endloop
  endfacet
  facet normal 0 0 1
    outer loop
      vertex 58.6889 -12.4747 15
      vertex 9.78148 -2.07912 15
      vertex 54.8127 -24.4042 15
    endloop
  endfacet
  facet normal 0 0 1
    outer loop
      vertex 6.69131 7.43145 15
      vertex 40.1478 44.5887 15
      vertex 30 51.9615 15
    endloop
  endfacet
  facet normal -0 0 1
    outer loop
      vertex 9.13545 -4.06737 15
      vertex 54.8127 -24.4042 15
      vertex 9.78148 -2.07912 15
    endloop
  endfacet
  facet normal 0 0 1
    outer loop
      vertex 5 8.66025 15
      vertex 30 51.9615 15
      vertex 18.541 57.0634 15
    endloop
  endfacet
  facet normal 0 0 1
    outer loop
      vertex 54.8127 -24.4042 15
      vertex 9.13545 -4.06737 15
      vertex 48.541 -35.2671 15
    endloop
  endfacet
  facet normal -0 0 1
    outer loop
      vertex 8.09017 -5.87785 15
      vertex 48.541 -35.2671 15
      vertex 9.13545 -4.06737 15
    endloop
  endfacet
  facet normal 0 0 1
    outer loop
      vertex 58.6889 12.4747 15
      vertex 9.78148 2.07912 15
      vertex 10 0 15
    endloop
  endfacet
  facet normal 0 0 1
    outer loop
      vertex 54.8127 24.4042 15
      vertex 9.13545 4.06737 15
      vertex 9.78148 2.07912 15
    endloop
  endfacet
  facet normal 0 0 1
    outer loop
      vertex 48.541 35.2671 15
      vertex 8.09017 5.87785 15
      vertex 9.13545 4.06737 15
    endloop
  endfacet
  facet normal 0 0 1
    outer loop
      vertex 40.1478 44.5887 15
      vertex 6.69131 7.43145 15
      vertex 8.09017 5.87785 15
    endloop
  endfacet
  facet normal 0 0 1
    outer loop
      vertex 3.09017 9.51056 15
      vertex 18.541 57.0634 15
      vertex 6.27171 59.6713 15
    endloop
  endfacet
  facet normal 0 0 1
    outer loop
      vertex 30 51.9615 15
      vertex 5 8.66025 15
      vertex 6.69131 7.43145 15
    endloop
  endfacet
  facet normal 0 0 1
    outer loop
      vertex 18.541 57.0634 15
      vertex 3.09017 9.51056 15
      vertex 5 8.66025 15
    endloop
  endfacet
  facet normal 0 0 1
    outer loop
      vertex 6.27171 59.6713 15
      vertex 1.04528 9.94522 15
      vertex 3.09017 9.51056 15
    endloop
  endfacet
  facet normal 0 0 1
    outer loop
      vertex 6.27171 59.6713 15
      vertex -1.04528 9.94522 15
      vertex 1.04528 9.94522 15
    endloop
  endfacet
  facet normal -0 0 1
    outer loop
      vertex -6.27171 59.6713 15
      vertex -1.04528 9.94522 15
      vertex 6.27171 59.6713 15
    endloop
  endfacet
  facet normal 0 0 1
    outer loop
      vertex -1.04528 9.94522 15
      vertex -6.27171 59.6713 15
      vertex -3.09017 9.51056 15
    endloop
  endfacet
  facet normal -0 0 1
    outer loop
      vertex -18.541 57.0634 15
      vertex -3.09017 9.51056 15
      vertex -6.27171 59.6713 15
    endloop
  endfacet
  facet normal 0 0 1
    outer loop
      vertex -3.09017 9.51056 15
      vertex -18.541 57.0634 15
      vertex -5 8.66025 15
    endloop
  endfacet
  facet normal -0 0 1
    outer loop
      vertex -30 51.9615 15
      vertex -5 8.66025 15
      vertex -18.541 57.0634 15
    endloop
  endfacet
  facet normal 0 0 1
    outer loop
      vertex -5 8.66025 15
      vertex -30 51.9615 15
      vertex -6.69131 7.43145 15
    endloop
  endfacet
  facet normal -0 0 1
    outer loop
      vertex -40.1478 44.5887 15
      vertex -6.69131 7.43145 15
      vertex -30 51.9615 15
    endloop
  endfacet
  facet normal 0 0 1
    outer loop
      vertex -6.69131 7.43145 15
      vertex -40.1478 44.5887 15
      vertex -8.09017 5.87785 15
    endloop
  endfacet
  facet normal -0 0 1
    outer loop
      vertex -48.541 35.2671 15
      vertex -8.09017 5.87785 15
      vertex -40.1478 44.5887 15
    endloop
  endfacet
  facet normal 0 0 1
    outer loop
      vertex 48.541 -35.2671 15
      vertex 8.09017 -5.87785 15
      vertex 40.1478 -44.5887 15
    endloop
  endfacet
  facet normal -0 0 1
    outer loop
      vertex 6.69131 -7.43145 15
      vertex 40.1478 -44.5887 15
      vertex 8.09017 -5.87785 15
    endloop
  endfacet
  facet normal 0 0 1
    outer loop
      vertex 40.1478 -44.5887 15
      vertex 6.69131 -7.43145 15
      vertex 30 -51.9615 15
    endloop
  endfacet
  facet normal -0 0 1
    outer loop
      vertex 5 -8.66025 15
      vertex 30 -51.9615 15
      vertex 6.69131 -7.43145 15
    endloop
  endfacet
  facet normal 0 0 1
    outer loop
      vertex 30 -51.9615 15
      vertex 5 -8.66025 15
      vertex 18.541 -57.0634 15
    endloop
  endfacet
  facet normal -0 0 1
    outer loop
      vertex 3.09017 -9.51056 15
      vertex 18.541 -57.0634 15
      vertex 5 -8.66025 15
    endloop
  endfacet
  facet normal 0 0 1
    outer loop
      vertex 18.541 -57.0634 15
      vertex 3.09017 -9.51056 15
      vertex 6.27171 -59.6713 15
    endloop
  endfacet
  facet normal -0 0 1
    outer loop
      vertex 1.04528 -9.94522 15
      vertex 6.27171 -59.6713 15
      vertex 3.09017 -9.51056 15
    endloop
  endfacet
  facet normal -0 0 1
    outer loop
      vertex -1.04528 -9.94522 15
      vertex 6.27171 -59.6713 15
      vertex 1.04528 -9.94522 15
    endloop
  endfacet
  facet normal 0 0 1
    outer loop
      vertex -6.27171 -59.6713 15
      vertex -1.04528 -9.94522 15
      vertex -3.09017 -9.51056 15
    endloop
  endfacet
  facet normal 0 0 1
    outer loop
      vertex -18.541 -57.0634 15
      vertex -3.09017 -9.51056 15
      vertex -5 -8.66025 15
    endloop
  endfacet
  facet normal 0 0 1
    outer loop
      vertex -1.04528 -9.94522 15
      vertex -6.27171 -59.6713 15
      vertex 6.27171 -59.6713 15
    endloop
  endfacet
  facet normal 0 0 1
    outer loop
      vertex -30 -51.9615 15
      vertex -5 -8.66025 15
      vertex -6.69131 -7.43145 15
    endloop
  endfacet
  facet normal 0 0 1
    outer loop
      vertex -40.1478 -44.5887 15
      vertex -6.69131 -7.43145 15
      vertex -8.09017 -5.87785 15
    endloop
  endfacet
  facet normal 0 0 1
    outer loop
      vertex -48.541 -35.2671 15
      vertex -8.09017 -5.87785 15
      vertex -9.13545 -4.06737 15
    endloop
  endfacet
  facet normal 0 0 1
    outer loop
      vertex -54.8127 -24.4042 15
      vertex -9.13545 -4.06737 15
      vertex -9.78148 -2.07912 15
    endloop
  endfacet
  facet normal 0 0 1
    outer loop
      vertex -58.6889 -12.4747 15
      vertex -9.78148 -2.07912 15
      vertex -10 0 15
    endloop
  endfacet
  facet normal 0 0 1
    outer loop
      vertex -8.09017 5.87785 15
      vertex -48.541 35.2671 15
      vertex -9.13545 4.06737 15
    endloop
  endfacet
  facet normal 0 0 1
    outer loop
      vertex -3.09017 -9.51056 15
      vertex -18.541 -57.0634 15
      vertex -6.27171 -59.6713 15
    endloop
  endfacet
  facet normal -0 0 1
    outer loop
      vertex -54.8127 24.4042 15
      vertex -9.13545 4.06737 15
      vertex -48.541 35.2671 15
    endloop
  endfacet
  facet normal 0 0 1
    outer loop
      vertex -5 -8.66025 15
      vertex -30 -51.9615 15
      vertex -18.541 -57.0634 15
    endloop
  endfacet
  facet normal 0 0 1
    outer loop
      vertex -9.13545 4.06737 15
      vertex -54.8127 24.4042 15
      vertex -9.78148 2.07912 15
    endloop
  endfacet
  facet normal 0 0 1
    outer loop
      vertex -6.69131 -7.43145 15
      vertex -40.1478 -44.5887 15
      vertex -30 -51.9615 15
    endloop
  endfacet
  facet normal -0 0 1
    outer loop
      vertex -58.6889 12.4747 15
      vertex -9.78148 2.07912 15
      vertex -54.8127 24.4042 15
    endloop
  endfacet
  facet normal 0 0 1
    outer loop
      vertex -8.09017 -5.87785 15
      vertex -48.541 -35.2671 15
      vertex -40.1478 -44.5887 15
    endloop
  endfacet
  facet normal 0 0 1
    outer loop
      vertex -9.78148 2.07912 15
      vertex -58.6889 12.4747 15
      vertex -10 0 15
    endloop
  endfacet
  facet normal 0 0 1
    outer loop
      vertex -9.13545 -4.06737 15
      vertex -54.8127 -24.4042 15
      vertex -48.541 -35.2671 15
    endloop
  endfacet
  facet normal 0 0 1
    outer loop
      vertex -60 0 15
      vertex -10 0 15
      vertex -58.6889 12.4747 15
    endloop
  endfacet
  facet normal 0 0 1
    outer loop
      vertex -9.78148 -2.07912 15
      vertex -58.6889 -12.4747 15
      vertex -54.8127 -24.4042 15
    endloop
  endfacet
  facet normal 0 0 1
    outer loop
      vertex -10 0 15
      vertex -60 0 15
      vertex -58.6889 -12.4747 15
    endloop
  endfacet
  facet normal -0.20791 -0.978148 0
    outer loop
      vertex -18.541 -57.0634 -15
      vertex -6.27171 -59.6713 15
      vertex -18.541 -57.0634 15
    endloop
  endfacet
  facet normal -0.20791 -0.978148 -0
    outer loop
      vertex -6.27171 -59.6713 15
      vertex -18.541 -57.0634 -15
      vertex -6.27171 -59.6713 -15
    endloop
  endfacet
  facet normal 0.20791 0.978148 -0
    outer loop
      vertex 18.541 57.0634 -15
      vertex 6.27171 59.6713 15
      vertex 18.541 57.0634 15
    endloop
  endfacet
  facet normal 0.20791 0.978148 0
    outer loop
      vertex 6.27171 59.6713 15
      vertex 18.541 57.0634 -15
      vertex 6.27171 59.6713 -15
    endloop
  endfacet
  facet normal -0.994522 -0.104525 0
    outer loop
      vertex -58.6889 -12.4747 -15
      vertex -60 0 15
      vertex -60 0 -15
    endloop
  endfacet
  facet normal -0.994522 -0.104525 0
    outer loop
      vertex -60 0 15
      vertex -58.6889 -12.4747 -15
      vertex -58.6889 -12.4747 15
    endloop
  endfacet
  facet normal -0.994522 0.104525 0
    outer loop
      vertex -60 0 -15
      vertex -58.6889 12.4747 15
      vertex -58.6889 12.4747 -15
    endloop
  endfacet
  facet normal -0.994522 0.104525 0
    outer loop
      vertex -58.6889 12.4747 15
      vertex -60 0 -15
      vertex -60 0 15
    endloop
  endfacet
  facet normal -0.866025 -0.5 0
    outer loop
      vertex -48.541 -35.2671 -15
      vertex -54.8127 -24.4042 15
      vertex -54.8127 -24.4042 -15
    endloop
  endfacet
  facet normal -0.866025 -0.5 0
    outer loop
      vertex -54.8127 -24.4042 15
      vertex -48.541 -35.2671 -15
      vertex -48.541 -35.2671 15
    endloop
  endfacet
  facet normal -0.866025 0.5 0
    outer loop
      vertex -54.8127 24.4042 -15
      vertex -48.541 35.2671 15
      vertex -48.541 35.2671 -15
    endloop
  endfacet
  facet normal -0.866025 0.5 0
    outer loop
      vertex -48.541 35.2671 15
      vertex -54.8127 24.4042 -15
      vertex -54.8127 24.4042 15
    endloop
  endfacet
  facet normal 0.866025 -0.5 0
    outer loop
      vertex 48.541 -35.2671 15
      vertex 54.8127 -24.4042 -15
      vertex 54.8127 -24.4042 15
    endloop
  endfacet
  facet normal 0.866025 -0.5 0
    outer loop
      vertex 54.8127 -24.4042 -15
      vertex 48.541 -35.2671 15
      vertex 48.541 -35.2671 -15
    endloop
  endfacet
  facet normal 0.587785 0.809017 -0
    outer loop
      vertex 40.1478 44.5887 -15
      vertex 30 51.9615 15
      vertex 40.1478 44.5887 15
    endloop
  endfacet
  facet normal 0.587785 0.809017 0
    outer loop
      vertex 30 51.9615 15
      vertex 40.1478 44.5887 -15
      vertex 30 51.9615 -15
    endloop
  endfacet
  facet normal -0.587785 0.809017 0
    outer loop
      vertex -30 51.9615 -15
      vertex -40.1478 44.5887 15
      vertex -30 51.9615 15
    endloop
  endfacet
  facet normal -0.587785 0.809017 0
    outer loop
      vertex -40.1478 44.5887 15
      vertex -30 51.9615 -15
      vertex -40.1478 44.5887 -15
    endloop
  endfacet
  facet normal -0.20791 0.978148 0
    outer loop
      vertex -6.27171 59.6713 -15
      vertex -18.541 57.0634 15
      vertex -6.27171 59.6713 15
    endloop
  endfacet
  facet normal -0.20791 0.978148 0
    outer loop
      vertex -18.541 57.0634 15
      vertex -6.27171 59.6713 -15
      vertex -18.541 57.0634 -15
    endloop
  endfacet
  facet normal 0 -1 0
    outer loop
      vertex -6.27171 -59.6713 -15
      vertex 6.27171 -59.6713 15
      vertex -6.27171 -59.6713 15
    endloop
  endfacet
  facet normal 0 -1 -0
    outer loop
      vertex 6.27171 -59.6713 15
      vertex -6.27171 -59.6713 -15
      vertex 6.27171 -59.6713 -15
    endloop
  endfacet
  facet normal 0.743147 0.669129 0
    outer loop
      vertex -6.69131 -7.43145 15
      vertex -8.09017 -5.87785 -15
      vertex -8.09017 -5.87785 15
    endloop
  endfacet
  facet normal 0.743147 0.669129 0
    outer loop
      vertex -8.09017 -5.87785 -15
      vertex -6.69131 -7.43145 15
      vertex -6.69131 -7.43145 -15
    endloop
  endfacet
  facet normal -0.951055 -0.309021 0
    outer loop
      vertex 9.78148 2.07912 -15
      vertex 9.13545 4.06737 15
      vertex 9.13545 4.06737 -15
    endloop
  endfacet
  facet normal -0.951055 -0.309021 0
    outer loop
      vertex 9.13545 4.06737 15
      vertex 9.78148 2.07912 -15
      vertex 9.78148 2.07912 15
    endloop
  endfacet
  facet normal -0.994522 -0.104526 0
    outer loop
      vertex 10 0 -15
      vertex 9.78148 2.07912 15
      vertex 9.78148 2.07912 -15
    endloop
  endfacet
  facet normal -0.994522 -0.104526 0
    outer loop
      vertex 9.78148 2.07912 15
      vertex 10 0 -15
      vertex 10 0 15
    endloop
  endfacet
  facet normal -0.866026 -0.5 0
    outer loop
      vertex 9.13545 4.06737 -15
      vertex 8.09017 5.87785 15
      vertex 8.09017 5.87785 -15
    endloop
  endfacet
  facet normal -0.866026 -0.5 0
    outer loop
      vertex 8.09017 5.87785 15
      vertex 9.13545 4.06737 -15
      vertex 9.13545 4.06737 15
    endloop
  endfacet
  facet normal -0.951055 0.309021 0
    outer loop
      vertex 9.13545 -4.06737 -15
      vertex 9.78148 -2.07912 15
      vertex 9.78148 -2.07912 -15
    endloop
  endfacet
  facet normal -0.951055 0.309021 0
    outer loop
      vertex 9.78148 -2.07912 15
      vertex 9.13545 -4.06737 -15
      vertex 9.13545 -4.06737 15
    endloop
  endfacet
  facet normal -0.587783 0.809019 0
    outer loop
      vertex 6.69131 -7.43145 -15
      vertex 5 -8.66025 15
      vertex 6.69131 -7.43145 15
    endloop
  endfacet
  facet normal -0.587783 0.809019 0
    outer loop
      vertex 5 -8.66025 15
      vertex 6.69131 -7.43145 -15
      vertex 5 -8.66025 -15
    endloop
  endfacet
  facet normal -0.743147 0.669129 0
    outer loop
      vertex 6.69131 -7.43145 -15
      vertex 8.09017 -5.87785 15
      vertex 8.09017 -5.87785 -15
    endloop
  endfacet
  facet normal -0.743147 0.669129 0
    outer loop
      vertex 8.09017 -5.87785 15
      vertex 6.69131 -7.43145 -15
      vertex 6.69131 -7.43145 15
    endloop
  endfacet
  facet normal -0.994522 0.104526 0
    outer loop
      vertex 9.78148 -2.07912 -15
      vertex 10 0 15
      vertex 10 0 -15
    endloop
  endfacet
  facet normal -0.994522 0.104526 0
    outer loop
      vertex 10 0 15
      vertex 9.78148 -2.07912 -15
      vertex 9.78148 -2.07912 15
    endloop
  endfacet
  facet normal 0.406736 0.913546 -0
    outer loop
      vertex -3.09017 -9.51056 -15
      vertex -5 -8.66025 15
      vertex -3.09017 -9.51056 15
    endloop
  endfacet
  facet normal 0.406736 0.913546 0
    outer loop
      vertex -5 -8.66025 15
      vertex -3.09017 -9.51056 -15
      vertex -5 -8.66025 -15
    endloop
  endfacet
  facet normal -0.406736 -0.913546 0
    outer loop
      vertex 3.09017 9.51056 -15
      vertex 5 8.66025 15
      vertex 3.09017 9.51056 15
    endloop
  endfacet
  facet normal -0.406736 -0.913546 -0
    outer loop
      vertex 5 8.66025 15
      vertex 3.09017 9.51056 -15
      vertex 5 8.66025 -15
    endloop
  endfacet
  facet normal -0.743147 -0.669129 0
    outer loop
      vertex 8.09017 5.87785 -15
      vertex 6.69131 7.43145 15
      vertex 6.69131 7.43145 -15
    endloop
  endfacet
  facet normal -0.743147 -0.669129 0
    outer loop
      vertex 6.69131 7.43145 15
      vertex 8.09017 5.87785 -15
      vertex 8.09017 5.87785 15
    endloop
  endfacet
  facet normal 0.587783 0.809019 -0
    outer loop
      vertex -5 -8.66025 -15
      vertex -6.69131 -7.43145 15
      vertex -5 -8.66025 15
    endloop
  endfacet
  facet normal 0.587783 0.809019 0
    outer loop
      vertex -6.69131 -7.43145 15
      vertex -5 -8.66025 -15
      vertex -6.69131 -7.43145 -15
    endloop
  endfacet
  facet normal 0.743147 -0.669129 0
    outer loop
      vertex -8.09017 5.87785 15
      vertex -6.69131 7.43145 -15
      vertex -6.69131 7.43145 15
    endloop
  endfacet
  facet normal 0.743147 -0.669129 0
    outer loop
      vertex -6.69131 7.43145 -15
      vertex -8.09017 5.87785 15
      vertex -8.09017 5.87785 -15
    endloop
  endfacet
  facet normal 0 -1 0
    outer loop
      vertex -1.04528 9.94522 -15
      vertex 1.04528 9.94522 15
      vertex -1.04528 9.94522 15
    endloop
  endfacet
  facet normal 0 -1 -0
    outer loop
      vertex 1.04528 9.94522 15
      vertex -1.04528 9.94522 -15
      vertex 1.04528 9.94522 -15
    endloop
  endfacet
  facet normal -0.406736 0.913546 0
    outer loop
      vertex 5 -8.66025 -15
      vertex 3.09017 -9.51056 15
      vertex 5 -8.66025 15
    endloop
  endfacet
  facet normal -0.406736 0.913546 0
    outer loop
      vertex 3.09017 -9.51056 15
      vertex 5 -8.66025 -15
      vertex 3.09017 -9.51056 -15
    endloop
  endfacet
  facet normal -0.207914 0.978147 0
    outer loop
      vertex 3.09017 -9.51056 -15
      vertex 1.04528 -9.94522 15
      vertex 3.09017 -9.51056 15
    endloop
  endfacet
  facet normal -0.207914 0.978147 0
    outer loop
      vertex 1.04528 -9.94522 15
      vertex 3.09017 -9.51056 -15
      vertex 1.04528 -9.94522 -15
    endloop
  endfacet
  facet normal 0.951055 -0.309021 0
    outer loop
      vertex -9.78148 2.07912 15
      vertex -9.13545 4.06737 -15
      vertex -9.13545 4.06737 15
    endloop
  endfacet
  facet normal 0.951055 -0.309021 0
    outer loop
      vertex -9.13545 4.06737 -15
      vertex -9.78148 2.07912 15
      vertex -9.78148 2.07912 -15
    endloop
  endfacet
  facet normal 0.951055 0.309021 0
    outer loop
      vertex -9.13545 -4.06737 15
      vertex -9.78148 -2.07912 -15
      vertex -9.78148 -2.07912 15
    endloop
  endfacet
  facet normal 0.951055 0.309021 0
    outer loop
      vertex -9.78148 -2.07912 -15
      vertex -9.13545 -4.06737 15
      vertex -9.13545 -4.06737 -15
    endloop
  endfacet
  facet normal 0.406736 -0.913546 0
    outer loop
      vertex -5 8.66025 -15
      vertex -3.09017 9.51056 15
      vertex -5 8.66025 15
    endloop
  endfacet
  facet normal 0.406736 -0.913546 0
    outer loop
      vertex -3.09017 9.51056 15
      vertex -5 8.66025 -15
      vertex -3.09017 9.51056 -15
    endloop
  endfacet
  facet normal 0.207914 0.978147 -0
    outer loop
      vertex -1.04528 -9.94522 -15
      vertex -3.09017 -9.51056 15
      vertex -1.04528 -9.94522 15
    endloop
  endfacet
  facet normal 0.207914 0.978147 0
    outer loop
      vertex -3.09017 -9.51056 15
      vertex -1.04528 -9.94522 -15
      vertex -3.09017 -9.51056 -15
    endloop
  endfacet
  facet normal -0.207914 -0.978147 0
    outer loop
      vertex 1.04528 9.94522 -15
      vertex 3.09017 9.51056 15
      vertex 1.04528 9.94522 15
    endloop
  endfacet
  facet normal -0.207914 -0.978147 -0
    outer loop
      vertex 3.09017 9.51056 15
      vertex 1.04528 9.94522 -15
      vertex 3.09017 9.51056 -15
    endloop
  endfacet
  facet normal 0.994522 0.104526 0
    outer loop
      vertex -9.78148 -2.07912 15
      vertex -10 0 -15
      vertex -10 0 15
    endloop
  endfacet
  facet normal 0.994522 0.104526 0
    outer loop
      vertex -10 0 -15
      vertex -9.78148 -2.07912 15
      vertex -9.78148 -2.07912 -15
    endloop
  endfacet
  facet normal 0.866026 0.5 0
    outer loop
      vertex -8.09017 -5.87785 15
      vertex -9.13545 -4.06737 -15
      vertex -9.13545 -4.06737 15
    endloop
  endfacet
  facet normal 0.866026 0.5 0
    outer loop
      vertex -9.13545 -4.06737 -15
      vertex -8.09017 -5.87785 15
      vertex -8.09017 -5.87785 -15
    endloop
  endfacet
  facet normal 0.866026 -0.5 0
    outer loop
      vertex -9.13545 4.06737 15
      vertex -8.09017 5.87785 -15
      vertex -8.09017 5.87785 15
    endloop
  endfacet
  facet normal 0.866026 -0.5 0
    outer loop
      vertex -8.09017 5.87785 -15
      vertex -9.13545 4.06737 15
      vertex -9.13545 4.06737 -15
    endloop
  endfacet
  facet normal -0.866026 0.5 0
    outer loop
      vertex 8.09017 -5.87785 -15
      vertex 9.13545 -4.06737 15
      vertex 9.13545 -4.06737 -15
    endloop
  endfacet
  facet normal -0.866026 0.5 0
    outer loop
      vertex 9.13545 -4.06737 15
      vertex 8.09017 -5.87785 -15
      vertex 8.09017 -5.87785 15
    endloop
  endfacet
  facet normal -0.587783 -0.809019 0
    outer loop
      vertex 5 8.66025 -15
      vertex 6.69131 7.43145 15
      vertex 5 8.66025 15
    endloop
  endfacet
  facet normal -0.587783 -0.809019 -0
    outer loop
      vertex 6.69131 7.43145 15
      vertex 5 8.66025 -15
      vertex 6.69131 7.43145 -15
    endloop
  endfacet
  facet normal 0.587783 -0.809019 0
    outer loop
      vertex -6.69131 7.43145 -15
      vertex -5 8.66025 15
      vertex -6.69131 7.43145 15
    endloop
  endfacet
  facet normal 0.587783 -0.809019 0
    outer loop
      vertex -5 8.66025 15
      vertex -6.69131 7.43145 -15
      vertex -5 8.66025 -15
    endloop
  endfacet
  facet normal 0.207914 -0.978147 0
    outer loop
      vertex -3.09017 9.51056 -15
      vertex -1.04528 9.94522 15
      vertex -3.09017 9.51056 15
    endloop
  endfacet
  facet normal 0.207914 -0.978147 0
    outer loop
      vertex -1.04528 9.94522 15
      vertex -3.09017 9.51056 -15
      vertex -1.04528 9.94522 -15
    endloop
  endfacet
  facet normal 0 1 -0
    outer loop
      vertex 1.04528 -9.94522 -15
      vertex -1.04528 -9.94522 15
      vertex 1.04528 -9.94522 15
    endloop
  endfacet
  facet normal 0 1 0
    outer loop
      vertex -1.04528 -9.94522 15
      vertex 1.04528 -9.94522 -15
      vertex -1.04528 -9.94522 -15
    endloop
  endfacet
  facet normal 0.994522 -0.104526 0
    outer loop
      vertex -10 0 15
      vertex -9.78148 2.07912 -15
      vertex -9.78148 2.07912 15
    endloop
  endfacet
  facet normal 0.994522 -0.104526 0
    outer loop
      vertex -9.78148 2.07912 -15
      vertex -10 0 15
      vertex -10 0 -15
    endloop
  endfacet
endsolid OpenSCAD_Model
