solid OpenSCAD_Model
  facet normal 1 0 0
    outer loop
      vertex 50 325 1872
      vertex 50 321 1868
      vertex 50 325 -100
    endloop
  endfacet
  facet normal 1 0 0
    outer loop
      vertex 50 325 1872
      vertex 50 -321 1868
      vertex 50 321 1868
    endloop
  endfacet
  facet normal 1 -0 0
    outer loop
      vertex 50 -325 1872
      vertex 50 -321 1868
      vertex 50 325 1872
    endloop
  endfacet
  facet normal 1 0 0
    outer loop
      vertex 50 -325 -100
      vertex 50 -321 1868
      vertex 50 -325 1872
    endloop
  endfacet
  facet normal 1 0 0
    outer loop
      vertex 50 -321 1868
      vertex 50 -325 -100
      vertex 50 -321 -100
    endloop
  endfacet
  facet normal 1 0 0
    outer loop
      vertex 50 325 -100
      vertex 50 321 1868
      vertex 50 321 -100
    endloop
  endfacet
  facet normal 0 0 -1
    outer loop
      vertex -50 321 -100
      vertex 50 325 -100
      vertex 50 321 -100
    endloop
  endfacet
  facet normal -0 0 -1
    outer loop
      vertex 50 325 -100
      vertex -50 321 -100
      vertex -50 325 -100
    endloop
  endfacet
  facet normal -1 0 0
    outer loop
      vertex -50 -321 -100
      vertex -50 -325 -100
      vertex -50 -321 1868
    endloop
  endfacet
  facet normal -1 0 0
    outer loop
      vertex -50 321 1868
      vertex -50 325 -100
      vertex -50 321 -100
    endloop
  endfacet
  facet normal -1 0 0
    outer loop
      vertex -50 325 -100
      vertex -50 321 1868
      vertex -50 325 1872
    endloop
  endfacet
  facet normal -1 0 0
    outer loop
      vertex -50 -321 1868
      vertex -50 325 1872
      vertex -50 321 1868
    endloop
  endfacet
  facet normal -1 0 0
    outer loop
      vertex -50 -321 1868
      vertex -50 -325 1872
      vertex -50 325 1872
    endloop
  endfacet
  facet normal -1 0 0
    outer loop
      vertex -50 -325 1872
      vertex -50 -321 1868
      vertex -50 -325 -100
    endloop
  endfacet
  facet normal 0 1 -0
    outer loop
      vertex 50 325 -100
      vertex -50 325 1872
      vertex 50 325 1872
    endloop
  endfacet
  facet normal 0 1 0
    outer loop
      vertex -50 325 1872
      vertex 50 325 -100
      vertex -50 325 -100
    endloop
  endfacet
  facet normal 0 -1 0
    outer loop
      vertex -50 321 -100
      vertex 50 321 1868
      vertex -50 321 1868
    endloop
  endfacet
  facet normal 0 -1 -0
    outer loop
      vertex 50 321 1868
      vertex -50 321 -100
      vertex 50 321 -100
    endloop
  endfacet
  facet normal 0 0 -1
    outer loop
      vertex -50 -325 -100
      vertex 50 -321 -100
      vertex 50 -325 -100
    endloop
  endfacet
  facet normal -0 0 -1
    outer loop
      vertex 50 -321 -100
      vertex -50 -325 -100
      vertex -50 -321 -100
    endloop
  endfacet
  facet normal 0 1 -0
    outer loop
      vertex 50 -321 -100
      vertex -50 -321 1868
      vertex 50 -321 1868
    endloop
  endfacet
  facet normal 0 1 0
    outer loop
      vertex -50 -321 1868
      vertex 50 -321 -100
      vertex -50 -321 -100
    endloop
  endfacet
  facet normal 0 -1 0
    outer loop
      vertex -50 -325 -100
      vertex 50 -325 1872
      vertex -50 -325 1872
    endloop
  endfacet
  facet normal 0 -1 -0
    outer loop
      vertex 50 -325 1872
      vertex -50 -325 -100
      vertex 50 -325 -100
    endloop
  endfacet
  facet normal -0 0 1
    outer loop
      vertex -50 325 1872
      vertex 50 -325 1872
      vertex 50 325 1872
    endloop
  endfacet
  facet normal 0 0 1
    outer loop
      vertex 50 -325 1872
      vertex -50 325 1872
      vertex -50 -325 1872
    endloop
  endfacet
  facet normal 0 0 -1
    outer loop
      vertex -50 -321 1868
      vertex 50 321 1868
      vertex 50 -321 1868
    endloop
  endfacet
  facet normal -0 0 -1
    outer loop
      vertex 50 321 1868
      vertex -50 -321 1868
      vertex -50 321 1868
    endloop
  endfacet
endsolid OpenSCAD_Model
