solid OpenSCAD_Model
  facet normal 1 -0 0
    outer loop
      vertex 50 325 50
      vertex 50 329 -50
      vertex 50 329 50
    endloop
  endfacet
  facet normal 1 0 0
    outer loop
      vertex 50 329 -50
      vertex 50 325 50
      vertex 50 325 -50
    endloop
  endfacet
  facet normal 0 0 1
    outer loop
      vertex 48 325 50
      vertex 50 325 50
      vertex 50 329 50
    endloop
  endfacet
  facet normal 0 0 1
    outer loop
      vertex 50 325 50
      vertex 48 325 50
      vertex 50 -325 50
    endloop
  endfacet
  facet normal 0 0 1
    outer loop
      vertex 48 -325 50
      vertex 50 -325 50
      vertex 48 325 50
    endloop
  endfacet
  facet normal -0 0 1
    outer loop
      vertex -50 329 50
      vertex 48 325 50
      vertex 50 329 50
    endloop
  endfacet
  facet normal 0 0 1
    outer loop
      vertex 48 325 50
      vertex -50 329 50
      vertex -50 325 50
    endloop
  endfacet
  facet normal -0 0 1
    outer loop
      vertex 50 325 50
      vertex 52 -325 50
      vertex 52 325 50
    endloop
  endfacet
  facet normal 0 0 1
    outer loop
      vertex 52 -325 50
      vertex 50 325 50
      vertex 50 -325 50
    endloop
  endfacet
  facet normal 0 0 1
    outer loop
      vertex 50 -325 50
      vertex 48 -325 50
      vertex 50 -329 50
    endloop
  endfacet
  facet normal 0 0 1
    outer loop
      vertex -50 -329 50
      vertex 48 -325 50
      vertex -50 -325 50
    endloop
  endfacet
  facet normal 0 0 1
    outer loop
      vertex 48 -325 50
      vertex -50 -329 50
      vertex 50 -329 50
    endloop
  endfacet
  facet normal 0 0 -1
    outer loop
      vertex 48 -325 -50
      vertex 50 -325 -50
      vertex 50 -329 -50
    endloop
  endfacet
  facet normal 0 0 -1
    outer loop
      vertex 50 -325 -50
      vertex 48 -325 -50
      vertex 50 325 -50
    endloop
  endfacet
  facet normal 0 0 -1
    outer loop
      vertex 48 325 -50
      vertex 50 325 -50
      vertex 48 -325 -50
    endloop
  endfacet
  facet normal 0 0 -1
    outer loop
      vertex -50 -329 -50
      vertex 48 -325 -50
      vertex 50 -329 -50
    endloop
  endfacet
  facet normal -0 0 -1
    outer loop
      vertex 48 -325 -50
      vertex -50 -329 -50
      vertex -50 -325 -50
    endloop
  endfacet
  facet normal 0 0 -1
    outer loop
      vertex 50 -325 -50
      vertex 52 325 -50
      vertex 52 -325 -50
    endloop
  endfacet
  facet normal -0 0 -1
    outer loop
      vertex 52 325 -50
      vertex 50 -325 -50
      vertex 50 325 -50
    endloop
  endfacet
  facet normal 0 0 -1
    outer loop
      vertex 50 325 -50
      vertex 48 325 -50
      vertex 50 329 -50
    endloop
  endfacet
  facet normal 0 0 -1
    outer loop
      vertex -50 329 -50
      vertex 48 325 -50
      vertex -50 325 -50
    endloop
  endfacet
  facet normal 0 0 -1
    outer loop
      vertex 48 325 -50
      vertex -50 329 -50
      vertex 50 329 -50
    endloop
  endfacet
  facet normal -1 0 0
    outer loop
      vertex -50 325 -50
      vertex -50 329 50
      vertex -50 329 -50
    endloop
  endfacet
  facet normal -1 -0 0
    outer loop
      vertex -50 329 50
      vertex -50 325 -50
      vertex -50 325 50
    endloop
  endfacet
  facet normal 0 1 -0
    outer loop
      vertex 50 329 -50
      vertex -50 329 50
      vertex 50 329 50
    endloop
  endfacet
  facet normal 0 1 0
    outer loop
      vertex -50 329 50
      vertex 50 329 -50
      vertex -50 329 -50
    endloop
  endfacet
  facet normal 0 -1 0
    outer loop
      vertex -50 325 -50
      vertex 48 325 50
      vertex -50 325 50
    endloop
  endfacet
  facet normal 0 -1 -0
    outer loop
      vertex 48 325 50
      vertex -50 325 -50
      vertex 48 325 -50
    endloop
  endfacet
  facet normal 0 1 -0
    outer loop
      vertex 52 325 -50
      vertex 50 325 50
      vertex 52 325 50
    endloop
  endfacet
  facet normal 0 1 0
    outer loop
      vertex 50 325 50
      vertex 52 325 -50
      vertex 50 325 -50
    endloop
  endfacet
  facet normal 1 -0 0
    outer loop
      vertex 50 -329 50
      vertex 50 -325 -50
      vertex 50 -325 50
    endloop
  endfacet
  facet normal 1 0 0
    outer loop
      vertex 50 -325 -50
      vertex 50 -329 50
      vertex 50 -329 -50
    endloop
  endfacet
  facet normal -1 0 0
    outer loop
      vertex -50 -329 -50
      vertex -50 -325 50
      vertex -50 -325 -50
    endloop
  endfacet
  facet normal -1 -0 0
    outer loop
      vertex -50 -325 50
      vertex -50 -329 -50
      vertex -50 -329 50
    endloop
  endfacet
  facet normal 0 1 -0
    outer loop
      vertex 48 -325 -50
      vertex -50 -325 50
      vertex 48 -325 50
    endloop
  endfacet
  facet normal 0 1 0
    outer loop
      vertex -50 -325 50
      vertex 48 -325 -50
      vertex -50 -325 -50
    endloop
  endfacet
  facet normal 0 -1 0
    outer loop
      vertex 50 -325 -50
      vertex 52 -325 50
      vertex 50 -325 50
    endloop
  endfacet
  facet normal 0 -1 -0
    outer loop
      vertex 52 -325 50
      vertex 50 -325 -50
      vertex 52 -325 -50
    endloop
  endfacet
  facet normal 0 -1 0
    outer loop
      vertex -50 -329 -50
      vertex 50 -329 50
      vertex -50 -329 50
    endloop
  endfacet
  facet normal 0 -1 -0
    outer loop
      vertex 50 -329 50
      vertex -50 -329 -50
      vertex 50 -329 -50
    endloop
  endfacet
  facet normal 1 -0 0
    outer loop
      vertex 52 -325 50
      vertex 52 325 -50
      vertex 52 325 50
    endloop
  endfacet
  facet normal 1 0 0
    outer loop
      vertex 52 325 -50
      vertex 52 -325 50
      vertex 52 -325 -50
    endloop
  endfacet
  facet normal -1 0 0
    outer loop
      vertex 48 -325 -50
      vertex 48 325 50
      vertex 48 325 -50
    endloop
  endfacet
  facet normal -1 -0 0
    outer loop
      vertex 48 325 50
      vertex 48 -325 -50
      vertex 48 -325 50
    endloop
  endfacet
endsolid OpenSCAD_Model
