solid OpenSCAD_Model
  facet normal 1 -0 0
    outer loop
      vertex 25 -601.5 -25
      vertex 25 -598.5 -310.5
      vertex 25 -598.5 -25
    endloop
  endfacet
  facet normal 1 0 0
    outer loop
      vertex 25 -601.5 -312
      vertex 25 -598.5 -310.5
      vertex 25 -601.5 -25
    endloop
  endfacet
  facet normal 1 0 0
    outer loop
      vertex 25 -598.5 -310.5
      vertex 25 -601.5 -312
      vertex 25 -600 -312
    endloop
  endfacet
  facet normal 1 -0 0
    outer loop
      vertex 25 -598.5 -310.5
      vertex 25 50 -313.5
      vertex 25 50 -310.5
    endloop
  endfacet
  facet normal 1 0 0
    outer loop
      vertex 25 -600 -313.5
      vertex 25 -598.5 -310.5
      vertex 25 -600 -312
    endloop
  endfacet
  facet normal 1 0 0
    outer loop
      vertex 25 -598.5 -310.5
      vertex 25 -600 -313.5
      vertex 25 50 -313.5
    endloop
  endfacet
  facet normal 0 -1 0
    outer loop
      vertex -25 -600 -313.5
      vertex 25 -600 -312
      vertex -25 -600 -312
    endloop
  endfacet
  facet normal 0 -1 -0
    outer loop
      vertex 25 -600 -312
      vertex -25 -600 -313.5
      vertex 25 -600 -313.5
    endloop
  endfacet
  facet normal 0 1 -0
    outer loop
      vertex 25 50 -313.5
      vertex -25 50 -310.5
      vertex 25 50 -310.5
    endloop
  endfacet
  facet normal 0 1 0
    outer loop
      vertex -25 50 -310.5
      vertex 25 50 -313.5
      vertex -25 50 -313.5
    endloop
  endfacet
  facet normal -1 0 0
    outer loop
      vertex -25 50 -313.5
      vertex -25 -598.5 -310.5
      vertex -25 50 -310.5
    endloop
  endfacet
  facet normal -1 0 0
    outer loop
      vertex -25 -600 -312
      vertex -25 -598.5 -310.5
      vertex -25 -600 -313.5
    endloop
  endfacet
  facet normal -1 0 0
    outer loop
      vertex -25 -600 -313.5
      vertex -25 -598.5 -310.5
      vertex -25 50 -313.5
    endloop
  endfacet
  facet normal -1 0 0
    outer loop
      vertex -25 -598.5 310.5
      vertex -25 50 313.5
      vertex -25 50 310.5
    endloop
  endfacet
  facet normal -1 0 0
    outer loop
      vertex -25 -601.5 -312
      vertex -25 -598.5 -310.5
      vertex -25 -600 -312
    endloop
  endfacet
  facet normal -1 -0 0
    outer loop
      vertex -25 -598.5 -310.5
      vertex -25 -601.5 -312
      vertex -25 -598.5 310.5
    endloop
  endfacet
  facet normal -1 0 0
    outer loop
      vertex -25 -600 313.5
      vertex -25 -598.5 310.5
      vertex -25 -600 312
    endloop
  endfacet
  facet normal -1 0 0
    outer loop
      vertex -25 -598.5 310.5
      vertex -25 -600 313.5
      vertex -25 50 313.5
    endloop
  endfacet
  facet normal -1 0 0
    outer loop
      vertex -25 -601.5 312
      vertex -25 -598.5 310.5
      vertex -25 -601.5 -312
    endloop
  endfacet
  facet normal -1 0 0
    outer loop
      vertex -25 -598.5 310.5
      vertex -25 -601.5 312
      vertex -25 -600 312
    endloop
  endfacet
  facet normal 0 0 1
    outer loop
      vertex 12.2268 -2.5989 -310.5
      vertex 25 50 -310.5
      vertex 12.5 0 -310.5
    endloop
  endfacet
  facet normal 0 0 1
    outer loop
      vertex 25 50 -310.5
      vertex 12.2268 2.5989 -310.5
      vertex 12.5 0 -310.5
    endloop
  endfacet
  facet normal 0 0 1
    outer loop
      vertex 25 50 -310.5
      vertex 11.4193 5.08421 -310.5
      vertex 12.2268 2.5989 -310.5
    endloop
  endfacet
  facet normal 0 0 1
    outer loop
      vertex 25 50 -310.5
      vertex 10.1127 7.34731 -310.5
      vertex 11.4193 5.08421 -310.5
    endloop
  endfacet
  facet normal 0 0 1
    outer loop
      vertex 25 50 -310.5
      vertex 8.36413 9.28931 -310.5
      vertex 10.1127 7.34731 -310.5
    endloop
  endfacet
  facet normal 0 0 1
    outer loop
      vertex 25 50 -310.5
      vertex 6.25 10.8253 -310.5
      vertex 8.36413 9.28931 -310.5
    endloop
  endfacet
  facet normal 0 0 1
    outer loop
      vertex 25 50 -310.5
      vertex 3.86271 11.8882 -310.5
      vertex 6.25 10.8253 -310.5
    endloop
  endfacet
  facet normal 0 0 1
    outer loop
      vertex 25 50 -310.5
      vertex 1.30661 12.4315 -310.5
      vertex 3.86271 11.8882 -310.5
    endloop
  endfacet
  facet normal 0 0 1
    outer loop
      vertex 25 50 -310.5
      vertex -1.30661 12.4315 -310.5
      vertex 1.30661 12.4315 -310.5
    endloop
  endfacet
  facet normal -0 0 1
    outer loop
      vertex -25 50 -310.5
      vertex -1.30661 12.4315 -310.5
      vertex 25 50 -310.5
    endloop
  endfacet
  facet normal 0 0 1
    outer loop
      vertex -1.30661 12.4315 -310.5
      vertex -25 50 -310.5
      vertex -3.86271 11.8882 -310.5
    endloop
  endfacet
  facet normal 0 0 1
    outer loop
      vertex -3.86271 11.8882 -310.5
      vertex -25 50 -310.5
      vertex -6.25 10.8253 -310.5
    endloop
  endfacet
  facet normal 0 0 1
    outer loop
      vertex -6.25 10.8253 -310.5
      vertex -25 50 -310.5
      vertex -8.36413 9.28931 -310.5
    endloop
  endfacet
  facet normal 0 0 1
    outer loop
      vertex -12.2268 2.5989 -310.5
      vertex -25 50 -310.5
      vertex -12.5 0 -310.5
    endloop
  endfacet
  facet normal 0 0 1
    outer loop
      vertex -11.4193 5.08421 -310.5
      vertex -25 50 -310.5
      vertex -12.2268 2.5989 -310.5
    endloop
  endfacet
  facet normal 0 0 1
    outer loop
      vertex -10.1127 7.34731 -310.5
      vertex -25 50 -310.5
      vertex -11.4193 5.08421 -310.5
    endloop
  endfacet
  facet normal 0 0 1
    outer loop
      vertex -8.36413 9.28931 -310.5
      vertex -25 50 -310.5
      vertex -10.1127 7.34731 -310.5
    endloop
  endfacet
  facet normal 0 0 1
    outer loop
      vertex 25 50 -310.5
      vertex 12.2268 -2.5989 -310.5
      vertex 25 -598.5 -310.5
    endloop
  endfacet
  facet normal -0 0 1
    outer loop
      vertex 11.4193 -5.08421 -310.5
      vertex 25 -598.5 -310.5
      vertex 12.2268 -2.5989 -310.5
    endloop
  endfacet
  facet normal -0 0 1
    outer loop
      vertex 10.1127 -7.34732 -310.5
      vertex 25 -598.5 -310.5
      vertex 11.4193 -5.08421 -310.5
    endloop
  endfacet
  facet normal -0 0 1
    outer loop
      vertex 8.36413 -9.28931 -310.5
      vertex 25 -598.5 -310.5
      vertex 10.1127 -7.34732 -310.5
    endloop
  endfacet
  facet normal -0 0 1
    outer loop
      vertex 6.25 -10.8253 -310.5
      vertex 25 -598.5 -310.5
      vertex 8.36413 -9.28931 -310.5
    endloop
  endfacet
  facet normal -0 0 1
    outer loop
      vertex 3.86271 -11.8882 -310.5
      vertex 25 -598.5 -310.5
      vertex 6.25 -10.8253 -310.5
    endloop
  endfacet
  facet normal -0 0 1
    outer loop
      vertex 1.30661 -12.4315 -310.5
      vertex 25 -598.5 -310.5
      vertex 3.86271 -11.8882 -310.5
    endloop
  endfacet
  facet normal -0 0 1
    outer loop
      vertex -1.30661 -12.4315 -310.5
      vertex 25 -598.5 -310.5
      vertex 1.30661 -12.4315 -310.5
    endloop
  endfacet
  facet normal 0 0 1
    outer loop
      vertex -25 -598.5 -310.5
      vertex -1.30661 -12.4315 -310.5
      vertex -3.86271 -11.8882 -310.5
    endloop
  endfacet
  facet normal 0 0 1
    outer loop
      vertex -25 -598.5 -310.5
      vertex -3.86271 -11.8882 -310.5
      vertex -6.25 -10.8253 -310.5
    endloop
  endfacet
  facet normal 0 0 1
    outer loop
      vertex -25 -598.5 -310.5
      vertex -6.25 -10.8253 -310.5
      vertex -8.36413 -9.28931 -310.5
    endloop
  endfacet
  facet normal 0 0 1
    outer loop
      vertex -25 -598.5 -310.5
      vertex -8.36413 -9.28931 -310.5
      vertex -10.1127 -7.34732 -310.5
    endloop
  endfacet
  facet normal 0 0 1
    outer loop
      vertex -25 -598.5 -310.5
      vertex -10.1127 -7.34732 -310.5
      vertex -11.4193 -5.08421 -310.5
    endloop
  endfacet
  facet normal 0 0 1
    outer loop
      vertex -25 -598.5 -310.5
      vertex -11.4193 -5.08421 -310.5
      vertex -12.2268 -2.5989 -310.5
    endloop
  endfacet
  facet normal 0 0 1
    outer loop
      vertex -25 50 -310.5
      vertex -12.2268 -2.5989 -310.5
      vertex -12.5 0 -310.5
    endloop
  endfacet
  facet normal 0 0 1
    outer loop
      vertex -12.2268 -2.5989 -310.5
      vertex -25 50 -310.5
      vertex -25 -598.5 -310.5
    endloop
  endfacet
  facet normal 0 0 1
    outer loop
      vertex -1.30661 -12.4315 -310.5
      vertex -25 -598.5 -310.5
      vertex 25 -598.5 -310.5
    endloop
  endfacet
  facet normal 0 0 -1
    outer loop
      vertex 12.2268 -2.5989 -313.5
      vertex 25 50 -313.5
      vertex 25 -600 -313.5
    endloop
  endfacet
  facet normal 0 0 -1
    outer loop
      vertex 25 50 -313.5
      vertex 12.2268 -2.5989 -313.5
      vertex 12.5 0 -313.5
    endloop
  endfacet
  facet normal 0 0 -1
    outer loop
      vertex 25 -600 -313.5
      vertex 11.4193 -5.08421 -313.5
      vertex 12.2268 -2.5989 -313.5
    endloop
  endfacet
  facet normal 0 0 -1
    outer loop
      vertex 25 -600 -313.5
      vertex 10.1127 -7.34732 -313.5
      vertex 11.4193 -5.08421 -313.5
    endloop
  endfacet
  facet normal 0 0 -1
    outer loop
      vertex 25 -600 -313.5
      vertex 8.36413 -9.28931 -313.5
      vertex 10.1127 -7.34732 -313.5
    endloop
  endfacet
  facet normal 0 0 -1
    outer loop
      vertex 25 -600 -313.5
      vertex 6.25 -10.8253 -313.5
      vertex 8.36413 -9.28931 -313.5
    endloop
  endfacet
  facet normal 0 0 -1
    outer loop
      vertex 25 -600 -313.5
      vertex 3.86271 -11.8882 -313.5
      vertex 6.25 -10.8253 -313.5
    endloop
  endfacet
  facet normal 0 0 -1
    outer loop
      vertex 25 -600 -313.5
      vertex 1.30661 -12.4315 -313.5
      vertex 3.86271 -11.8882 -313.5
    endloop
  endfacet
  facet normal 0 0 -1
    outer loop
      vertex 25 -600 -313.5
      vertex -1.30661 -12.4315 -313.5
      vertex 1.30661 -12.4315 -313.5
    endloop
  endfacet
  facet normal 0 0 -1
    outer loop
      vertex -25 -600 -313.5
      vertex -1.30661 -12.4315 -313.5
      vertex 25 -600 -313.5
    endloop
  endfacet
  facet normal -0 0 -1
    outer loop
      vertex -1.30661 -12.4315 -313.5
      vertex -25 -600 -313.5
      vertex -3.86271 -11.8882 -313.5
    endloop
  endfacet
  facet normal -0 0 -1
    outer loop
      vertex -3.86271 -11.8882 -313.5
      vertex -25 -600 -313.5
      vertex -6.25 -10.8253 -313.5
    endloop
  endfacet
  facet normal -0 0 -1
    outer loop
      vertex -6.25 -10.8253 -313.5
      vertex -25 -600 -313.5
      vertex -8.36413 -9.28931 -313.5
    endloop
  endfacet
  facet normal -0 0 -1
    outer loop
      vertex -8.36413 -9.28931 -313.5
      vertex -25 -600 -313.5
      vertex -10.1127 -7.34732 -313.5
    endloop
  endfacet
  facet normal -0 0 -1
    outer loop
      vertex -10.1127 -7.34732 -313.5
      vertex -25 -600 -313.5
      vertex -11.4193 -5.08421 -313.5
    endloop
  endfacet
  facet normal -0 0 -1
    outer loop
      vertex -11.4193 -5.08421 -313.5
      vertex -25 -600 -313.5
      vertex -12.2268 -2.5989 -313.5
    endloop
  endfacet
  facet normal 0 0 -1
    outer loop
      vertex -25 50 -313.5
      vertex -12.2268 -2.5989 -313.5
      vertex -25 -600 -313.5
    endloop
  endfacet
  facet normal 0 0 -1
    outer loop
      vertex 12.2268 2.5989 -313.5
      vertex 25 50 -313.5
      vertex 12.5 0 -313.5
    endloop
  endfacet
  facet normal 0 0 -1
    outer loop
      vertex 11.4193 5.08421 -313.5
      vertex 25 50 -313.5
      vertex 12.2268 2.5989 -313.5
    endloop
  endfacet
  facet normal 0 0 -1
    outer loop
      vertex 10.1127 7.34731 -313.5
      vertex 25 50 -313.5
      vertex 11.4193 5.08421 -313.5
    endloop
  endfacet
  facet normal 0 0 -1
    outer loop
      vertex 8.36413 9.28931 -313.5
      vertex 25 50 -313.5
      vertex 10.1127 7.34731 -313.5
    endloop
  endfacet
  facet normal 0 0 -1
    outer loop
      vertex 6.25 10.8253 -313.5
      vertex 25 50 -313.5
      vertex 8.36413 9.28931 -313.5
    endloop
  endfacet
  facet normal 0 0 -1
    outer loop
      vertex 3.86271 11.8882 -313.5
      vertex 25 50 -313.5
      vertex 6.25 10.8253 -313.5
    endloop
  endfacet
  facet normal 0 0 -1
    outer loop
      vertex 1.30661 12.4315 -313.5
      vertex 25 50 -313.5
      vertex 3.86271 11.8882 -313.5
    endloop
  endfacet
  facet normal 0 0 -1
    outer loop
      vertex -1.30661 12.4315 -313.5
      vertex 25 50 -313.5
      vertex 1.30661 12.4315 -313.5
    endloop
  endfacet
  facet normal 0 0 -1
    outer loop
      vertex -25 50 -313.5
      vertex -1.30661 12.4315 -313.5
      vertex -3.86271 11.8882 -313.5
    endloop
  endfacet
  facet normal 0 0 -1
    outer loop
      vertex -25 50 -313.5
      vertex -3.86271 11.8882 -313.5
      vertex -6.25 10.8253 -313.5
    endloop
  endfacet
  facet normal 0 0 -1
    outer loop
      vertex -25 50 -313.5
      vertex -6.25 10.8253 -313.5
      vertex -8.36413 9.28931 -313.5
    endloop
  endfacet
  facet normal 0 0 -1
    outer loop
      vertex -25 50 -313.5
      vertex -8.36413 9.28931 -313.5
      vertex -10.1127 7.34731 -313.5
    endloop
  endfacet
  facet normal 0 0 -1
    outer loop
      vertex -1.30661 12.4315 -313.5
      vertex -25 50 -313.5
      vertex 25 50 -313.5
    endloop
  endfacet
  facet normal 0 0 -1
    outer loop
      vertex -11.4193 5.08421 -313.5
      vertex -25 50 -313.5
      vertex -10.1127 7.34731 -313.5
    endloop
  endfacet
  facet normal 0 0 -1
    outer loop
      vertex -12.2268 2.5989 -313.5
      vertex -25 50 -313.5
      vertex -11.4193 5.08421 -313.5
    endloop
  endfacet
  facet normal 0 0 -1
    outer loop
      vertex -12.5 0 -313.5
      vertex -25 50 -313.5
      vertex -12.2268 2.5989 -313.5
    endloop
  endfacet
  facet normal 0 0 -1
    outer loop
      vertex -12.2268 -2.5989 -313.5
      vertex -25 50 -313.5
      vertex -12.5 0 -313.5
    endloop
  endfacet
  facet normal -0.951059 0.309008 0
    outer loop
      vertex 11.4193 -5.08421 -313.5
      vertex 12.2268 -2.5989 -310.5
      vertex 12.2268 -2.5989 -313.5
    endloop
  endfacet
  facet normal -0.951059 0.309008 0
    outer loop
      vertex 12.2268 -2.5989 -310.5
      vertex 11.4193 -5.08421 -313.5
      vertex 11.4193 -5.08421 -310.5
    endloop
  endfacet
  facet normal -0.99452 0.104545 0
    outer loop
      vertex 12.2268 -2.5989 -313.5
      vertex 12.5 0 -310.5
      vertex 12.5 0 -313.5
    endloop
  endfacet
  facet normal -0.99452 0.104545 0
    outer loop
      vertex 12.5 0 -310.5
      vertex 12.2268 -2.5989 -313.5
      vertex 12.2268 -2.5989 -310.5
    endloop
  endfacet
  facet normal -0.743146 0.669129 0
    outer loop
      vertex 8.36413 -9.28931 -313.5
      vertex 10.1127 -7.34732 -310.5
      vertex 10.1127 -7.34732 -313.5
    endloop
  endfacet
  facet normal -0.743146 0.669129 0
    outer loop
      vertex 10.1127 -7.34732 -310.5
      vertex 8.36413 -9.28931 -313.5
      vertex 8.36413 -9.28931 -310.5
    endloop
  endfacet
  facet normal 0.743146 0.669129 0
    outer loop
      vertex -8.36413 -9.28931 -310.5
      vertex -10.1127 -7.34732 -313.5
      vertex -10.1127 -7.34732 -310.5
    endloop
  endfacet
  facet normal 0.743146 0.669129 0
    outer loop
      vertex -10.1127 -7.34732 -313.5
      vertex -8.36413 -9.28931 -310.5
      vertex -8.36413 -9.28931 -313.5
    endloop
  endfacet
  facet normal 0.743148 -0.669128 0
    outer loop
      vertex -10.1127 7.34731 -310.5
      vertex -8.36413 9.28931 -313.5
      vertex -8.36413 9.28931 -310.5
    endloop
  endfacet
  facet normal 0.743148 -0.669128 0
    outer loop
      vertex -8.36413 9.28931 -313.5
      vertex -10.1127 7.34731 -310.5
      vertex -10.1127 7.34731 -313.5
    endloop
  endfacet
  facet normal -0.99452 -0.104545 0
    outer loop
      vertex 12.5 0 -313.5
      vertex 12.2268 2.5989 -310.5
      vertex 12.2268 2.5989 -313.5
    endloop
  endfacet
  facet normal -0.99452 -0.104545 0
    outer loop
      vertex 12.2268 2.5989 -310.5
      vertex 12.5 0 -313.5
      vertex 12.5 0 -310.5
    endloop
  endfacet
  facet normal 0.40674 0.913544 -0
    outer loop
      vertex -3.86271 -11.8882 -313.5
      vertex -6.25 -10.8253 -310.5
      vertex -3.86271 -11.8882 -310.5
    endloop
  endfacet
  facet normal 0.40674 0.913544 0
    outer loop
      vertex -6.25 -10.8253 -310.5
      vertex -3.86271 -11.8882 -313.5
      vertex -6.25 -10.8253 -313.5
    endloop
  endfacet
  facet normal -0.866027 0.499998 0
    outer loop
      vertex 10.1127 -7.34732 -313.5
      vertex 11.4193 -5.08421 -310.5
      vertex 11.4193 -5.08421 -313.5
    endloop
  endfacet
  facet normal -0.866027 0.499998 0
    outer loop
      vertex 11.4193 -5.08421 -310.5
      vertex 10.1127 -7.34732 -313.5
      vertex 10.1127 -7.34732 -310.5
    endloop
  endfacet
  facet normal 0.40674 -0.913544 0
    outer loop
      vertex -6.25 10.8253 -313.5
      vertex -3.86271 11.8882 -310.5
      vertex -6.25 10.8253 -310.5
    endloop
  endfacet
  facet normal 0.40674 -0.913544 0
    outer loop
      vertex -3.86271 11.8882 -310.5
      vertex -6.25 10.8253 -313.5
      vertex -3.86271 11.8882 -313.5
    endloop
  endfacet
  facet normal -0.951059 -0.309008 0
    outer loop
      vertex 12.2268 2.5989 -313.5
      vertex 11.4193 5.08421 -310.5
      vertex 11.4193 5.08421 -313.5
    endloop
  endfacet
  facet normal -0.951059 -0.309008 0
    outer loop
      vertex 11.4193 5.08421 -310.5
      vertex 12.2268 2.5989 -313.5
      vertex 12.2268 2.5989 -310.5
    endloop
  endfacet
  facet normal 0.207906 -0.978149 0
    outer loop
      vertex -3.86271 11.8882 -313.5
      vertex -1.30661 12.4315 -310.5
      vertex -3.86271 11.8882 -310.5
    endloop
  endfacet
  facet normal 0.207906 -0.978149 0
    outer loop
      vertex -1.30661 12.4315 -310.5
      vertex -3.86271 11.8882 -313.5
      vertex -1.30661 12.4315 -313.5
    endloop
  endfacet
  facet normal -0.207906 -0.978149 0
    outer loop
      vertex 1.30661 12.4315 -313.5
      vertex 3.86271 11.8882 -310.5
      vertex 1.30661 12.4315 -310.5
    endloop
  endfacet
  facet normal -0.207906 -0.978149 -0
    outer loop
      vertex 3.86271 11.8882 -310.5
      vertex 1.30661 12.4315 -313.5
      vertex 3.86271 11.8882 -313.5
    endloop
  endfacet
  facet normal 0.587781 -0.80902 0
    outer loop
      vertex -8.36413 9.28931 -313.5
      vertex -6.25 10.8253 -310.5
      vertex -8.36413 9.28931 -310.5
    endloop
  endfacet
  facet normal 0.587781 -0.80902 0
    outer loop
      vertex -6.25 10.8253 -310.5
      vertex -8.36413 9.28931 -313.5
      vertex -6.25 10.8253 -313.5
    endloop
  endfacet
  facet normal 0.951059 0.309008 0
    outer loop
      vertex -11.4193 -5.08421 -310.5
      vertex -12.2268 -2.5989 -313.5
      vertex -12.2268 -2.5989 -310.5
    endloop
  endfacet
  facet normal 0.951059 0.309008 0
    outer loop
      vertex -12.2268 -2.5989 -313.5
      vertex -11.4193 -5.08421 -310.5
      vertex -11.4193 -5.08421 -313.5
    endloop
  endfacet
  facet normal 0 1 -0
    outer loop
      vertex 1.30661 -12.4315 -313.5
      vertex -1.30661 -12.4315 -310.5
      vertex 1.30661 -12.4315 -310.5
    endloop
  endfacet
  facet normal 0 1 0
    outer loop
      vertex -1.30661 -12.4315 -310.5
      vertex 1.30661 -12.4315 -313.5
      vertex -1.30661 -12.4315 -313.5
    endloop
  endfacet
  facet normal -0.743148 -0.669128 0
    outer loop
      vertex 10.1127 7.34731 -313.5
      vertex 8.36413 9.28931 -310.5
      vertex 8.36413 9.28931 -313.5
    endloop
  endfacet
  facet normal -0.743148 -0.669128 0
    outer loop
      vertex 8.36413 9.28931 -310.5
      vertex 10.1127 7.34731 -313.5
      vertex 10.1127 7.34731 -310.5
    endloop
  endfacet
  facet normal -0.40674 0.913544 0
    outer loop
      vertex 6.25 -10.8253 -313.5
      vertex 3.86271 -11.8882 -310.5
      vertex 6.25 -10.8253 -310.5
    endloop
  endfacet
  facet normal -0.40674 0.913544 0
    outer loop
      vertex 3.86271 -11.8882 -310.5
      vertex 6.25 -10.8253 -313.5
      vertex 3.86271 -11.8882 -313.5
    endloop
  endfacet
  facet normal -0.866026 -0.5 0
    outer loop
      vertex 11.4193 5.08421 -313.5
      vertex 10.1127 7.34731 -310.5
      vertex 10.1127 7.34731 -313.5
    endloop
  endfacet
  facet normal -0.866026 -0.5 0
    outer loop
      vertex 10.1127 7.34731 -310.5
      vertex 11.4193 5.08421 -313.5
      vertex 11.4193 5.08421 -310.5
    endloop
  endfacet
  facet normal 0.866027 0.499998 0
    outer loop
      vertex -10.1127 -7.34732 -310.5
      vertex -11.4193 -5.08421 -313.5
      vertex -11.4193 -5.08421 -310.5
    endloop
  endfacet
  facet normal 0.866027 0.499998 0
    outer loop
      vertex -11.4193 -5.08421 -313.5
      vertex -10.1127 -7.34732 -310.5
      vertex -10.1127 -7.34732 -313.5
    endloop
  endfacet
  facet normal 0.99452 -0.104545 0
    outer loop
      vertex -12.5 0 -310.5
      vertex -12.2268 2.5989 -313.5
      vertex -12.2268 2.5989 -310.5
    endloop
  endfacet
  facet normal 0.99452 -0.104545 0
    outer loop
      vertex -12.2268 2.5989 -313.5
      vertex -12.5 0 -310.5
      vertex -12.5 0 -313.5
    endloop
  endfacet
  facet normal 0.866026 -0.5 0
    outer loop
      vertex -11.4193 5.08421 -310.5
      vertex -10.1127 7.34731 -313.5
      vertex -10.1127 7.34731 -310.5
    endloop
  endfacet
  facet normal 0.866026 -0.5 0
    outer loop
      vertex -10.1127 7.34731 -313.5
      vertex -11.4193 5.08421 -310.5
      vertex -11.4193 5.08421 -313.5
    endloop
  endfacet
  facet normal 0.587781 0.80902 -0
    outer loop
      vertex -6.25 -10.8253 -313.5
      vertex -8.36413 -9.28931 -310.5
      vertex -6.25 -10.8253 -310.5
    endloop
  endfacet
  facet normal 0.587781 0.80902 0
    outer loop
      vertex -8.36413 -9.28931 -310.5
      vertex -6.25 -10.8253 -313.5
      vertex -8.36413 -9.28931 -313.5
    endloop
  endfacet
  facet normal -0.207906 0.978149 0
    outer loop
      vertex 3.86271 -11.8882 -313.5
      vertex 1.30661 -12.4315 -310.5
      vertex 3.86271 -11.8882 -310.5
    endloop
  endfacet
  facet normal -0.207906 0.978149 0
    outer loop
      vertex 1.30661 -12.4315 -310.5
      vertex 3.86271 -11.8882 -313.5
      vertex 1.30661 -12.4315 -313.5
    endloop
  endfacet
  facet normal -0.587781 0.80902 0
    outer loop
      vertex 8.36413 -9.28931 -313.5
      vertex 6.25 -10.8253 -310.5
      vertex 8.36413 -9.28931 -310.5
    endloop
  endfacet
  facet normal -0.587781 0.80902 0
    outer loop
      vertex 6.25 -10.8253 -310.5
      vertex 8.36413 -9.28931 -313.5
      vertex 6.25 -10.8253 -313.5
    endloop
  endfacet
  facet normal 0.207906 0.978149 -0
    outer loop
      vertex -1.30661 -12.4315 -313.5
      vertex -3.86271 -11.8882 -310.5
      vertex -1.30661 -12.4315 -310.5
    endloop
  endfacet
  facet normal 0.207906 0.978149 0
    outer loop
      vertex -3.86271 -11.8882 -310.5
      vertex -1.30661 -12.4315 -313.5
      vertex -3.86271 -11.8882 -313.5
    endloop
  endfacet
  facet normal 0.951059 -0.309008 0
    outer loop
      vertex -12.2268 2.5989 -310.5
      vertex -11.4193 5.08421 -313.5
      vertex -11.4193 5.08421 -310.5
    endloop
  endfacet
  facet normal 0.951059 -0.309008 0
    outer loop
      vertex -11.4193 5.08421 -313.5
      vertex -12.2268 2.5989 -310.5
      vertex -12.2268 2.5989 -313.5
    endloop
  endfacet
  facet normal -0.40674 -0.913544 0
    outer loop
      vertex 3.86271 11.8882 -313.5
      vertex 6.25 10.8253 -310.5
      vertex 3.86271 11.8882 -310.5
    endloop
  endfacet
  facet normal -0.40674 -0.913544 -0
    outer loop
      vertex 6.25 10.8253 -310.5
      vertex 3.86271 11.8882 -313.5
      vertex 6.25 10.8253 -313.5
    endloop
  endfacet
  facet normal -0.587781 -0.80902 0
    outer loop
      vertex 6.25 10.8253 -313.5
      vertex 8.36413 9.28931 -310.5
      vertex 6.25 10.8253 -310.5
    endloop
  endfacet
  facet normal -0.587781 -0.80902 -0
    outer loop
      vertex 8.36413 9.28931 -310.5
      vertex 6.25 10.8253 -313.5
      vertex 8.36413 9.28931 -313.5
    endloop
  endfacet
  facet normal 0 -1 0
    outer loop
      vertex -1.30661 12.4315 -313.5
      vertex 1.30661 12.4315 -310.5
      vertex -1.30661 12.4315 -310.5
    endloop
  endfacet
  facet normal 0 -1 -0
    outer loop
      vertex 1.30661 12.4315 -310.5
      vertex -1.30661 12.4315 -313.5
      vertex 1.30661 12.4315 -313.5
    endloop
  endfacet
  facet normal 0.99452 0.104545 0
    outer loop
      vertex -12.2268 -2.5989 -310.5
      vertex -12.5 0 -313.5
      vertex -12.5 0 -310.5
    endloop
  endfacet
  facet normal 0.99452 0.104545 0
    outer loop
      vertex -12.5 0 -313.5
      vertex -12.2268 -2.5989 -310.5
      vertex -12.2268 -2.5989 -313.5
    endloop
  endfacet
  facet normal 1 0 0
    outer loop
      vertex 25 50 313.5
      vertex 25 -598.5 310.5
      vertex 25 50 310.5
    endloop
  endfacet
  facet normal 1 -0 0
    outer loop
      vertex 25 -600 313.5
      vertex 25 -598.5 310.5
      vertex 25 50 313.5
    endloop
  endfacet
  facet normal 1 -0 0
    outer loop
      vertex 25 -600 312
      vertex 25 -598.5 310.5
      vertex 25 -600 313.5
    endloop
  endfacet
  facet normal 1 -0 0
    outer loop
      vertex 25 -601.5 312
      vertex 25 -598.5 310.5
      vertex 25 -600 312
    endloop
  endfacet
  facet normal 1 0 0
    outer loop
      vertex 25 -601.5 25
      vertex 25 -598.5 310.5
      vertex 25 -601.5 312
    endloop
  endfacet
  facet normal 1 0 0
    outer loop
      vertex 25 -598.5 310.5
      vertex 25 -601.5 25
      vertex 25 -598.5 25
    endloop
  endfacet
  facet normal 0 -1 0
    outer loop
      vertex -25 -600 312
      vertex 25 -600 313.5
      vertex -25 -600 313.5
    endloop
  endfacet
  facet normal 0 -1 -0
    outer loop
      vertex 25 -600 313.5
      vertex -25 -600 312
      vertex 25 -600 312
    endloop
  endfacet
  facet normal 0 1 -0
    outer loop
      vertex 25 50 310.5
      vertex -25 50 313.5
      vertex 25 50 313.5
    endloop
  endfacet
  facet normal 0 1 0
    outer loop
      vertex -25 50 313.5
      vertex 25 50 310.5
      vertex -25 50 310.5
    endloop
  endfacet
  facet normal 0 0 1
    outer loop
      vertex 12.2268 -2.5989 313.5
      vertex 25 50 313.5
      vertex 12.5 0 313.5
    endloop
  endfacet
  facet normal 0 0 1
    outer loop
      vertex 25 50 313.5
      vertex 12.2268 2.5989 313.5
      vertex 12.5 0 313.5
    endloop
  endfacet
  facet normal 0 0 1
    outer loop
      vertex 25 50 313.5
      vertex 11.4193 5.08421 313.5
      vertex 12.2268 2.5989 313.5
    endloop
  endfacet
  facet normal 0 0 1
    outer loop
      vertex 25 50 313.5
      vertex 10.1127 7.34731 313.5
      vertex 11.4193 5.08421 313.5
    endloop
  endfacet
  facet normal 0 0 1
    outer loop
      vertex 25 50 313.5
      vertex 8.36413 9.28931 313.5
      vertex 10.1127 7.34731 313.5
    endloop
  endfacet
  facet normal 0 0 1
    outer loop
      vertex 25 50 313.5
      vertex 6.25 10.8253 313.5
      vertex 8.36413 9.28931 313.5
    endloop
  endfacet
  facet normal 0 0 1
    outer loop
      vertex 25 50 313.5
      vertex 3.86271 11.8882 313.5
      vertex 6.25 10.8253 313.5
    endloop
  endfacet
  facet normal 0 0 1
    outer loop
      vertex 25 50 313.5
      vertex 1.30661 12.4315 313.5
      vertex 3.86271 11.8882 313.5
    endloop
  endfacet
  facet normal 0 0 1
    outer loop
      vertex 25 50 313.5
      vertex -1.30661 12.4315 313.5
      vertex 1.30661 12.4315 313.5
    endloop
  endfacet
  facet normal -0 0 1
    outer loop
      vertex -25 50 313.5
      vertex -1.30661 12.4315 313.5
      vertex 25 50 313.5
    endloop
  endfacet
  facet normal 0 0 1
    outer loop
      vertex -1.30661 12.4315 313.5
      vertex -25 50 313.5
      vertex -3.86271 11.8882 313.5
    endloop
  endfacet
  facet normal 0 0 1
    outer loop
      vertex -3.86271 11.8882 313.5
      vertex -25 50 313.5
      vertex -6.25 10.8253 313.5
    endloop
  endfacet
  facet normal 0 0 1
    outer loop
      vertex -6.25 10.8253 313.5
      vertex -25 50 313.5
      vertex -8.36413 9.28931 313.5
    endloop
  endfacet
  facet normal 0 0 1
    outer loop
      vertex -12.2268 2.5989 313.5
      vertex -25 50 313.5
      vertex -12.5 0 313.5
    endloop
  endfacet
  facet normal 0 0 1
    outer loop
      vertex -11.4193 5.08421 313.5
      vertex -25 50 313.5
      vertex -12.2268 2.5989 313.5
    endloop
  endfacet
  facet normal 0 0 1
    outer loop
      vertex -10.1127 7.34731 313.5
      vertex -25 50 313.5
      vertex -11.4193 5.08421 313.5
    endloop
  endfacet
  facet normal 0 0 1
    outer loop
      vertex -8.36413 9.28931 313.5
      vertex -25 50 313.5
      vertex -10.1127 7.34731 313.5
    endloop
  endfacet
  facet normal 0 0 1
    outer loop
      vertex 25 50 313.5
      vertex 12.2268 -2.5989 313.5
      vertex 25 -600 313.5
    endloop
  endfacet
  facet normal -0 0 1
    outer loop
      vertex 11.4193 -5.08421 313.5
      vertex 25 -600 313.5
      vertex 12.2268 -2.5989 313.5
    endloop
  endfacet
  facet normal -0 0 1
    outer loop
      vertex 10.1127 -7.34732 313.5
      vertex 25 -600 313.5
      vertex 11.4193 -5.08421 313.5
    endloop
  endfacet
  facet normal -0 0 1
    outer loop
      vertex 8.36413 -9.28931 313.5
      vertex 25 -600 313.5
      vertex 10.1127 -7.34732 313.5
    endloop
  endfacet
  facet normal -0 0 1
    outer loop
      vertex 6.25 -10.8253 313.5
      vertex 25 -600 313.5
      vertex 8.36413 -9.28931 313.5
    endloop
  endfacet
  facet normal -0 0 1
    outer loop
      vertex 3.86271 -11.8882 313.5
      vertex 25 -600 313.5
      vertex 6.25 -10.8253 313.5
    endloop
  endfacet
  facet normal -0 0 1
    outer loop
      vertex 1.30661 -12.4315 313.5
      vertex 25 -600 313.5
      vertex 3.86271 -11.8882 313.5
    endloop
  endfacet
  facet normal -0 0 1
    outer loop
      vertex -1.30661 -12.4315 313.5
      vertex 25 -600 313.5
      vertex 1.30661 -12.4315 313.5
    endloop
  endfacet
  facet normal 0 0 1
    outer loop
      vertex -25 -600 313.5
      vertex -1.30661 -12.4315 313.5
      vertex -3.86271 -11.8882 313.5
    endloop
  endfacet
  facet normal 0 0 1
    outer loop
      vertex -25 -600 313.5
      vertex -3.86271 -11.8882 313.5
      vertex -6.25 -10.8253 313.5
    endloop
  endfacet
  facet normal 0 0 1
    outer loop
      vertex -25 -600 313.5
      vertex -6.25 -10.8253 313.5
      vertex -8.36413 -9.28931 313.5
    endloop
  endfacet
  facet normal 0 0 1
    outer loop
      vertex -25 -600 313.5
      vertex -8.36413 -9.28931 313.5
      vertex -10.1127 -7.34732 313.5
    endloop
  endfacet
  facet normal 0 0 1
    outer loop
      vertex -25 -600 313.5
      vertex -10.1127 -7.34732 313.5
      vertex -11.4193 -5.08421 313.5
    endloop
  endfacet
  facet normal 0 0 1
    outer loop
      vertex -25 -600 313.5
      vertex -11.4193 -5.08421 313.5
      vertex -12.2268 -2.5989 313.5
    endloop
  endfacet
  facet normal 0 0 1
    outer loop
      vertex -25 50 313.5
      vertex -12.2268 -2.5989 313.5
      vertex -12.5 0 313.5
    endloop
  endfacet
  facet normal 0 0 1
    outer loop
      vertex -12.2268 -2.5989 313.5
      vertex -25 50 313.5
      vertex -25 -600 313.5
    endloop
  endfacet
  facet normal 0 0 1
    outer loop
      vertex -1.30661 -12.4315 313.5
      vertex -25 -600 313.5
      vertex 25 -600 313.5
    endloop
  endfacet
  facet normal 0 0 -1
    outer loop
      vertex 12.2268 -2.5989 310.5
      vertex 25 50 310.5
      vertex 25 -598.5 310.5
    endloop
  endfacet
  facet normal 0 0 -1
    outer loop
      vertex 25 50 310.5
      vertex 12.2268 -2.5989 310.5
      vertex 12.5 0 310.5
    endloop
  endfacet
  facet normal 0 0 -1
    outer loop
      vertex 25 -598.5 310.5
      vertex 11.4193 -5.08421 310.5
      vertex 12.2268 -2.5989 310.5
    endloop
  endfacet
  facet normal 0 0 -1
    outer loop
      vertex 25 -598.5 310.5
      vertex 10.1127 -7.34732 310.5
      vertex 11.4193 -5.08421 310.5
    endloop
  endfacet
  facet normal 0 0 -1
    outer loop
      vertex 25 -598.5 310.5
      vertex 8.36413 -9.28931 310.5
      vertex 10.1127 -7.34732 310.5
    endloop
  endfacet
  facet normal 0 0 -1
    outer loop
      vertex 25 -598.5 310.5
      vertex 6.25 -10.8253 310.5
      vertex 8.36413 -9.28931 310.5
    endloop
  endfacet
  facet normal 0 0 -1
    outer loop
      vertex 25 -598.5 310.5
      vertex 3.86271 -11.8882 310.5
      vertex 6.25 -10.8253 310.5
    endloop
  endfacet
  facet normal 0 0 -1
    outer loop
      vertex 25 -598.5 310.5
      vertex 1.30661 -12.4315 310.5
      vertex 3.86271 -11.8882 310.5
    endloop
  endfacet
  facet normal 0 0 -1
    outer loop
      vertex 25 -598.5 310.5
      vertex -1.30661 -12.4315 310.5
      vertex 1.30661 -12.4315 310.5
    endloop
  endfacet
  facet normal 0 0 -1
    outer loop
      vertex -25 -598.5 310.5
      vertex -1.30661 -12.4315 310.5
      vertex 25 -598.5 310.5
    endloop
  endfacet
  facet normal -0 0 -1
    outer loop
      vertex -1.30661 -12.4315 310.5
      vertex -25 -598.5 310.5
      vertex -3.86271 -11.8882 310.5
    endloop
  endfacet
  facet normal -0 0 -1
    outer loop
      vertex -3.86271 -11.8882 310.5
      vertex -25 -598.5 310.5
      vertex -6.25 -10.8253 310.5
    endloop
  endfacet
  facet normal -0 0 -1
    outer loop
      vertex -6.25 -10.8253 310.5
      vertex -25 -598.5 310.5
      vertex -8.36413 -9.28931 310.5
    endloop
  endfacet
  facet normal -0 0 -1
    outer loop
      vertex -8.36413 -9.28931 310.5
      vertex -25 -598.5 310.5
      vertex -10.1127 -7.34732 310.5
    endloop
  endfacet
  facet normal -0 0 -1
    outer loop
      vertex -10.1127 -7.34732 310.5
      vertex -25 -598.5 310.5
      vertex -11.4193 -5.08421 310.5
    endloop
  endfacet
  facet normal -0 0 -1
    outer loop
      vertex -11.4193 -5.08421 310.5
      vertex -25 -598.5 310.5
      vertex -12.2268 -2.5989 310.5
    endloop
  endfacet
  facet normal 0 0 -1
    outer loop
      vertex -25 50 310.5
      vertex -12.2268 -2.5989 310.5
      vertex -25 -598.5 310.5
    endloop
  endfacet
  facet normal 0 0 -1
    outer loop
      vertex 12.2268 2.5989 310.5
      vertex 25 50 310.5
      vertex 12.5 0 310.5
    endloop
  endfacet
  facet normal 0 0 -1
    outer loop
      vertex 11.4193 5.08421 310.5
      vertex 25 50 310.5
      vertex 12.2268 2.5989 310.5
    endloop
  endfacet
  facet normal 0 0 -1
    outer loop
      vertex 10.1127 7.34731 310.5
      vertex 25 50 310.5
      vertex 11.4193 5.08421 310.5
    endloop
  endfacet
  facet normal 0 0 -1
    outer loop
      vertex 8.36413 9.28931 310.5
      vertex 25 50 310.5
      vertex 10.1127 7.34731 310.5
    endloop
  endfacet
  facet normal 0 0 -1
    outer loop
      vertex 6.25 10.8253 310.5
      vertex 25 50 310.5
      vertex 8.36413 9.28931 310.5
    endloop
  endfacet
  facet normal 0 0 -1
    outer loop
      vertex 3.86271 11.8882 310.5
      vertex 25 50 310.5
      vertex 6.25 10.8253 310.5
    endloop
  endfacet
  facet normal 0 0 -1
    outer loop
      vertex 1.30661 12.4315 310.5
      vertex 25 50 310.5
      vertex 3.86271 11.8882 310.5
    endloop
  endfacet
  facet normal 0 0 -1
    outer loop
      vertex -1.30661 12.4315 310.5
      vertex 25 50 310.5
      vertex 1.30661 12.4315 310.5
    endloop
  endfacet
  facet normal 0 0 -1
    outer loop
      vertex -25 50 310.5
      vertex -1.30661 12.4315 310.5
      vertex -3.86271 11.8882 310.5
    endloop
  endfacet
  facet normal 0 0 -1
    outer loop
      vertex -25 50 310.5
      vertex -3.86271 11.8882 310.5
      vertex -6.25 10.8253 310.5
    endloop
  endfacet
  facet normal 0 0 -1
    outer loop
      vertex -25 50 310.5
      vertex -6.25 10.8253 310.5
      vertex -8.36413 9.28931 310.5
    endloop
  endfacet
  facet normal 0 0 -1
    outer loop
      vertex -25 50 310.5
      vertex -8.36413 9.28931 310.5
      vertex -10.1127 7.34731 310.5
    endloop
  endfacet
  facet normal 0 0 -1
    outer loop
      vertex -1.30661 12.4315 310.5
      vertex -25 50 310.5
      vertex 25 50 310.5
    endloop
  endfacet
  facet normal 0 0 -1
    outer loop
      vertex -11.4193 5.08421 310.5
      vertex -25 50 310.5
      vertex -10.1127 7.34731 310.5
    endloop
  endfacet
  facet normal 0 0 -1
    outer loop
      vertex -12.2268 2.5989 310.5
      vertex -25 50 310.5
      vertex -11.4193 5.08421 310.5
    endloop
  endfacet
  facet normal 0 0 -1
    outer loop
      vertex -12.5 0 310.5
      vertex -25 50 310.5
      vertex -12.2268 2.5989 310.5
    endloop
  endfacet
  facet normal 0 0 -1
    outer loop
      vertex -12.2268 -2.5989 310.5
      vertex -25 50 310.5
      vertex -12.5 0 310.5
    endloop
  endfacet
  facet normal -0.951059 0.309008 0
    outer loop
      vertex 11.4193 -5.08421 310.5
      vertex 12.2268 -2.5989 313.5
      vertex 12.2268 -2.5989 310.5
    endloop
  endfacet
  facet normal -0.951059 0.309008 0
    outer loop
      vertex 12.2268 -2.5989 313.5
      vertex 11.4193 -5.08421 310.5
      vertex 11.4193 -5.08421 313.5
    endloop
  endfacet
  facet normal -0.99452 0.104545 0
    outer loop
      vertex 12.2268 -2.5989 310.5
      vertex 12.5 0 313.5
      vertex 12.5 0 310.5
    endloop
  endfacet
  facet normal -0.99452 0.104545 0
    outer loop
      vertex 12.5 0 313.5
      vertex 12.2268 -2.5989 310.5
      vertex 12.2268 -2.5989 313.5
    endloop
  endfacet
  facet normal -0.743146 0.669129 0
    outer loop
      vertex 8.36413 -9.28931 310.5
      vertex 10.1127 -7.34732 313.5
      vertex 10.1127 -7.34732 310.5
    endloop
  endfacet
  facet normal -0.743146 0.669129 0
    outer loop
      vertex 10.1127 -7.34732 313.5
      vertex 8.36413 -9.28931 310.5
      vertex 8.36413 -9.28931 313.5
    endloop
  endfacet
  facet normal 0.743146 0.669129 0
    outer loop
      vertex -8.36413 -9.28931 313.5
      vertex -10.1127 -7.34732 310.5
      vertex -10.1127 -7.34732 313.5
    endloop
  endfacet
  facet normal 0.743146 0.669129 0
    outer loop
      vertex -10.1127 -7.34732 310.5
      vertex -8.36413 -9.28931 313.5
      vertex -8.36413 -9.28931 310.5
    endloop
  endfacet
  facet normal 0.743148 -0.669128 0
    outer loop
      vertex -10.1127 7.34731 313.5
      vertex -8.36413 9.28931 310.5
      vertex -8.36413 9.28931 313.5
    endloop
  endfacet
  facet normal 0.743148 -0.669128 0
    outer loop
      vertex -8.36413 9.28931 310.5
      vertex -10.1127 7.34731 313.5
      vertex -10.1127 7.34731 310.5
    endloop
  endfacet
  facet normal -0.99452 -0.104545 0
    outer loop
      vertex 12.5 0 310.5
      vertex 12.2268 2.5989 313.5
      vertex 12.2268 2.5989 310.5
    endloop
  endfacet
  facet normal -0.99452 -0.104545 0
    outer loop
      vertex 12.2268 2.5989 313.5
      vertex 12.5 0 310.5
      vertex 12.5 0 313.5
    endloop
  endfacet
  facet normal 0.40674 0.913544 -0
    outer loop
      vertex -3.86271 -11.8882 310.5
      vertex -6.25 -10.8253 313.5
      vertex -3.86271 -11.8882 313.5
    endloop
  endfacet
  facet normal 0.40674 0.913544 0
    outer loop
      vertex -6.25 -10.8253 313.5
      vertex -3.86271 -11.8882 310.5
      vertex -6.25 -10.8253 310.5
    endloop
  endfacet
  facet normal -0.866027 0.499998 0
    outer loop
      vertex 10.1127 -7.34732 310.5
      vertex 11.4193 -5.08421 313.5
      vertex 11.4193 -5.08421 310.5
    endloop
  endfacet
  facet normal -0.866027 0.499998 0
    outer loop
      vertex 11.4193 -5.08421 313.5
      vertex 10.1127 -7.34732 310.5
      vertex 10.1127 -7.34732 313.5
    endloop
  endfacet
  facet normal 0.40674 -0.913544 0
    outer loop
      vertex -6.25 10.8253 310.5
      vertex -3.86271 11.8882 313.5
      vertex -6.25 10.8253 313.5
    endloop
  endfacet
  facet normal 0.40674 -0.913544 0
    outer loop
      vertex -3.86271 11.8882 313.5
      vertex -6.25 10.8253 310.5
      vertex -3.86271 11.8882 310.5
    endloop
  endfacet
  facet normal -0.951059 -0.309008 0
    outer loop
      vertex 12.2268 2.5989 310.5
      vertex 11.4193 5.08421 313.5
      vertex 11.4193 5.08421 310.5
    endloop
  endfacet
  facet normal -0.951059 -0.309008 0
    outer loop
      vertex 11.4193 5.08421 313.5
      vertex 12.2268 2.5989 310.5
      vertex 12.2268 2.5989 313.5
    endloop
  endfacet
  facet normal 0.207906 -0.978149 0
    outer loop
      vertex -3.86271 11.8882 310.5
      vertex -1.30661 12.4315 313.5
      vertex -3.86271 11.8882 313.5
    endloop
  endfacet
  facet normal 0.207906 -0.978149 0
    outer loop
      vertex -1.30661 12.4315 313.5
      vertex -3.86271 11.8882 310.5
      vertex -1.30661 12.4315 310.5
    endloop
  endfacet
  facet normal -0.207906 -0.978149 0
    outer loop
      vertex 1.30661 12.4315 310.5
      vertex 3.86271 11.8882 313.5
      vertex 1.30661 12.4315 313.5
    endloop
  endfacet
  facet normal -0.207906 -0.978149 -0
    outer loop
      vertex 3.86271 11.8882 313.5
      vertex 1.30661 12.4315 310.5
      vertex 3.86271 11.8882 310.5
    endloop
  endfacet
  facet normal 0.587781 -0.80902 0
    outer loop
      vertex -8.36413 9.28931 310.5
      vertex -6.25 10.8253 313.5
      vertex -8.36413 9.28931 313.5
    endloop
  endfacet
  facet normal 0.587781 -0.80902 0
    outer loop
      vertex -6.25 10.8253 313.5
      vertex -8.36413 9.28931 310.5
      vertex -6.25 10.8253 310.5
    endloop
  endfacet
  facet normal 0.951059 0.309008 0
    outer loop
      vertex -11.4193 -5.08421 313.5
      vertex -12.2268 -2.5989 310.5
      vertex -12.2268 -2.5989 313.5
    endloop
  endfacet
  facet normal 0.951059 0.309008 0
    outer loop
      vertex -12.2268 -2.5989 310.5
      vertex -11.4193 -5.08421 313.5
      vertex -11.4193 -5.08421 310.5
    endloop
  endfacet
  facet normal 0 1 -0
    outer loop
      vertex 1.30661 -12.4315 310.5
      vertex -1.30661 -12.4315 313.5
      vertex 1.30661 -12.4315 313.5
    endloop
  endfacet
  facet normal 0 1 0
    outer loop
      vertex -1.30661 -12.4315 313.5
      vertex 1.30661 -12.4315 310.5
      vertex -1.30661 -12.4315 310.5
    endloop
  endfacet
  facet normal -0.743148 -0.669128 0
    outer loop
      vertex 10.1127 7.34731 310.5
      vertex 8.36413 9.28931 313.5
      vertex 8.36413 9.28931 310.5
    endloop
  endfacet
  facet normal -0.743148 -0.669128 0
    outer loop
      vertex 8.36413 9.28931 313.5
      vertex 10.1127 7.34731 310.5
      vertex 10.1127 7.34731 313.5
    endloop
  endfacet
  facet normal -0.40674 0.913544 0
    outer loop
      vertex 6.25 -10.8253 310.5
      vertex 3.86271 -11.8882 313.5
      vertex 6.25 -10.8253 313.5
    endloop
  endfacet
  facet normal -0.40674 0.913544 0
    outer loop
      vertex 3.86271 -11.8882 313.5
      vertex 6.25 -10.8253 310.5
      vertex 3.86271 -11.8882 310.5
    endloop
  endfacet
  facet normal -0.866026 -0.5 0
    outer loop
      vertex 11.4193 5.08421 310.5
      vertex 10.1127 7.34731 313.5
      vertex 10.1127 7.34731 310.5
    endloop
  endfacet
  facet normal -0.866026 -0.5 0
    outer loop
      vertex 10.1127 7.34731 313.5
      vertex 11.4193 5.08421 310.5
      vertex 11.4193 5.08421 313.5
    endloop
  endfacet
  facet normal 0.866027 0.499998 0
    outer loop
      vertex -10.1127 -7.34732 313.5
      vertex -11.4193 -5.08421 310.5
      vertex -11.4193 -5.08421 313.5
    endloop
  endfacet
  facet normal 0.866027 0.499998 0
    outer loop
      vertex -11.4193 -5.08421 310.5
      vertex -10.1127 -7.34732 313.5
      vertex -10.1127 -7.34732 310.5
    endloop
  endfacet
  facet normal 0.99452 -0.104545 0
    outer loop
      vertex -12.5 0 313.5
      vertex -12.2268 2.5989 310.5
      vertex -12.2268 2.5989 313.5
    endloop
  endfacet
  facet normal 0.99452 -0.104545 0
    outer loop
      vertex -12.2268 2.5989 310.5
      vertex -12.5 0 313.5
      vertex -12.5 0 310.5
    endloop
  endfacet
  facet normal 0.866026 -0.5 0
    outer loop
      vertex -11.4193 5.08421 313.5
      vertex -10.1127 7.34731 310.5
      vertex -10.1127 7.34731 313.5
    endloop
  endfacet
  facet normal 0.866026 -0.5 0
    outer loop
      vertex -10.1127 7.34731 310.5
      vertex -11.4193 5.08421 313.5
      vertex -11.4193 5.08421 310.5
    endloop
  endfacet
  facet normal 0.587781 0.80902 -0
    outer loop
      vertex -6.25 -10.8253 310.5
      vertex -8.36413 -9.28931 313.5
      vertex -6.25 -10.8253 313.5
    endloop
  endfacet
  facet normal 0.587781 0.80902 0
    outer loop
      vertex -8.36413 -9.28931 313.5
      vertex -6.25 -10.8253 310.5
      vertex -8.36413 -9.28931 310.5
    endloop
  endfacet
  facet normal -0.207906 0.978149 0
    outer loop
      vertex 3.86271 -11.8882 310.5
      vertex 1.30661 -12.4315 313.5
      vertex 3.86271 -11.8882 313.5
    endloop
  endfacet
  facet normal -0.207906 0.978149 0
    outer loop
      vertex 1.30661 -12.4315 313.5
      vertex 3.86271 -11.8882 310.5
      vertex 1.30661 -12.4315 310.5
    endloop
  endfacet
  facet normal -0.587781 0.80902 0
    outer loop
      vertex 8.36413 -9.28931 310.5
      vertex 6.25 -10.8253 313.5
      vertex 8.36413 -9.28931 313.5
    endloop
  endfacet
  facet normal -0.587781 0.80902 0
    outer loop
      vertex 6.25 -10.8253 313.5
      vertex 8.36413 -9.28931 310.5
      vertex 6.25 -10.8253 310.5
    endloop
  endfacet
  facet normal 0.207906 0.978149 -0
    outer loop
      vertex -1.30661 -12.4315 310.5
      vertex -3.86271 -11.8882 313.5
      vertex -1.30661 -12.4315 313.5
    endloop
  endfacet
  facet normal 0.207906 0.978149 0
    outer loop
      vertex -3.86271 -11.8882 313.5
      vertex -1.30661 -12.4315 310.5
      vertex -3.86271 -11.8882 310.5
    endloop
  endfacet
  facet normal 0.951059 -0.309008 0
    outer loop
      vertex -12.2268 2.5989 313.5
      vertex -11.4193 5.08421 310.5
      vertex -11.4193 5.08421 313.5
    endloop
  endfacet
  facet normal 0.951059 -0.309008 0
    outer loop
      vertex -11.4193 5.08421 310.5
      vertex -12.2268 2.5989 313.5
      vertex -12.2268 2.5989 310.5
    endloop
  endfacet
  facet normal -0.40674 -0.913544 0
    outer loop
      vertex 3.86271 11.8882 310.5
      vertex 6.25 10.8253 313.5
      vertex 3.86271 11.8882 313.5
    endloop
  endfacet
  facet normal -0.40674 -0.913544 -0
    outer loop
      vertex 6.25 10.8253 313.5
      vertex 3.86271 11.8882 310.5
      vertex 6.25 10.8253 310.5
    endloop
  endfacet
  facet normal -0.587781 -0.80902 0
    outer loop
      vertex 6.25 10.8253 310.5
      vertex 8.36413 9.28931 313.5
      vertex 6.25 10.8253 313.5
    endloop
  endfacet
  facet normal -0.587781 -0.80902 -0
    outer loop
      vertex 8.36413 9.28931 313.5
      vertex 6.25 10.8253 310.5
      vertex 8.36413 9.28931 310.5
    endloop
  endfacet
  facet normal 0 -1 0
    outer loop
      vertex -1.30661 12.4315 310.5
      vertex 1.30661 12.4315 313.5
      vertex -1.30661 12.4315 313.5
    endloop
  endfacet
  facet normal 0 -1 -0
    outer loop
      vertex 1.30661 12.4315 313.5
      vertex -1.30661 12.4315 310.5
      vertex 1.30661 12.4315 310.5
    endloop
  endfacet
  facet normal 0.99452 0.104545 0
    outer loop
      vertex -12.2268 -2.5989 313.5
      vertex -12.5 0 310.5
      vertex -12.5 0 313.5
    endloop
  endfacet
  facet normal 0.99452 0.104545 0
    outer loop
      vertex -12.5 0 310.5
      vertex -12.2268 -2.5989 313.5
      vertex -12.2268 -2.5989 310.5
    endloop
  endfacet
  facet normal 0 -1 0
    outer loop
      vertex -25 -601.5 312
      vertex 25 -601.5 25
      vertex 25 -601.5 312
    endloop
  endfacet
  facet normal 0 -1 0
    outer loop
      vertex 25 -601.5 25
      vertex 25 -601.5 -25
      vertex 75 -601.5 25
    endloop
  endfacet
  facet normal 0 -1 0
    outer loop
      vertex -25 -601.5 312
      vertex 25 -601.5 -25
      vertex 25 -601.5 25
    endloop
  endfacet
  facet normal 0 -1 0
    outer loop
      vertex -25 -601.5 -312
      vertex 25 -601.5 -25
      vertex -25 -601.5 312
    endloop
  endfacet
  facet normal 0 -1 -0
    outer loop
      vertex 25 -601.5 -25
      vertex -25 -601.5 -312
      vertex 25 -601.5 -312
    endloop
  endfacet
  facet normal 0 -1 -0
    outer loop
      vertex 75 -601.5 25
      vertex 25 -601.5 -25
      vertex 75 -601.5 -25
    endloop
  endfacet
  facet normal 0 1 0
    outer loop
      vertex 75 -598.5 25
      vertex 75 -598.5 -25
      vertex 25 -598.5 25
    endloop
  endfacet
  facet normal 0 1 -0
    outer loop
      vertex 25 -598.5 25
      vertex -25 -598.5 310.5
      vertex 25 -598.5 310.5
    endloop
  endfacet
  facet normal 0 1 0
    outer loop
      vertex 25 -598.5 -25
      vertex 25 -598.5 25
      vertex 75 -598.5 -25
    endloop
  endfacet
  facet normal 0 1 -0
    outer loop
      vertex 25 -598.5 -25
      vertex -25 -598.5 310.5
      vertex 25 -598.5 25
    endloop
  endfacet
  facet normal 0 1 0
    outer loop
      vertex -25 -598.5 -310.5
      vertex 25 -598.5 -25
      vertex 25 -598.5 -310.5
    endloop
  endfacet
  facet normal 0 1 0
    outer loop
      vertex 25 -598.5 -25
      vertex -25 -598.5 -310.5
      vertex -25 -598.5 310.5
    endloop
  endfacet
  facet normal -0 0 1
    outer loop
      vertex -25 -600 312
      vertex 25 -601.5 312
      vertex 25 -600 312
    endloop
  endfacet
  facet normal 0 0 1
    outer loop
      vertex 25 -601.5 312
      vertex -25 -600 312
      vertex -25 -601.5 312
    endloop
  endfacet
  facet normal 0 0 -1
    outer loop
      vertex -25 -601.5 -312
      vertex 25 -600 -312
      vertex 25 -601.5 -312
    endloop
  endfacet
  facet normal -0 0 -1
    outer loop
      vertex 25 -600 -312
      vertex -25 -601.5 -312
      vertex -25 -600 -312
    endloop
  endfacet
  facet normal 1 -0 0
    outer loop
      vertex 75 -601.5 25
      vertex 75 -598.5 -25
      vertex 75 -598.5 25
    endloop
  endfacet
  facet normal 1 0 0
    outer loop
      vertex 75 -598.5 -25
      vertex 75 -601.5 25
      vertex 75 -601.5 -25
    endloop
  endfacet
  facet normal -0 0 1
    outer loop
      vertex 25 -598.5 25
      vertex 75 -601.5 25
      vertex 75 -598.5 25
    endloop
  endfacet
  facet normal 0 0 1
    outer loop
      vertex 75 -601.5 25
      vertex 25 -598.5 25
      vertex 25 -601.5 25
    endloop
  endfacet
  facet normal 0 0 -1
    outer loop
      vertex 25 -601.5 -25
      vertex 75 -598.5 -25
      vertex 75 -601.5 -25
    endloop
  endfacet
  facet normal -0 0 -1
    outer loop
      vertex 75 -598.5 -25
      vertex 25 -601.5 -25
      vertex 25 -598.5 -25
    endloop
  endfacet
endsolid OpenSCAD_Model
