solid OpenSCAD_Model
  facet normal 1 -0 0
    outer loop
      vertex 25 -307.5 75
      vertex 25 -304.5 -25
      vertex 25 -304.5 75
    endloop
  endfacet
  facet normal 1 0 0
    outer loop
      vertex 25 -304.5 -25
      vertex 25 -307.5 75
      vertex 25 -307.5 -25
    endloop
  endfacet
  facet normal -0 0 1
    outer loop
      vertex -25 -304.5 75
      vertex 25 -307.5 75
      vertex 25 -304.5 75
    endloop
  endfacet
  facet normal 0 0 1
    outer loop
      vertex 25 -307.5 75
      vertex -25 -304.5 75
      vertex -25 -307.5 75
    endloop
  endfacet
  facet normal 0 0 -1
    outer loop
      vertex -25 -307.5 -25
      vertex 25 -304.5 -25
      vertex 25 -307.5 -25
    endloop
  endfacet
  facet normal -0 0 -1
    outer loop
      vertex 25 -304.5 -25
      vertex -25 -307.5 -25
      vertex -25 -304.5 -25
    endloop
  endfacet
  facet normal -1 0 0
    outer loop
      vertex -25 -304.5 -25
      vertex -25 -306 30
      vertex -25 -304.5 30
    endloop
  endfacet
  facet normal -1 0 0
    outer loop
      vertex -25 -307.5 75
      vertex -25 -306 30
      vertex -25 -307.5 -25
    endloop
  endfacet
  facet normal -1 0 0
    outer loop
      vertex -25 -307.5 -25
      vertex -25 -306 30
      vertex -25 -304.5 -25
    endloop
  endfacet
  facet normal -1 0 0
    outer loop
      vertex -25 -306 70
      vertex -25 -304.5 75
      vertex -25 -304.5 70
    endloop
  endfacet
  facet normal -1 0 0
    outer loop
      vertex -25 -306 70
      vertex -25 -307.5 75
      vertex -25 -304.5 75
    endloop
  endfacet
  facet normal -1 0 0
    outer loop
      vertex -25 -306 30
      vertex -25 -307.5 75
      vertex -25 -306 70
    endloop
  endfacet
  facet normal 0 1 0
    outer loop
      vertex 25 -304.5 75
      vertex -23.5 -304.5 70
      vertex -25 -304.5 75
    endloop
  endfacet
  facet normal 0 1 0
    outer loop
      vertex 25 -304.5 75
      vertex -23.5 -304.5 30
      vertex -23.5 -304.5 70
    endloop
  endfacet
  facet normal 0 1 -0
    outer loop
      vertex 25 -304.5 -25
      vertex -23.5 -304.5 30
      vertex 25 -304.5 75
    endloop
  endfacet
  facet normal 0 1 0
    outer loop
      vertex -25 -304.5 -25
      vertex -23.5 -304.5 30
      vertex 25 -304.5 -25
    endloop
  endfacet
  facet normal 0 1 0
    outer loop
      vertex -23.5 -304.5 30
      vertex -25 -304.5 -25
      vertex -25 -304.5 30
    endloop
  endfacet
  facet normal 0 1 0
    outer loop
      vertex -25 -304.5 75
      vertex -23.5 -304.5 70
      vertex -25 -304.5 70
    endloop
  endfacet
  facet normal 0 -1 0
    outer loop
      vertex -25 -307.5 -25
      vertex 25 -307.5 75
      vertex -25 -307.5 75
    endloop
  endfacet
  facet normal 0 -1 -0
    outer loop
      vertex 25 -307.5 75
      vertex -25 -307.5 -25
      vertex 25 -307.5 -25
    endloop
  endfacet
  facet normal 1 -0 0
    outer loop
      vertex 25 304.5 75
      vertex 25 307.5 -25
      vertex 25 307.5 75
    endloop
  endfacet
  facet normal 1 0 0
    outer loop
      vertex 25 307.5 -25
      vertex 25 304.5 75
      vertex 25 304.5 -25
    endloop
  endfacet
  facet normal -0 0 1
    outer loop
      vertex -25 307.5 75
      vertex 25 304.5 75
      vertex 25 307.5 75
    endloop
  endfacet
  facet normal 0 0 1
    outer loop
      vertex 25 304.5 75
      vertex -25 307.5 75
      vertex -25 304.5 75
    endloop
  endfacet
  facet normal 0 0 -1
    outer loop
      vertex -25 304.5 -25
      vertex 25 307.5 -25
      vertex 25 304.5 -25
    endloop
  endfacet
  facet normal -0 0 -1
    outer loop
      vertex 25 307.5 -25
      vertex -25 304.5 -25
      vertex -25 307.5 -25
    endloop
  endfacet
  facet normal -1 0 0
    outer loop
      vertex -25 307.5 -25
      vertex -25 306 30
      vertex -25 307.5 75
    endloop
  endfacet
  facet normal -1 0 0
    outer loop
      vertex -25 304.5 -25
      vertex -25 306 30
      vertex -25 307.5 -25
    endloop
  endfacet
  facet normal -1 -0 0
    outer loop
      vertex -25 306 30
      vertex -25 304.5 -25
      vertex -25 304.5 30
    endloop
  endfacet
  facet normal -1 0 0
    outer loop
      vertex -25 306 70
      vertex -25 307.5 75
      vertex -25 306 30
    endloop
  endfacet
  facet normal -1 0 0
    outer loop
      vertex -25 304.5 75
      vertex -25 306 70
      vertex -25 304.5 70
    endloop
  endfacet
  facet normal -1 0 0
    outer loop
      vertex -25 306 70
      vertex -25 304.5 75
      vertex -25 307.5 75
    endloop
  endfacet
  facet normal 0 1 -0
    outer loop
      vertex 25 307.5 -25
      vertex -25 307.5 75
      vertex 25 307.5 75
    endloop
  endfacet
  facet normal 0 1 0
    outer loop
      vertex -25 307.5 75
      vertex 25 307.5 -25
      vertex -25 307.5 -25
    endloop
  endfacet
  facet normal 0 -1 0
    outer loop
      vertex -25 304.5 30
      vertex -25 304.5 -25
      vertex -23.5 304.5 30
    endloop
  endfacet
  facet normal 0 -1 0
    outer loop
      vertex -23.5 304.5 70
      vertex -25 304.5 75
      vertex -25 304.5 70
    endloop
  endfacet
  facet normal 0 -1 0
    outer loop
      vertex -25 304.5 75
      vertex -23.5 304.5 70
      vertex 25 304.5 75
    endloop
  endfacet
  facet normal 0 -1 0
    outer loop
      vertex -23.5 304.5 30
      vertex 25 304.5 75
      vertex -23.5 304.5 70
    endloop
  endfacet
  facet normal 0 -1 0
    outer loop
      vertex 25 304.5 -25
      vertex -23.5 304.5 30
      vertex -25 304.5 -25
    endloop
  endfacet
  facet normal 0 -1 0
    outer loop
      vertex -23.5 304.5 30
      vertex 25 304.5 -25
      vertex 25 304.5 75
    endloop
  endfacet
  facet normal 1 -0 0
    outer loop
      vertex -23.5 -304.5 70
      vertex -23.5 304.5 30
      vertex -23.5 304.5 70
    endloop
  endfacet
  facet normal 1 0 0
    outer loop
      vertex -23.5 304.5 30
      vertex -23.5 -304.5 70
      vertex -23.5 -304.5 30
    endloop
  endfacet
  facet normal -0 0 1
    outer loop
      vertex -26.5 306 70
      vertex -25 304.5 70
      vertex -25 306 70
    endloop
  endfacet
  facet normal 0 0 1
    outer loop
      vertex -25 304.5 70
      vertex -26.5 306 70
      vertex -25 -304.5 70
    endloop
  endfacet
  facet normal 0 0 1
    outer loop
      vertex -26.5 -306 70
      vertex -25 -304.5 70
      vertex -26.5 306 70
    endloop
  endfacet
  facet normal 0 0 1
    outer loop
      vertex -25 -304.5 70
      vertex -26.5 -306 70
      vertex -25 -306 70
    endloop
  endfacet
  facet normal -0 0 1
    outer loop
      vertex -25 304.5 70
      vertex -23.5 -304.5 70
      vertex -23.5 304.5 70
    endloop
  endfacet
  facet normal 0 0 1
    outer loop
      vertex -23.5 -304.5 70
      vertex -25 304.5 70
      vertex -25 -304.5 70
    endloop
  endfacet
  facet normal 0 0 -1
    outer loop
      vertex -26.5 -306 30
      vertex -25 -304.5 30
      vertex -25 -306 30
    endloop
  endfacet
  facet normal -0 0 -1
    outer loop
      vertex -25 -304.5 30
      vertex -26.5 -306 30
      vertex -25 304.5 30
    endloop
  endfacet
  facet normal 0 0 -1
    outer loop
      vertex -26.5 306 30
      vertex -25 304.5 30
      vertex -26.5 -306 30
    endloop
  endfacet
  facet normal 0 0 -1
    outer loop
      vertex -25 304.5 30
      vertex -26.5 306 30
      vertex -25 306 30
    endloop
  endfacet
  facet normal 0 0 -1
    outer loop
      vertex -25 -304.5 30
      vertex -23.5 304.5 30
      vertex -23.5 -304.5 30
    endloop
  endfacet
  facet normal -0 0 -1
    outer loop
      vertex -23.5 304.5 30
      vertex -25 -304.5 30
      vertex -25 304.5 30
    endloop
  endfacet
  facet normal -1 0 0
    outer loop
      vertex -26.5 -306 30
      vertex -26.5 306 70
      vertex -26.5 306 30
    endloop
  endfacet
  facet normal -1 -0 0
    outer loop
      vertex -26.5 306 70
      vertex -26.5 -306 30
      vertex -26.5 -306 70
    endloop
  endfacet
  facet normal 0 1 -0
    outer loop
      vertex -25 306 30
      vertex -26.5 306 70
      vertex -25 306 70
    endloop
  endfacet
  facet normal 0 1 0
    outer loop
      vertex -26.5 306 70
      vertex -25 306 30
      vertex -26.5 306 30
    endloop
  endfacet
  facet normal 0 -1 0
    outer loop
      vertex -26.5 -306 30
      vertex -25 -306 70
      vertex -26.5 -306 70
    endloop
  endfacet
  facet normal 0 -1 -0
    outer loop
      vertex -25 -306 70
      vertex -26.5 -306 30
      vertex -25 -306 30
    endloop
  endfacet
endsolid OpenSCAD_Model
