solid OpenSCAD_Model
  facet normal 1 0 0
    outer loop
      vertex 400 -298.5 25
      vertex 400 -300 1.5
      vertex 400 -298.5 1.5
    endloop
  endfacet
  facet normal 1 0 0
    outer loop
      vertex 400 -300 1.5
      vertex 400 -301.5 25
      vertex 400 -300 -1.5
    endloop
  endfacet
  facet normal 1 -0 0
    outer loop
      vertex 400 -301.5 25
      vertex 400 -300 1.5
      vertex 400 -298.5 25
    endloop
  endfacet
  facet normal 1 -0 0
    outer loop
      vertex 400 -300 -1.5
      vertex 400 -298.5 -25
      vertex 400 -298.5 -1.5
    endloop
  endfacet
  facet normal 1 0 0
    outer loop
      vertex 400 -300 -1.5
      vertex 400 -301.5 -25
      vertex 400 -298.5 -25
    endloop
  endfacet
  facet normal 1 0 0
    outer loop
      vertex 400 -301.5 -25
      vertex 400 -300 -1.5
      vertex 400 -301.5 25
    endloop
  endfacet
  facet normal -0 0 1
    outer loop
      vertex -400 -298.5 25
      vertex 400 -301.5 25
      vertex 400 -298.5 25
    endloop
  endfacet
  facet normal 0 0 1
    outer loop
      vertex 400 -301.5 25
      vertex -400 -298.5 25
      vertex -400 -301.5 25
    endloop
  endfacet
  facet normal 0 0 -1
    outer loop
      vertex -400 -301.5 -25
      vertex 400 -298.5 -25
      vertex 400 -301.5 -25
    endloop
  endfacet
  facet normal -0 0 -1
    outer loop
      vertex 400 -298.5 -25
      vertex -400 -301.5 -25
      vertex -400 -298.5 -25
    endloop
  endfacet
  facet normal -1 0 0
    outer loop
      vertex -400 -301.5 -25
      vertex -400 -298.5 -1.5
      vertex -400 -298.5 -25
    endloop
  endfacet
  facet normal -1 -0 0
    outer loop
      vertex -400 -298.5 -1.5
      vertex -400 -301.5 -25
      vertex -400 -298.5 1.5
    endloop
  endfacet
  facet normal -1 0 0
    outer loop
      vertex -400 -301.5 25
      vertex -400 -298.5 1.5
      vertex -400 -301.5 -25
    endloop
  endfacet
  facet normal -1 0 0
    outer loop
      vertex -400 -298.5 1.5
      vertex -400 -301.5 25
      vertex -400 -298.5 25
    endloop
  endfacet
  facet normal -1 0 0
    outer loop
      vertex -400 -298.5 -1.5
      vertex -400 298.5 1.5
      vertex -400 298.5 -1.5
    endloop
  endfacet
  facet normal -1 -0 0
    outer loop
      vertex -400 298.5 1.5
      vertex -400 -298.5 -1.5
      vertex -400 -298.5 1.5
    endloop
  endfacet
  facet normal -1 0 0
    outer loop
      vertex -400 298.5 -1.5
      vertex -400 301.5 -25
      vertex -400 298.5 -25
    endloop
  endfacet
  facet normal -1 0 0
    outer loop
      vertex -400 301.5 -25
      vertex -400 298.5 -1.5
      vertex -400 301.5 25
    endloop
  endfacet
  facet normal -1 0 0
    outer loop
      vertex -400 298.5 1.5
      vertex -400 301.5 25
      vertex -400 298.5 -1.5
    endloop
  endfacet
  facet normal -1 -0 0
    outer loop
      vertex -400 301.5 25
      vertex -400 298.5 1.5
      vertex -400 298.5 25
    endloop
  endfacet
  facet normal 0 1 -0
    outer loop
      vertex 400 -298.5 1.5
      vertex -400 -298.5 25
      vertex 400 -298.5 25
    endloop
  endfacet
  facet normal 0 1 0
    outer loop
      vertex -400 -298.5 25
      vertex 400 -298.5 1.5
      vertex -400 -298.5 1.5
    endloop
  endfacet
  facet normal 0 1 -0
    outer loop
      vertex 400 -298.5 -25
      vertex -400 -298.5 -1.5
      vertex 400 -298.5 -1.5
    endloop
  endfacet
  facet normal 0 1 0
    outer loop
      vertex -400 -298.5 -1.5
      vertex 400 -298.5 -25
      vertex -400 -298.5 -25
    endloop
  endfacet
  facet normal 0 -1 0
    outer loop
      vertex -400 -301.5 -25
      vertex 400 -301.5 25
      vertex -400 -301.5 25
    endloop
  endfacet
  facet normal 0 -1 -0
    outer loop
      vertex 400 -301.5 25
      vertex -400 -301.5 -25
      vertex 400 -301.5 -25
    endloop
  endfacet
  facet normal 1 0 0
    outer loop
      vertex 400 301.5 25
      vertex 400 300 1.5
      vertex 400 301.5 -25
    endloop
  endfacet
  facet normal 1 -0 0
    outer loop
      vertex 400 298.5 25
      vertex 400 300 1.5
      vertex 400 301.5 25
    endloop
  endfacet
  facet normal 1 0 0
    outer loop
      vertex 400 300 1.5
      vertex 400 298.5 25
      vertex 400 298.5 1.5
    endloop
  endfacet
  facet normal 1 -0 0
    outer loop
      vertex 400 300 -1.5
      vertex 400 301.5 -25
      vertex 400 300 1.5
    endloop
  endfacet
  facet normal 1 0 0
    outer loop
      vertex 400 298.5 -25
      vertex 400 300 -1.5
      vertex 400 298.5 -1.5
    endloop
  endfacet
  facet normal 1 0 0
    outer loop
      vertex 400 300 -1.5
      vertex 400 298.5 -25
      vertex 400 301.5 -25
    endloop
  endfacet
  facet normal -0 0 1
    outer loop
      vertex -400 301.5 25
      vertex 400 298.5 25
      vertex 400 301.5 25
    endloop
  endfacet
  facet normal 0 0 1
    outer loop
      vertex 400 298.5 25
      vertex -400 301.5 25
      vertex -400 298.5 25
    endloop
  endfacet
  facet normal 0 0 -1
    outer loop
      vertex -400 298.5 -25
      vertex 400 301.5 -25
      vertex 400 298.5 -25
    endloop
  endfacet
  facet normal -0 0 -1
    outer loop
      vertex 400 301.5 -25
      vertex -400 298.5 -25
      vertex -400 301.5 -25
    endloop
  endfacet
  facet normal 0 1 -0
    outer loop
      vertex 400 301.5 -25
      vertex -400 301.5 25
      vertex 400 301.5 25
    endloop
  endfacet
  facet normal 0 1 0
    outer loop
      vertex -400 301.5 25
      vertex 400 301.5 -25
      vertex -400 301.5 -25
    endloop
  endfacet
  facet normal 0 -1 0
    outer loop
      vertex -400 298.5 1.5
      vertex 400 298.5 25
      vertex -400 298.5 25
    endloop
  endfacet
  facet normal 0 -1 -0
    outer loop
      vertex 400 298.5 25
      vertex -400 298.5 1.5
      vertex 400 298.5 1.5
    endloop
  endfacet
  facet normal 0 -1 0
    outer loop
      vertex -400 298.5 -25
      vertex 400 298.5 -1.5
      vertex -400 298.5 -1.5
    endloop
  endfacet
  facet normal 0 -1 -0
    outer loop
      vertex 400 298.5 -1.5
      vertex -400 298.5 -25
      vertex 400 298.5 -25
    endloop
  endfacet
  facet normal -0.40676 -0.913535 0
    outer loop
      vertex -6.75 -11.6913 -50
      vertex -4.17173 -12.8393 -1.5
      vertex -6.75 -11.6913 -1.5
    endloop
  endfacet
  facet normal -0.40676 -0.913535 -0
    outer loop
      vertex -4.17173 -12.8393 -1.5
      vertex -6.75 -11.6913 -50
      vertex -4.17173 -12.8393 -50
    endloop
  endfacet
  facet normal 0.951059 0.309008 0
    outer loop
      vertex 13.205 2.80681 -1.5
      vertex 12.3329 5.49094 -50
      vertex 12.3329 5.49094 -1.5
    endloop
  endfacet
  facet normal 0.951059 0.309008 0
    outer loop
      vertex 12.3329 5.49094 -50
      vertex 13.205 2.80681 -1.5
      vertex 13.205 2.80681 -50
    endloop
  endfacet
  facet normal 0.994522 0.104526 0
    outer loop
      vertex 13.5 0 -1.5
      vertex 13.205 2.80681 -50
      vertex 13.205 2.80681 -1.5
    endloop
  endfacet
  facet normal 0.994522 0.104526 0
    outer loop
      vertex 13.205 2.80681 -50
      vertex 13.5 0 -1.5
      vertex 13.5 0 -50
    endloop
  endfacet
  facet normal 0.866016 0.500017 0
    outer loop
      vertex 12.3329 5.49094 -1.5
      vertex 10.9217 7.9351 -50
      vertex 10.9217 7.9351 -1.5
    endloop
  endfacet
  facet normal 0.866016 0.500017 0
    outer loop
      vertex 10.9217 7.9351 -50
      vertex 12.3329 5.49094 -1.5
      vertex 12.3329 5.49094 -50
    endloop
  endfacet
  facet normal -0.743157 -0.669117 0
    outer loop
      vertex -9.03326 -10.0325 -50
      vertex -10.9217 -7.9351 -1.5
      vertex -10.9217 -7.9351 -50
    endloop
  endfacet
  facet normal -0.743157 -0.669117 0
    outer loop
      vertex -10.9217 -7.9351 -1.5
      vertex -9.03326 -10.0325 -50
      vertex -9.03326 -10.0325 -1.5
    endloop
  endfacet
  facet normal 0.994522 -0.104526 0
    outer loop
      vertex 13.205 -2.80681 -1.5
      vertex 13.5 0 -50
      vertex 13.5 0 -1.5
    endloop
  endfacet
  facet normal 0.994522 -0.104526 0
    outer loop
      vertex 13.5 0 -50
      vertex 13.205 -2.80681 -1.5
      vertex 13.205 -2.80681 -50
    endloop
  endfacet
  facet normal 0.866016 -0.500017 0
    outer loop
      vertex 10.9217 -7.9351 -1.5
      vertex 12.3329 -5.49094 -50
      vertex 12.3329 -5.49094 -1.5
    endloop
  endfacet
  facet normal 0.866016 -0.500017 0
    outer loop
      vertex 12.3329 -5.49094 -50
      vertex 10.9217 -7.9351 -1.5
      vertex 10.9217 -7.9351 -50
    endloop
  endfacet
  facet normal 0.40676 0.913535 -0
    outer loop
      vertex 6.75 11.6913 -50
      vertex 4.17173 12.8393 -1.5
      vertex 6.75 11.6913 -1.5
    endloop
  endfacet
  facet normal 0.40676 0.913535 0
    outer loop
      vertex 4.17173 12.8393 -1.5
      vertex 6.75 11.6913 -50
      vertex 4.17173 12.8393 -50
    endloop
  endfacet
  facet normal -0.951059 -0.309008 0
    outer loop
      vertex -12.3329 -5.49094 -50
      vertex -13.205 -2.80681 -1.5
      vertex -13.205 -2.80681 -50
    endloop
  endfacet
  facet normal -0.951059 -0.309008 0
    outer loop
      vertex -13.205 -2.80681 -1.5
      vertex -12.3329 -5.49094 -50
      vertex -12.3329 -5.49094 -1.5
    endloop
  endfacet
  facet normal -0.587765 0.809031 0
    outer loop
      vertex -6.75 11.6913 -50
      vertex -9.03326 10.0325 -1.5
      vertex -6.75 11.6913 -1.5
    endloop
  endfacet
  facet normal -0.587765 0.809031 0
    outer loop
      vertex -9.03326 10.0325 -1.5
      vertex -6.75 11.6913 -50
      vertex -9.03326 10.0325 -50
    endloop
  endfacet
  facet normal 0.587765 0.809031 -0
    outer loop
      vertex 9.03326 10.0325 -50
      vertex 6.75 11.6913 -1.5
      vertex 9.03326 10.0325 -1.5
    endloop
  endfacet
  facet normal 0.587765 0.809031 0
    outer loop
      vertex 6.75 11.6913 -1.5
      vertex 9.03326 10.0325 -50
      vertex 6.75 11.6913 -50
    endloop
  endfacet
  facet normal -0.994522 0.104526 0
    outer loop
      vertex -13.5 0 -50
      vertex -13.205 2.80681 -1.5
      vertex -13.205 2.80681 -50
    endloop
  endfacet
  facet normal -0.994522 0.104526 0
    outer loop
      vertex -13.205 2.80681 -1.5
      vertex -13.5 0 -50
      vertex -13.5 0 -1.5
    endloop
  endfacet
  facet normal 0.207883 -0.978154 0
    outer loop
      vertex 1.41113 -13.426 -50
      vertex 4.17173 -12.8393 -1.5
      vertex 1.41113 -13.426 -1.5
    endloop
  endfacet
  facet normal 0.207883 -0.978154 0
    outer loop
      vertex 4.17173 -12.8393 -1.5
      vertex 1.41113 -13.426 -50
      vertex 4.17173 -12.8393 -50
    endloop
  endfacet
  facet normal -0.994522 -0.104526 0
    outer loop
      vertex -13.205 -2.80681 -50
      vertex -13.5 0 -1.5
      vertex -13.5 0 -50
    endloop
  endfacet
  facet normal -0.994522 -0.104526 0
    outer loop
      vertex -13.5 0 -1.5
      vertex -13.205 -2.80681 -50
      vertex -13.205 -2.80681 -1.5
    endloop
  endfacet
  facet normal 0.743157 -0.669117 0
    outer loop
      vertex 9.03326 -10.0325 -1.5
      vertex 10.9217 -7.9351 -50
      vertex 10.9217 -7.9351 -1.5
    endloop
  endfacet
  facet normal 0.743157 -0.669117 0
    outer loop
      vertex 10.9217 -7.9351 -50
      vertex 9.03326 -10.0325 -1.5
      vertex 9.03326 -10.0325 -50
    endloop
  endfacet
  facet normal 0 -1 0
    outer loop
      vertex -1.41113 -13.426 -50
      vertex 1.41113 -13.426 -1.5
      vertex -1.41113 -13.426 -1.5
    endloop
  endfacet
  facet normal 0 -1 -0
    outer loop
      vertex 1.41113 -13.426 -1.5
      vertex -1.41113 -13.426 -50
      vertex 1.41113 -13.426 -50
    endloop
  endfacet
  facet normal -0.951059 0.309008 0
    outer loop
      vertex -13.205 2.80681 -50
      vertex -12.3329 5.49094 -1.5
      vertex -12.3329 5.49094 -50
    endloop
  endfacet
  facet normal -0.951059 0.309008 0
    outer loop
      vertex -12.3329 5.49094 -1.5
      vertex -13.205 2.80681 -50
      vertex -13.205 2.80681 -1.5
    endloop
  endfacet
  facet normal -0.207883 0.978154 0
    outer loop
      vertex -1.41113 13.426 -50
      vertex -4.17173 12.8393 -1.5
      vertex -1.41113 13.426 -1.5
    endloop
  endfacet
  facet normal -0.207883 0.978154 0
    outer loop
      vertex -4.17173 12.8393 -1.5
      vertex -1.41113 13.426 -50
      vertex -4.17173 12.8393 -50
    endloop
  endfacet
  facet normal 0.207883 0.978154 -0
    outer loop
      vertex 4.17173 12.8393 -50
      vertex 1.41113 13.426 -1.5
      vertex 4.17173 12.8393 -1.5
    endloop
  endfacet
  facet normal 0.207883 0.978154 0
    outer loop
      vertex 1.41113 13.426 -1.5
      vertex 4.17173 12.8393 -50
      vertex 1.41113 13.426 -50
    endloop
  endfacet
  facet normal -0.40676 0.913535 0
    outer loop
      vertex -4.17173 12.8393 -50
      vertex -6.75 11.6913 -1.5
      vertex -4.17173 12.8393 -1.5
    endloop
  endfacet
  facet normal -0.40676 0.913535 0
    outer loop
      vertex -6.75 11.6913 -1.5
      vertex -4.17173 12.8393 -50
      vertex -6.75 11.6913 -50
    endloop
  endfacet
  facet normal 0.40676 -0.913535 0
    outer loop
      vertex 4.17173 -12.8393 -50
      vertex 6.75 -11.6913 -1.5
      vertex 4.17173 -12.8393 -1.5
    endloop
  endfacet
  facet normal 0.40676 -0.913535 0
    outer loop
      vertex 6.75 -11.6913 -1.5
      vertex 4.17173 -12.8393 -50
      vertex 6.75 -11.6913 -50
    endloop
  endfacet
  facet normal 0.951059 -0.309008 0
    outer loop
      vertex 12.3329 -5.49094 -1.5
      vertex 13.205 -2.80681 -50
      vertex 13.205 -2.80681 -1.5
    endloop
  endfacet
  facet normal 0.951059 -0.309008 0
    outer loop
      vertex 13.205 -2.80681 -50
      vertex 12.3329 -5.49094 -1.5
      vertex 12.3329 -5.49094 -50
    endloop
  endfacet
  facet normal -0.743157 0.669117 0
    outer loop
      vertex -10.9217 7.9351 -50
      vertex -9.03326 10.0325 -1.5
      vertex -9.03326 10.0325 -50
    endloop
  endfacet
  facet normal -0.743157 0.669117 0
    outer loop
      vertex -9.03326 10.0325 -1.5
      vertex -10.9217 7.9351 -50
      vertex -10.9217 7.9351 -1.5
    endloop
  endfacet
  facet normal -0.207883 -0.978154 0
    outer loop
      vertex -4.17173 -12.8393 -50
      vertex -1.41113 -13.426 -1.5
      vertex -4.17173 -12.8393 -1.5
    endloop
  endfacet
  facet normal -0.207883 -0.978154 -0
    outer loop
      vertex -1.41113 -13.426 -1.5
      vertex -4.17173 -12.8393 -50
      vertex -1.41113 -13.426 -50
    endloop
  endfacet
  facet normal -0.866016 -0.500017 0
    outer loop
      vertex -10.9217 -7.9351 -50
      vertex -12.3329 -5.49094 -1.5
      vertex -12.3329 -5.49094 -50
    endloop
  endfacet
  facet normal -0.866016 -0.500017 0
    outer loop
      vertex -12.3329 -5.49094 -1.5
      vertex -10.9217 -7.9351 -50
      vertex -10.9217 -7.9351 -1.5
    endloop
  endfacet
  facet normal 0.743157 0.669117 0
    outer loop
      vertex 10.9217 7.9351 -1.5
      vertex 9.03326 10.0325 -50
      vertex 9.03326 10.0325 -1.5
    endloop
  endfacet
  facet normal 0.743157 0.669117 0
    outer loop
      vertex 9.03326 10.0325 -50
      vertex 10.9217 7.9351 -1.5
      vertex 10.9217 7.9351 -50
    endloop
  endfacet
  facet normal -0.866016 0.500017 0
    outer loop
      vertex -12.3329 5.49094 -50
      vertex -10.9217 7.9351 -1.5
      vertex -10.9217 7.9351 -50
    endloop
  endfacet
  facet normal -0.866016 0.500017 0
    outer loop
      vertex -10.9217 7.9351 -1.5
      vertex -12.3329 5.49094 -50
      vertex -12.3329 5.49094 -1.5
    endloop
  endfacet
  facet normal 0.587765 -0.809031 0
    outer loop
      vertex 6.75 -11.6913 -50
      vertex 9.03326 -10.0325 -1.5
      vertex 6.75 -11.6913 -1.5
    endloop
  endfacet
  facet normal 0.587765 -0.809031 0
    outer loop
      vertex 9.03326 -10.0325 -1.5
      vertex 6.75 -11.6913 -50
      vertex 9.03326 -10.0325 -50
    endloop
  endfacet
  facet normal 0 1 -0
    outer loop
      vertex 1.41113 13.426 -50
      vertex -1.41113 13.426 -1.5
      vertex 1.41113 13.426 -1.5
    endloop
  endfacet
  facet normal 0 1 0
    outer loop
      vertex -1.41113 13.426 -1.5
      vertex 1.41113 13.426 -50
      vertex -1.41113 13.426 -50
    endloop
  endfacet
  facet normal -0.587765 -0.809031 0
    outer loop
      vertex -9.03326 -10.0325 -50
      vertex -6.75 -11.6913 -1.5
      vertex -9.03326 -10.0325 -1.5
    endloop
  endfacet
  facet normal -0.587765 -0.809031 -0
    outer loop
      vertex -6.75 -11.6913 -1.5
      vertex -9.03326 -10.0325 -50
      vertex -6.75 -11.6913 -50
    endloop
  endfacet
  facet normal 0 0 -1
    outer loop
      vertex 13.205 -2.80681 -50
      vertex 13.205 2.80681 -50
      vertex 13.5 0 -50
    endloop
  endfacet
  facet normal 0 0 -1
    outer loop
      vertex 12.3329 -5.49094 -50
      vertex 13.205 2.80681 -50
      vertex 13.205 -2.80681 -50
    endloop
  endfacet
  facet normal 0 0 -1
    outer loop
      vertex 12.3329 -5.49094 -50
      vertex 12.3329 5.49094 -50
      vertex 13.205 2.80681 -50
    endloop
  endfacet
  facet normal 0 0 -1
    outer loop
      vertex 10.9217 -7.9351 -50
      vertex 12.3329 5.49094 -50
      vertex 12.3329 -5.49094 -50
    endloop
  endfacet
  facet normal 0 0 -1
    outer loop
      vertex 10.9217 -7.9351 -50
      vertex 10.9217 7.9351 -50
      vertex 12.3329 5.49094 -50
    endloop
  endfacet
  facet normal 0 0 -1
    outer loop
      vertex 9.03326 -10.0325 -50
      vertex 10.9217 7.9351 -50
      vertex 10.9217 -7.9351 -50
    endloop
  endfacet
  facet normal 0 0 -1
    outer loop
      vertex 9.03326 -10.0325 -50
      vertex 9.03326 10.0325 -50
      vertex 10.9217 7.9351 -50
    endloop
  endfacet
  facet normal 0 0 -1
    outer loop
      vertex 6.75 -11.6913 -50
      vertex 9.03326 10.0325 -50
      vertex 9.03326 -10.0325 -50
    endloop
  endfacet
  facet normal 0 0 -1
    outer loop
      vertex 6.75 -11.6913 -50
      vertex 6.75 11.6913 -50
      vertex 9.03326 10.0325 -50
    endloop
  endfacet
  facet normal 0 0 -1
    outer loop
      vertex 4.17173 -12.8393 -50
      vertex 6.75 11.6913 -50
      vertex 6.75 -11.6913 -50
    endloop
  endfacet
  facet normal 0 0 -1
    outer loop
      vertex 4.17173 -12.8393 -50
      vertex 4.17173 12.8393 -50
      vertex 6.75 11.6913 -50
    endloop
  endfacet
  facet normal 0 0 -1
    outer loop
      vertex 1.41113 -13.426 -50
      vertex 4.17173 12.8393 -50
      vertex 4.17173 -12.8393 -50
    endloop
  endfacet
  facet normal 0 0 -1
    outer loop
      vertex 1.41113 -13.426 -50
      vertex 1.41113 13.426 -50
      vertex 4.17173 12.8393 -50
    endloop
  endfacet
  facet normal 0 0 -1
    outer loop
      vertex -1.41113 -13.426 -50
      vertex 1.41113 13.426 -50
      vertex 1.41113 -13.426 -50
    endloop
  endfacet
  facet normal 0 0 -1
    outer loop
      vertex -1.41113 -13.426 -50
      vertex -1.41113 13.426 -50
      vertex 1.41113 13.426 -50
    endloop
  endfacet
  facet normal 0 0 -1
    outer loop
      vertex -4.17173 -12.8393 -50
      vertex -1.41113 13.426 -50
      vertex -1.41113 -13.426 -50
    endloop
  endfacet
  facet normal 0 0 -1
    outer loop
      vertex -4.17173 -12.8393 -50
      vertex -4.17173 12.8393 -50
      vertex -1.41113 13.426 -50
    endloop
  endfacet
  facet normal 0 0 -1
    outer loop
      vertex -6.75 -11.6913 -50
      vertex -4.17173 12.8393 -50
      vertex -4.17173 -12.8393 -50
    endloop
  endfacet
  facet normal 0 0 -1
    outer loop
      vertex -6.75 -11.6913 -50
      vertex -6.75 11.6913 -50
      vertex -4.17173 12.8393 -50
    endloop
  endfacet
  facet normal 0 0 -1
    outer loop
      vertex -9.03326 -10.0325 -50
      vertex -6.75 11.6913 -50
      vertex -6.75 -11.6913 -50
    endloop
  endfacet
  facet normal 0 0 -1
    outer loop
      vertex -9.03326 -10.0325 -50
      vertex -9.03326 10.0325 -50
      vertex -6.75 11.6913 -50
    endloop
  endfacet
  facet normal 0 0 -1
    outer loop
      vertex -10.9217 -7.9351 -50
      vertex -9.03326 10.0325 -50
      vertex -9.03326 -10.0325 -50
    endloop
  endfacet
  facet normal 0 0 -1
    outer loop
      vertex -10.9217 -7.9351 -50
      vertex -10.9217 7.9351 -50
      vertex -9.03326 10.0325 -50
    endloop
  endfacet
  facet normal 0 0 -1
    outer loop
      vertex -12.3329 -5.49094 -50
      vertex -10.9217 7.9351 -50
      vertex -10.9217 -7.9351 -50
    endloop
  endfacet
  facet normal 0 0 -1
    outer loop
      vertex -12.3329 -5.49094 -50
      vertex -12.3329 5.49094 -50
      vertex -10.9217 7.9351 -50
    endloop
  endfacet
  facet normal 0 0 -1
    outer loop
      vertex -13.205 -2.80681 -50
      vertex -12.3329 5.49094 -50
      vertex -12.3329 -5.49094 -50
    endloop
  endfacet
  facet normal 0 0 -1
    outer loop
      vertex -13.205 -2.80681 -50
      vertex -13.205 2.80681 -50
      vertex -12.3329 5.49094 -50
    endloop
  endfacet
  facet normal 0 -0 -1
    outer loop
      vertex -13.205 2.80681 -50
      vertex -13.205 -2.80681 -50
      vertex -13.5 0 -50
    endloop
  endfacet
  facet normal 1 -0 0
    outer loop
      vertex 500 -300 1.5
      vertex 500 300 -1.5
      vertex 500 300 1.5
    endloop
  endfacet
  facet normal 1 0 0
    outer loop
      vertex 500 300 -1.5
      vertex 500 -300 1.5
      vertex 500 -300 -1.5
    endloop
  endfacet
  facet normal -0 0 1
    outer loop
      vertex -400 298.5 1.5
      vertex 400 -298.5 1.5
      vertex 400 298.5 1.5
    endloop
  endfacet
  facet normal 0 0 1
    outer loop
      vertex 400 -298.5 1.5
      vertex -400 298.5 1.5
      vertex -400 -298.5 1.5
    endloop
  endfacet
  facet normal 0 0 1
    outer loop
      vertex 400 298.5 1.5
      vertex 500 300 1.5
      vertex 400 300 1.5
    endloop
  endfacet
  facet normal 0 0 1
    outer loop
      vertex 500 300 1.5
      vertex 400 298.5 1.5
      vertex 500 -300 1.5
    endloop
  endfacet
  facet normal -0 0 1
    outer loop
      vertex 400 -298.5 1.5
      vertex 500 -300 1.5
      vertex 400 298.5 1.5
    endloop
  endfacet
  facet normal 0 0 1
    outer loop
      vertex 500 -300 1.5
      vertex 400 -298.5 1.5
      vertex 400 -300 1.5
    endloop
  endfacet
  facet normal 0 0 -1
    outer loop
      vertex 400 -298.5 -1.5
      vertex 13.5 0 -1.5
      vertex 400 298.5 -1.5
    endloop
  endfacet
  facet normal 0 0 -1
    outer loop
      vertex 400 -298.5 -1.5
      vertex 13.205 -2.80681 -1.5
      vertex 13.5 0 -1.5
    endloop
  endfacet
  facet normal 0 0 -1
    outer loop
      vertex 400 -298.5 -1.5
      vertex 12.3329 -5.49094 -1.5
      vertex 13.205 -2.80681 -1.5
    endloop
  endfacet
  facet normal 0 0 -1
    outer loop
      vertex 400 -298.5 -1.5
      vertex 10.9217 -7.9351 -1.5
      vertex 12.3329 -5.49094 -1.5
    endloop
  endfacet
  facet normal 0 0 -1
    outer loop
      vertex 400 -298.5 -1.5
      vertex 9.03326 -10.0325 -1.5
      vertex 10.9217 -7.9351 -1.5
    endloop
  endfacet
  facet normal 0 0 -1
    outer loop
      vertex 400 -298.5 -1.5
      vertex 6.75 -11.6913 -1.5
      vertex 9.03326 -10.0325 -1.5
    endloop
  endfacet
  facet normal 0 0 -1
    outer loop
      vertex 400 -298.5 -1.5
      vertex 4.17173 -12.8393 -1.5
      vertex 6.75 -11.6913 -1.5
    endloop
  endfacet
  facet normal 0 0 -1
    outer loop
      vertex 400 -298.5 -1.5
      vertex 1.41113 -13.426 -1.5
      vertex 4.17173 -12.8393 -1.5
    endloop
  endfacet
  facet normal 0 0 -1
    outer loop
      vertex 400 -298.5 -1.5
      vertex -1.41113 -13.426 -1.5
      vertex 1.41113 -13.426 -1.5
    endloop
  endfacet
  facet normal 0 0 -1
    outer loop
      vertex -400 -298.5 -1.5
      vertex -1.41113 -13.426 -1.5
      vertex 400 -298.5 -1.5
    endloop
  endfacet
  facet normal -0 0 -1
    outer loop
      vertex -1.41113 -13.426 -1.5
      vertex -400 -298.5 -1.5
      vertex -4.17173 -12.8393 -1.5
    endloop
  endfacet
  facet normal -0 0 -1
    outer loop
      vertex -13.205 -2.80681 -1.5
      vertex -400 -298.5 -1.5
      vertex -13.5 0 -1.5
    endloop
  endfacet
  facet normal -0 0 -1
    outer loop
      vertex -12.3329 -5.49094 -1.5
      vertex -400 -298.5 -1.5
      vertex -13.205 -2.80681 -1.5
    endloop
  endfacet
  facet normal -0 0 -1
    outer loop
      vertex -10.9217 -7.9351 -1.5
      vertex -400 -298.5 -1.5
      vertex -12.3329 -5.49094 -1.5
    endloop
  endfacet
  facet normal -0 0 -1
    outer loop
      vertex -9.03326 -10.0325 -1.5
      vertex -400 -298.5 -1.5
      vertex -10.9217 -7.9351 -1.5
    endloop
  endfacet
  facet normal -0 0 -1
    outer loop
      vertex -6.75 -11.6913 -1.5
      vertex -400 -298.5 -1.5
      vertex -9.03326 -10.0325 -1.5
    endloop
  endfacet
  facet normal -0 0 -1
    outer loop
      vertex -4.17173 -12.8393 -1.5
      vertex -400 -298.5 -1.5
      vertex -6.75 -11.6913 -1.5
    endloop
  endfacet
  facet normal 0 0 -1
    outer loop
      vertex 400 -298.5 -1.5
      vertex 500 -300 -1.5
      vertex 400 -300 -1.5
    endloop
  endfacet
  facet normal 0 0 -1
    outer loop
      vertex 500 -300 -1.5
      vertex 400 -298.5 -1.5
      vertex 500 300 -1.5
    endloop
  endfacet
  facet normal 0 0 -1
    outer loop
      vertex 400 298.5 -1.5
      vertex 500 300 -1.5
      vertex 400 -298.5 -1.5
    endloop
  endfacet
  facet normal -0 0 -1
    outer loop
      vertex 500 300 -1.5
      vertex 400 298.5 -1.5
      vertex 400 300 -1.5
    endloop
  endfacet
  facet normal 0 0 -1
    outer loop
      vertex 13.205 2.80681 -1.5
      vertex 400 298.5 -1.5
      vertex 13.5 0 -1.5
    endloop
  endfacet
  facet normal 0 0 -1
    outer loop
      vertex 12.3329 5.49094 -1.5
      vertex 400 298.5 -1.5
      vertex 13.205 2.80681 -1.5
    endloop
  endfacet
  facet normal 0 0 -1
    outer loop
      vertex 10.9217 7.9351 -1.5
      vertex 400 298.5 -1.5
      vertex 12.3329 5.49094 -1.5
    endloop
  endfacet
  facet normal 0 0 -1
    outer loop
      vertex 9.03326 10.0325 -1.5
      vertex 400 298.5 -1.5
      vertex 10.9217 7.9351 -1.5
    endloop
  endfacet
  facet normal 0 0 -1
    outer loop
      vertex 6.75 11.6913 -1.5
      vertex 400 298.5 -1.5
      vertex 9.03326 10.0325 -1.5
    endloop
  endfacet
  facet normal 0 0 -1
    outer loop
      vertex 4.17173 12.8393 -1.5
      vertex 400 298.5 -1.5
      vertex 6.75 11.6913 -1.5
    endloop
  endfacet
  facet normal 0 0 -1
    outer loop
      vertex 1.41113 13.426 -1.5
      vertex 400 298.5 -1.5
      vertex 4.17173 12.8393 -1.5
    endloop
  endfacet
  facet normal 0 0 -1
    outer loop
      vertex -1.41113 13.426 -1.5
      vertex 400 298.5 -1.5
      vertex 1.41113 13.426 -1.5
    endloop
  endfacet
  facet normal 0 0 -1
    outer loop
      vertex -400 298.5 -1.5
      vertex -1.41113 13.426 -1.5
      vertex -4.17173 12.8393 -1.5
    endloop
  endfacet
  facet normal 0 0 -1
    outer loop
      vertex -400 298.5 -1.5
      vertex -4.17173 12.8393 -1.5
      vertex -6.75 11.6913 -1.5
    endloop
  endfacet
  facet normal 0 0 -1
    outer loop
      vertex -400 298.5 -1.5
      vertex -13.5 0 -1.5
      vertex -400 -298.5 -1.5
    endloop
  endfacet
  facet normal 0 0 -1
    outer loop
      vertex -13.5 0 -1.5
      vertex -400 298.5 -1.5
      vertex -13.205 2.80681 -1.5
    endloop
  endfacet
  facet normal 0 0 -1
    outer loop
      vertex -13.205 2.80681 -1.5
      vertex -400 298.5 -1.5
      vertex -12.3329 5.49094 -1.5
    endloop
  endfacet
  facet normal 0 0 -1
    outer loop
      vertex -12.3329 5.49094 -1.5
      vertex -400 298.5 -1.5
      vertex -10.9217 7.9351 -1.5
    endloop
  endfacet
  facet normal 0 0 -1
    outer loop
      vertex -1.41113 13.426 -1.5
      vertex -400 298.5 -1.5
      vertex 400 298.5 -1.5
    endloop
  endfacet
  facet normal 0 0 -1
    outer loop
      vertex -9.03326 10.0325 -1.5
      vertex -400 298.5 -1.5
      vertex -6.75 11.6913 -1.5
    endloop
  endfacet
  facet normal 0 0 -1
    outer loop
      vertex -10.9217 7.9351 -1.5
      vertex -400 298.5 -1.5
      vertex -9.03326 10.0325 -1.5
    endloop
  endfacet
  facet normal 0 1 -0
    outer loop
      vertex 500 300 -1.5
      vertex 400 300 1.5
      vertex 500 300 1.5
    endloop
  endfacet
  facet normal 0 1 0
    outer loop
      vertex 400 300 1.5
      vertex 500 300 -1.5
      vertex 400 300 -1.5
    endloop
  endfacet
  facet normal 0 -1 0
    outer loop
      vertex 400 -300 -1.5
      vertex 500 -300 1.5
      vertex 400 -300 1.5
    endloop
  endfacet
  facet normal 0 -1 -0
    outer loop
      vertex 500 -300 1.5
      vertex 400 -300 -1.5
      vertex 500 -300 -1.5
    endloop
  endfacet
endsolid OpenSCAD_Model
