solid OpenSCAD_Model
  facet normal -0.40673 -0.913548 0
    outer loop
      vertex -25 -43.3013 10
      vertex -15.4508 -47.5528 250
      vertex -25 -43.3013 250
    endloop
  endfacet
  facet normal -0.40673 -0.913548 -0
    outer loop
      vertex -15.4508 -47.5528 250
      vertex -25 -43.3013 10
      vertex -15.4508 -47.5528 10
    endloop
  endfacet
  facet normal -0.951056 -0.309018 0
    outer loop
      vertex -45.6773 -20.3368 10
      vertex -48.9074 -10.3956 250
      vertex -48.9074 -10.3956 10
    endloop
  endfacet
  facet normal -0.951056 -0.309018 0
    outer loop
      vertex -48.9074 -10.3956 250
      vertex -45.6773 -20.3368 10
      vertex -45.6773 -20.3368 250
    endloop
  endfacet
  facet normal 0.951056 0.309018 0
    outer loop
      vertex 48.9074 10.3956 250
      vertex 45.6773 20.3368 10
      vertex 45.6773 20.3368 250
    endloop
  endfacet
  facet normal 0.951056 0.309018 0
    outer loop
      vertex 45.6773 20.3368 10
      vertex 48.9074 10.3956 250
      vertex 48.9074 10.3956 10
    endloop
  endfacet
  facet normal 0.994522 0.104526 0
    outer loop
      vertex 50 0 250
      vertex 48.9074 10.3956 10
      vertex 48.9074 10.3956 250
    endloop
  endfacet
  facet normal 0.994522 0.104526 0
    outer loop
      vertex 48.9074 10.3956 10
      vertex 50 0 250
      vertex 50 0 10
    endloop
  endfacet
  facet normal 0.866028 0.499995 0
    outer loop
      vertex 45.6773 20.3368 250
      vertex 40.4509 29.3893 10
      vertex 40.4509 29.3893 250
    endloop
  endfacet
  facet normal 0.866028 0.499995 0
    outer loop
      vertex 40.4509 29.3893 10
      vertex 45.6773 20.3368 250
      vertex 45.6773 20.3368 10
    endloop
  endfacet
  facet normal 0.587791 -0.809013 0
    outer loop
      vertex 25 -43.3013 10
      vertex 33.4565 -37.1572 250
      vertex 25 -43.3013 250
    endloop
  endfacet
  facet normal 0.587791 -0.809013 0
    outer loop
      vertex 33.4565 -37.1572 250
      vertex 25 -43.3013 10
      vertex 33.4565 -37.1572 10
    endloop
  endfacet
  facet normal 0.40673 0.913548 -0
    outer loop
      vertex 25 43.3013 10
      vertex 15.4508 47.5528 250
      vertex 25 43.3013 250
    endloop
  endfacet
  facet normal 0.40673 0.913548 0
    outer loop
      vertex 15.4508 47.5528 250
      vertex 25 43.3013 10
      vertex 15.4508 47.5528 10
    endloop
  endfacet
  facet normal 0.994522 -0.104526 0
    outer loop
      vertex 48.9074 -10.3956 250
      vertex 50 0 10
      vertex 50 0 250
    endloop
  endfacet
  facet normal 0.994522 -0.104526 0
    outer loop
      vertex 50 0 10
      vertex 48.9074 -10.3956 250
      vertex 48.9074 -10.3956 10
    endloop
  endfacet
  facet normal 0.743138 0.669139 0
    outer loop
      vertex 40.4509 29.3893 250
      vertex 33.4565 37.1572 10
      vertex 33.4565 37.1572 250
    endloop
  endfacet
  facet normal 0.743138 0.669139 0
    outer loop
      vertex 33.4565 37.1572 10
      vertex 40.4509 29.3893 250
      vertex 40.4509 29.3893 10
    endloop
  endfacet
  facet normal -0.866028 0.499995 0
    outer loop
      vertex -45.6773 20.3368 10
      vertex -40.4509 29.3893 250
      vertex -40.4509 29.3893 10
    endloop
  endfacet
  facet normal -0.866028 0.499995 0
    outer loop
      vertex -40.4509 29.3893 250
      vertex -45.6773 20.3368 10
      vertex -45.6773 20.3368 250
    endloop
  endfacet
  facet normal 0.743138 -0.669139 0
    outer loop
      vertex 33.4565 -37.1572 250
      vertex 40.4509 -29.3893 10
      vertex 40.4509 -29.3893 250
    endloop
  endfacet
  facet normal 0.743138 -0.669139 0
    outer loop
      vertex 40.4509 -29.3893 10
      vertex 33.4565 -37.1572 250
      vertex 33.4565 -37.1572 10
    endloop
  endfacet
  facet normal -0.743138 0.669139 0
    outer loop
      vertex -40.4509 29.3893 10
      vertex -33.4565 37.1572 250
      vertex -33.4565 37.1572 10
    endloop
  endfacet
  facet normal -0.743138 0.669139 0
    outer loop
      vertex -33.4565 37.1572 250
      vertex -40.4509 29.3893 10
      vertex -40.4509 29.3893 250
    endloop
  endfacet
  facet normal 0.866028 -0.499995 0
    outer loop
      vertex 40.4509 -29.3893 250
      vertex 45.6773 -20.3368 10
      vertex 45.6773 -20.3368 250
    endloop
  endfacet
  facet normal 0.866028 -0.499995 0
    outer loop
      vertex 45.6773 -20.3368 10
      vertex 40.4509 -29.3893 250
      vertex 40.4509 -29.3893 10
    endloop
  endfacet
  facet normal -0.587791 0.809013 0
    outer loop
      vertex -25 43.3013 10
      vertex -33.4565 37.1572 250
      vertex -25 43.3013 250
    endloop
  endfacet
  facet normal -0.587791 0.809013 0
    outer loop
      vertex -33.4565 37.1572 250
      vertex -25 43.3013 10
      vertex -33.4565 37.1572 10
    endloop
  endfacet
  facet normal 0 0 1
    outer loop
      vertex 40 0 250
      vertex 50 0 250
      vertex 48.9074 10.3956 250
    endloop
  endfacet
  facet normal 0 0 1
    outer loop
      vertex 39.1259 8.31647 250
      vertex 48.9074 10.3956 250
      vertex 45.6773 20.3368 250
    endloop
  endfacet
  facet normal 0 0 1
    outer loop
      vertex 50 0 250
      vertex 40 0 250
      vertex 48.9074 -10.3956 250
    endloop
  endfacet
  facet normal 0 0 1
    outer loop
      vertex 36.5418 16.2695 250
      vertex 45.6773 20.3368 250
      vertex 40.4509 29.3893 250
    endloop
  endfacet
  facet normal -0 0 1
    outer loop
      vertex 39.1259 -8.31647 250
      vertex 48.9074 -10.3956 250
      vertex 40 0 250
    endloop
  endfacet
  facet normal 0 0 1
    outer loop
      vertex 48.9074 -10.3956 250
      vertex 39.1259 -8.31647 250
      vertex 45.6773 -20.3368 250
    endloop
  endfacet
  facet normal 0 0 1
    outer loop
      vertex 48.9074 10.3956 250
      vertex 39.1259 8.31647 250
      vertex 40 0 250
    endloop
  endfacet
  facet normal 0 0 1
    outer loop
      vertex 45.6773 20.3368 250
      vertex 36.5418 16.2695 250
      vertex 39.1259 8.31647 250
    endloop
  endfacet
  facet normal 0 0 1
    outer loop
      vertex 32.3607 23.5114 250
      vertex 40.4509 29.3893 250
      vertex 33.4565 37.1572 250
    endloop
  endfacet
  facet normal 0 0 1
    outer loop
      vertex 40.4509 29.3893 250
      vertex 32.3607 23.5114 250
      vertex 36.5418 16.2695 250
    endloop
  endfacet
  facet normal 0 0 1
    outer loop
      vertex 33.4565 37.1572 250
      vertex 26.7652 29.7258 250
      vertex 32.3607 23.5114 250
    endloop
  endfacet
  facet normal 0 0 1
    outer loop
      vertex 25 43.3013 250
      vertex 26.7652 29.7258 250
      vertex 33.4565 37.1572 250
    endloop
  endfacet
  facet normal 0 0 1
    outer loop
      vertex 25 43.3013 250
      vertex 20 34.641 250
      vertex 26.7652 29.7258 250
    endloop
  endfacet
  facet normal 0 0 1
    outer loop
      vertex 15.4508 47.5528 250
      vertex 20 34.641 250
      vertex 25 43.3013 250
    endloop
  endfacet
  facet normal 0 0 1
    outer loop
      vertex 15.4508 47.5528 250
      vertex 12.3607 38.0423 250
      vertex 20 34.641 250
    endloop
  endfacet
  facet normal 0 0 1
    outer loop
      vertex 5.22642 49.7261 250
      vertex 12.3607 38.0423 250
      vertex 15.4508 47.5528 250
    endloop
  endfacet
  facet normal 0 0 1
    outer loop
      vertex 5.22642 49.7261 250
      vertex 4.18114 39.7809 250
      vertex 12.3607 38.0423 250
    endloop
  endfacet
  facet normal 0 0 1
    outer loop
      vertex 5.22642 49.7261 250
      vertex -4.18114 39.7809 250
      vertex 4.18114 39.7809 250
    endloop
  endfacet
  facet normal -0 0 1
    outer loop
      vertex -5.22642 49.7261 250
      vertex -4.18114 39.7809 250
      vertex 5.22642 49.7261 250
    endloop
  endfacet
  facet normal 0 0 1
    outer loop
      vertex -5.22642 49.7261 250
      vertex -12.3607 38.0423 250
      vertex -4.18114 39.7809 250
    endloop
  endfacet
  facet normal -0 0 1
    outer loop
      vertex -15.4508 47.5528 250
      vertex -12.3607 38.0423 250
      vertex -5.22642 49.7261 250
    endloop
  endfacet
  facet normal 0 0 1
    outer loop
      vertex -15.4508 47.5528 250
      vertex -20 34.641 250
      vertex -12.3607 38.0423 250
    endloop
  endfacet
  facet normal -0 0 1
    outer loop
      vertex -25 43.3013 250
      vertex -20 34.641 250
      vertex -15.4508 47.5528 250
    endloop
  endfacet
  facet normal 0 0 1
    outer loop
      vertex -25 43.3013 250
      vertex -26.7652 29.7258 250
      vertex -20 34.641 250
    endloop
  endfacet
  facet normal -0 0 1
    outer loop
      vertex -33.4565 37.1572 250
      vertex -26.7652 29.7258 250
      vertex -25 43.3013 250
    endloop
  endfacet
  facet normal 0 0 1
    outer loop
      vertex -26.7652 29.7258 250
      vertex -33.4565 37.1572 250
      vertex -32.3607 23.5114 250
    endloop
  endfacet
  facet normal -0 0 1
    outer loop
      vertex -40.4509 29.3893 250
      vertex -32.3607 23.5114 250
      vertex -33.4565 37.1572 250
    endloop
  endfacet
  facet normal 0 0 1
    outer loop
      vertex -32.3607 23.5114 250
      vertex -40.4509 29.3893 250
      vertex -36.5418 16.2695 250
    endloop
  endfacet
  facet normal 0 0 1
    outer loop
      vertex -36.5418 16.2695 250
      vertex -45.6773 20.3368 250
      vertex -39.1259 8.31647 250
    endloop
  endfacet
  facet normal -0 0 1
    outer loop
      vertex -45.6773 20.3368 250
      vertex -36.5418 16.2695 250
      vertex -40.4509 29.3893 250
    endloop
  endfacet
  facet normal -0 0 1
    outer loop
      vertex 36.5418 -16.2695 250
      vertex 45.6773 -20.3368 250
      vertex 39.1259 -8.31647 250
    endloop
  endfacet
  facet normal 0 0 1
    outer loop
      vertex 45.6773 -20.3368 250
      vertex 36.5418 -16.2695 250
      vertex 40.4509 -29.3893 250
    endloop
  endfacet
  facet normal -0 0 1
    outer loop
      vertex 32.3607 -23.5114 250
      vertex 40.4509 -29.3893 250
      vertex 36.5418 -16.2695 250
    endloop
  endfacet
  facet normal 0 0 1
    outer loop
      vertex 40.4509 -29.3893 250
      vertex 32.3607 -23.5114 250
      vertex 33.4565 -37.1572 250
    endloop
  endfacet
  facet normal -0 0 1
    outer loop
      vertex 26.7652 -29.7258 250
      vertex 33.4565 -37.1572 250
      vertex 32.3607 -23.5114 250
    endloop
  endfacet
  facet normal 0 0 1
    outer loop
      vertex 26.7652 -29.7258 250
      vertex 25 -43.3013 250
      vertex 33.4565 -37.1572 250
    endloop
  endfacet
  facet normal -0 0 1
    outer loop
      vertex 20 -34.641 250
      vertex 25 -43.3013 250
      vertex 26.7652 -29.7258 250
    endloop
  endfacet
  facet normal 0 0 1
    outer loop
      vertex 20 -34.641 250
      vertex 15.4508 -47.5528 250
      vertex 25 -43.3013 250
    endloop
  endfacet
  facet normal -0 0 1
    outer loop
      vertex 12.3607 -38.0423 250
      vertex 15.4508 -47.5528 250
      vertex 20 -34.641 250
    endloop
  endfacet
  facet normal 0 0 1
    outer loop
      vertex 12.3607 -38.0423 250
      vertex 5.22642 -49.7261 250
      vertex 15.4508 -47.5528 250
    endloop
  endfacet
  facet normal -0 0 1
    outer loop
      vertex 4.18114 -39.7809 250
      vertex 5.22642 -49.7261 250
      vertex 12.3607 -38.0423 250
    endloop
  endfacet
  facet normal -0 0 1
    outer loop
      vertex -4.18114 -39.7809 250
      vertex 5.22642 -49.7261 250
      vertex 4.18114 -39.7809 250
    endloop
  endfacet
  facet normal 0 0 1
    outer loop
      vertex -4.18114 -39.7809 250
      vertex -5.22642 -49.7261 250
      vertex 5.22642 -49.7261 250
    endloop
  endfacet
  facet normal 0 0 1
    outer loop
      vertex -12.3607 -38.0423 250
      vertex -5.22642 -49.7261 250
      vertex -4.18114 -39.7809 250
    endloop
  endfacet
  facet normal 0 0 1
    outer loop
      vertex -12.3607 -38.0423 250
      vertex -15.4508 -47.5528 250
      vertex -5.22642 -49.7261 250
    endloop
  endfacet
  facet normal 0 0 1
    outer loop
      vertex -20 -34.641 250
      vertex -15.4508 -47.5528 250
      vertex -12.3607 -38.0423 250
    endloop
  endfacet
  facet normal 0 0 1
    outer loop
      vertex -20 -34.641 250
      vertex -25 -43.3013 250
      vertex -15.4508 -47.5528 250
    endloop
  endfacet
  facet normal 0 0 1
    outer loop
      vertex -26.7652 -29.7258 250
      vertex -25 -43.3013 250
      vertex -20 -34.641 250
    endloop
  endfacet
  facet normal 0 0 1
    outer loop
      vertex -33.4565 -37.1572 250
      vertex -26.7652 -29.7258 250
      vertex -32.3607 -23.5114 250
    endloop
  endfacet
  facet normal 0 0 1
    outer loop
      vertex -26.7652 -29.7258 250
      vertex -33.4565 -37.1572 250
      vertex -25 -43.3013 250
    endloop
  endfacet
  facet normal 0 0 1
    outer loop
      vertex -40.4509 -29.3893 250
      vertex -32.3607 -23.5114 250
      vertex -36.5418 -16.2695 250
    endloop
  endfacet
  facet normal 0 0 1
    outer loop
      vertex -45.6773 -20.3368 250
      vertex -36.5418 -16.2695 250
      vertex -39.1259 -8.31647 250
    endloop
  endfacet
  facet normal 0 0 1
    outer loop
      vertex -32.3607 -23.5114 250
      vertex -40.4509 -29.3893 250
      vertex -33.4565 -37.1572 250
    endloop
  endfacet
  facet normal 0 0 1
    outer loop
      vertex -48.9074 -10.3956 250
      vertex -39.1259 -8.31647 250
      vertex -40 0 250
    endloop
  endfacet
  facet normal -0 0 1
    outer loop
      vertex -48.9074 10.3956 250
      vertex -39.1259 8.31647 250
      vertex -45.6773 20.3368 250
    endloop
  endfacet
  facet normal 0 0 1
    outer loop
      vertex -39.1259 8.31647 250
      vertex -48.9074 10.3956 250
      vertex -40 0 250
    endloop
  endfacet
  facet normal 0 0 1
    outer loop
      vertex -36.5418 -16.2695 250
      vertex -45.6773 -20.3368 250
      vertex -40.4509 -29.3893 250
    endloop
  endfacet
  facet normal 0 0 1
    outer loop
      vertex -50 0 250
      vertex -40 0 250
      vertex -48.9074 10.3956 250
    endloop
  endfacet
  facet normal 0 0 1
    outer loop
      vertex -39.1259 -8.31647 250
      vertex -48.9074 -10.3956 250
      vertex -45.6773 -20.3368 250
    endloop
  endfacet
  facet normal 0 0 1
    outer loop
      vertex -40 0 250
      vertex -50 0 250
      vertex -48.9074 -10.3956 250
    endloop
  endfacet
  facet normal 0.951056 -0.309018 0
    outer loop
      vertex 45.6773 -20.3368 250
      vertex 48.9074 -10.3956 10
      vertex 48.9074 -10.3956 250
    endloop
  endfacet
  facet normal 0.951056 -0.309018 0
    outer loop
      vertex 48.9074 -10.3956 10
      vertex 45.6773 -20.3368 250
      vertex 45.6773 -20.3368 10
    endloop
  endfacet
  facet normal 0 1 -0
    outer loop
      vertex 5.22642 49.7261 10
      vertex -5.22642 49.7261 250
      vertex 5.22642 49.7261 250
    endloop
  endfacet
  facet normal 0 1 0
    outer loop
      vertex -5.22642 49.7261 250
      vertex 5.22642 49.7261 10
      vertex -5.22642 49.7261 10
    endloop
  endfacet
  facet normal -0.587791 -0.809013 0
    outer loop
      vertex -33.4565 -37.1572 10
      vertex -25 -43.3013 250
      vertex -33.4565 -37.1572 250
    endloop
  endfacet
  facet normal -0.587791 -0.809013 -0
    outer loop
      vertex -25 -43.3013 250
      vertex -33.4565 -37.1572 10
      vertex -25 -43.3013 10
    endloop
  endfacet
  facet normal 0 0 -1
    outer loop
      vertex 122.268 -25.989 0
      vertex 122.268 25.989 0
      vertex 125 0 0
    endloop
  endfacet
  facet normal 0 0 -1
    outer loop
      vertex 114.193 -50.8421 0
      vertex 122.268 25.989 0
      vertex 122.268 -25.989 0
    endloop
  endfacet
  facet normal 0 0 -1
    outer loop
      vertex 114.193 -50.8421 0
      vertex 114.193 50.8421 0
      vertex 122.268 25.989 0
    endloop
  endfacet
  facet normal 0 0 -1
    outer loop
      vertex 101.127 -73.4732 0
      vertex 114.193 50.8421 0
      vertex 114.193 -50.8421 0
    endloop
  endfacet
  facet normal 0 0 -1
    outer loop
      vertex 101.127 -73.4732 0
      vertex 101.127 73.4732 0
      vertex 114.193 50.8421 0
    endloop
  endfacet
  facet normal 0 0 -1
    outer loop
      vertex 83.6413 -92.8931 0
      vertex 101.127 73.4732 0
      vertex 101.127 -73.4732 0
    endloop
  endfacet
  facet normal 0 0 -1
    outer loop
      vertex 83.6413 -92.8931 0
      vertex 83.6413 92.8931 0
      vertex 101.127 73.4732 0
    endloop
  endfacet
  facet normal 0 0 -1
    outer loop
      vertex 62.5 -108.253 0
      vertex 83.6413 92.8931 0
      vertex 83.6413 -92.8931 0
    endloop
  endfacet
  facet normal 0 0 -1
    outer loop
      vertex 62.5 -108.253 0
      vertex 62.5 108.253 0
      vertex 83.6413 92.8931 0
    endloop
  endfacet
  facet normal 0 0 -1
    outer loop
      vertex 38.6271 -118.882 0
      vertex 62.5 108.253 0
      vertex 62.5 -108.253 0
    endloop
  endfacet
  facet normal 0 0 -1
    outer loop
      vertex 38.6271 -118.882 0
      vertex 38.6271 118.882 0
      vertex 62.5 108.253 0
    endloop
  endfacet
  facet normal 0 0 -1
    outer loop
      vertex 13.0661 -124.315 0
      vertex 38.6271 118.882 0
      vertex 38.6271 -118.882 0
    endloop
  endfacet
  facet normal 0 0 -1
    outer loop
      vertex 13.0661 -124.315 0
      vertex 13.0661 124.315 0
      vertex 38.6271 118.882 0
    endloop
  endfacet
  facet normal 0 0 -1
    outer loop
      vertex -13.0661 -124.315 0
      vertex 13.0661 124.315 0
      vertex 13.0661 -124.315 0
    endloop
  endfacet
  facet normal 0 0 -1
    outer loop
      vertex -13.0661 -124.315 0
      vertex -13.0661 124.315 0
      vertex 13.0661 124.315 0
    endloop
  endfacet
  facet normal 0 0 -1
    outer loop
      vertex -38.6271 -118.882 0
      vertex -13.0661 124.315 0
      vertex -13.0661 -124.315 0
    endloop
  endfacet
  facet normal 0 0 -1
    outer loop
      vertex -38.6271 -118.882 0
      vertex -38.6271 118.882 0
      vertex -13.0661 124.315 0
    endloop
  endfacet
  facet normal 0 0 -1
    outer loop
      vertex -62.5 -108.253 0
      vertex -38.6271 118.882 0
      vertex -38.6271 -118.882 0
    endloop
  endfacet
  facet normal 0 0 -1
    outer loop
      vertex -62.5 -108.253 0
      vertex -62.5 108.253 0
      vertex -38.6271 118.882 0
    endloop
  endfacet
  facet normal 0 0 -1
    outer loop
      vertex -83.6413 -92.8931 0
      vertex -62.5 108.253 0
      vertex -62.5 -108.253 0
    endloop
  endfacet
  facet normal 0 0 -1
    outer loop
      vertex -83.6413 -92.8931 0
      vertex -83.6413 92.8931 0
      vertex -62.5 108.253 0
    endloop
  endfacet
  facet normal 0 0 -1
    outer loop
      vertex -101.127 -73.4732 0
      vertex -83.6413 92.8931 0
      vertex -83.6413 -92.8931 0
    endloop
  endfacet
  facet normal 0 0 -1
    outer loop
      vertex -101.127 -73.4732 0
      vertex -101.127 73.4732 0
      vertex -83.6413 92.8931 0
    endloop
  endfacet
  facet normal 0 0 -1
    outer loop
      vertex -114.193 -50.8421 0
      vertex -101.127 73.4732 0
      vertex -101.127 -73.4732 0
    endloop
  endfacet
  facet normal 0 0 -1
    outer loop
      vertex -114.193 -50.8421 0
      vertex -114.193 50.8421 0
      vertex -101.127 73.4732 0
    endloop
  endfacet
  facet normal 0 0 -1
    outer loop
      vertex -122.268 -25.989 0
      vertex -114.193 50.8421 0
      vertex -114.193 -50.8421 0
    endloop
  endfacet
  facet normal 0 0 -1
    outer loop
      vertex -122.268 -25.989 0
      vertex -122.268 25.989 0
      vertex -114.193 50.8421 0
    endloop
  endfacet
  facet normal 0 -0 -1
    outer loop
      vertex -122.268 25.989 0
      vertex -122.268 -25.989 0
      vertex -125 0 0
    endloop
  endfacet
  facet normal -0.40673 0.913548 0
    outer loop
      vertex -15.4508 47.5528 10
      vertex -25 43.3013 250
      vertex -15.4508 47.5528 250
    endloop
  endfacet
  facet normal -0.40673 0.913548 0
    outer loop
      vertex -25 43.3013 250
      vertex -15.4508 47.5528 10
      vertex -25 43.3013 10
    endloop
  endfacet
  facet normal -0.994522 -0.104526 0
    outer loop
      vertex -48.9074 -10.3956 10
      vertex -50 0 250
      vertex -50 0 10
    endloop
  endfacet
  facet normal -0.994522 -0.104526 0
    outer loop
      vertex -50 0 250
      vertex -48.9074 -10.3956 10
      vertex -48.9074 -10.3956 250
    endloop
  endfacet
  facet normal -0.743138 -0.669139 0
    outer loop
      vertex -33.4565 -37.1572 10
      vertex -40.4509 -29.3893 250
      vertex -40.4509 -29.3893 10
    endloop
  endfacet
  facet normal -0.743138 -0.669139 0
    outer loop
      vertex -40.4509 -29.3893 250
      vertex -33.4565 -37.1572 10
      vertex -33.4565 -37.1572 250
    endloop
  endfacet
  facet normal -0.866028 -0.499995 0
    outer loop
      vertex -40.4509 -29.3893 10
      vertex -45.6773 -20.3368 250
      vertex -45.6773 -20.3368 10
    endloop
  endfacet
  facet normal -0.866028 -0.499995 0
    outer loop
      vertex -45.6773 -20.3368 250
      vertex -40.4509 -29.3893 10
      vertex -40.4509 -29.3893 250
    endloop
  endfacet
  facet normal 0.207915 -0.978147 0
    outer loop
      vertex 5.22642 -49.7261 10
      vertex 15.4508 -47.5528 250
      vertex 5.22642 -49.7261 250
    endloop
  endfacet
  facet normal 0.207915 -0.978147 0
    outer loop
      vertex 15.4508 -47.5528 250
      vertex 5.22642 -49.7261 10
      vertex 15.4508 -47.5528 10
    endloop
  endfacet
  facet normal -0.994522 0.104526 0
    outer loop
      vertex -50 0 10
      vertex -48.9074 10.3956 250
      vertex -48.9074 10.3956 10
    endloop
  endfacet
  facet normal -0.994522 0.104526 0
    outer loop
      vertex -48.9074 10.3956 250
      vertex -50 0 10
      vertex -50 0 250
    endloop
  endfacet
  facet normal 0.207915 0.978147 -0
    outer loop
      vertex 15.4508 47.5528 10
      vertex 5.22642 49.7261 250
      vertex 15.4508 47.5528 250
    endloop
  endfacet
  facet normal 0.207915 0.978147 0
    outer loop
      vertex 5.22642 49.7261 250
      vertex 15.4508 47.5528 10
      vertex 5.22642 49.7261 10
    endloop
  endfacet
  facet normal 0.587791 0.809013 -0
    outer loop
      vertex 33.4565 37.1572 10
      vertex 25 43.3013 250
      vertex 33.4565 37.1572 250
    endloop
  endfacet
  facet normal 0.587791 0.809013 0
    outer loop
      vertex 25 43.3013 250
      vertex 33.4565 37.1572 10
      vertex 25 43.3013 10
    endloop
  endfacet
  facet normal -0.207915 0.978147 0
    outer loop
      vertex -5.22642 49.7261 10
      vertex -15.4508 47.5528 250
      vertex -5.22642 49.7261 250
    endloop
  endfacet
  facet normal -0.207915 0.978147 0
    outer loop
      vertex -15.4508 47.5528 250
      vertex -5.22642 49.7261 10
      vertex -15.4508 47.5528 10
    endloop
  endfacet
  facet normal 0.40673 -0.913548 0
    outer loop
      vertex 15.4508 -47.5528 10
      vertex 25 -43.3013 250
      vertex 15.4508 -47.5528 250
    endloop
  endfacet
  facet normal 0.40673 -0.913548 0
    outer loop
      vertex 25 -43.3013 250
      vertex 15.4508 -47.5528 10
      vertex 25 -43.3013 10
    endloop
  endfacet
  facet normal 0 -1 0
    outer loop
      vertex -5.22642 -49.7261 10
      vertex 5.22642 -49.7261 250
      vertex -5.22642 -49.7261 250
    endloop
  endfacet
  facet normal 0 -1 -0
    outer loop
      vertex 5.22642 -49.7261 250
      vertex -5.22642 -49.7261 10
      vertex 5.22642 -49.7261 10
    endloop
  endfacet
  facet normal -0.207915 -0.978147 0
    outer loop
      vertex -15.4508 -47.5528 10
      vertex -5.22642 -49.7261 250
      vertex -15.4508 -47.5528 250
    endloop
  endfacet
  facet normal -0.207915 -0.978147 -0
    outer loop
      vertex -5.22642 -49.7261 250
      vertex -15.4508 -47.5528 10
      vertex -5.22642 -49.7261 10
    endloop
  endfacet
  facet normal -0.951056 0.309018 0
    outer loop
      vertex -48.9074 10.3956 10
      vertex -45.6773 20.3368 250
      vertex -45.6773 20.3368 10
    endloop
  endfacet
  facet normal -0.951056 0.309018 0
    outer loop
      vertex -45.6773 20.3368 250
      vertex -48.9074 10.3956 10
      vertex -48.9074 10.3956 250
    endloop
  endfacet
  facet normal 0.743143 0.669133 0
    outer loop
      vertex -26.7652 -29.7258 250
      vertex -32.3607 -23.5114 10
      vertex -32.3607 -23.5114 250
    endloop
  endfacet
  facet normal 0.743143 0.669133 0
    outer loop
      vertex -32.3607 -23.5114 10
      vertex -26.7652 -29.7258 250
      vertex -26.7652 -29.7258 10
    endloop
  endfacet
  facet normal -0.951056 -0.309017 0
    outer loop
      vertex 39.1259 8.31647 10
      vertex 36.5418 16.2695 250
      vertex 36.5418 16.2695 10
    endloop
  endfacet
  facet normal -0.951056 -0.309017 0
    outer loop
      vertex 36.5418 16.2695 250
      vertex 39.1259 8.31647 10
      vertex 39.1259 8.31647 250
    endloop
  endfacet
  facet normal -0.994522 -0.104529 0
    outer loop
      vertex 40 0 10
      vertex 39.1259 8.31647 250
      vertex 39.1259 8.31647 10
    endloop
  endfacet
  facet normal -0.994522 -0.104529 0
    outer loop
      vertex 39.1259 8.31647 250
      vertex 40 0 10
      vertex 40 0 250
    endloop
  endfacet
  facet normal -0.866026 -0.499999 0
    outer loop
      vertex 36.5418 16.2695 10
      vertex 32.3607 23.5114 250
      vertex 32.3607 23.5114 10
    endloop
  endfacet
  facet normal -0.866026 -0.499999 0
    outer loop
      vertex 32.3607 23.5114 250
      vertex 36.5418 16.2695 10
      vertex 36.5418 16.2695 250
    endloop
  endfacet
  facet normal -0.951056 0.309017 0
    outer loop
      vertex 36.5418 -16.2695 10
      vertex 39.1259 -8.31647 250
      vertex 39.1259 -8.31647 10
    endloop
  endfacet
  facet normal -0.951056 0.309017 0
    outer loop
      vertex 39.1259 -8.31647 250
      vertex 36.5418 -16.2695 10
      vertex 36.5418 -16.2695 250
    endloop
  endfacet
  facet normal -0.587785 0.809017 0
    outer loop
      vertex 26.7652 -29.7258 10
      vertex 20 -34.641 250
      vertex 26.7652 -29.7258 250
    endloop
  endfacet
  facet normal -0.587785 0.809017 0
    outer loop
      vertex 20 -34.641 250
      vertex 26.7652 -29.7258 10
      vertex 20 -34.641 10
    endloop
  endfacet
  facet normal -0.743143 0.669133 0
    outer loop
      vertex 26.7652 -29.7258 10
      vertex 32.3607 -23.5114 250
      vertex 32.3607 -23.5114 10
    endloop
  endfacet
  facet normal -0.743143 0.669133 0
    outer loop
      vertex 32.3607 -23.5114 250
      vertex 26.7652 -29.7258 10
      vertex 26.7652 -29.7258 250
    endloop
  endfacet
  facet normal -0.994522 0.104529 0
    outer loop
      vertex 39.1259 -8.31647 10
      vertex 40 0 250
      vertex 40 0 10
    endloop
  endfacet
  facet normal -0.994522 0.104529 0
    outer loop
      vertex 40 0 250
      vertex 39.1259 -8.31647 10
      vertex 39.1259 -8.31647 250
    endloop
  endfacet
  facet normal 0.406743 0.913543 -0
    outer loop
      vertex -12.3607 -38.0423 10
      vertex -20 -34.641 250
      vertex -12.3607 -38.0423 250
    endloop
  endfacet
  facet normal 0.406743 0.913543 0
    outer loop
      vertex -20 -34.641 250
      vertex -12.3607 -38.0423 10
      vertex -20 -34.641 10
    endloop
  endfacet
  facet normal -0.406743 -0.913543 0
    outer loop
      vertex 12.3607 38.0423 10
      vertex 20 34.641 250
      vertex 12.3607 38.0423 250
    endloop
  endfacet
  facet normal -0.406743 -0.913543 -0
    outer loop
      vertex 20 34.641 250
      vertex 12.3607 38.0423 10
      vertex 20 34.641 10
    endloop
  endfacet
  facet normal -0.743143 -0.669133 0
    outer loop
      vertex 32.3607 23.5114 10
      vertex 26.7652 29.7258 250
      vertex 26.7652 29.7258 10
    endloop
  endfacet
  facet normal -0.743143 -0.669133 0
    outer loop
      vertex 26.7652 29.7258 250
      vertex 32.3607 23.5114 10
      vertex 32.3607 23.5114 250
    endloop
  endfacet
  facet normal 0.587785 0.809017 -0
    outer loop
      vertex -20 -34.641 10
      vertex -26.7652 -29.7258 250
      vertex -20 -34.641 250
    endloop
  endfacet
  facet normal 0.587785 0.809017 0
    outer loop
      vertex -26.7652 -29.7258 250
      vertex -20 -34.641 10
      vertex -26.7652 -29.7258 10
    endloop
  endfacet
  facet normal 0.743143 -0.669133 0
    outer loop
      vertex -32.3607 23.5114 250
      vertex -26.7652 29.7258 10
      vertex -26.7652 29.7258 250
    endloop
  endfacet
  facet normal 0.743143 -0.669133 0
    outer loop
      vertex -26.7652 29.7258 10
      vertex -32.3607 23.5114 250
      vertex -32.3607 23.5114 10
    endloop
  endfacet
  facet normal 0 -1 0
    outer loop
      vertex -4.18114 39.7809 10
      vertex 4.18114 39.7809 250
      vertex -4.18114 39.7809 250
    endloop
  endfacet
  facet normal 0 -1 -0
    outer loop
      vertex 4.18114 39.7809 250
      vertex -4.18114 39.7809 10
      vertex 4.18114 39.7809 10
    endloop
  endfacet
  facet normal -0.406743 0.913543 0
    outer loop
      vertex 20 -34.641 10
      vertex 12.3607 -38.0423 250
      vertex 20 -34.641 250
    endloop
  endfacet
  facet normal -0.406743 0.913543 0
    outer loop
      vertex 12.3607 -38.0423 250
      vertex 20 -34.641 10
      vertex 12.3607 -38.0423 10
    endloop
  endfacet
  facet normal -0.207909 0.978148 0
    outer loop
      vertex 12.3607 -38.0423 10
      vertex 4.18114 -39.7809 250
      vertex 12.3607 -38.0423 250
    endloop
  endfacet
  facet normal -0.207909 0.978148 0
    outer loop
      vertex 4.18114 -39.7809 250
      vertex 12.3607 -38.0423 10
      vertex 4.18114 -39.7809 10
    endloop
  endfacet
  facet normal 0.951056 -0.309017 0
    outer loop
      vertex -39.1259 8.31647 250
      vertex -36.5418 16.2695 10
      vertex -36.5418 16.2695 250
    endloop
  endfacet
  facet normal 0.951056 -0.309017 0
    outer loop
      vertex -36.5418 16.2695 10
      vertex -39.1259 8.31647 250
      vertex -39.1259 8.31647 10
    endloop
  endfacet
  facet normal 0.951056 0.309017 0
    outer loop
      vertex -36.5418 -16.2695 250
      vertex -39.1259 -8.31647 10
      vertex -39.1259 -8.31647 250
    endloop
  endfacet
  facet normal 0.951056 0.309017 0
    outer loop
      vertex -39.1259 -8.31647 10
      vertex -36.5418 -16.2695 250
      vertex -36.5418 -16.2695 10
    endloop
  endfacet
  facet normal 0.406743 -0.913543 0
    outer loop
      vertex -20 34.641 10
      vertex -12.3607 38.0423 250
      vertex -20 34.641 250
    endloop
  endfacet
  facet normal 0.406743 -0.913543 0
    outer loop
      vertex -12.3607 38.0423 250
      vertex -20 34.641 10
      vertex -12.3607 38.0423 10
    endloop
  endfacet
  facet normal 0.207909 0.978148 -0
    outer loop
      vertex -4.18114 -39.7809 10
      vertex -12.3607 -38.0423 250
      vertex -4.18114 -39.7809 250
    endloop
  endfacet
  facet normal 0.207909 0.978148 0
    outer loop
      vertex -12.3607 -38.0423 250
      vertex -4.18114 -39.7809 10
      vertex -12.3607 -38.0423 10
    endloop
  endfacet
  facet normal -0.207909 -0.978148 0
    outer loop
      vertex 4.18114 39.7809 10
      vertex 12.3607 38.0423 250
      vertex 4.18114 39.7809 250
    endloop
  endfacet
  facet normal -0.207909 -0.978148 -0
    outer loop
      vertex 12.3607 38.0423 250
      vertex 4.18114 39.7809 10
      vertex 12.3607 38.0423 10
    endloop
  endfacet
  facet normal 0.994522 0.104529 0
    outer loop
      vertex -39.1259 -8.31647 250
      vertex -40 0 10
      vertex -40 0 250
    endloop
  endfacet
  facet normal 0.994522 0.104529 0
    outer loop
      vertex -40 0 10
      vertex -39.1259 -8.31647 250
      vertex -39.1259 -8.31647 10
    endloop
  endfacet
  facet normal 0.866026 0.499999 0
    outer loop
      vertex -32.3607 -23.5114 250
      vertex -36.5418 -16.2695 10
      vertex -36.5418 -16.2695 250
    endloop
  endfacet
  facet normal 0.866026 0.499999 0
    outer loop
      vertex -36.5418 -16.2695 10
      vertex -32.3607 -23.5114 250
      vertex -32.3607 -23.5114 10
    endloop
  endfacet
  facet normal 0.866026 -0.499999 0
    outer loop
      vertex -36.5418 16.2695 250
      vertex -32.3607 23.5114 10
      vertex -32.3607 23.5114 250
    endloop
  endfacet
  facet normal 0.866026 -0.499999 0
    outer loop
      vertex -32.3607 23.5114 10
      vertex -36.5418 16.2695 250
      vertex -36.5418 16.2695 10
    endloop
  endfacet
  facet normal -0.866026 0.499999 0
    outer loop
      vertex 32.3607 -23.5114 10
      vertex 36.5418 -16.2695 250
      vertex 36.5418 -16.2695 10
    endloop
  endfacet
  facet normal -0.866026 0.499999 0
    outer loop
      vertex 36.5418 -16.2695 250
      vertex 32.3607 -23.5114 10
      vertex 32.3607 -23.5114 250
    endloop
  endfacet
  facet normal -0.587785 -0.809017 0
    outer loop
      vertex 20 34.641 10
      vertex 26.7652 29.7258 250
      vertex 20 34.641 250
    endloop
  endfacet
  facet normal -0.587785 -0.809017 -0
    outer loop
      vertex 26.7652 29.7258 250
      vertex 20 34.641 10
      vertex 26.7652 29.7258 10
    endloop
  endfacet
  facet normal 0.587785 -0.809017 0
    outer loop
      vertex -26.7652 29.7258 10
      vertex -20 34.641 250
      vertex -26.7652 29.7258 250
    endloop
  endfacet
  facet normal 0.587785 -0.809017 0
    outer loop
      vertex -20 34.641 250
      vertex -26.7652 29.7258 10
      vertex -20 34.641 10
    endloop
  endfacet
  facet normal 0.207909 -0.978148 0
    outer loop
      vertex -12.3607 38.0423 10
      vertex -4.18114 39.7809 250
      vertex -12.3607 38.0423 250
    endloop
  endfacet
  facet normal 0.207909 -0.978148 0
    outer loop
      vertex -4.18114 39.7809 250
      vertex -12.3607 38.0423 10
      vertex -4.18114 39.7809 10
    endloop
  endfacet
  facet normal 0 1 -0
    outer loop
      vertex 4.18114 -39.7809 10
      vertex -4.18114 -39.7809 250
      vertex 4.18114 -39.7809 250
    endloop
  endfacet
  facet normal 0 1 0
    outer loop
      vertex -4.18114 -39.7809 250
      vertex 4.18114 -39.7809 10
      vertex -4.18114 -39.7809 10
    endloop
  endfacet
  facet normal 0.994522 -0.104529 0
    outer loop
      vertex -40 0 250
      vertex -39.1259 8.31647 10
      vertex -39.1259 8.31647 250
    endloop
  endfacet
  facet normal 0.994522 -0.104529 0
    outer loop
      vertex -39.1259 8.31647 10
      vertex -40 0 250
      vertex -40 0 10
    endloop
  endfacet
  facet normal -0.743146 -0.669129 0
    outer loop
      vertex -83.6413 -92.8931 0
      vertex -101.127 -73.4732 10
      vertex -101.127 -73.4732 0
    endloop
  endfacet
  facet normal -0.743146 -0.669129 0
    outer loop
      vertex -101.127 -73.4732 10
      vertex -83.6413 -92.8931 0
      vertex -83.6413 -92.8931 10
    endloop
  endfacet
  facet normal 0.951059 0.309008 0
    outer loop
      vertex 122.268 25.989 10
      vertex 114.193 50.8421 0
      vertex 114.193 50.8421 10
    endloop
  endfacet
  facet normal 0.951059 0.309008 0
    outer loop
      vertex 114.193 50.8421 0
      vertex 122.268 25.989 10
      vertex 122.268 25.989 0
    endloop
  endfacet
  facet normal 0.99452 0.104545 0
    outer loop
      vertex 125 0 10
      vertex 122.268 25.989 0
      vertex 122.268 25.989 10
    endloop
  endfacet
  facet normal 0.99452 0.104545 0
    outer loop
      vertex 122.268 25.989 0
      vertex 125 0 10
      vertex 125 0 0
    endloop
  endfacet
  facet normal 0.866027 0.499998 0
    outer loop
      vertex 114.193 50.8421 10
      vertex 101.127 73.4732 0
      vertex 101.127 73.4732 10
    endloop
  endfacet
  facet normal 0.866027 0.499998 0
    outer loop
      vertex 101.127 73.4732 0
      vertex 114.193 50.8421 10
      vertex 114.193 50.8421 0
    endloop
  endfacet
  facet normal 0.951059 -0.309008 0
    outer loop
      vertex 114.193 -50.8421 10
      vertex 122.268 -25.989 0
      vertex 122.268 -25.989 10
    endloop
  endfacet
  facet normal 0.951059 -0.309008 0
    outer loop
      vertex 122.268 -25.989 0
      vertex 114.193 -50.8421 10
      vertex 114.193 -50.8421 0
    endloop
  endfacet
  facet normal 0.587781 -0.80902 0
    outer loop
      vertex 62.5 -108.253 0
      vertex 83.6413 -92.8931 10
      vertex 62.5 -108.253 10
    endloop
  endfacet
  facet normal 0.587781 -0.80902 0
    outer loop
      vertex 83.6413 -92.8931 10
      vertex 62.5 -108.253 0
      vertex 83.6413 -92.8931 0
    endloop
  endfacet
  facet normal 0.743146 -0.669129 0
    outer loop
      vertex 83.6413 -92.8931 10
      vertex 101.127 -73.4732 0
      vertex 101.127 -73.4732 10
    endloop
  endfacet
  facet normal 0.743146 -0.669129 0
    outer loop
      vertex 101.127 -73.4732 0
      vertex 83.6413 -92.8931 10
      vertex 83.6413 -92.8931 0
    endloop
  endfacet
  facet normal 0.99452 -0.104545 0
    outer loop
      vertex 122.268 -25.989 10
      vertex 125 0 0
      vertex 125 0 10
    endloop
  endfacet
  facet normal 0.99452 -0.104545 0
    outer loop
      vertex 125 0 0
      vertex 122.268 -25.989 10
      vertex 122.268 -25.989 0
    endloop
  endfacet
  facet normal -0.40674 -0.913544 0
    outer loop
      vertex -62.5 -108.253 0
      vertex -38.6271 -118.882 10
      vertex -62.5 -108.253 10
    endloop
  endfacet
  facet normal -0.40674 -0.913544 -0
    outer loop
      vertex -38.6271 -118.882 10
      vertex -62.5 -108.253 0
      vertex -38.6271 -118.882 0
    endloop
  endfacet
  facet normal 0.40674 0.913544 -0
    outer loop
      vertex 62.5 108.253 0
      vertex 38.6271 118.882 10
      vertex 62.5 108.253 10
    endloop
  endfacet
  facet normal 0.40674 0.913544 0
    outer loop
      vertex 38.6271 118.882 10
      vertex 62.5 108.253 0
      vertex 38.6271 118.882 0
    endloop
  endfacet
  facet normal 0.743146 0.669129 0
    outer loop
      vertex 101.127 73.4732 10
      vertex 83.6413 92.8931 0
      vertex 83.6413 92.8931 10
    endloop
  endfacet
  facet normal 0.743146 0.669129 0
    outer loop
      vertex 83.6413 92.8931 0
      vertex 101.127 73.4732 10
      vertex 101.127 73.4732 0
    endloop
  endfacet
  facet normal -0.587781 -0.80902 0
    outer loop
      vertex -83.6413 -92.8931 0
      vertex -62.5 -108.253 10
      vertex -83.6413 -92.8931 10
    endloop
  endfacet
  facet normal -0.587781 -0.80902 -0
    outer loop
      vertex -62.5 -108.253 10
      vertex -83.6413 -92.8931 0
      vertex -62.5 -108.253 0
    endloop
  endfacet
  facet normal -0.743146 0.669129 0
    outer loop
      vertex -101.127 73.4732 0
      vertex -83.6413 92.8931 10
      vertex -83.6413 92.8931 0
    endloop
  endfacet
  facet normal -0.743146 0.669129 0
    outer loop
      vertex -83.6413 92.8931 10
      vertex -101.127 73.4732 0
      vertex -101.127 73.4732 10
    endloop
  endfacet
  facet normal 0 1 -0
    outer loop
      vertex 13.0661 124.315 0
      vertex -13.0661 124.315 10
      vertex 13.0661 124.315 10
    endloop
  endfacet
  facet normal 0 1 0
    outer loop
      vertex -13.0661 124.315 10
      vertex 13.0661 124.315 0
      vertex -13.0661 124.315 0
    endloop
  endfacet
  facet normal 0.40674 -0.913544 0
    outer loop
      vertex 38.6271 -118.882 0
      vertex 62.5 -108.253 10
      vertex 38.6271 -118.882 10
    endloop
  endfacet
  facet normal 0.40674 -0.913544 0
    outer loop
      vertex 62.5 -108.253 10
      vertex 38.6271 -118.882 0
      vertex 62.5 -108.253 0
    endloop
  endfacet
  facet normal 0.207906 -0.978149 0
    outer loop
      vertex 13.0661 -124.315 0
      vertex 38.6271 -118.882 10
      vertex 13.0661 -124.315 10
    endloop
  endfacet
  facet normal 0.207906 -0.978149 0
    outer loop
      vertex 38.6271 -118.882 10
      vertex 13.0661 -124.315 0
      vertex 38.6271 -118.882 0
    endloop
  endfacet
  facet normal -0.951059 0.309008 0
    outer loop
      vertex -122.268 25.989 0
      vertex -114.193 50.8421 10
      vertex -114.193 50.8421 0
    endloop
  endfacet
  facet normal -0.951059 0.309008 0
    outer loop
      vertex -114.193 50.8421 10
      vertex -122.268 25.989 0
      vertex -122.268 25.989 10
    endloop
  endfacet
  facet normal -0.951059 -0.309008 0
    outer loop
      vertex -114.193 -50.8421 0
      vertex -122.268 -25.989 10
      vertex -122.268 -25.989 0
    endloop
  endfacet
  facet normal -0.951059 -0.309008 0
    outer loop
      vertex -122.268 -25.989 10
      vertex -114.193 -50.8421 0
      vertex -114.193 -50.8421 10
    endloop
  endfacet
  facet normal -0.40674 0.913544 0
    outer loop
      vertex -38.6271 118.882 0
      vertex -62.5 108.253 10
      vertex -38.6271 118.882 10
    endloop
  endfacet
  facet normal -0.40674 0.913544 0
    outer loop
      vertex -62.5 108.253 10
      vertex -38.6271 118.882 0
      vertex -62.5 108.253 0
    endloop
  endfacet
  facet normal 0 0 1
    outer loop
      vertex 50 0 10
      vertex 125 0 10
      vertex 122.268 25.989 10
    endloop
  endfacet
  facet normal 0 0 1
    outer loop
      vertex 48.9074 10.3956 10
      vertex 122.268 25.989 10
      vertex 114.193 50.8421 10
    endloop
  endfacet
  facet normal 0 0 1
    outer loop
      vertex 125 0 10
      vertex 50 0 10
      vertex 122.268 -25.989 10
    endloop
  endfacet
  facet normal 0 0 1
    outer loop
      vertex 45.6773 20.3368 10
      vertex 114.193 50.8421 10
      vertex 101.127 73.4732 10
    endloop
  endfacet
  facet normal -0 0 1
    outer loop
      vertex 48.9074 -10.3956 10
      vertex 122.268 -25.989 10
      vertex 50 0 10
    endloop
  endfacet
  facet normal 0 0 1
    outer loop
      vertex 40.4509 29.3893 10
      vertex 101.127 73.4732 10
      vertex 83.6413 92.8931 10
    endloop
  endfacet
  facet normal 0 0 1
    outer loop
      vertex 122.268 -25.989 10
      vertex 48.9074 -10.3956 10
      vertex 114.193 -50.8421 10
    endloop
  endfacet
  facet normal 0 0 1
    outer loop
      vertex 33.4565 37.1572 10
      vertex 83.6413 92.8931 10
      vertex 62.5 108.253 10
    endloop
  endfacet
  facet normal -0 0 1
    outer loop
      vertex 45.6773 -20.3368 10
      vertex 114.193 -50.8421 10
      vertex 48.9074 -10.3956 10
    endloop
  endfacet
  facet normal 0 0 1
    outer loop
      vertex 114.193 -50.8421 10
      vertex 45.6773 -20.3368 10
      vertex 101.127 -73.4732 10
    endloop
  endfacet
  facet normal 0 0 1
    outer loop
      vertex 122.268 25.989 10
      vertex 48.9074 10.3956 10
      vertex 50 0 10
    endloop
  endfacet
  facet normal 0 0 1
    outer loop
      vertex 114.193 50.8421 10
      vertex 45.6773 20.3368 10
      vertex 48.9074 10.3956 10
    endloop
  endfacet
  facet normal 0 0 1
    outer loop
      vertex 101.127 73.4732 10
      vertex 40.4509 29.3893 10
      vertex 45.6773 20.3368 10
    endloop
  endfacet
  facet normal 0 0 1
    outer loop
      vertex 25 43.3013 10
      vertex 62.5 108.253 10
      vertex 38.6271 118.882 10
    endloop
  endfacet
  facet normal 0 0 1
    outer loop
      vertex 83.6413 92.8931 10
      vertex 33.4565 37.1572 10
      vertex 40.4509 29.3893 10
    endloop
  endfacet
  facet normal 0 0 1
    outer loop
      vertex 62.5 108.253 10
      vertex 25 43.3013 10
      vertex 33.4565 37.1572 10
    endloop
  endfacet
  facet normal 0 0 1
    outer loop
      vertex 38.6271 118.882 10
      vertex 15.4508 47.5528 10
      vertex 25 43.3013 10
    endloop
  endfacet
  facet normal 0 0 1
    outer loop
      vertex 13.0661 124.315 10
      vertex 15.4508 47.5528 10
      vertex 38.6271 118.882 10
    endloop
  endfacet
  facet normal 0 0 1
    outer loop
      vertex 13.0661 124.315 10
      vertex 5.22642 49.7261 10
      vertex 15.4508 47.5528 10
    endloop
  endfacet
  facet normal 0 0 1
    outer loop
      vertex 13.0661 124.315 10
      vertex -5.22642 49.7261 10
      vertex 5.22642 49.7261 10
    endloop
  endfacet
  facet normal -0 0 1
    outer loop
      vertex -13.0661 124.315 10
      vertex -5.22642 49.7261 10
      vertex 13.0661 124.315 10
    endloop
  endfacet
  facet normal 0 0 1
    outer loop
      vertex -13.0661 124.315 10
      vertex -15.4508 47.5528 10
      vertex -5.22642 49.7261 10
    endloop
  endfacet
  facet normal -0 0 1
    outer loop
      vertex -38.6271 118.882 10
      vertex -15.4508 47.5528 10
      vertex -13.0661 124.315 10
    endloop
  endfacet
  facet normal 0 0 1
    outer loop
      vertex -15.4508 47.5528 10
      vertex -38.6271 118.882 10
      vertex -25 43.3013 10
    endloop
  endfacet
  facet normal -0 0 1
    outer loop
      vertex -62.5 108.253 10
      vertex -25 43.3013 10
      vertex -38.6271 118.882 10
    endloop
  endfacet
  facet normal 0 0 1
    outer loop
      vertex -25 43.3013 10
      vertex -62.5 108.253 10
      vertex -33.4565 37.1572 10
    endloop
  endfacet
  facet normal -0 0 1
    outer loop
      vertex -83.6413 92.8931 10
      vertex -33.4565 37.1572 10
      vertex -62.5 108.253 10
    endloop
  endfacet
  facet normal 0 0 1
    outer loop
      vertex -33.4565 37.1572 10
      vertex -83.6413 92.8931 10
      vertex -40.4509 29.3893 10
    endloop
  endfacet
  facet normal -0 0 1
    outer loop
      vertex -101.127 73.4732 10
      vertex -40.4509 29.3893 10
      vertex -83.6413 92.8931 10
    endloop
  endfacet
  facet normal 0 0 1
    outer loop
      vertex -40.4509 29.3893 10
      vertex -101.127 73.4732 10
      vertex -45.6773 20.3368 10
    endloop
  endfacet
  facet normal -0 0 1
    outer loop
      vertex 40.4509 -29.3893 10
      vertex 101.127 -73.4732 10
      vertex 45.6773 -20.3368 10
    endloop
  endfacet
  facet normal 0 0 1
    outer loop
      vertex 101.127 -73.4732 10
      vertex 40.4509 -29.3893 10
      vertex 83.6413 -92.8931 10
    endloop
  endfacet
  facet normal -0 0 1
    outer loop
      vertex 33.4565 -37.1572 10
      vertex 83.6413 -92.8931 10
      vertex 40.4509 -29.3893 10
    endloop
  endfacet
  facet normal 0 0 1
    outer loop
      vertex 83.6413 -92.8931 10
      vertex 33.4565 -37.1572 10
      vertex 62.5 -108.253 10
    endloop
  endfacet
  facet normal -0 0 1
    outer loop
      vertex 25 -43.3013 10
      vertex 62.5 -108.253 10
      vertex 33.4565 -37.1572 10
    endloop
  endfacet
  facet normal 0 0 1
    outer loop
      vertex 62.5 -108.253 10
      vertex 25 -43.3013 10
      vertex 38.6271 -118.882 10
    endloop
  endfacet
  facet normal -0 0 1
    outer loop
      vertex 15.4508 -47.5528 10
      vertex 38.6271 -118.882 10
      vertex 25 -43.3013 10
    endloop
  endfacet
  facet normal 0 0 1
    outer loop
      vertex 15.4508 -47.5528 10
      vertex 13.0661 -124.315 10
      vertex 38.6271 -118.882 10
    endloop
  endfacet
  facet normal -0 0 1
    outer loop
      vertex 5.22642 -49.7261 10
      vertex 13.0661 -124.315 10
      vertex 15.4508 -47.5528 10
    endloop
  endfacet
  facet normal -0 0 1
    outer loop
      vertex -5.22642 -49.7261 10
      vertex 13.0661 -124.315 10
      vertex 5.22642 -49.7261 10
    endloop
  endfacet
  facet normal 0 0 1
    outer loop
      vertex -5.22642 -49.7261 10
      vertex -13.0661 -124.315 10
      vertex 13.0661 -124.315 10
    endloop
  endfacet
  facet normal 0 0 1
    outer loop
      vertex -15.4508 -47.5528 10
      vertex -13.0661 -124.315 10
      vertex -5.22642 -49.7261 10
    endloop
  endfacet
  facet normal 0 0 1
    outer loop
      vertex -38.6271 -118.882 10
      vertex -15.4508 -47.5528 10
      vertex -25 -43.3013 10
    endloop
  endfacet
  facet normal 0 0 1
    outer loop
      vertex -62.5 -108.253 10
      vertex -25 -43.3013 10
      vertex -33.4565 -37.1572 10
    endloop
  endfacet
  facet normal 0 0 1
    outer loop
      vertex -15.4508 -47.5528 10
      vertex -38.6271 -118.882 10
      vertex -13.0661 -124.315 10
    endloop
  endfacet
  facet normal 0 0 1
    outer loop
      vertex -83.6413 -92.8931 10
      vertex -33.4565 -37.1572 10
      vertex -40.4509 -29.3893 10
    endloop
  endfacet
  facet normal 0 0 1
    outer loop
      vertex -101.127 -73.4732 10
      vertex -40.4509 -29.3893 10
      vertex -45.6773 -20.3368 10
    endloop
  endfacet
  facet normal 0 0 1
    outer loop
      vertex -114.193 -50.8421 10
      vertex -45.6773 -20.3368 10
      vertex -48.9074 -10.3956 10
    endloop
  endfacet
  facet normal 0 0 1
    outer loop
      vertex -122.268 -25.989 10
      vertex -48.9074 -10.3956 10
      vertex -50 0 10
    endloop
  endfacet
  facet normal -0 0 1
    outer loop
      vertex -114.193 50.8421 10
      vertex -45.6773 20.3368 10
      vertex -101.127 73.4732 10
    endloop
  endfacet
  facet normal 0 0 1
    outer loop
      vertex -25 -43.3013 10
      vertex -62.5 -108.253 10
      vertex -38.6271 -118.882 10
    endloop
  endfacet
  facet normal 0 0 1
    outer loop
      vertex -45.6773 20.3368 10
      vertex -114.193 50.8421 10
      vertex -48.9074 10.3956 10
    endloop
  endfacet
  facet normal 0 0 1
    outer loop
      vertex -33.4565 -37.1572 10
      vertex -83.6413 -92.8931 10
      vertex -62.5 -108.253 10
    endloop
  endfacet
  facet normal -0 0 1
    outer loop
      vertex -122.268 25.989 10
      vertex -48.9074 10.3956 10
      vertex -114.193 50.8421 10
    endloop
  endfacet
  facet normal 0 0 1
    outer loop
      vertex -40.4509 -29.3893 10
      vertex -101.127 -73.4732 10
      vertex -83.6413 -92.8931 10
    endloop
  endfacet
  facet normal 0 0 1
    outer loop
      vertex -48.9074 10.3956 10
      vertex -122.268 25.989 10
      vertex -50 0 10
    endloop
  endfacet
  facet normal 0 0 1
    outer loop
      vertex -45.6773 -20.3368 10
      vertex -114.193 -50.8421 10
      vertex -101.127 -73.4732 10
    endloop
  endfacet
  facet normal 0 0 1
    outer loop
      vertex -125 0 10
      vertex -50 0 10
      vertex -122.268 25.989 10
    endloop
  endfacet
  facet normal 0 0 1
    outer loop
      vertex -48.9074 -10.3956 10
      vertex -122.268 -25.989 10
      vertex -114.193 -50.8421 10
    endloop
  endfacet
  facet normal 0 0 1
    outer loop
      vertex -50 0 10
      vertex -125 0 10
      vertex -122.268 -25.989 10
    endloop
  endfacet
  facet normal 0 0 1
    outer loop
      vertex 39.1259 8.31647 10
      vertex 39.1259 -8.31647 10
      vertex 40 0 10
    endloop
  endfacet
  facet normal 0 0 1
    outer loop
      vertex 36.5418 16.2695 10
      vertex 39.1259 -8.31647 10
      vertex 39.1259 8.31647 10
    endloop
  endfacet
  facet normal 0 0 1
    outer loop
      vertex 36.5418 16.2695 10
      vertex 36.5418 -16.2695 10
      vertex 39.1259 -8.31647 10
    endloop
  endfacet
  facet normal 0 0 1
    outer loop
      vertex 32.3607 23.5114 10
      vertex 36.5418 -16.2695 10
      vertex 36.5418 16.2695 10
    endloop
  endfacet
  facet normal 0 0 1
    outer loop
      vertex 32.3607 23.5114 10
      vertex 32.3607 -23.5114 10
      vertex 36.5418 -16.2695 10
    endloop
  endfacet
  facet normal 0 0 1
    outer loop
      vertex 26.7652 29.7258 10
      vertex 32.3607 -23.5114 10
      vertex 32.3607 23.5114 10
    endloop
  endfacet
  facet normal 0 0 1
    outer loop
      vertex 26.7652 29.7258 10
      vertex 26.7652 -29.7258 10
      vertex 32.3607 -23.5114 10
    endloop
  endfacet
  facet normal 0 0 1
    outer loop
      vertex 20 34.641 10
      vertex 26.7652 -29.7258 10
      vertex 26.7652 29.7258 10
    endloop
  endfacet
  facet normal 0 0 1
    outer loop
      vertex 20 34.641 10
      vertex 20 -34.641 10
      vertex 26.7652 -29.7258 10
    endloop
  endfacet
  facet normal 0 0 1
    outer loop
      vertex 12.3607 38.0423 10
      vertex 20 -34.641 10
      vertex 20 34.641 10
    endloop
  endfacet
  facet normal 0 0 1
    outer loop
      vertex 12.3607 38.0423 10
      vertex 12.3607 -38.0423 10
      vertex 20 -34.641 10
    endloop
  endfacet
  facet normal 0 0 1
    outer loop
      vertex 4.18114 39.7809 10
      vertex 12.3607 -38.0423 10
      vertex 12.3607 38.0423 10
    endloop
  endfacet
  facet normal 0 0 1
    outer loop
      vertex 4.18114 39.7809 10
      vertex 4.18114 -39.7809 10
      vertex 12.3607 -38.0423 10
    endloop
  endfacet
  facet normal -0 0 1
    outer loop
      vertex -4.18114 39.7809 10
      vertex 4.18114 -39.7809 10
      vertex 4.18114 39.7809 10
    endloop
  endfacet
  facet normal 0 0 1
    outer loop
      vertex -4.18114 39.7809 10
      vertex -4.18114 -39.7809 10
      vertex 4.18114 -39.7809 10
    endloop
  endfacet
  facet normal -0 0 1
    outer loop
      vertex -12.3607 38.0423 10
      vertex -4.18114 -39.7809 10
      vertex -4.18114 39.7809 10
    endloop
  endfacet
  facet normal 0 0 1
    outer loop
      vertex -12.3607 38.0423 10
      vertex -12.3607 -38.0423 10
      vertex -4.18114 -39.7809 10
    endloop
  endfacet
  facet normal -0 0 1
    outer loop
      vertex -20 34.641 10
      vertex -12.3607 -38.0423 10
      vertex -12.3607 38.0423 10
    endloop
  endfacet
  facet normal 0 0 1
    outer loop
      vertex -20 34.641 10
      vertex -20 -34.641 10
      vertex -12.3607 -38.0423 10
    endloop
  endfacet
  facet normal -0 0 1
    outer loop
      vertex -26.7652 29.7258 10
      vertex -20 -34.641 10
      vertex -20 34.641 10
    endloop
  endfacet
  facet normal 0 0 1
    outer loop
      vertex -26.7652 29.7258 10
      vertex -26.7652 -29.7258 10
      vertex -20 -34.641 10
    endloop
  endfacet
  facet normal -0 0 1
    outer loop
      vertex -32.3607 23.5114 10
      vertex -26.7652 -29.7258 10
      vertex -26.7652 29.7258 10
    endloop
  endfacet
  facet normal 0 0 1
    outer loop
      vertex -32.3607 23.5114 10
      vertex -32.3607 -23.5114 10
      vertex -26.7652 -29.7258 10
    endloop
  endfacet
  facet normal -0 0 1
    outer loop
      vertex -36.5418 16.2695 10
      vertex -32.3607 -23.5114 10
      vertex -32.3607 23.5114 10
    endloop
  endfacet
  facet normal 0 0 1
    outer loop
      vertex -36.5418 16.2695 10
      vertex -36.5418 -16.2695 10
      vertex -32.3607 -23.5114 10
    endloop
  endfacet
  facet normal -0 0 1
    outer loop
      vertex -39.1259 8.31647 10
      vertex -36.5418 -16.2695 10
      vertex -36.5418 16.2695 10
    endloop
  endfacet
  facet normal 0 0 1
    outer loop
      vertex -39.1259 8.31647 10
      vertex -39.1259 -8.31647 10
      vertex -36.5418 -16.2695 10
    endloop
  endfacet
  facet normal 0 -0 1
    outer loop
      vertex -39.1259 -8.31647 10
      vertex -39.1259 8.31647 10
      vertex -40 0 10
    endloop
  endfacet
  facet normal -0.207906 -0.978149 0
    outer loop
      vertex -38.6271 -118.882 0
      vertex -13.0661 -124.315 10
      vertex -38.6271 -118.882 10
    endloop
  endfacet
  facet normal -0.207906 -0.978149 -0
    outer loop
      vertex -13.0661 -124.315 10
      vertex -38.6271 -118.882 0
      vertex -13.0661 -124.315 0
    endloop
  endfacet
  facet normal 0.207906 0.978149 -0
    outer loop
      vertex 38.6271 118.882 0
      vertex 13.0661 124.315 10
      vertex 38.6271 118.882 10
    endloop
  endfacet
  facet normal 0.207906 0.978149 0
    outer loop
      vertex 13.0661 124.315 10
      vertex 38.6271 118.882 0
      vertex 13.0661 124.315 0
    endloop
  endfacet
  facet normal -0.99452 -0.104545 0
    outer loop
      vertex -122.268 -25.989 0
      vertex -125 0 10
      vertex -125 0 0
    endloop
  endfacet
  facet normal -0.99452 -0.104545 0
    outer loop
      vertex -125 0 10
      vertex -122.268 -25.989 0
      vertex -122.268 -25.989 10
    endloop
  endfacet
  facet normal -0.866027 -0.499998 0
    outer loop
      vertex -101.127 -73.4732 0
      vertex -114.193 -50.8421 10
      vertex -114.193 -50.8421 0
    endloop
  endfacet
  facet normal -0.866027 -0.499998 0
    outer loop
      vertex -114.193 -50.8421 10
      vertex -101.127 -73.4732 0
      vertex -101.127 -73.4732 10
    endloop
  endfacet
  facet normal -0.866027 0.499998 0
    outer loop
      vertex -114.193 50.8421 0
      vertex -101.127 73.4732 10
      vertex -101.127 73.4732 0
    endloop
  endfacet
  facet normal -0.866027 0.499998 0
    outer loop
      vertex -101.127 73.4732 10
      vertex -114.193 50.8421 0
      vertex -114.193 50.8421 10
    endloop
  endfacet
  facet normal 0.866027 -0.499998 0
    outer loop
      vertex 101.127 -73.4732 10
      vertex 114.193 -50.8421 0
      vertex 114.193 -50.8421 10
    endloop
  endfacet
  facet normal 0.866027 -0.499998 0
    outer loop
      vertex 114.193 -50.8421 0
      vertex 101.127 -73.4732 10
      vertex 101.127 -73.4732 0
    endloop
  endfacet
  facet normal 0.587781 0.80902 -0
    outer loop
      vertex 83.6413 92.8931 0
      vertex 62.5 108.253 10
      vertex 83.6413 92.8931 10
    endloop
  endfacet
  facet normal 0.587781 0.80902 0
    outer loop
      vertex 62.5 108.253 10
      vertex 83.6413 92.8931 0
      vertex 62.5 108.253 0
    endloop
  endfacet
  facet normal -0.587781 0.80902 0
    outer loop
      vertex -62.5 108.253 0
      vertex -83.6413 92.8931 10
      vertex -62.5 108.253 10
    endloop
  endfacet
  facet normal -0.587781 0.80902 0
    outer loop
      vertex -83.6413 92.8931 10
      vertex -62.5 108.253 0
      vertex -83.6413 92.8931 0
    endloop
  endfacet
  facet normal -0.207906 0.978149 0
    outer loop
      vertex -13.0661 124.315 0
      vertex -38.6271 118.882 10
      vertex -13.0661 124.315 10
    endloop
  endfacet
  facet normal -0.207906 0.978149 0
    outer loop
      vertex -38.6271 118.882 10
      vertex -13.0661 124.315 0
      vertex -38.6271 118.882 0
    endloop
  endfacet
  facet normal 0 -1 0
    outer loop
      vertex -13.0661 -124.315 0
      vertex 13.0661 -124.315 10
      vertex -13.0661 -124.315 10
    endloop
  endfacet
  facet normal 0 -1 -0
    outer loop
      vertex 13.0661 -124.315 10
      vertex -13.0661 -124.315 0
      vertex 13.0661 -124.315 0
    endloop
  endfacet
  facet normal -0.99452 0.104545 0
    outer loop
      vertex -125 0 0
      vertex -122.268 25.989 10
      vertex -122.268 25.989 0
    endloop
  endfacet
  facet normal -0.99452 0.104545 0
    outer loop
      vertex -122.268 25.989 10
      vertex -125 0 0
      vertex -125 0 10
    endloop
  endfacet
endsolid OpenSCAD_Model
