solid OpenSCAD_Model
  facet normal 0.98769 -0.156426 0
    outer loop
      vertex 58.6889 -12.4747 22.5
      vertex 59.6713 -6.27171 -22.5
      vertex 59.6713 -6.27171 22.5
    endloop
  endfacet
  facet normal 0.98769 -0.156426 0
    outer loop
      vertex 59.6713 -6.27171 -22.5
      vertex 58.6889 -12.4747 22.5
      vertex 58.6889 -12.4747 -22.5
    endloop
  endfacet
  facet normal 0.98769 0.156426 0
    outer loop
      vertex 59.6713 6.27171 22.5
      vertex 58.6889 12.4747 -22.5
      vertex 58.6889 12.4747 22.5
    endloop
  endfacet
  facet normal 0.98769 0.156426 0
    outer loop
      vertex 58.6889 12.4747 -22.5
      vertex 59.6713 6.27171 22.5
      vertex 59.6713 6.27171 -22.5
    endloop
  endfacet
  facet normal 0.998629 0.0523381 0
    outer loop
      vertex 60 0 22.5
      vertex 59.6713 6.27171 -22.5
      vertex 59.6713 6.27171 22.5
    endloop
  endfacet
  facet normal 0.998629 0.0523381 0
    outer loop
      vertex 59.6713 6.27171 -22.5
      vertex 60 0 22.5
      vertex 60 0 -22.5
    endloop
  endfacet
  facet normal 0.965924 0.258825 0
    outer loop
      vertex 58.6889 12.4747 22.5
      vertex 57.0634 18.541 -22.5
      vertex 57.0634 18.541 22.5
    endloop
  endfacet
  facet normal 0.965924 0.258825 0
    outer loop
      vertex 57.0634 18.541 -22.5
      vertex 58.6889 12.4747 22.5
      vertex 58.6889 12.4747 -22.5
    endloop
  endfacet
  facet normal 0.83867 0.54464 0
    outer loop
      vertex 51.9615 30 22.5
      vertex 48.541 35.2671 -22.5
      vertex 48.541 35.2671 22.5
    endloop
  endfacet
  facet normal 0.83867 0.54464 0
    outer loop
      vertex 48.541 35.2671 -22.5
      vertex 51.9615 30 22.5
      vertex 51.9615 30 -22.5
    endloop
  endfacet
  facet normal -0.156426 0.98769 0
    outer loop
      vertex -6.27171 59.6713 -22.5
      vertex -12.4747 58.6889 22.5
      vertex -6.27171 59.6713 22.5
    endloop
  endfacet
  facet normal -0.156426 0.98769 0
    outer loop
      vertex -12.4747 58.6889 22.5
      vertex -6.27171 59.6713 -22.5
      vertex -12.4747 58.6889 -22.5
    endloop
  endfacet
  facet normal -0.965924 -0.258825 0
    outer loop
      vertex -57.0634 -18.541 -22.5
      vertex -58.6889 -12.4747 22.5
      vertex -58.6889 -12.4747 -22.5
    endloop
  endfacet
  facet normal -0.965924 -0.258825 0
    outer loop
      vertex -58.6889 -12.4747 22.5
      vertex -57.0634 -18.541 -22.5
      vertex -57.0634 -18.541 22.5
    endloop
  endfacet
  facet normal -0.45399 -0.891007 0
    outer loop
      vertex -30 -51.9615 -22.5
      vertex -24.4042 -54.8127 22.5
      vertex -30 -51.9615 22.5
    endloop
  endfacet
  facet normal -0.45399 -0.891007 -0
    outer loop
      vertex -24.4042 -54.8127 22.5
      vertex -30 -51.9615 -22.5
      vertex -24.4042 -54.8127 -22.5
    endloop
  endfacet
  facet normal 0.998629 -0.0523381 0
    outer loop
      vertex 59.6713 -6.27171 22.5
      vertex 60 0 -22.5
      vertex 60 0 22.5
    endloop
  endfacet
  facet normal 0.998629 -0.0523381 0
    outer loop
      vertex 60 0 -22.5
      vertex 59.6713 -6.27171 22.5
      vertex 59.6713 -6.27171 -22.5
    endloop
  endfacet
  facet normal 0.258825 -0.965924 0
    outer loop
      vertex 12.4747 -58.6889 -22.5
      vertex 18.541 -57.0634 22.5
      vertex 12.4747 -58.6889 22.5
    endloop
  endfacet
  facet normal 0.258825 -0.965924 0
    outer loop
      vertex 18.541 -57.0634 22.5
      vertex 12.4747 -58.6889 -22.5
      vertex 18.541 -57.0634 -22.5
    endloop
  endfacet
  facet normal -0.629319 -0.777147 0
    outer loop
      vertex -40.1478 -44.5887 -22.5
      vertex -35.2671 -48.541 22.5
      vertex -40.1478 -44.5887 22.5
    endloop
  endfacet
  facet normal -0.629319 -0.777147 -0
    outer loop
      vertex -35.2671 -48.541 22.5
      vertex -40.1478 -44.5887 -22.5
      vertex -35.2671 -48.541 -22.5
    endloop
  endfacet
  facet normal -0.156426 -0.98769 0
    outer loop
      vertex -12.4747 -58.6889 -22.5
      vertex -6.27171 -59.6713 22.5
      vertex -12.4747 -58.6889 22.5
    endloop
  endfacet
  facet normal -0.156426 -0.98769 -0
    outer loop
      vertex -6.27171 -59.6713 22.5
      vertex -12.4747 -58.6889 -22.5
      vertex -6.27171 -59.6713 -22.5
    endloop
  endfacet
  facet normal -0.707107 -0.707107 0
    outer loop
      vertex -40.1478 -44.5887 -22.5
      vertex -44.5887 -40.1478 22.5
      vertex -44.5887 -40.1478 -22.5
    endloop
  endfacet
  facet normal -0.707107 -0.707107 0
    outer loop
      vertex -44.5887 -40.1478 22.5
      vertex -40.1478 -44.5887 -22.5
      vertex -40.1478 -44.5887 22.5
    endloop
  endfacet
  facet normal -0.965924 0.258825 0
    outer loop
      vertex -58.6889 12.4747 -22.5
      vertex -57.0634 18.541 22.5
      vertex -57.0634 18.541 -22.5
    endloop
  endfacet
  facet normal -0.965924 0.258825 0
    outer loop
      vertex -57.0634 18.541 22.5
      vertex -58.6889 12.4747 -22.5
      vertex -58.6889 12.4747 22.5
    endloop
  endfacet
  facet normal -0.54464 -0.83867 0
    outer loop
      vertex -35.2671 -48.541 -22.5
      vertex -30 -51.9615 22.5
      vertex -35.2671 -48.541 22.5
    endloop
  endfacet
  facet normal -0.54464 -0.83867 -0
    outer loop
      vertex -30 -51.9615 22.5
      vertex -35.2671 -48.541 -22.5
      vertex -30 -51.9615 -22.5
    endloop
  endfacet
  facet normal 0.629319 0.777147 -0
    outer loop
      vertex 40.1478 44.5887 -22.5
      vertex 35.2671 48.541 22.5
      vertex 40.1478 44.5887 22.5
    endloop
  endfacet
  facet normal 0.629319 0.777147 0
    outer loop
      vertex 35.2671 48.541 22.5
      vertex 40.1478 44.5887 -22.5
      vertex 35.2671 48.541 -22.5
    endloop
  endfacet
  facet normal 0.156426 0.98769 -0
    outer loop
      vertex 12.4747 58.6889 -22.5
      vertex 6.27171 59.6713 22.5
      vertex 12.4747 58.6889 22.5
    endloop
  endfacet
  facet normal 0.156426 0.98769 0
    outer loop
      vertex 6.27171 59.6713 22.5
      vertex 12.4747 58.6889 -22.5
      vertex 6.27171 59.6713 -22.5
    endloop
  endfacet
  facet normal 0.54464 0.83867 -0
    outer loop
      vertex 35.2671 48.541 -22.5
      vertex 30 51.9615 22.5
      vertex 35.2671 48.541 22.5
    endloop
  endfacet
  facet normal 0.54464 0.83867 0
    outer loop
      vertex 30 51.9615 22.5
      vertex 35.2671 48.541 -22.5
      vertex 30 51.9615 -22.5
    endloop
  endfacet
  facet normal 0.358372 -0.933579 0
    outer loop
      vertex 18.541 -57.0634 -22.5
      vertex 24.4042 -54.8127 22.5
      vertex 18.541 -57.0634 22.5
    endloop
  endfacet
  facet normal 0.358372 -0.933579 0
    outer loop
      vertex 24.4042 -54.8127 22.5
      vertex 18.541 -57.0634 -22.5
      vertex 24.4042 -54.8127 -22.5
    endloop
  endfacet
  facet normal -0.258825 0.965924 0
    outer loop
      vertex -12.4747 58.6889 -22.5
      vertex -18.541 57.0634 22.5
      vertex -12.4747 58.6889 22.5
    endloop
  endfacet
  facet normal -0.258825 0.965924 0
    outer loop
      vertex -18.541 57.0634 22.5
      vertex -12.4747 58.6889 -22.5
      vertex -18.541 57.0634 -22.5
    endloop
  endfacet
  facet normal 0.0523381 0.998629 -0
    outer loop
      vertex 6.27171 59.6713 -22.5
      vertex 0 60 22.5
      vertex 6.27171 59.6713 22.5
    endloop
  endfacet
  facet normal 0.0523381 0.998629 0
    outer loop
      vertex 0 60 22.5
      vertex 6.27171 59.6713 -22.5
      vertex 0 60 -22.5
    endloop
  endfacet
  facet normal 0.358372 0.933579 -0
    outer loop
      vertex 24.4042 54.8127 -22.5
      vertex 18.541 57.0634 22.5
      vertex 24.4042 54.8127 22.5
    endloop
  endfacet
  facet normal 0.358372 0.933579 0
    outer loop
      vertex 18.541 57.0634 22.5
      vertex 24.4042 54.8127 -22.5
      vertex 18.541 57.0634 -22.5
    endloop
  endfacet
  facet normal 0.965924 -0.258825 0
    outer loop
      vertex 57.0634 -18.541 22.5
      vertex 58.6889 -12.4747 -22.5
      vertex 58.6889 -12.4747 22.5
    endloop
  endfacet
  facet normal 0.965924 -0.258825 0
    outer loop
      vertex 58.6889 -12.4747 -22.5
      vertex 57.0634 -18.541 22.5
      vertex 57.0634 -18.541 -22.5
    endloop
  endfacet
  facet normal 0.45399 0.891007 -0
    outer loop
      vertex 30 51.9615 -22.5
      vertex 24.4042 54.8127 22.5
      vertex 30 51.9615 22.5
    endloop
  endfacet
  facet normal 0.45399 0.891007 0
    outer loop
      vertex 24.4042 54.8127 22.5
      vertex 30 51.9615 -22.5
      vertex 24.4042 54.8127 -22.5
    endloop
  endfacet
  facet normal -0.45399 0.891007 0
    outer loop
      vertex -24.4042 54.8127 -22.5
      vertex -30 51.9615 22.5
      vertex -24.4042 54.8127 22.5
    endloop
  endfacet
  facet normal -0.45399 0.891007 0
    outer loop
      vertex -30 51.9615 22.5
      vertex -24.4042 54.8127 -22.5
      vertex -30 51.9615 -22.5
    endloop
  endfacet
  facet normal 0.156426 -0.98769 0
    outer loop
      vertex 6.27171 -59.6713 -22.5
      vertex 12.4747 -58.6889 22.5
      vertex 6.27171 -59.6713 22.5
    endloop
  endfacet
  facet normal 0.156426 -0.98769 0
    outer loop
      vertex 12.4747 -58.6889 22.5
      vertex 6.27171 -59.6713 -22.5
      vertex 12.4747 -58.6889 -22.5
    endloop
  endfacet
  facet normal -0.258825 -0.965924 0
    outer loop
      vertex -18.541 -57.0634 -22.5
      vertex -12.4747 -58.6889 22.5
      vertex -18.541 -57.0634 22.5
    endloop
  endfacet
  facet normal -0.258825 -0.965924 -0
    outer loop
      vertex -12.4747 -58.6889 22.5
      vertex -18.541 -57.0634 -22.5
      vertex -12.4747 -58.6889 -22.5
    endloop
  endfacet
  facet normal 0.777147 -0.629319 0
    outer loop
      vertex 44.5887 -40.1478 22.5
      vertex 48.541 -35.2671 -22.5
      vertex 48.541 -35.2671 22.5
    endloop
  endfacet
  facet normal 0.777147 -0.629319 0
    outer loop
      vertex 48.541 -35.2671 -22.5
      vertex 44.5887 -40.1478 22.5
      vertex 44.5887 -40.1478 -22.5
    endloop
  endfacet
  facet normal 0.891007 -0.45399 0
    outer loop
      vertex 51.9615 -30 22.5
      vertex 54.8127 -24.4042 -22.5
      vertex 54.8127 -24.4042 22.5
    endloop
  endfacet
  facet normal 0.891007 -0.45399 0
    outer loop
      vertex 54.8127 -24.4042 -22.5
      vertex 51.9615 -30 22.5
      vertex 51.9615 -30 -22.5
    endloop
  endfacet
  facet normal -0.707107 0.707107 0
    outer loop
      vertex -44.5887 40.1478 -22.5
      vertex -40.1478 44.5887 22.5
      vertex -40.1478 44.5887 -22.5
    endloop
  endfacet
  facet normal -0.707107 0.707107 0
    outer loop
      vertex -40.1478 44.5887 22.5
      vertex -44.5887 40.1478 -22.5
      vertex -44.5887 40.1478 22.5
    endloop
  endfacet
  facet normal 0.0523381 -0.998629 0
    outer loop
      vertex 0 -60 -22.5
      vertex 6.27171 -59.6713 22.5
      vertex 0 -60 22.5
    endloop
  endfacet
  facet normal 0.0523381 -0.998629 0
    outer loop
      vertex 6.27171 -59.6713 22.5
      vertex 0 -60 -22.5
      vertex 6.27171 -59.6713 -22.5
    endloop
  endfacet
  facet normal -0.358372 0.933579 0
    outer loop
      vertex -18.541 57.0634 -22.5
      vertex -24.4042 54.8127 22.5
      vertex -18.541 57.0634 22.5
    endloop
  endfacet
  facet normal -0.358372 0.933579 0
    outer loop
      vertex -24.4042 54.8127 22.5
      vertex -18.541 57.0634 -22.5
      vertex -24.4042 54.8127 -22.5
    endloop
  endfacet
  facet normal -0.0523381 0.998629 0
    outer loop
      vertex 0 60 -22.5
      vertex -6.27171 59.6713 22.5
      vertex 0 60 22.5
    endloop
  endfacet
  facet normal -0.0523381 0.998629 0
    outer loop
      vertex -6.27171 59.6713 22.5
      vertex 0 60 -22.5
      vertex -6.27171 59.6713 -22.5
    endloop
  endfacet
  facet normal 0.45399 -0.891007 0
    outer loop
      vertex 24.4042 -54.8127 -22.5
      vertex 30 -51.9615 22.5
      vertex 24.4042 -54.8127 22.5
    endloop
  endfacet
  facet normal 0.45399 -0.891007 0
    outer loop
      vertex 30 -51.9615 22.5
      vertex 24.4042 -54.8127 -22.5
      vertex 30 -51.9615 -22.5
    endloop
  endfacet
  facet normal -0.933579 0.358372 0
    outer loop
      vertex -57.0634 18.541 -22.5
      vertex -54.8127 24.4042 22.5
      vertex -54.8127 24.4042 -22.5
    endloop
  endfacet
  facet normal -0.933579 0.358372 0
    outer loop
      vertex -54.8127 24.4042 22.5
      vertex -57.0634 18.541 -22.5
      vertex -57.0634 18.541 22.5
    endloop
  endfacet
  facet normal -0.891007 0.45399 0
    outer loop
      vertex -54.8127 24.4042 -22.5
      vertex -51.9615 30 22.5
      vertex -51.9615 30 -22.5
    endloop
  endfacet
  facet normal -0.891007 0.45399 0
    outer loop
      vertex -51.9615 30 22.5
      vertex -54.8127 24.4042 -22.5
      vertex -54.8127 24.4042 22.5
    endloop
  endfacet
  facet normal 0.777147 0.629319 0
    outer loop
      vertex 48.541 35.2671 22.5
      vertex 44.5887 40.1478 -22.5
      vertex 44.5887 40.1478 22.5
    endloop
  endfacet
  facet normal 0.777147 0.629319 0
    outer loop
      vertex 44.5887 40.1478 -22.5
      vertex 48.541 35.2671 22.5
      vertex 48.541 35.2671 -22.5
    endloop
  endfacet
  facet normal 0.258825 0.965924 -0
    outer loop
      vertex 18.541 57.0634 -22.5
      vertex 12.4747 58.6889 22.5
      vertex 18.541 57.0634 22.5
    endloop
  endfacet
  facet normal 0.258825 0.965924 0
    outer loop
      vertex 12.4747 58.6889 22.5
      vertex 18.541 57.0634 -22.5
      vertex 12.4747 58.6889 -22.5
    endloop
  endfacet
  facet normal 0.933579 0.358372 0
    outer loop
      vertex 57.0634 18.541 22.5
      vertex 54.8127 24.4042 -22.5
      vertex 54.8127 24.4042 22.5
    endloop
  endfacet
  facet normal 0.933579 0.358372 0
    outer loop
      vertex 54.8127 24.4042 -22.5
      vertex 57.0634 18.541 22.5
      vertex 57.0634 18.541 -22.5
    endloop
  endfacet
  facet normal 0.83867 -0.54464 0
    outer loop
      vertex 48.541 -35.2671 22.5
      vertex 51.9615 -30 -22.5
      vertex 51.9615 -30 22.5
    endloop
  endfacet
  facet normal 0.83867 -0.54464 0
    outer loop
      vertex 51.9615 -30 -22.5
      vertex 48.541 -35.2671 22.5
      vertex 48.541 -35.2671 -22.5
    endloop
  endfacet
  facet normal -0.998629 -0.0523381 0
    outer loop
      vertex -59.6713 -6.27171 -22.5
      vertex -60 0 22.5
      vertex -60 0 -22.5
    endloop
  endfacet
  facet normal -0.998629 -0.0523381 0
    outer loop
      vertex -60 0 22.5
      vertex -59.6713 -6.27171 -22.5
      vertex -59.6713 -6.27171 22.5
    endloop
  endfacet
  facet normal 0 0 1
    outer loop
      vertex 10 0 22.5
      vertex 60 0 22.5
      vertex 59.6713 6.27171 22.5
    endloop
  endfacet
  facet normal 0 0 1
    outer loop
      vertex 9.94522 1.04528 22.5
      vertex 59.6713 6.27171 22.5
      vertex 58.6889 12.4747 22.5
    endloop
  endfacet
  facet normal 0 0 1
    outer loop
      vertex 60 0 22.5
      vertex 10 0 22.5
      vertex 59.6713 -6.27171 22.5
    endloop
  endfacet
  facet normal 0 0 1
    outer loop
      vertex 9.78148 2.07912 22.5
      vertex 58.6889 12.4747 22.5
      vertex 57.0634 18.541 22.5
    endloop
  endfacet
  facet normal -0 0 1
    outer loop
      vertex 9.94522 -1.04528 22.5
      vertex 59.6713 -6.27171 22.5
      vertex 10 0 22.5
    endloop
  endfacet
  facet normal 0 0 1
    outer loop
      vertex 9.51056 3.09017 22.5
      vertex 57.0634 18.541 22.5
      vertex 54.8127 24.4042 22.5
    endloop
  endfacet
  facet normal 0 0 1
    outer loop
      vertex 59.6713 -6.27171 22.5
      vertex 9.94522 -1.04528 22.5
      vertex 58.6889 -12.4747 22.5
    endloop
  endfacet
  facet normal 0 0 1
    outer loop
      vertex 9.13545 4.06737 22.5
      vertex 54.8127 24.4042 22.5
      vertex 51.9615 30 22.5
    endloop
  endfacet
  facet normal -0 0 1
    outer loop
      vertex 9.78148 -2.07912 22.5
      vertex 58.6889 -12.4747 22.5
      vertex 9.94522 -1.04528 22.5
    endloop
  endfacet
  facet normal 0 0 1
    outer loop
      vertex 8.66025 5 22.5
      vertex 51.9615 30 22.5
      vertex 48.541 35.2671 22.5
    endloop
  endfacet
  facet normal 0 0 1
    outer loop
      vertex 58.6889 -12.4747 22.5
      vertex 9.78148 -2.07912 22.5
      vertex 57.0634 -18.541 22.5
    endloop
  endfacet
  facet normal 0 0 1
    outer loop
      vertex 8.09017 5.87785 22.5
      vertex 48.541 35.2671 22.5
      vertex 44.5887 40.1478 22.5
    endloop
  endfacet
  facet normal -0 0 1
    outer loop
      vertex 9.51056 -3.09017 22.5
      vertex 57.0634 -18.541 22.5
      vertex 9.78148 -2.07912 22.5
    endloop
  endfacet
  facet normal 0 0 1
    outer loop
      vertex 7.43145 6.69131 22.5
      vertex 44.5887 40.1478 22.5
      vertex 40.1478 44.5887 22.5
    endloop
  endfacet
  facet normal 0 0 1
    outer loop
      vertex 57.0634 -18.541 22.5
      vertex 9.51056 -3.09017 22.5
      vertex 54.8127 -24.4042 22.5
    endloop
  endfacet
  facet normal 0 0 1
    outer loop
      vertex 6.69131 7.43145 22.5
      vertex 40.1478 44.5887 22.5
      vertex 35.2671 48.541 22.5
    endloop
  endfacet
  facet normal -0 0 1
    outer loop
      vertex 9.13545 -4.06737 22.5
      vertex 54.8127 -24.4042 22.5
      vertex 9.51056 -3.09017 22.5
    endloop
  endfacet
  facet normal 0 0 1
    outer loop
      vertex 5.87785 8.09017 22.5
      vertex 35.2671 48.541 22.5
      vertex 30 51.9615 22.5
    endloop
  endfacet
  facet normal 0 0 1
    outer loop
      vertex 54.8127 -24.4042 22.5
      vertex 9.13545 -4.06737 22.5
      vertex 51.9615 -30 22.5
    endloop
  endfacet
  facet normal 0 0 1
    outer loop
      vertex 5 8.66025 22.5
      vertex 30 51.9615 22.5
      vertex 24.4042 54.8127 22.5
    endloop
  endfacet
  facet normal -0 0 1
    outer loop
      vertex 8.66025 -5 22.5
      vertex 51.9615 -30 22.5
      vertex 9.13545 -4.06737 22.5
    endloop
  endfacet
  facet normal 0 0 1
    outer loop
      vertex 4.06737 9.13545 22.5
      vertex 24.4042 54.8127 22.5
      vertex 18.541 57.0634 22.5
    endloop
  endfacet
  facet normal 0 0 1
    outer loop
      vertex 51.9615 -30 22.5
      vertex 8.66025 -5 22.5
      vertex 48.541 -35.2671 22.5
    endloop
  endfacet
  facet normal 0 0 1
    outer loop
      vertex 3.09017 9.51056 22.5
      vertex 18.541 57.0634 22.5
      vertex 12.4747 58.6889 22.5
    endloop
  endfacet
  facet normal -0 0 1
    outer loop
      vertex 8.09017 -5.87785 22.5
      vertex 48.541 -35.2671 22.5
      vertex 8.66025 -5 22.5
    endloop
  endfacet
  facet normal 0 0 1
    outer loop
      vertex 48.541 -35.2671 22.5
      vertex 8.09017 -5.87785 22.5
      vertex 44.5887 -40.1478 22.5
    endloop
  endfacet
  facet normal 0 0 1
    outer loop
      vertex 59.6713 6.27171 22.5
      vertex 9.94522 1.04528 22.5
      vertex 10 0 22.5
    endloop
  endfacet
  facet normal 0 0 1
    outer loop
      vertex 58.6889 12.4747 22.5
      vertex 9.78148 2.07912 22.5
      vertex 9.94522 1.04528 22.5
    endloop
  endfacet
  facet normal 0 0 1
    outer loop
      vertex 57.0634 18.541 22.5
      vertex 9.51056 3.09017 22.5
      vertex 9.78148 2.07912 22.5
    endloop
  endfacet
  facet normal 0 0 1
    outer loop
      vertex 54.8127 24.4042 22.5
      vertex 9.13545 4.06737 22.5
      vertex 9.51056 3.09017 22.5
    endloop
  endfacet
  facet normal 0 0 1
    outer loop
      vertex 51.9615 30 22.5
      vertex 8.66025 5 22.5
      vertex 9.13545 4.06737 22.5
    endloop
  endfacet
  facet normal 0 0 1
    outer loop
      vertex 48.541 35.2671 22.5
      vertex 8.09017 5.87785 22.5
      vertex 8.66025 5 22.5
    endloop
  endfacet
  facet normal 0 0 1
    outer loop
      vertex 44.5887 40.1478 22.5
      vertex 7.43145 6.69131 22.5
      vertex 8.09017 5.87785 22.5
    endloop
  endfacet
  facet normal 0 0 1
    outer loop
      vertex 40.1478 44.5887 22.5
      vertex 6.69131 7.43145 22.5
      vertex 7.43145 6.69131 22.5
    endloop
  endfacet
  facet normal 0 0 1
    outer loop
      vertex 2.07912 9.78148 22.5
      vertex 12.4747 58.6889 22.5
      vertex 6.27171 59.6713 22.5
    endloop
  endfacet
  facet normal 0 0 1
    outer loop
      vertex 35.2671 48.541 22.5
      vertex 5.87785 8.09017 22.5
      vertex 6.69131 7.43145 22.5
    endloop
  endfacet
  facet normal 0 0 1
    outer loop
      vertex 30 51.9615 22.5
      vertex 5 8.66025 22.5
      vertex 5.87785 8.09017 22.5
    endloop
  endfacet
  facet normal 0 0 1
    outer loop
      vertex 24.4042 54.8127 22.5
      vertex 4.06737 9.13545 22.5
      vertex 5 8.66025 22.5
    endloop
  endfacet
  facet normal 0 0 1
    outer loop
      vertex 18.541 57.0634 22.5
      vertex 3.09017 9.51056 22.5
      vertex 4.06737 9.13545 22.5
    endloop
  endfacet
  facet normal 0 0 1
    outer loop
      vertex 12.4747 58.6889 22.5
      vertex 2.07912 9.78148 22.5
      vertex 3.09017 9.51056 22.5
    endloop
  endfacet
  facet normal 0 0 1
    outer loop
      vertex 6.27171 59.6713 22.5
      vertex 1.04528 9.94522 22.5
      vertex 2.07912 9.78148 22.5
    endloop
  endfacet
  facet normal 0 0 1
    outer loop
      vertex 0 60 22.5
      vertex 1.04528 9.94522 22.5
      vertex 6.27171 59.6713 22.5
    endloop
  endfacet
  facet normal 0 0 1
    outer loop
      vertex 0 60 22.5
      vertex 0 10 22.5
      vertex 1.04528 9.94522 22.5
    endloop
  endfacet
  facet normal 0 0 1
    outer loop
      vertex 0 60 22.5
      vertex -1.04528 9.94522 22.5
      vertex 0 10 22.5
    endloop
  endfacet
  facet normal -0 0 1
    outer loop
      vertex -6.27171 59.6713 22.5
      vertex -1.04528 9.94522 22.5
      vertex 0 60 22.5
    endloop
  endfacet
  facet normal 0 0 1
    outer loop
      vertex -1.04528 9.94522 22.5
      vertex -6.27171 59.6713 22.5
      vertex -2.07912 9.78148 22.5
    endloop
  endfacet
  facet normal -0 0 1
    outer loop
      vertex -12.4747 58.6889 22.5
      vertex -2.07912 9.78148 22.5
      vertex -6.27171 59.6713 22.5
    endloop
  endfacet
  facet normal 0 0 1
    outer loop
      vertex -2.07912 9.78148 22.5
      vertex -12.4747 58.6889 22.5
      vertex -3.09017 9.51056 22.5
    endloop
  endfacet
  facet normal -0 0 1
    outer loop
      vertex -18.541 57.0634 22.5
      vertex -3.09017 9.51056 22.5
      vertex -12.4747 58.6889 22.5
    endloop
  endfacet
  facet normal 0 0 1
    outer loop
      vertex -3.09017 9.51056 22.5
      vertex -18.541 57.0634 22.5
      vertex -4.06737 9.13545 22.5
    endloop
  endfacet
  facet normal -0 0 1
    outer loop
      vertex -24.4042 54.8127 22.5
      vertex -4.06737 9.13545 22.5
      vertex -18.541 57.0634 22.5
    endloop
  endfacet
  facet normal 0 0 1
    outer loop
      vertex -4.06737 9.13545 22.5
      vertex -24.4042 54.8127 22.5
      vertex -5 8.66025 22.5
    endloop
  endfacet
  facet normal -0 0 1
    outer loop
      vertex -30 51.9615 22.5
      vertex -5 8.66025 22.5
      vertex -24.4042 54.8127 22.5
    endloop
  endfacet
  facet normal 0 0 1
    outer loop
      vertex -5 8.66025 22.5
      vertex -30 51.9615 22.5
      vertex -5.87785 8.09017 22.5
    endloop
  endfacet
  facet normal -0 0 1
    outer loop
      vertex -35.2671 48.541 22.5
      vertex -5.87785 8.09017 22.5
      vertex -30 51.9615 22.5
    endloop
  endfacet
  facet normal 0 0 1
    outer loop
      vertex -5.87785 8.09017 22.5
      vertex -35.2671 48.541 22.5
      vertex -6.69131 7.43145 22.5
    endloop
  endfacet
  facet normal -0 0 1
    outer loop
      vertex -40.1478 44.5887 22.5
      vertex -6.69131 7.43145 22.5
      vertex -35.2671 48.541 22.5
    endloop
  endfacet
  facet normal 0 0 1
    outer loop
      vertex -6.69131 7.43145 22.5
      vertex -40.1478 44.5887 22.5
      vertex -7.43145 6.69131 22.5
    endloop
  endfacet
  facet normal 0 0 1
    outer loop
      vertex -7.43145 6.69131 22.5
      vertex -44.5887 40.1478 22.5
      vertex -8.09017 5.87785 22.5
    endloop
  endfacet
  facet normal -0 0 1
    outer loop
      vertex -44.5887 40.1478 22.5
      vertex -7.43145 6.69131 22.5
      vertex -40.1478 44.5887 22.5
    endloop
  endfacet
  facet normal -0 0 1
    outer loop
      vertex 7.43145 -6.69131 22.5
      vertex 44.5887 -40.1478 22.5
      vertex 8.09017 -5.87785 22.5
    endloop
  endfacet
  facet normal 0 0 1
    outer loop
      vertex 44.5887 -40.1478 22.5
      vertex 7.43145 -6.69131 22.5
      vertex 40.1478 -44.5887 22.5
    endloop
  endfacet
  facet normal -0 0 1
    outer loop
      vertex 6.69131 -7.43145 22.5
      vertex 40.1478 -44.5887 22.5
      vertex 7.43145 -6.69131 22.5
    endloop
  endfacet
  facet normal 0 0 1
    outer loop
      vertex 40.1478 -44.5887 22.5
      vertex 6.69131 -7.43145 22.5
      vertex 35.2671 -48.541 22.5
    endloop
  endfacet
  facet normal -0 0 1
    outer loop
      vertex 5.87785 -8.09017 22.5
      vertex 35.2671 -48.541 22.5
      vertex 6.69131 -7.43145 22.5
    endloop
  endfacet
  facet normal 0 0 1
    outer loop
      vertex 35.2671 -48.541 22.5
      vertex 5.87785 -8.09017 22.5
      vertex 30 -51.9615 22.5
    endloop
  endfacet
  facet normal -0 0 1
    outer loop
      vertex 5 -8.66025 22.5
      vertex 30 -51.9615 22.5
      vertex 5.87785 -8.09017 22.5
    endloop
  endfacet
  facet normal 0 0 1
    outer loop
      vertex 30 -51.9615 22.5
      vertex 5 -8.66025 22.5
      vertex 24.4042 -54.8127 22.5
    endloop
  endfacet
  facet normal -0 0 1
    outer loop
      vertex 4.06737 -9.13545 22.5
      vertex 24.4042 -54.8127 22.5
      vertex 5 -8.66025 22.5
    endloop
  endfacet
  facet normal 0 0 1
    outer loop
      vertex 24.4042 -54.8127 22.5
      vertex 4.06737 -9.13545 22.5
      vertex 18.541 -57.0634 22.5
    endloop
  endfacet
  facet normal -0 0 1
    outer loop
      vertex 3.09017 -9.51056 22.5
      vertex 18.541 -57.0634 22.5
      vertex 4.06737 -9.13545 22.5
    endloop
  endfacet
  facet normal 0 0 1
    outer loop
      vertex 18.541 -57.0634 22.5
      vertex 3.09017 -9.51056 22.5
      vertex 12.4747 -58.6889 22.5
    endloop
  endfacet
  facet normal -0 0 1
    outer loop
      vertex 2.07912 -9.78148 22.5
      vertex 12.4747 -58.6889 22.5
      vertex 3.09017 -9.51056 22.5
    endloop
  endfacet
  facet normal 0 0 1
    outer loop
      vertex 12.4747 -58.6889 22.5
      vertex 2.07912 -9.78148 22.5
      vertex 6.27171 -59.6713 22.5
    endloop
  endfacet
  facet normal -0 0 1
    outer loop
      vertex 1.04528 -9.94522 22.5
      vertex 6.27171 -59.6713 22.5
      vertex 2.07912 -9.78148 22.5
    endloop
  endfacet
  facet normal -0 0 1
    outer loop
      vertex 0 -10 22.5
      vertex 6.27171 -59.6713 22.5
      vertex 1.04528 -9.94522 22.5
    endloop
  endfacet
  facet normal 0 0 1
    outer loop
      vertex 0 -10 22.5
      vertex 0 -60 22.5
      vertex 6.27171 -59.6713 22.5
    endloop
  endfacet
  facet normal 0 0 1
    outer loop
      vertex -1.04528 -9.94522 22.5
      vertex 0 -60 22.5
      vertex 0 -10 22.5
    endloop
  endfacet
  facet normal 0 0 1
    outer loop
      vertex -6.27171 -59.6713 22.5
      vertex -1.04528 -9.94522 22.5
      vertex -2.07912 -9.78148 22.5
    endloop
  endfacet
  facet normal 0 0 1
    outer loop
      vertex -12.4747 -58.6889 22.5
      vertex -2.07912 -9.78148 22.5
      vertex -3.09017 -9.51056 22.5
    endloop
  endfacet
  facet normal 0 0 1
    outer loop
      vertex -18.541 -57.0634 22.5
      vertex -3.09017 -9.51056 22.5
      vertex -4.06737 -9.13545 22.5
    endloop
  endfacet
  facet normal 0 0 1
    outer loop
      vertex -24.4042 -54.8127 22.5
      vertex -4.06737 -9.13545 22.5
      vertex -5 -8.66025 22.5
    endloop
  endfacet
  facet normal 0 0 1
    outer loop
      vertex -30 -51.9615 22.5
      vertex -5 -8.66025 22.5
      vertex -5.87785 -8.09017 22.5
    endloop
  endfacet
  facet normal 0 0 1
    outer loop
      vertex -1.04528 -9.94522 22.5
      vertex -6.27171 -59.6713 22.5
      vertex 0 -60 22.5
    endloop
  endfacet
  facet normal 0 0 1
    outer loop
      vertex -35.2671 -48.541 22.5
      vertex -5.87785 -8.09017 22.5
      vertex -6.69131 -7.43145 22.5
    endloop
  endfacet
  facet normal 0 0 1
    outer loop
      vertex -40.1478 -44.5887 22.5
      vertex -6.69131 -7.43145 22.5
      vertex -7.43145 -6.69131 22.5
    endloop
  endfacet
  facet normal 0 0 1
    outer loop
      vertex -44.5887 -40.1478 22.5
      vertex -7.43145 -6.69131 22.5
      vertex -8.09017 -5.87785 22.5
    endloop
  endfacet
  facet normal 0 0 1
    outer loop
      vertex -48.541 -35.2671 22.5
      vertex -8.09017 -5.87785 22.5
      vertex -8.66025 -5 22.5
    endloop
  endfacet
  facet normal 0 0 1
    outer loop
      vertex -51.9615 -30 22.5
      vertex -8.66025 -5 22.5
      vertex -9.13545 -4.06737 22.5
    endloop
  endfacet
  facet normal 0 0 1
    outer loop
      vertex -54.8127 -24.4042 22.5
      vertex -9.13545 -4.06737 22.5
      vertex -9.51056 -3.09017 22.5
    endloop
  endfacet
  facet normal 0 0 1
    outer loop
      vertex -57.0634 -18.541 22.5
      vertex -9.51056 -3.09017 22.5
      vertex -9.78148 -2.07912 22.5
    endloop
  endfacet
  facet normal 0 0 1
    outer loop
      vertex -58.6889 -12.4747 22.5
      vertex -9.78148 -2.07912 22.5
      vertex -9.94522 -1.04528 22.5
    endloop
  endfacet
  facet normal 0 0 1
    outer loop
      vertex -2.07912 -9.78148 22.5
      vertex -12.4747 -58.6889 22.5
      vertex -6.27171 -59.6713 22.5
    endloop
  endfacet
  facet normal 0 0 1
    outer loop
      vertex -59.6713 -6.27171 22.5
      vertex -9.94522 -1.04528 22.5
      vertex -10 0 22.5
    endloop
  endfacet
  facet normal -0 0 1
    outer loop
      vertex -48.541 35.2671 22.5
      vertex -8.09017 5.87785 22.5
      vertex -44.5887 40.1478 22.5
    endloop
  endfacet
  facet normal 0 0 1
    outer loop
      vertex -8.09017 5.87785 22.5
      vertex -48.541 35.2671 22.5
      vertex -8.66025 5 22.5
    endloop
  endfacet
  facet normal 0 0 1
    outer loop
      vertex -3.09017 -9.51056 22.5
      vertex -18.541 -57.0634 22.5
      vertex -12.4747 -58.6889 22.5
    endloop
  endfacet
  facet normal -0 0 1
    outer loop
      vertex -51.9615 30 22.5
      vertex -8.66025 5 22.5
      vertex -48.541 35.2671 22.5
    endloop
  endfacet
  facet normal 0 0 1
    outer loop
      vertex -4.06737 -9.13545 22.5
      vertex -24.4042 -54.8127 22.5
      vertex -18.541 -57.0634 22.5
    endloop
  endfacet
  facet normal 0 0 1
    outer loop
      vertex -8.66025 5 22.5
      vertex -51.9615 30 22.5
      vertex -9.13545 4.06737 22.5
    endloop
  endfacet
  facet normal 0 0 1
    outer loop
      vertex -5 -8.66025 22.5
      vertex -30 -51.9615 22.5
      vertex -24.4042 -54.8127 22.5
    endloop
  endfacet
  facet normal -0 0 1
    outer loop
      vertex -54.8127 24.4042 22.5
      vertex -9.13545 4.06737 22.5
      vertex -51.9615 30 22.5
    endloop
  endfacet
  facet normal 0 0 1
    outer loop
      vertex -5.87785 -8.09017 22.5
      vertex -35.2671 -48.541 22.5
      vertex -30 -51.9615 22.5
    endloop
  endfacet
  facet normal 0 0 1
    outer loop
      vertex -9.13545 4.06737 22.5
      vertex -54.8127 24.4042 22.5
      vertex -9.51056 3.09017 22.5
    endloop
  endfacet
  facet normal 0 0 1
    outer loop
      vertex -6.69131 -7.43145 22.5
      vertex -40.1478 -44.5887 22.5
      vertex -35.2671 -48.541 22.5
    endloop
  endfacet
  facet normal -0 0 1
    outer loop
      vertex -57.0634 18.541 22.5
      vertex -9.51056 3.09017 22.5
      vertex -54.8127 24.4042 22.5
    endloop
  endfacet
  facet normal 0 0 1
    outer loop
      vertex -7.43145 -6.69131 22.5
      vertex -44.5887 -40.1478 22.5
      vertex -40.1478 -44.5887 22.5
    endloop
  endfacet
  facet normal 0 0 1
    outer loop
      vertex -9.51056 3.09017 22.5
      vertex -57.0634 18.541 22.5
      vertex -9.78148 2.07912 22.5
    endloop
  endfacet
  facet normal 0 0 1
    outer loop
      vertex -8.09017 -5.87785 22.5
      vertex -48.541 -35.2671 22.5
      vertex -44.5887 -40.1478 22.5
    endloop
  endfacet
  facet normal -0 0 1
    outer loop
      vertex -58.6889 12.4747 22.5
      vertex -9.78148 2.07912 22.5
      vertex -57.0634 18.541 22.5
    endloop
  endfacet
  facet normal 0 0 1
    outer loop
      vertex -8.66025 -5 22.5
      vertex -51.9615 -30 22.5
      vertex -48.541 -35.2671 22.5
    endloop
  endfacet
  facet normal 0 0 1
    outer loop
      vertex -9.78148 2.07912 22.5
      vertex -58.6889 12.4747 22.5
      vertex -9.94522 1.04528 22.5
    endloop
  endfacet
  facet normal 0 0 1
    outer loop
      vertex -9.13545 -4.06737 22.5
      vertex -54.8127 -24.4042 22.5
      vertex -51.9615 -30 22.5
    endloop
  endfacet
  facet normal -0 0 1
    outer loop
      vertex -59.6713 6.27171 22.5
      vertex -9.94522 1.04528 22.5
      vertex -58.6889 12.4747 22.5
    endloop
  endfacet
  facet normal 0 0 1
    outer loop
      vertex -9.51056 -3.09017 22.5
      vertex -57.0634 -18.541 22.5
      vertex -54.8127 -24.4042 22.5
    endloop
  endfacet
  facet normal 0 0 1
    outer loop
      vertex -9.94522 1.04528 22.5
      vertex -59.6713 6.27171 22.5
      vertex -10 0 22.5
    endloop
  endfacet
  facet normal 0 0 1
    outer loop
      vertex -9.78148 -2.07912 22.5
      vertex -58.6889 -12.4747 22.5
      vertex -57.0634 -18.541 22.5
    endloop
  endfacet
  facet normal 0 0 1
    outer loop
      vertex -60 0 22.5
      vertex -10 0 22.5
      vertex -59.6713 6.27171 22.5
    endloop
  endfacet
  facet normal 0 0 1
    outer loop
      vertex -9.94522 -1.04528 22.5
      vertex -59.6713 -6.27171 22.5
      vertex -58.6889 -12.4747 22.5
    endloop
  endfacet
  facet normal 0 0 1
    outer loop
      vertex -10 0 22.5
      vertex -60 0 22.5
      vertex -59.6713 -6.27171 22.5
    endloop
  endfacet
  facet normal 0.707107 0.707107 0
    outer loop
      vertex 44.5887 40.1478 22.5
      vertex 40.1478 44.5887 -22.5
      vertex 40.1478 44.5887 22.5
    endloop
  endfacet
  facet normal 0.707107 0.707107 0
    outer loop
      vertex 40.1478 44.5887 -22.5
      vertex 44.5887 40.1478 22.5
      vertex 44.5887 40.1478 -22.5
    endloop
  endfacet
  facet normal 0.891007 0.45399 0
    outer loop
      vertex 54.8127 24.4042 22.5
      vertex 51.9615 30 -22.5
      vertex 51.9615 30 22.5
    endloop
  endfacet
  facet normal 0.891007 0.45399 0
    outer loop
      vertex 51.9615 30 -22.5
      vertex 54.8127 24.4042 22.5
      vertex 54.8127 24.4042 -22.5
    endloop
  endfacet
  facet normal -0.83867 0.54464 0
    outer loop
      vertex -51.9615 30 -22.5
      vertex -48.541 35.2671 22.5
      vertex -48.541 35.2671 -22.5
    endloop
  endfacet
  facet normal -0.83867 0.54464 0
    outer loop
      vertex -48.541 35.2671 22.5
      vertex -51.9615 30 -22.5
      vertex -51.9615 30 22.5
    endloop
  endfacet
  facet normal -0.98769 0.156426 0
    outer loop
      vertex -59.6713 6.27171 -22.5
      vertex -58.6889 12.4747 22.5
      vertex -58.6889 12.4747 -22.5
    endloop
  endfacet
  facet normal -0.98769 0.156426 0
    outer loop
      vertex -58.6889 12.4747 22.5
      vertex -59.6713 6.27171 -22.5
      vertex -59.6713 6.27171 22.5
    endloop
  endfacet
  facet normal 0 0 -1
    outer loop
      vertex 10 0 -22.5
      vertex 60 0 -22.5
      vertex 59.6713 -6.27171 -22.5
    endloop
  endfacet
  facet normal 0 0 -1
    outer loop
      vertex 9.94522 -1.04528 -22.5
      vertex 59.6713 -6.27171 -22.5
      vertex 58.6889 -12.4747 -22.5
    endloop
  endfacet
  facet normal 0 0 -1
    outer loop
      vertex 60 0 -22.5
      vertex 10 0 -22.5
      vertex 59.6713 6.27171 -22.5
    endloop
  endfacet
  facet normal 0 0 -1
    outer loop
      vertex 9.78148 -2.07912 -22.5
      vertex 58.6889 -12.4747 -22.5
      vertex 57.0634 -18.541 -22.5
    endloop
  endfacet
  facet normal 0 0 -1
    outer loop
      vertex 9.94522 1.04528 -22.5
      vertex 59.6713 6.27171 -22.5
      vertex 10 0 -22.5
    endloop
  endfacet
  facet normal 0 0 -1
    outer loop
      vertex 9.51056 -3.09017 -22.5
      vertex 57.0634 -18.541 -22.5
      vertex 54.8127 -24.4042 -22.5
    endloop
  endfacet
  facet normal -0 0 -1
    outer loop
      vertex 59.6713 6.27171 -22.5
      vertex 9.94522 1.04528 -22.5
      vertex 58.6889 12.4747 -22.5
    endloop
  endfacet
  facet normal 0 0 -1
    outer loop
      vertex 9.13545 -4.06737 -22.5
      vertex 54.8127 -24.4042 -22.5
      vertex 51.9615 -30 -22.5
    endloop
  endfacet
  facet normal 0 0 -1
    outer loop
      vertex 9.78148 2.07912 -22.5
      vertex 58.6889 12.4747 -22.5
      vertex 9.94522 1.04528 -22.5
    endloop
  endfacet
  facet normal 0 0 -1
    outer loop
      vertex 8.66025 -5 -22.5
      vertex 51.9615 -30 -22.5
      vertex 48.541 -35.2671 -22.5
    endloop
  endfacet
  facet normal -0 0 -1
    outer loop
      vertex 58.6889 12.4747 -22.5
      vertex 9.78148 2.07912 -22.5
      vertex 57.0634 18.541 -22.5
    endloop
  endfacet
  facet normal 0 0 -1
    outer loop
      vertex 8.09017 -5.87785 -22.5
      vertex 48.541 -35.2671 -22.5
      vertex 44.5887 -40.1478 -22.5
    endloop
  endfacet
  facet normal 0 0 -1
    outer loop
      vertex 9.51056 3.09017 -22.5
      vertex 57.0634 18.541 -22.5
      vertex 9.78148 2.07912 -22.5
    endloop
  endfacet
  facet normal 0 0 -1
    outer loop
      vertex 7.43145 -6.69131 -22.5
      vertex 44.5887 -40.1478 -22.5
      vertex 40.1478 -44.5887 -22.5
    endloop
  endfacet
  facet normal -0 0 -1
    outer loop
      vertex 57.0634 18.541 -22.5
      vertex 9.51056 3.09017 -22.5
      vertex 54.8127 24.4042 -22.5
    endloop
  endfacet
  facet normal 0 0 -1
    outer loop
      vertex 6.69131 -7.43145 -22.5
      vertex 40.1478 -44.5887 -22.5
      vertex 35.2671 -48.541 -22.5
    endloop
  endfacet
  facet normal 0 0 -1
    outer loop
      vertex 9.13545 4.06737 -22.5
      vertex 54.8127 24.4042 -22.5
      vertex 9.51056 3.09017 -22.5
    endloop
  endfacet
  facet normal 0 0 -1
    outer loop
      vertex 5.87785 -8.09017 -22.5
      vertex 35.2671 -48.541 -22.5
      vertex 30 -51.9615 -22.5
    endloop
  endfacet
  facet normal -0 0 -1
    outer loop
      vertex 54.8127 24.4042 -22.5
      vertex 9.13545 4.06737 -22.5
      vertex 51.9615 30 -22.5
    endloop
  endfacet
  facet normal 0 0 -1
    outer loop
      vertex 5 -8.66025 -22.5
      vertex 30 -51.9615 -22.5
      vertex 24.4042 -54.8127 -22.5
    endloop
  endfacet
  facet normal 0 0 -1
    outer loop
      vertex 8.66025 5 -22.5
      vertex 51.9615 30 -22.5
      vertex 9.13545 4.06737 -22.5
    endloop
  endfacet
  facet normal 0 0 -1
    outer loop
      vertex 4.06737 -9.13545 -22.5
      vertex 24.4042 -54.8127 -22.5
      vertex 18.541 -57.0634 -22.5
    endloop
  endfacet
  facet normal -0 0 -1
    outer loop
      vertex 51.9615 30 -22.5
      vertex 8.66025 5 -22.5
      vertex 48.541 35.2671 -22.5
    endloop
  endfacet
  facet normal 0 0 -1
    outer loop
      vertex 3.09017 -9.51056 -22.5
      vertex 18.541 -57.0634 -22.5
      vertex 12.4747 -58.6889 -22.5
    endloop
  endfacet
  facet normal 0 0 -1
    outer loop
      vertex 8.09017 5.87785 -22.5
      vertex 48.541 35.2671 -22.5
      vertex 8.66025 5 -22.5
    endloop
  endfacet
  facet normal -0 0 -1
    outer loop
      vertex 48.541 35.2671 -22.5
      vertex 8.09017 5.87785 -22.5
      vertex 44.5887 40.1478 -22.5
    endloop
  endfacet
  facet normal 0 0 -1
    outer loop
      vertex 59.6713 -6.27171 -22.5
      vertex 9.94522 -1.04528 -22.5
      vertex 10 0 -22.5
    endloop
  endfacet
  facet normal 0 0 -1
    outer loop
      vertex 58.6889 -12.4747 -22.5
      vertex 9.78148 -2.07912 -22.5
      vertex 9.94522 -1.04528 -22.5
    endloop
  endfacet
  facet normal 0 0 -1
    outer loop
      vertex 57.0634 -18.541 -22.5
      vertex 9.51056 -3.09017 -22.5
      vertex 9.78148 -2.07912 -22.5
    endloop
  endfacet
  facet normal 0 0 -1
    outer loop
      vertex 54.8127 -24.4042 -22.5
      vertex 9.13545 -4.06737 -22.5
      vertex 9.51056 -3.09017 -22.5
    endloop
  endfacet
  facet normal 0 0 -1
    outer loop
      vertex 51.9615 -30 -22.5
      vertex 8.66025 -5 -22.5
      vertex 9.13545 -4.06737 -22.5
    endloop
  endfacet
  facet normal 0 0 -1
    outer loop
      vertex 48.541 -35.2671 -22.5
      vertex 8.09017 -5.87785 -22.5
      vertex 8.66025 -5 -22.5
    endloop
  endfacet
  facet normal 0 0 -1
    outer loop
      vertex 44.5887 -40.1478 -22.5
      vertex 7.43145 -6.69131 -22.5
      vertex 8.09017 -5.87785 -22.5
    endloop
  endfacet
  facet normal 0 0 -1
    outer loop
      vertex 40.1478 -44.5887 -22.5
      vertex 6.69131 -7.43145 -22.5
      vertex 7.43145 -6.69131 -22.5
    endloop
  endfacet
  facet normal 0 0 -1
    outer loop
      vertex 2.07912 -9.78148 -22.5
      vertex 12.4747 -58.6889 -22.5
      vertex 6.27171 -59.6713 -22.5
    endloop
  endfacet
  facet normal 0 0 -1
    outer loop
      vertex 35.2671 -48.541 -22.5
      vertex 5.87785 -8.09017 -22.5
      vertex 6.69131 -7.43145 -22.5
    endloop
  endfacet
  facet normal 0 0 -1
    outer loop
      vertex 30 -51.9615 -22.5
      vertex 5 -8.66025 -22.5
      vertex 5.87785 -8.09017 -22.5
    endloop
  endfacet
  facet normal 0 0 -1
    outer loop
      vertex 24.4042 -54.8127 -22.5
      vertex 4.06737 -9.13545 -22.5
      vertex 5 -8.66025 -22.5
    endloop
  endfacet
  facet normal 0 0 -1
    outer loop
      vertex 18.541 -57.0634 -22.5
      vertex 3.09017 -9.51056 -22.5
      vertex 4.06737 -9.13545 -22.5
    endloop
  endfacet
  facet normal 0 0 -1
    outer loop
      vertex 12.4747 -58.6889 -22.5
      vertex 2.07912 -9.78148 -22.5
      vertex 3.09017 -9.51056 -22.5
    endloop
  endfacet
  facet normal 0 0 -1
    outer loop
      vertex 6.27171 -59.6713 -22.5
      vertex 1.04528 -9.94522 -22.5
      vertex 2.07912 -9.78148 -22.5
    endloop
  endfacet
  facet normal 0 0 -1
    outer loop
      vertex 0 -60 -22.5
      vertex 1.04528 -9.94522 -22.5
      vertex 6.27171 -59.6713 -22.5
    endloop
  endfacet
  facet normal 0 0 -1
    outer loop
      vertex 0 -60 -22.5
      vertex 0 -10 -22.5
      vertex 1.04528 -9.94522 -22.5
    endloop
  endfacet
  facet normal 0 0 -1
    outer loop
      vertex 0 -60 -22.5
      vertex -1.04528 -9.94522 -22.5
      vertex 0 -10 -22.5
    endloop
  endfacet
  facet normal 0 0 -1
    outer loop
      vertex -6.27171 -59.6713 -22.5
      vertex -1.04528 -9.94522 -22.5
      vertex 0 -60 -22.5
    endloop
  endfacet
  facet normal -0 0 -1
    outer loop
      vertex -1.04528 -9.94522 -22.5
      vertex -6.27171 -59.6713 -22.5
      vertex -2.07912 -9.78148 -22.5
    endloop
  endfacet
  facet normal 0 0 -1
    outer loop
      vertex -12.4747 -58.6889 -22.5
      vertex -2.07912 -9.78148 -22.5
      vertex -6.27171 -59.6713 -22.5
    endloop
  endfacet
  facet normal -0 0 -1
    outer loop
      vertex -2.07912 -9.78148 -22.5
      vertex -12.4747 -58.6889 -22.5
      vertex -3.09017 -9.51056 -22.5
    endloop
  endfacet
  facet normal 0 0 -1
    outer loop
      vertex -18.541 -57.0634 -22.5
      vertex -3.09017 -9.51056 -22.5
      vertex -12.4747 -58.6889 -22.5
    endloop
  endfacet
  facet normal -0 0 -1
    outer loop
      vertex -3.09017 -9.51056 -22.5
      vertex -18.541 -57.0634 -22.5
      vertex -4.06737 -9.13545 -22.5
    endloop
  endfacet
  facet normal 0 0 -1
    outer loop
      vertex -24.4042 -54.8127 -22.5
      vertex -4.06737 -9.13545 -22.5
      vertex -18.541 -57.0634 -22.5
    endloop
  endfacet
  facet normal -0 0 -1
    outer loop
      vertex -4.06737 -9.13545 -22.5
      vertex -24.4042 -54.8127 -22.5
      vertex -5 -8.66025 -22.5
    endloop
  endfacet
  facet normal 0 0 -1
    outer loop
      vertex -30 -51.9615 -22.5
      vertex -5 -8.66025 -22.5
      vertex -24.4042 -54.8127 -22.5
    endloop
  endfacet
  facet normal -0 0 -1
    outer loop
      vertex -5 -8.66025 -22.5
      vertex -30 -51.9615 -22.5
      vertex -5.87785 -8.09017 -22.5
    endloop
  endfacet
  facet normal 0 0 -1
    outer loop
      vertex -35.2671 -48.541 -22.5
      vertex -5.87785 -8.09017 -22.5
      vertex -30 -51.9615 -22.5
    endloop
  endfacet
  facet normal -0 0 -1
    outer loop
      vertex -5.87785 -8.09017 -22.5
      vertex -35.2671 -48.541 -22.5
      vertex -6.69131 -7.43145 -22.5
    endloop
  endfacet
  facet normal 0 0 -1
    outer loop
      vertex -40.1478 -44.5887 -22.5
      vertex -6.69131 -7.43145 -22.5
      vertex -35.2671 -48.541 -22.5
    endloop
  endfacet
  facet normal -0 0 -1
    outer loop
      vertex -6.69131 -7.43145 -22.5
      vertex -40.1478 -44.5887 -22.5
      vertex -7.43145 -6.69131 -22.5
    endloop
  endfacet
  facet normal -0 0 -1
    outer loop
      vertex -7.43145 -6.69131 -22.5
      vertex -44.5887 -40.1478 -22.5
      vertex -8.09017 -5.87785 -22.5
    endloop
  endfacet
  facet normal 0 0 -1
    outer loop
      vertex -44.5887 -40.1478 -22.5
      vertex -7.43145 -6.69131 -22.5
      vertex -40.1478 -44.5887 -22.5
    endloop
  endfacet
  facet normal 0 0 -1
    outer loop
      vertex 7.43145 6.69131 -22.5
      vertex 44.5887 40.1478 -22.5
      vertex 8.09017 5.87785 -22.5
    endloop
  endfacet
  facet normal -0 0 -1
    outer loop
      vertex 44.5887 40.1478 -22.5
      vertex 7.43145 6.69131 -22.5
      vertex 40.1478 44.5887 -22.5
    endloop
  endfacet
  facet normal 0 0 -1
    outer loop
      vertex 6.69131 7.43145 -22.5
      vertex 40.1478 44.5887 -22.5
      vertex 7.43145 6.69131 -22.5
    endloop
  endfacet
  facet normal -0 0 -1
    outer loop
      vertex 40.1478 44.5887 -22.5
      vertex 6.69131 7.43145 -22.5
      vertex 35.2671 48.541 -22.5
    endloop
  endfacet
  facet normal 0 0 -1
    outer loop
      vertex 5.87785 8.09017 -22.5
      vertex 35.2671 48.541 -22.5
      vertex 6.69131 7.43145 -22.5
    endloop
  endfacet
  facet normal -0 0 -1
    outer loop
      vertex 35.2671 48.541 -22.5
      vertex 5.87785 8.09017 -22.5
      vertex 30 51.9615 -22.5
    endloop
  endfacet
  facet normal 0 0 -1
    outer loop
      vertex 5 8.66025 -22.5
      vertex 30 51.9615 -22.5
      vertex 5.87785 8.09017 -22.5
    endloop
  endfacet
  facet normal -0 0 -1
    outer loop
      vertex 30 51.9615 -22.5
      vertex 5 8.66025 -22.5
      vertex 24.4042 54.8127 -22.5
    endloop
  endfacet
  facet normal 0 0 -1
    outer loop
      vertex 4.06737 9.13545 -22.5
      vertex 24.4042 54.8127 -22.5
      vertex 5 8.66025 -22.5
    endloop
  endfacet
  facet normal -0 0 -1
    outer loop
      vertex 24.4042 54.8127 -22.5
      vertex 4.06737 9.13545 -22.5
      vertex 18.541 57.0634 -22.5
    endloop
  endfacet
  facet normal 0 0 -1
    outer loop
      vertex 3.09017 9.51056 -22.5
      vertex 18.541 57.0634 -22.5
      vertex 4.06737 9.13545 -22.5
    endloop
  endfacet
  facet normal -0 0 -1
    outer loop
      vertex 18.541 57.0634 -22.5
      vertex 3.09017 9.51056 -22.5
      vertex 12.4747 58.6889 -22.5
    endloop
  endfacet
  facet normal 0 0 -1
    outer loop
      vertex 2.07912 9.78148 -22.5
      vertex 12.4747 58.6889 -22.5
      vertex 3.09017 9.51056 -22.5
    endloop
  endfacet
  facet normal -0 0 -1
    outer loop
      vertex 12.4747 58.6889 -22.5
      vertex 2.07912 9.78148 -22.5
      vertex 6.27171 59.6713 -22.5
    endloop
  endfacet
  facet normal 0 0 -1
    outer loop
      vertex 1.04528 9.94522 -22.5
      vertex 6.27171 59.6713 -22.5
      vertex 2.07912 9.78148 -22.5
    endloop
  endfacet
  facet normal 0 0 -1
    outer loop
      vertex 0 10 -22.5
      vertex 6.27171 59.6713 -22.5
      vertex 1.04528 9.94522 -22.5
    endloop
  endfacet
  facet normal 0 0 -1
    outer loop
      vertex 0 10 -22.5
      vertex 0 60 -22.5
      vertex 6.27171 59.6713 -22.5
    endloop
  endfacet
  facet normal 0 0 -1
    outer loop
      vertex -1.04528 9.94522 -22.5
      vertex 0 60 -22.5
      vertex 0 10 -22.5
    endloop
  endfacet
  facet normal 0 0 -1
    outer loop
      vertex -6.27171 59.6713 -22.5
      vertex -1.04528 9.94522 -22.5
      vertex -2.07912 9.78148 -22.5
    endloop
  endfacet
  facet normal 0 0 -1
    outer loop
      vertex -12.4747 58.6889 -22.5
      vertex -2.07912 9.78148 -22.5
      vertex -3.09017 9.51056 -22.5
    endloop
  endfacet
  facet normal 0 0 -1
    outer loop
      vertex -18.541 57.0634 -22.5
      vertex -3.09017 9.51056 -22.5
      vertex -4.06737 9.13545 -22.5
    endloop
  endfacet
  facet normal 0 0 -1
    outer loop
      vertex -24.4042 54.8127 -22.5
      vertex -4.06737 9.13545 -22.5
      vertex -5 8.66025 -22.5
    endloop
  endfacet
  facet normal 0 0 -1
    outer loop
      vertex -30 51.9615 -22.5
      vertex -5 8.66025 -22.5
      vertex -5.87785 8.09017 -22.5
    endloop
  endfacet
  facet normal 0 0 -1
    outer loop
      vertex -1.04528 9.94522 -22.5
      vertex -6.27171 59.6713 -22.5
      vertex 0 60 -22.5
    endloop
  endfacet
  facet normal 0 0 -1
    outer loop
      vertex -35.2671 48.541 -22.5
      vertex -5.87785 8.09017 -22.5
      vertex -6.69131 7.43145 -22.5
    endloop
  endfacet
  facet normal 0 0 -1
    outer loop
      vertex -40.1478 44.5887 -22.5
      vertex -6.69131 7.43145 -22.5
      vertex -7.43145 6.69131 -22.5
    endloop
  endfacet
  facet normal 0 0 -1
    outer loop
      vertex -44.5887 40.1478 -22.5
      vertex -7.43145 6.69131 -22.5
      vertex -8.09017 5.87785 -22.5
    endloop
  endfacet
  facet normal 0 0 -1
    outer loop
      vertex -48.541 35.2671 -22.5
      vertex -8.09017 5.87785 -22.5
      vertex -8.66025 5 -22.5
    endloop
  endfacet
  facet normal 0 0 -1
    outer loop
      vertex -51.9615 30 -22.5
      vertex -8.66025 5 -22.5
      vertex -9.13545 4.06737 -22.5
    endloop
  endfacet
  facet normal 0 0 -1
    outer loop
      vertex -54.8127 24.4042 -22.5
      vertex -9.13545 4.06737 -22.5
      vertex -9.51056 3.09017 -22.5
    endloop
  endfacet
  facet normal 0 0 -1
    outer loop
      vertex -57.0634 18.541 -22.5
      vertex -9.51056 3.09017 -22.5
      vertex -9.78148 2.07912 -22.5
    endloop
  endfacet
  facet normal 0 0 -1
    outer loop
      vertex -58.6889 12.4747 -22.5
      vertex -9.78148 2.07912 -22.5
      vertex -9.94522 1.04528 -22.5
    endloop
  endfacet
  facet normal 0 0 -1
    outer loop
      vertex -2.07912 9.78148 -22.5
      vertex -12.4747 58.6889 -22.5
      vertex -6.27171 59.6713 -22.5
    endloop
  endfacet
  facet normal 0 0 -1
    outer loop
      vertex -59.6713 6.27171 -22.5
      vertex -9.94522 1.04528 -22.5
      vertex -10 0 -22.5
    endloop
  endfacet
  facet normal 0 0 -1
    outer loop
      vertex -48.541 -35.2671 -22.5
      vertex -8.09017 -5.87785 -22.5
      vertex -44.5887 -40.1478 -22.5
    endloop
  endfacet
  facet normal -0 0 -1
    outer loop
      vertex -8.09017 -5.87785 -22.5
      vertex -48.541 -35.2671 -22.5
      vertex -8.66025 -5 -22.5
    endloop
  endfacet
  facet normal 0 0 -1
    outer loop
      vertex -3.09017 9.51056 -22.5
      vertex -18.541 57.0634 -22.5
      vertex -12.4747 58.6889 -22.5
    endloop
  endfacet
  facet normal 0 0 -1
    outer loop
      vertex -51.9615 -30 -22.5
      vertex -8.66025 -5 -22.5
      vertex -48.541 -35.2671 -22.5
    endloop
  endfacet
  facet normal 0 0 -1
    outer loop
      vertex -4.06737 9.13545 -22.5
      vertex -24.4042 54.8127 -22.5
      vertex -18.541 57.0634 -22.5
    endloop
  endfacet
  facet normal -0 0 -1
    outer loop
      vertex -8.66025 -5 -22.5
      vertex -51.9615 -30 -22.5
      vertex -9.13545 -4.06737 -22.5
    endloop
  endfacet
  facet normal 0 0 -1
    outer loop
      vertex -5 8.66025 -22.5
      vertex -30 51.9615 -22.5
      vertex -24.4042 54.8127 -22.5
    endloop
  endfacet
  facet normal 0 0 -1
    outer loop
      vertex -54.8127 -24.4042 -22.5
      vertex -9.13545 -4.06737 -22.5
      vertex -51.9615 -30 -22.5
    endloop
  endfacet
  facet normal 0 0 -1
    outer loop
      vertex -5.87785 8.09017 -22.5
      vertex -35.2671 48.541 -22.5
      vertex -30 51.9615 -22.5
    endloop
  endfacet
  facet normal -0 0 -1
    outer loop
      vertex -9.13545 -4.06737 -22.5
      vertex -54.8127 -24.4042 -22.5
      vertex -9.51056 -3.09017 -22.5
    endloop
  endfacet
  facet normal 0 0 -1
    outer loop
      vertex -6.69131 7.43145 -22.5
      vertex -40.1478 44.5887 -22.5
      vertex -35.2671 48.541 -22.5
    endloop
  endfacet
  facet normal 0 0 -1
    outer loop
      vertex -57.0634 -18.541 -22.5
      vertex -9.51056 -3.09017 -22.5
      vertex -54.8127 -24.4042 -22.5
    endloop
  endfacet
  facet normal 0 0 -1
    outer loop
      vertex -7.43145 6.69131 -22.5
      vertex -44.5887 40.1478 -22.5
      vertex -40.1478 44.5887 -22.5
    endloop
  endfacet
  facet normal -0 0 -1
    outer loop
      vertex -9.51056 -3.09017 -22.5
      vertex -57.0634 -18.541 -22.5
      vertex -9.78148 -2.07912 -22.5
    endloop
  endfacet
  facet normal 0 0 -1
    outer loop
      vertex -8.09017 5.87785 -22.5
      vertex -48.541 35.2671 -22.5
      vertex -44.5887 40.1478 -22.5
    endloop
  endfacet
  facet normal 0 0 -1
    outer loop
      vertex -58.6889 -12.4747 -22.5
      vertex -9.78148 -2.07912 -22.5
      vertex -57.0634 -18.541 -22.5
    endloop
  endfacet
  facet normal 0 0 -1
    outer loop
      vertex -8.66025 5 -22.5
      vertex -51.9615 30 -22.5
      vertex -48.541 35.2671 -22.5
    endloop
  endfacet
  facet normal -0 0 -1
    outer loop
      vertex -9.78148 -2.07912 -22.5
      vertex -58.6889 -12.4747 -22.5
      vertex -9.94522 -1.04528 -22.5
    endloop
  endfacet
  facet normal 0 0 -1
    outer loop
      vertex -9.13545 4.06737 -22.5
      vertex -54.8127 24.4042 -22.5
      vertex -51.9615 30 -22.5
    endloop
  endfacet
  facet normal 0 0 -1
    outer loop
      vertex -59.6713 -6.27171 -22.5
      vertex -9.94522 -1.04528 -22.5
      vertex -58.6889 -12.4747 -22.5
    endloop
  endfacet
  facet normal 0 0 -1
    outer loop
      vertex -9.51056 3.09017 -22.5
      vertex -57.0634 18.541 -22.5
      vertex -54.8127 24.4042 -22.5
    endloop
  endfacet
  facet normal -0 0 -1
    outer loop
      vertex -9.94522 -1.04528 -22.5
      vertex -59.6713 -6.27171 -22.5
      vertex -10 0 -22.5
    endloop
  endfacet
  facet normal 0 0 -1
    outer loop
      vertex -9.78148 2.07912 -22.5
      vertex -58.6889 12.4747 -22.5
      vertex -57.0634 18.541 -22.5
    endloop
  endfacet
  facet normal 0 0 -1
    outer loop
      vertex -60 0 -22.5
      vertex -10 0 -22.5
      vertex -59.6713 -6.27171 -22.5
    endloop
  endfacet
  facet normal 0 0 -1
    outer loop
      vertex -9.94522 1.04528 -22.5
      vertex -59.6713 6.27171 -22.5
      vertex -58.6889 12.4747 -22.5
    endloop
  endfacet
  facet normal 0 0 -1
    outer loop
      vertex -10 0 -22.5
      vertex -60 0 -22.5
      vertex -59.6713 6.27171 -22.5
    endloop
  endfacet
  facet normal -0.777147 0.629319 0
    outer loop
      vertex -48.541 35.2671 -22.5
      vertex -44.5887 40.1478 22.5
      vertex -44.5887 40.1478 -22.5
    endloop
  endfacet
  facet normal -0.777147 0.629319 0
    outer loop
      vertex -44.5887 40.1478 22.5
      vertex -48.541 35.2671 -22.5
      vertex -48.541 35.2671 22.5
    endloop
  endfacet
  facet normal -0.629319 0.777147 0
    outer loop
      vertex -35.2671 48.541 -22.5
      vertex -40.1478 44.5887 22.5
      vertex -35.2671 48.541 22.5
    endloop
  endfacet
  facet normal -0.629319 0.777147 0
    outer loop
      vertex -40.1478 44.5887 22.5
      vertex -35.2671 48.541 -22.5
      vertex -40.1478 44.5887 -22.5
    endloop
  endfacet
  facet normal -0.54464 0.83867 0
    outer loop
      vertex -30 51.9615 -22.5
      vertex -35.2671 48.541 22.5
      vertex -30 51.9615 22.5
    endloop
  endfacet
  facet normal -0.54464 0.83867 0
    outer loop
      vertex -35.2671 48.541 22.5
      vertex -30 51.9615 -22.5
      vertex -35.2671 48.541 -22.5
    endloop
  endfacet
  facet normal -0.891007 -0.45399 0
    outer loop
      vertex -51.9615 -30 -22.5
      vertex -54.8127 -24.4042 22.5
      vertex -54.8127 -24.4042 -22.5
    endloop
  endfacet
  facet normal -0.891007 -0.45399 0
    outer loop
      vertex -54.8127 -24.4042 22.5
      vertex -51.9615 -30 -22.5
      vertex -51.9615 -30 22.5
    endloop
  endfacet
  facet normal 0.629319 -0.777147 0
    outer loop
      vertex 35.2671 -48.541 -22.5
      vertex 40.1478 -44.5887 22.5
      vertex 35.2671 -48.541 22.5
    endloop
  endfacet
  facet normal 0.629319 -0.777147 0
    outer loop
      vertex 40.1478 -44.5887 22.5
      vertex 35.2671 -48.541 -22.5
      vertex 40.1478 -44.5887 -22.5
    endloop
  endfacet
  facet normal -0.83867 -0.54464 0
    outer loop
      vertex -48.541 -35.2671 -22.5
      vertex -51.9615 -30 22.5
      vertex -51.9615 -30 -22.5
    endloop
  endfacet
  facet normal -0.83867 -0.54464 0
    outer loop
      vertex -51.9615 -30 22.5
      vertex -48.541 -35.2671 -22.5
      vertex -48.541 -35.2671 22.5
    endloop
  endfacet
  facet normal -0.98769 -0.156426 0
    outer loop
      vertex -58.6889 -12.4747 -22.5
      vertex -59.6713 -6.27171 22.5
      vertex -59.6713 -6.27171 -22.5
    endloop
  endfacet
  facet normal -0.98769 -0.156426 0
    outer loop
      vertex -59.6713 -6.27171 22.5
      vertex -58.6889 -12.4747 -22.5
      vertex -58.6889 -12.4747 22.5
    endloop
  endfacet
  facet normal -0.933579 -0.358372 0
    outer loop
      vertex -54.8127 -24.4042 -22.5
      vertex -57.0634 -18.541 22.5
      vertex -57.0634 -18.541 -22.5
    endloop
  endfacet
  facet normal -0.933579 -0.358372 0
    outer loop
      vertex -57.0634 -18.541 22.5
      vertex -54.8127 -24.4042 -22.5
      vertex -54.8127 -24.4042 22.5
    endloop
  endfacet
  facet normal -0.777147 -0.629319 0
    outer loop
      vertex -44.5887 -40.1478 -22.5
      vertex -48.541 -35.2671 22.5
      vertex -48.541 -35.2671 -22.5
    endloop
  endfacet
  facet normal -0.777147 -0.629319 0
    outer loop
      vertex -48.541 -35.2671 22.5
      vertex -44.5887 -40.1478 -22.5
      vertex -44.5887 -40.1478 22.5
    endloop
  endfacet
  facet normal 0.54464 -0.83867 0
    outer loop
      vertex 30 -51.9615 -22.5
      vertex 35.2671 -48.541 22.5
      vertex 30 -51.9615 22.5
    endloop
  endfacet
  facet normal 0.54464 -0.83867 0
    outer loop
      vertex 35.2671 -48.541 22.5
      vertex 30 -51.9615 -22.5
      vertex 35.2671 -48.541 -22.5
    endloop
  endfacet
  facet normal 0.933579 -0.358372 0
    outer loop
      vertex 54.8127 -24.4042 22.5
      vertex 57.0634 -18.541 -22.5
      vertex 57.0634 -18.541 22.5
    endloop
  endfacet
  facet normal 0.933579 -0.358372 0
    outer loop
      vertex 57.0634 -18.541 -22.5
      vertex 54.8127 -24.4042 22.5
      vertex 54.8127 -24.4042 -22.5
    endloop
  endfacet
  facet normal -0.0523381 -0.998629 0
    outer loop
      vertex -6.27171 -59.6713 -22.5
      vertex 0 -60 22.5
      vertex -6.27171 -59.6713 22.5
    endloop
  endfacet
  facet normal -0.0523381 -0.998629 -0
    outer loop
      vertex 0 -60 22.5
      vertex -6.27171 -59.6713 -22.5
      vertex 0 -60 -22.5
    endloop
  endfacet
  facet normal -0.998629 0.0523381 0
    outer loop
      vertex -60 0 -22.5
      vertex -59.6713 6.27171 22.5
      vertex -59.6713 6.27171 -22.5
    endloop
  endfacet
  facet normal -0.998629 0.0523381 0
    outer loop
      vertex -59.6713 6.27171 22.5
      vertex -60 0 -22.5
      vertex -60 0 22.5
    endloop
  endfacet
  facet normal -0.358372 -0.933579 0
    outer loop
      vertex -24.4042 -54.8127 -22.5
      vertex -18.541 -57.0634 22.5
      vertex -24.4042 -54.8127 22.5
    endloop
  endfacet
  facet normal -0.358372 -0.933579 -0
    outer loop
      vertex -18.541 -57.0634 22.5
      vertex -24.4042 -54.8127 -22.5
      vertex -18.541 -57.0634 -22.5
    endloop
  endfacet
  facet normal 0.707107 -0.707107 0
    outer loop
      vertex 40.1478 -44.5887 22.5
      vertex 44.5887 -40.1478 -22.5
      vertex 44.5887 -40.1478 22.5
    endloop
  endfacet
  facet normal 0.707107 -0.707107 0
    outer loop
      vertex 44.5887 -40.1478 -22.5
      vertex 40.1478 -44.5887 22.5
      vertex 40.1478 -44.5887 -22.5
    endloop
  endfacet
  facet normal -0.987689 0.156431 0
    outer loop
      vertex 9.78148 -2.07912 -22.5
      vertex 9.94522 -1.04528 22.5
      vertex 9.94522 -1.04528 -22.5
    endloop
  endfacet
  facet normal -0.987689 0.156431 0
    outer loop
      vertex 9.94522 -1.04528 22.5
      vertex 9.78148 -2.07912 -22.5
      vertex 9.78148 -2.07912 22.5
    endloop
  endfacet
  facet normal -0.987689 -0.156431 0
    outer loop
      vertex 9.94522 1.04528 -22.5
      vertex 9.78148 2.07912 22.5
      vertex 9.78148 2.07912 -22.5
    endloop
  endfacet
  facet normal -0.987689 -0.156431 0
    outer loop
      vertex 9.78148 2.07912 22.5
      vertex 9.94522 1.04528 -22.5
      vertex 9.94522 1.04528 22.5
    endloop
  endfacet
  facet normal -0.99863 -0.0523352 0
    outer loop
      vertex 10 0 -22.5
      vertex 9.94522 1.04528 22.5
      vertex 9.94522 1.04528 -22.5
    endloop
  endfacet
  facet normal -0.99863 -0.0523352 0
    outer loop
      vertex 9.94522 1.04528 22.5
      vertex 10 0 -22.5
      vertex 10 0 22.5
    endloop
  endfacet
  facet normal -0.965923 -0.258828 0
    outer loop
      vertex 9.78148 2.07912 -22.5
      vertex 9.51056 3.09017 22.5
      vertex 9.51056 3.09017 -22.5
    endloop
  endfacet
  facet normal -0.965923 -0.258828 0
    outer loop
      vertex 9.51056 3.09017 22.5
      vertex 9.78148 2.07912 -22.5
      vertex 9.78148 2.07912 22.5
    endloop
  endfacet
  facet normal -0.838672 -0.544637 0
    outer loop
      vertex 8.66025 5 -22.5
      vertex 8.09017 5.87785 22.5
      vertex 8.09017 5.87785 -22.5
    endloop
  endfacet
  facet normal -0.838672 -0.544637 0
    outer loop
      vertex 8.09017 5.87785 22.5
      vertex 8.66025 5 -22.5
      vertex 8.66025 5 22.5
    endloop
  endfacet
  facet normal 0.0523352 -0.99863 0
    outer loop
      vertex -1.04528 9.94522 -22.5
      vertex 0 10 22.5
      vertex -1.04528 9.94522 22.5
    endloop
  endfacet
  facet normal 0.0523352 -0.99863 0
    outer loop
      vertex 0 10 22.5
      vertex -1.04528 9.94522 -22.5
      vertex 0 10 -22.5
    endloop
  endfacet
  facet normal -0.99863 0.0523352 0
    outer loop
      vertex 9.94522 -1.04528 -22.5
      vertex 10 0 22.5
      vertex 10 0 -22.5
    endloop
  endfacet
  facet normal -0.99863 0.0523352 0
    outer loop
      vertex 10 0 22.5
      vertex 9.94522 -1.04528 -22.5
      vertex 9.94522 -1.04528 22.5
    endloop
  endfacet
  facet normal -0.777149 -0.629316 0
    outer loop
      vertex 8.09017 5.87785 -22.5
      vertex 7.43145 6.69131 22.5
      vertex 7.43145 6.69131 -22.5
    endloop
  endfacet
  facet normal -0.777149 -0.629316 0
    outer loop
      vertex 7.43145 6.69131 22.5
      vertex 8.09017 5.87785 -22.5
      vertex 8.09017 5.87785 22.5
    endloop
  endfacet
  facet normal 0.987689 0.156431 0
    outer loop
      vertex -9.78148 -2.07912 22.5
      vertex -9.94522 -1.04528 -22.5
      vertex -9.94522 -1.04528 22.5
    endloop
  endfacet
  facet normal 0.987689 0.156431 0
    outer loop
      vertex -9.94522 -1.04528 -22.5
      vertex -9.78148 -2.07912 22.5
      vertex -9.78148 -2.07912 -22.5
    endloop
  endfacet
  facet normal 0.891006 -0.453991 0
    outer loop
      vertex -9.13545 4.06737 22.5
      vertex -8.66025 5 -22.5
      vertex -8.66025 5 22.5
    endloop
  endfacet
  facet normal 0.891006 -0.453991 0
    outer loop
      vertex -8.66025 5 -22.5
      vertex -9.13545 4.06737 22.5
      vertex -9.13545 4.06737 -22.5
    endloop
  endfacet
  facet normal -0.258828 -0.965923 0
    outer loop
      vertex 2.07912 9.78148 -22.5
      vertex 3.09017 9.51056 22.5
      vertex 2.07912 9.78148 22.5
    endloop
  endfacet
  facet normal -0.258828 -0.965923 -0
    outer loop
      vertex 3.09017 9.51056 22.5
      vertex 2.07912 9.78148 -22.5
      vertex 3.09017 9.51056 -22.5
    endloop
  endfacet
  facet normal -0.358366 -0.933581 0
    outer loop
      vertex 3.09017 9.51056 -22.5
      vertex 4.06737 9.13545 22.5
      vertex 3.09017 9.51056 22.5
    endloop
  endfacet
  facet normal -0.358366 -0.933581 -0
    outer loop
      vertex 4.06737 9.13545 22.5
      vertex 3.09017 9.51056 -22.5
      vertex 4.06737 9.13545 -22.5
    endloop
  endfacet
  facet normal 0.965923 0.258828 0
    outer loop
      vertex -9.51056 -3.09017 22.5
      vertex -9.78148 -2.07912 -22.5
      vertex -9.78148 -2.07912 22.5
    endloop
  endfacet
  facet normal 0.965923 0.258828 0
    outer loop
      vertex -9.78148 -2.07912 -22.5
      vertex -9.51056 -3.09017 22.5
      vertex -9.51056 -3.09017 -22.5
    endloop
  endfacet
  facet normal -0.629316 -0.777149 0
    outer loop
      vertex 5.87785 8.09017 -22.5
      vertex 6.69131 7.43145 22.5
      vertex 5.87785 8.09017 22.5
    endloop
  endfacet
  facet normal -0.629316 -0.777149 -0
    outer loop
      vertex 6.69131 7.43145 22.5
      vertex 5.87785 8.09017 -22.5
      vertex 6.69131 7.43145 -22.5
    endloop
  endfacet
  facet normal -0.358366 0.933581 0
    outer loop
      vertex 4.06737 -9.13545 -22.5
      vertex 3.09017 -9.51056 22.5
      vertex 4.06737 -9.13545 22.5
    endloop
  endfacet
  facet normal -0.358366 0.933581 0
    outer loop
      vertex 3.09017 -9.51056 22.5
      vertex 4.06737 -9.13545 -22.5
      vertex 3.09017 -9.51056 -22.5
    endloop
  endfacet
  facet normal 0.777149 -0.629316 0
    outer loop
      vertex -8.09017 5.87785 22.5
      vertex -7.43145 6.69131 -22.5
      vertex -7.43145 6.69131 22.5
    endloop
  endfacet
  facet normal 0.777149 -0.629316 0
    outer loop
      vertex -7.43145 6.69131 -22.5
      vertex -8.09017 5.87785 22.5
      vertex -8.09017 5.87785 -22.5
    endloop
  endfacet
  facet normal 0.258828 -0.965923 0
    outer loop
      vertex -3.09017 9.51056 -22.5
      vertex -2.07912 9.78148 22.5
      vertex -3.09017 9.51056 22.5
    endloop
  endfacet
  facet normal 0.258828 -0.965923 0
    outer loop
      vertex -2.07912 9.78148 22.5
      vertex -3.09017 9.51056 -22.5
      vertex -2.07912 9.78148 -22.5
    endloop
  endfacet
  facet normal 0.707107 -0.707107 0
    outer loop
      vertex -7.43145 6.69131 22.5
      vertex -6.69131 7.43145 -22.5
      vertex -6.69131 7.43145 22.5
    endloop
  endfacet
  facet normal 0.707107 -0.707107 0
    outer loop
      vertex -6.69131 7.43145 -22.5
      vertex -7.43145 6.69131 22.5
      vertex -7.43145 6.69131 -22.5
    endloop
  endfacet
  facet normal 0.544637 -0.838672 0
    outer loop
      vertex -5.87785 8.09017 -22.5
      vertex -5 8.66025 22.5
      vertex -5.87785 8.09017 22.5
    endloop
  endfacet
  facet normal 0.544637 -0.838672 0
    outer loop
      vertex -5 8.66025 22.5
      vertex -5.87785 8.09017 -22.5
      vertex -5 8.66025 -22.5
    endloop
  endfacet
  facet normal -0.965923 0.258828 0
    outer loop
      vertex 9.51056 -3.09017 -22.5
      vertex 9.78148 -2.07912 22.5
      vertex 9.78148 -2.07912 -22.5
    endloop
  endfacet
  facet normal -0.965923 0.258828 0
    outer loop
      vertex 9.78148 -2.07912 22.5
      vertex 9.51056 -3.09017 -22.5
      vertex 9.51056 -3.09017 22.5
    endloop
  endfacet
  facet normal -0.0523352 0.99863 0
    outer loop
      vertex 1.04528 -9.94522 -22.5
      vertex 0 -10 22.5
      vertex 1.04528 -9.94522 22.5
    endloop
  endfacet
  facet normal -0.0523352 0.99863 0
    outer loop
      vertex 0 -10 22.5
      vertex 1.04528 -9.94522 -22.5
      vertex 0 -10 -22.5
    endloop
  endfacet
  facet normal -0.544637 -0.838672 0
    outer loop
      vertex 5 8.66025 -22.5
      vertex 5.87785 8.09017 22.5
      vertex 5 8.66025 22.5
    endloop
  endfacet
  facet normal -0.544637 -0.838672 -0
    outer loop
      vertex 5.87785 8.09017 22.5
      vertex 5 8.66025 -22.5
      vertex 5.87785 8.09017 -22.5
    endloop
  endfacet
  facet normal 0.838672 0.544637 0
    outer loop
      vertex -8.09017 -5.87785 22.5
      vertex -8.66025 -5 -22.5
      vertex -8.66025 -5 22.5
    endloop
  endfacet
  facet normal 0.838672 0.544637 0
    outer loop
      vertex -8.66025 -5 -22.5
      vertex -8.09017 -5.87785 22.5
      vertex -8.09017 -5.87785 -22.5
    endloop
  endfacet
  facet normal -0.156431 0.987689 0
    outer loop
      vertex 2.07912 -9.78148 -22.5
      vertex 1.04528 -9.94522 22.5
      vertex 2.07912 -9.78148 22.5
    endloop
  endfacet
  facet normal -0.156431 0.987689 0
    outer loop
      vertex 1.04528 -9.94522 22.5
      vertex 2.07912 -9.78148 -22.5
      vertex 1.04528 -9.94522 -22.5
    endloop
  endfacet
  facet normal 0.156431 0.987689 -0
    outer loop
      vertex -1.04528 -9.94522 -22.5
      vertex -2.07912 -9.78148 22.5
      vertex -1.04528 -9.94522 22.5
    endloop
  endfacet
  facet normal 0.156431 0.987689 0
    outer loop
      vertex -2.07912 -9.78148 22.5
      vertex -1.04528 -9.94522 -22.5
      vertex -2.07912 -9.78148 -22.5
    endloop
  endfacet
  facet normal 0.453991 -0.891006 0
    outer loop
      vertex -5 8.66025 -22.5
      vertex -4.06737 9.13545 22.5
      vertex -5 8.66025 22.5
    endloop
  endfacet
  facet normal 0.453991 -0.891006 0
    outer loop
      vertex -4.06737 9.13545 22.5
      vertex -5 8.66025 -22.5
      vertex -4.06737 9.13545 -22.5
    endloop
  endfacet
  facet normal 0.453991 0.891006 -0
    outer loop
      vertex -4.06737 -9.13545 -22.5
      vertex -5 -8.66025 22.5
      vertex -4.06737 -9.13545 22.5
    endloop
  endfacet
  facet normal 0.453991 0.891006 0
    outer loop
      vertex -5 -8.66025 22.5
      vertex -4.06737 -9.13545 -22.5
      vertex -5 -8.66025 -22.5
    endloop
  endfacet
  facet normal 0.358366 -0.933581 0
    outer loop
      vertex -4.06737 9.13545 -22.5
      vertex -3.09017 9.51056 22.5
      vertex -4.06737 9.13545 22.5
    endloop
  endfacet
  facet normal 0.358366 -0.933581 0
    outer loop
      vertex -3.09017 9.51056 22.5
      vertex -4.06737 9.13545 -22.5
      vertex -3.09017 9.51056 -22.5
    endloop
  endfacet
  facet normal -0.453991 -0.891006 0
    outer loop
      vertex 4.06737 9.13545 -22.5
      vertex 5 8.66025 22.5
      vertex 4.06737 9.13545 22.5
    endloop
  endfacet
  facet normal -0.453991 -0.891006 -0
    outer loop
      vertex 5 8.66025 22.5
      vertex 4.06737 9.13545 -22.5
      vertex 5 8.66025 -22.5
    endloop
  endfacet
  facet normal -0.891006 0.453991 0
    outer loop
      vertex 8.66025 -5 -22.5
      vertex 9.13545 -4.06737 22.5
      vertex 9.13545 -4.06737 -22.5
    endloop
  endfacet
  facet normal -0.891006 0.453991 0
    outer loop
      vertex 9.13545 -4.06737 22.5
      vertex 8.66025 -5 -22.5
      vertex 8.66025 -5 22.5
    endloop
  endfacet
  facet normal -0.707107 -0.707107 0
    outer loop
      vertex 7.43145 6.69131 -22.5
      vertex 6.69131 7.43145 22.5
      vertex 6.69131 7.43145 -22.5
    endloop
  endfacet
  facet normal -0.707107 -0.707107 0
    outer loop
      vertex 6.69131 7.43145 22.5
      vertex 7.43145 6.69131 -22.5
      vertex 7.43145 6.69131 22.5
    endloop
  endfacet
  facet normal 0.629316 0.777149 -0
    outer loop
      vertex -5.87785 -8.09017 -22.5
      vertex -6.69131 -7.43145 22.5
      vertex -5.87785 -8.09017 22.5
    endloop
  endfacet
  facet normal 0.629316 0.777149 0
    outer loop
      vertex -6.69131 -7.43145 22.5
      vertex -5.87785 -8.09017 -22.5
      vertex -6.69131 -7.43145 -22.5
    endloop
  endfacet
  facet normal -0.838672 0.544637 0
    outer loop
      vertex 8.09017 -5.87785 -22.5
      vertex 8.66025 -5 22.5
      vertex 8.66025 -5 -22.5
    endloop
  endfacet
  facet normal -0.838672 0.544637 0
    outer loop
      vertex 8.66025 -5 22.5
      vertex 8.09017 -5.87785 -22.5
      vertex 8.09017 -5.87785 22.5
    endloop
  endfacet
  facet normal -0.453991 0.891006 0
    outer loop
      vertex 5 -8.66025 -22.5
      vertex 4.06737 -9.13545 22.5
      vertex 5 -8.66025 22.5
    endloop
  endfacet
  facet normal -0.453991 0.891006 0
    outer loop
      vertex 4.06737 -9.13545 22.5
      vertex 5 -8.66025 -22.5
      vertex 4.06737 -9.13545 -22.5
    endloop
  endfacet
  facet normal 0.156431 -0.987689 0
    outer loop
      vertex -2.07912 9.78148 -22.5
      vertex -1.04528 9.94522 22.5
      vertex -2.07912 9.78148 22.5
    endloop
  endfacet
  facet normal 0.156431 -0.987689 0
    outer loop
      vertex -1.04528 9.94522 22.5
      vertex -2.07912 9.78148 -22.5
      vertex -1.04528 9.94522 -22.5
    endloop
  endfacet
  facet normal -0.933581 -0.358366 0
    outer loop
      vertex 9.51056 3.09017 -22.5
      vertex 9.13545 4.06737 22.5
      vertex 9.13545 4.06737 -22.5
    endloop
  endfacet
  facet normal -0.933581 -0.358366 0
    outer loop
      vertex 9.13545 4.06737 22.5
      vertex 9.51056 3.09017 -22.5
      vertex 9.51056 3.09017 22.5
    endloop
  endfacet
  facet normal -0.777149 0.629316 0
    outer loop
      vertex 7.43145 -6.69131 -22.5
      vertex 8.09017 -5.87785 22.5
      vertex 8.09017 -5.87785 -22.5
    endloop
  endfacet
  facet normal -0.777149 0.629316 0
    outer loop
      vertex 8.09017 -5.87785 22.5
      vertex 7.43145 -6.69131 -22.5
      vertex 7.43145 -6.69131 22.5
    endloop
  endfacet
  facet normal -0.933581 0.358366 0
    outer loop
      vertex 9.13545 -4.06737 -22.5
      vertex 9.51056 -3.09017 22.5
      vertex 9.51056 -3.09017 -22.5
    endloop
  endfacet
  facet normal -0.933581 0.358366 0
    outer loop
      vertex 9.51056 -3.09017 22.5
      vertex 9.13545 -4.06737 -22.5
      vertex 9.13545 -4.06737 22.5
    endloop
  endfacet
  facet normal 0.987689 -0.156431 0
    outer loop
      vertex -9.94522 1.04528 22.5
      vertex -9.78148 2.07912 -22.5
      vertex -9.78148 2.07912 22.5
    endloop
  endfacet
  facet normal 0.987689 -0.156431 0
    outer loop
      vertex -9.78148 2.07912 -22.5
      vertex -9.94522 1.04528 22.5
      vertex -9.94522 1.04528 -22.5
    endloop
  endfacet
  facet normal -0.0523352 -0.99863 0
    outer loop
      vertex 0 10 -22.5
      vertex 1.04528 9.94522 22.5
      vertex 0 10 22.5
    endloop
  endfacet
  facet normal -0.0523352 -0.99863 -0
    outer loop
      vertex 1.04528 9.94522 22.5
      vertex 0 10 -22.5
      vertex 1.04528 9.94522 -22.5
    endloop
  endfacet
  facet normal -0.891006 -0.453991 0
    outer loop
      vertex 9.13545 4.06737 -22.5
      vertex 8.66025 5 22.5
      vertex 8.66025 5 -22.5
    endloop
  endfacet
  facet normal -0.891006 -0.453991 0
    outer loop
      vertex 8.66025 5 22.5
      vertex 9.13545 4.06737 -22.5
      vertex 9.13545 4.06737 22.5
    endloop
  endfacet
  facet normal 0.838672 -0.544637 0
    outer loop
      vertex -8.66025 5 22.5
      vertex -8.09017 5.87785 -22.5
      vertex -8.09017 5.87785 22.5
    endloop
  endfacet
  facet normal 0.838672 -0.544637 0
    outer loop
      vertex -8.09017 5.87785 -22.5
      vertex -8.66025 5 22.5
      vertex -8.66025 5 -22.5
    endloop
  endfacet
  facet normal 0.629316 -0.777149 0
    outer loop
      vertex -6.69131 7.43145 -22.5
      vertex -5.87785 8.09017 22.5
      vertex -6.69131 7.43145 22.5
    endloop
  endfacet
  facet normal 0.629316 -0.777149 0
    outer loop
      vertex -5.87785 8.09017 22.5
      vertex -6.69131 7.43145 -22.5
      vertex -5.87785 8.09017 -22.5
    endloop
  endfacet
  facet normal 0.933581 0.358366 0
    outer loop
      vertex -9.13545 -4.06737 22.5
      vertex -9.51056 -3.09017 -22.5
      vertex -9.51056 -3.09017 22.5
    endloop
  endfacet
  facet normal 0.933581 0.358366 0
    outer loop
      vertex -9.51056 -3.09017 -22.5
      vertex -9.13545 -4.06737 22.5
      vertex -9.13545 -4.06737 -22.5
    endloop
  endfacet
  facet normal 0.933581 -0.358366 0
    outer loop
      vertex -9.51056 3.09017 22.5
      vertex -9.13545 4.06737 -22.5
      vertex -9.13545 4.06737 22.5
    endloop
  endfacet
  facet normal 0.933581 -0.358366 0
    outer loop
      vertex -9.13545 4.06737 -22.5
      vertex -9.51056 3.09017 22.5
      vertex -9.51056 3.09017 -22.5
    endloop
  endfacet
  facet normal 0.891006 0.453991 0
    outer loop
      vertex -8.66025 -5 22.5
      vertex -9.13545 -4.06737 -22.5
      vertex -9.13545 -4.06737 22.5
    endloop
  endfacet
  facet normal 0.891006 0.453991 0
    outer loop
      vertex -9.13545 -4.06737 -22.5
      vertex -8.66025 -5 22.5
      vertex -8.66025 -5 -22.5
    endloop
  endfacet
  facet normal -0.258828 0.965923 0
    outer loop
      vertex 3.09017 -9.51056 -22.5
      vertex 2.07912 -9.78148 22.5
      vertex 3.09017 -9.51056 22.5
    endloop
  endfacet
  facet normal -0.258828 0.965923 0
    outer loop
      vertex 2.07912 -9.78148 22.5
      vertex 3.09017 -9.51056 -22.5
      vertex 2.07912 -9.78148 -22.5
    endloop
  endfacet
  facet normal -0.629316 0.777149 0
    outer loop
      vertex 6.69131 -7.43145 -22.5
      vertex 5.87785 -8.09017 22.5
      vertex 6.69131 -7.43145 22.5
    endloop
  endfacet
  facet normal -0.629316 0.777149 0
    outer loop
      vertex 5.87785 -8.09017 22.5
      vertex 6.69131 -7.43145 -22.5
      vertex 5.87785 -8.09017 -22.5
    endloop
  endfacet
  facet normal 0.258828 0.965923 -0
    outer loop
      vertex -2.07912 -9.78148 -22.5
      vertex -3.09017 -9.51056 22.5
      vertex -2.07912 -9.78148 22.5
    endloop
  endfacet
  facet normal 0.258828 0.965923 0
    outer loop
      vertex -3.09017 -9.51056 22.5
      vertex -2.07912 -9.78148 -22.5
      vertex -3.09017 -9.51056 -22.5
    endloop
  endfacet
  facet normal 0.99863 0.0523352 0
    outer loop
      vertex -9.94522 -1.04528 22.5
      vertex -10 0 -22.5
      vertex -10 0 22.5
    endloop
  endfacet
  facet normal 0.99863 0.0523352 0
    outer loop
      vertex -10 0 -22.5
      vertex -9.94522 -1.04528 22.5
      vertex -9.94522 -1.04528 -22.5
    endloop
  endfacet
  facet normal -0.156431 -0.987689 0
    outer loop
      vertex 1.04528 9.94522 -22.5
      vertex 2.07912 9.78148 22.5
      vertex 1.04528 9.94522 22.5
    endloop
  endfacet
  facet normal -0.156431 -0.987689 -0
    outer loop
      vertex 2.07912 9.78148 22.5
      vertex 1.04528 9.94522 -22.5
      vertex 2.07912 9.78148 -22.5
    endloop
  endfacet
  facet normal 0.777149 0.629316 0
    outer loop
      vertex -7.43145 -6.69131 22.5
      vertex -8.09017 -5.87785 -22.5
      vertex -8.09017 -5.87785 22.5
    endloop
  endfacet
  facet normal 0.777149 0.629316 0
    outer loop
      vertex -8.09017 -5.87785 -22.5
      vertex -7.43145 -6.69131 22.5
      vertex -7.43145 -6.69131 -22.5
    endloop
  endfacet
  facet normal 0.965923 -0.258828 0
    outer loop
      vertex -9.78148 2.07912 22.5
      vertex -9.51056 3.09017 -22.5
      vertex -9.51056 3.09017 22.5
    endloop
  endfacet
  facet normal 0.965923 -0.258828 0
    outer loop
      vertex -9.51056 3.09017 -22.5
      vertex -9.78148 2.07912 22.5
      vertex -9.78148 2.07912 -22.5
    endloop
  endfacet
  facet normal 0.707107 0.707107 0
    outer loop
      vertex -6.69131 -7.43145 22.5
      vertex -7.43145 -6.69131 -22.5
      vertex -7.43145 -6.69131 22.5
    endloop
  endfacet
  facet normal 0.707107 0.707107 0
    outer loop
      vertex -7.43145 -6.69131 -22.5
      vertex -6.69131 -7.43145 22.5
      vertex -6.69131 -7.43145 -22.5
    endloop
  endfacet
  facet normal -0.544637 0.838672 0
    outer loop
      vertex 5.87785 -8.09017 -22.5
      vertex 5 -8.66025 22.5
      vertex 5.87785 -8.09017 22.5
    endloop
  endfacet
  facet normal -0.544637 0.838672 0
    outer loop
      vertex 5 -8.66025 22.5
      vertex 5.87785 -8.09017 -22.5
      vertex 5 -8.66025 -22.5
    endloop
  endfacet
  facet normal 0.358366 0.933581 -0
    outer loop
      vertex -3.09017 -9.51056 -22.5
      vertex -4.06737 -9.13545 22.5
      vertex -3.09017 -9.51056 22.5
    endloop
  endfacet
  facet normal 0.358366 0.933581 0
    outer loop
      vertex -4.06737 -9.13545 22.5
      vertex -3.09017 -9.51056 -22.5
      vertex -4.06737 -9.13545 -22.5
    endloop
  endfacet
  facet normal 0.0523352 0.99863 -0
    outer loop
      vertex 0 -10 -22.5
      vertex -1.04528 -9.94522 22.5
      vertex 0 -10 22.5
    endloop
  endfacet
  facet normal 0.0523352 0.99863 0
    outer loop
      vertex -1.04528 -9.94522 22.5
      vertex 0 -10 -22.5
      vertex -1.04528 -9.94522 -22.5
    endloop
  endfacet
  facet normal 0.99863 -0.0523352 0
    outer loop
      vertex -10 0 22.5
      vertex -9.94522 1.04528 -22.5
      vertex -9.94522 1.04528 22.5
    endloop
  endfacet
  facet normal 0.99863 -0.0523352 0
    outer loop
      vertex -9.94522 1.04528 -22.5
      vertex -10 0 22.5
      vertex -10 0 -22.5
    endloop
  endfacet
  facet normal 0.544637 0.838672 -0
    outer loop
      vertex -5 -8.66025 -22.5
      vertex -5.87785 -8.09017 22.5
      vertex -5 -8.66025 22.5
    endloop
  endfacet
  facet normal 0.544637 0.838672 0
    outer loop
      vertex -5.87785 -8.09017 22.5
      vertex -5 -8.66025 -22.5
      vertex -5.87785 -8.09017 -22.5
    endloop
  endfacet
  facet normal -0.707107 0.707107 0
    outer loop
      vertex 6.69131 -7.43145 -22.5
      vertex 7.43145 -6.69131 22.5
      vertex 7.43145 -6.69131 -22.5
    endloop
  endfacet
  facet normal -0.707107 0.707107 0
    outer loop
      vertex 7.43145 -6.69131 22.5
      vertex 6.69131 -7.43145 -22.5
      vertex 6.69131 -7.43145 22.5
    endloop
  endfacet
endsolid OpenSCAD_Model
