solid OpenSCAD_Model
  facet normal 1 0 0
    outer loop
      vertex 50 425 1872
      vertex 50 421 1868
      vertex 50 425 0
    endloop
  endfacet
  facet normal 1 0 0
    outer loop
      vertex 50 425 1872
      vertex 50 -421 1868
      vertex 50 421 1868
    endloop
  endfacet
  facet normal 1 -0 0
    outer loop
      vertex 50 -425 1872
      vertex 50 -421 1868
      vertex 50 425 1872
    endloop
  endfacet
  facet normal 1 0 0
    outer loop
      vertex 50 -425 0
      vertex 50 -421 1868
      vertex 50 -425 1872
    endloop
  endfacet
  facet normal 1 0 0
    outer loop
      vertex 50 -421 1868
      vertex 50 -425 0
      vertex 50 -421 0
    endloop
  endfacet
  facet normal 1 0 0
    outer loop
      vertex 50 425 0
      vertex 50 421 1868
      vertex 50 421 0
    endloop
  endfacet
  facet normal 0 0 -1
    outer loop
      vertex -50 421 0
      vertex 50 425 0
      vertex 50 421 0
    endloop
  endfacet
  facet normal -0 0 -1
    outer loop
      vertex 50 425 0
      vertex -50 421 0
      vertex -50 425 0
    endloop
  endfacet
  facet normal -1 0 0
    outer loop
      vertex -50 -421 0
      vertex -50 -425 0
      vertex -50 -421 1868
    endloop
  endfacet
  facet normal -1 0 0
    outer loop
      vertex -50 421 1868
      vertex -50 425 0
      vertex -50 421 0
    endloop
  endfacet
  facet normal -1 0 0
    outer loop
      vertex -50 425 0
      vertex -50 421 1868
      vertex -50 425 1872
    endloop
  endfacet
  facet normal -1 0 0
    outer loop
      vertex -50 -421 1868
      vertex -50 425 1872
      vertex -50 421 1868
    endloop
  endfacet
  facet normal -1 0 0
    outer loop
      vertex -50 -421 1868
      vertex -50 -425 1872
      vertex -50 425 1872
    endloop
  endfacet
  facet normal -1 0 0
    outer loop
      vertex -50 -425 1872
      vertex -50 -421 1868
      vertex -50 -425 0
    endloop
  endfacet
  facet normal 0 1 -0
    outer loop
      vertex 50 425 0
      vertex -50 425 1872
      vertex 50 425 1872
    endloop
  endfacet
  facet normal 0 1 0
    outer loop
      vertex -50 425 1872
      vertex 50 425 0
      vertex -50 425 0
    endloop
  endfacet
  facet normal 0 -1 0
    outer loop
      vertex -50 421 0
      vertex 50 421 1868
      vertex -50 421 1868
    endloop
  endfacet
  facet normal 0 -1 -0
    outer loop
      vertex 50 421 1868
      vertex -50 421 0
      vertex 50 421 0
    endloop
  endfacet
  facet normal 0 0 -1
    outer loop
      vertex -50 -425 0
      vertex 50 -421 0
      vertex 50 -425 0
    endloop
  endfacet
  facet normal -0 0 -1
    outer loop
      vertex 50 -421 0
      vertex -50 -425 0
      vertex -50 -421 0
    endloop
  endfacet
  facet normal 0 1 -0
    outer loop
      vertex 50 -421 0
      vertex -50 -421 1868
      vertex 50 -421 1868
    endloop
  endfacet
  facet normal 0 1 0
    outer loop
      vertex -50 -421 1868
      vertex 50 -421 0
      vertex -50 -421 0
    endloop
  endfacet
  facet normal 0 -1 0
    outer loop
      vertex -50 -425 0
      vertex 50 -425 1872
      vertex -50 -425 1872
    endloop
  endfacet
  facet normal 0 -1 -0
    outer loop
      vertex 50 -425 1872
      vertex -50 -425 0
      vertex 50 -425 0
    endloop
  endfacet
  facet normal -0 0 1
    outer loop
      vertex -50 425 1872
      vertex 50 -425 1872
      vertex 50 425 1872
    endloop
  endfacet
  facet normal 0 0 1
    outer loop
      vertex 50 -425 1872
      vertex -50 425 1872
      vertex -50 -425 1872
    endloop
  endfacet
  facet normal 0 0 -1
    outer loop
      vertex -50 -421 1868
      vertex 50 421 1868
      vertex 50 -421 1868
    endloop
  endfacet
  facet normal -0 0 -1
    outer loop
      vertex 50 421 1868
      vertex -50 -421 1868
      vertex -50 421 1868
    endloop
  endfacet
endsolid OpenSCAD_Model
