solid OpenSCAD_Model
  facet normal 1 0 0
    outer loop
      vertex 50 325 1872
      vertex 50 321 1868
      vertex 50 325 150
    endloop
  endfacet
  facet normal 1 0 0
    outer loop
      vertex 50 325 1872
      vertex 50 -321 1868
      vertex 50 321 1868
    endloop
  endfacet
  facet normal 1 -0 0
    outer loop
      vertex 50 -325 1872
      vertex 50 -321 1868
      vertex 50 325 1872
    endloop
  endfacet
  facet normal 1 0 0
    outer loop
      vertex 50 -325 150
      vertex 50 -321 1868
      vertex 50 -325 1872
    endloop
  endfacet
  facet normal 1 0 0
    outer loop
      vertex 50 -321 1868
      vertex 50 -325 150
      vertex 50 -321 150
    endloop
  endfacet
  facet normal 1 0 0
    outer loop
      vertex 50 325 150
      vertex 50 321 1868
      vertex 50 321 150
    endloop
  endfacet
  facet normal 1 -0 0
    outer loop
      vertex 50 321 50
      vertex 50 325 0
      vertex 50 325 50
    endloop
  endfacet
  facet normal 1 0 0
    outer loop
      vertex 50 325 0
      vertex 50 321 50
      vertex 50 321 0
    endloop
  endfacet
  facet normal 1 -0 0
    outer loop
      vertex 50 -325 50
      vertex 50 -321 0
      vertex 50 -321 50
    endloop
  endfacet
  facet normal 1 0 0
    outer loop
      vertex 50 -321 0
      vertex 50 -325 50
      vertex 50 -325 0
    endloop
  endfacet
  facet normal 0 0 -1
    outer loop
      vertex -50 321 0
      vertex 50 325 0
      vertex 50 321 0
    endloop
  endfacet
  facet normal -0 0 -1
    outer loop
      vertex 50 325 0
      vertex -50 321 0
      vertex -50 325 0
    endloop
  endfacet
  facet normal -1 0 0
    outer loop
      vertex -50 -325 50
      vertex -50 -321 0
      vertex -50 -325 0
    endloop
  endfacet
  facet normal -1 0 0
    outer loop
      vertex -50 321 0
      vertex -50 325 50
      vertex -50 325 0
    endloop
  endfacet
  facet normal -1 -0 0
    outer loop
      vertex -50 325 50
      vertex -50 321 0
      vertex -50 325 150
    endloop
  endfacet
  facet normal -1 -0 0
    outer loop
      vertex -50 325 150
      vertex -50 321 0
      vertex -50 321 1868
    endloop
  endfacet
  facet normal -1 0 0
    outer loop
      vertex -50 325 150
      vertex -50 321 1868
      vertex -50 325 1872
    endloop
  endfacet
  facet normal -1 0 0
    outer loop
      vertex -50 -321 1868
      vertex -50 325 1872
      vertex -50 321 1868
    endloop
  endfacet
  facet normal -1 0 0
    outer loop
      vertex -50 -325 150
      vertex -50 -321 0
      vertex -50 -325 50
    endloop
  endfacet
  facet normal -1 0 0
    outer loop
      vertex -50 -321 0
      vertex -50 -325 150
      vertex -50 -321 1868
    endloop
  endfacet
  facet normal -1 0 0
    outer loop
      vertex -50 -321 1868
      vertex -50 -325 1872
      vertex -50 325 1872
    endloop
  endfacet
  facet normal -1 0 0
    outer loop
      vertex -50 -325 1872
      vertex -50 -321 1868
      vertex -50 -325 150
    endloop
  endfacet
  facet normal -1 0 0
    outer loop
      vertex -50 325 50
      vertex -50 329 150
      vertex -50 329 50
    endloop
  endfacet
  facet normal -1 -0 0
    outer loop
      vertex -50 329 150
      vertex -50 325 50
      vertex -50 325 150
    endloop
  endfacet
  facet normal -1 0 0
    outer loop
      vertex -50 -329 50
      vertex -50 -325 150
      vertex -50 -325 50
    endloop
  endfacet
  facet normal -1 -0 0
    outer loop
      vertex -50 -325 150
      vertex -50 -329 50
      vertex -50 -329 150
    endloop
  endfacet
  facet normal 0 1 -0
    outer loop
      vertex 50 325 150
      vertex -50 325 1872
      vertex 50 325 1872
    endloop
  endfacet
  facet normal 0 1 0
    outer loop
      vertex -50 325 1872
      vertex 50 325 150
      vertex -50 325 150
    endloop
  endfacet
  facet normal 0 1 -0
    outer loop
      vertex 50 325 0
      vertex -50 325 50
      vertex 50 325 50
    endloop
  endfacet
  facet normal 0 1 0
    outer loop
      vertex -50 325 50
      vertex 50 325 0
      vertex -50 325 0
    endloop
  endfacet
  facet normal 0 -1 0
    outer loop
      vertex -50 321 1868
      vertex 48 321 150
      vertex 50 321 1868
    endloop
  endfacet
  facet normal 0 -1 0
    outer loop
      vertex -50 321 0
      vertex 48 321 150
      vertex -50 321 1868
    endloop
  endfacet
  facet normal 0 -1 -0
    outer loop
      vertex 48 321 150
      vertex -50 321 0
      vertex 48 321 50
    endloop
  endfacet
  facet normal 0 -1 0
    outer loop
      vertex 50 321 0
      vertex 48 321 50
      vertex -50 321 0
    endloop
  endfacet
  facet normal 0 -1 0
    outer loop
      vertex 48 321 50
      vertex 50 321 0
      vertex 50 321 50
    endloop
  endfacet
  facet normal 0 -1 -0
    outer loop
      vertex 50 321 1868
      vertex 48 321 150
      vertex 50 321 150
    endloop
  endfacet
  facet normal 0 0 -1
    outer loop
      vertex -50 -325 0
      vertex 50 -321 0
      vertex 50 -325 0
    endloop
  endfacet
  facet normal -0 0 -1
    outer loop
      vertex 50 -321 0
      vertex -50 -325 0
      vertex -50 -321 0
    endloop
  endfacet
  facet normal 0 1 0
    outer loop
      vertex 50 -321 50
      vertex 50 -321 0
      vertex 48 -321 50
    endloop
  endfacet
  facet normal 0 1 0
    outer loop
      vertex 48 -321 150
      vertex 50 -321 1868
      vertex 50 -321 150
    endloop
  endfacet
  facet normal 0 1 0
    outer loop
      vertex 50 -321 1868
      vertex 48 -321 150
      vertex -50 -321 1868
    endloop
  endfacet
  facet normal 0 1 0
    outer loop
      vertex -50 -321 0
      vertex 48 -321 150
      vertex 48 -321 50
    endloop
  endfacet
  facet normal 0 1 0
    outer loop
      vertex -50 -321 0
      vertex 48 -321 50
      vertex 50 -321 0
    endloop
  endfacet
  facet normal 0 1 0
    outer loop
      vertex 48 -321 150
      vertex -50 -321 0
      vertex -50 -321 1868
    endloop
  endfacet
  facet normal 0 -1 0
    outer loop
      vertex -50 -325 150
      vertex 50 -325 1872
      vertex -50 -325 1872
    endloop
  endfacet
  facet normal 0 -1 -0
    outer loop
      vertex 50 -325 1872
      vertex -50 -325 150
      vertex 50 -325 150
    endloop
  endfacet
  facet normal 0 -1 0
    outer loop
      vertex -50 -325 0
      vertex 50 -325 50
      vertex -50 -325 50
    endloop
  endfacet
  facet normal 0 -1 -0
    outer loop
      vertex 50 -325 50
      vertex -50 -325 0
      vertex 50 -325 0
    endloop
  endfacet
  facet normal -0 0 1
    outer loop
      vertex -50 325 1872
      vertex 50 -325 1872
      vertex 50 325 1872
    endloop
  endfacet
  facet normal 0 0 1
    outer loop
      vertex 50 -325 1872
      vertex -50 325 1872
      vertex -50 -325 1872
    endloop
  endfacet
  facet normal 0 0 -1
    outer loop
      vertex -50 -321 1868
      vertex 50 321 1868
      vertex 50 -321 1868
    endloop
  endfacet
  facet normal -0 0 -1
    outer loop
      vertex 50 321 1868
      vertex -50 -321 1868
      vertex -50 321 1868
    endloop
  endfacet
  facet normal 1 -0 0
    outer loop
      vertex 50 325 150
      vertex 50 329 50
      vertex 50 329 150
    endloop
  endfacet
  facet normal 1 0 0
    outer loop
      vertex 50 329 50
      vertex 50 325 150
      vertex 50 325 50
    endloop
  endfacet
  facet normal -0 0 1
    outer loop
      vertex 48 321 150
      vertex 50 -321 150
      vertex 50 321 150
    endloop
  endfacet
  facet normal 0 0 1
    outer loop
      vertex 50 -321 150
      vertex 48 321 150
      vertex 48 -321 150
    endloop
  endfacet
  facet normal 0 0 1
    outer loop
      vertex 50 321 150
      vertex 52 325 150
      vertex 50 325 150
    endloop
  endfacet
  facet normal 0 0 1
    outer loop
      vertex 52 325 150
      vertex 50 321 150
      vertex 52 -325 150
    endloop
  endfacet
  facet normal -0 0 1
    outer loop
      vertex 50 -321 150
      vertex 52 -325 150
      vertex 50 321 150
    endloop
  endfacet
  facet normal 0 0 1
    outer loop
      vertex 52 -325 150
      vertex 50 -321 150
      vertex 50 -325 150
    endloop
  endfacet
  facet normal -0 0 1
    outer loop
      vertex -50 329 150
      vertex 50 325 150
      vertex 50 329 150
    endloop
  endfacet
  facet normal 0 0 1
    outer loop
      vertex 50 325 150
      vertex -50 329 150
      vertex -50 325 150
    endloop
  endfacet
  facet normal -0 0 1
    outer loop
      vertex -50 -325 150
      vertex 50 -329 150
      vertex 50 -325 150
    endloop
  endfacet
  facet normal 0 0 1
    outer loop
      vertex 50 -329 150
      vertex -50 -325 150
      vertex -50 -329 150
    endloop
  endfacet
  facet normal 0 0 -1
    outer loop
      vertex 50 321 50
      vertex 52 312.5 50
      vertex 50 312.5 50
    endloop
  endfacet
  facet normal 0 0 -1
    outer loop
      vertex 52 312.5 50
      vertex 50 321 50
      vertex 52 325 50
    endloop
  endfacet
  facet normal -0 0 -1
    outer loop
      vertex 52 325 50
      vertex 50 321 50
      vertex 50 325 50
    endloop
  endfacet
  facet normal 0 0 -1
    outer loop
      vertex 50 -321 50
      vertex 52 -325 50
      vertex 50 -325 50
    endloop
  endfacet
  facet normal 0 0 -1
    outer loop
      vertex 52 -325 50
      vertex 50 -321 50
      vertex 52 -312.5 50
    endloop
  endfacet
  facet normal 0 0 -1
    outer loop
      vertex 50 -321 50
      vertex 50 -312.5 50
      vertex 52 -312.5 50
    endloop
  endfacet
  facet normal 0 0 -1
    outer loop
      vertex 48 -321 50
      vertex 50 -312.5 50
      vertex 50 -321 50
    endloop
  endfacet
  facet normal -0 0 -1
    outer loop
      vertex 50 -312.5 50
      vertex 48 -321 50
      vertex 50 -237.5 50
    endloop
  endfacet
  facet normal -0 0 -1
    outer loop
      vertex 50 -237.5 50
      vertex 48 -321 50
      vertex 50 237.5 50
    endloop
  endfacet
  facet normal 0 0 -1
    outer loop
      vertex 48 321 50
      vertex 50 237.5 50
      vertex 48 -321 50
    endloop
  endfacet
  facet normal 0 0 -1
    outer loop
      vertex 50 237.5 50
      vertex 48 321 50
      vertex 50 312.5 50
    endloop
  endfacet
  facet normal 0 0 -1
    outer loop
      vertex 50 312.5 50
      vertex 48 321 50
      vertex 50 321 50
    endloop
  endfacet
  facet normal 0 0 -1
    outer loop
      vertex 50 -237.5 50
      vertex 52 237.5 50
      vertex 52 -237.5 50
    endloop
  endfacet
  facet normal -0 0 -1
    outer loop
      vertex 52 237.5 50
      vertex 50 -237.5 50
      vertex 50 237.5 50
    endloop
  endfacet
  facet normal 0 0 -1
    outer loop
      vertex -50 325 50
      vertex 50 329 50
      vertex 50 325 50
    endloop
  endfacet
  facet normal -0 0 -1
    outer loop
      vertex 50 329 50
      vertex -50 325 50
      vertex -50 329 50
    endloop
  endfacet
  facet normal 0 0 -1
    outer loop
      vertex -50 -329 50
      vertex 50 -325 50
      vertex 50 -329 50
    endloop
  endfacet
  facet normal -0 0 -1
    outer loop
      vertex 50 -325 50
      vertex -50 -329 50
      vertex -50 -325 50
    endloop
  endfacet
  facet normal 0 1 -0
    outer loop
      vertex 50 329 50
      vertex -50 329 150
      vertex 50 329 150
    endloop
  endfacet
  facet normal 0 1 0
    outer loop
      vertex -50 329 150
      vertex 50 329 50
      vertex -50 329 50
    endloop
  endfacet
  facet normal 0 1 -0
    outer loop
      vertex 52 325 50
      vertex 50 325 150
      vertex 52 325 150
    endloop
  endfacet
  facet normal 0 1 0
    outer loop
      vertex 50 325 150
      vertex 52 325 50
      vertex 50 325 50
    endloop
  endfacet
  facet normal 1 -0 0
    outer loop
      vertex 50 -329 150
      vertex 50 -325 50
      vertex 50 -325 150
    endloop
  endfacet
  facet normal 1 0 0
    outer loop
      vertex 50 -325 50
      vertex 50 -329 150
      vertex 50 -329 50
    endloop
  endfacet
  facet normal 0 -1 0
    outer loop
      vertex 50 -325 50
      vertex 52 -325 150
      vertex 50 -325 150
    endloop
  endfacet
  facet normal 0 -1 -0
    outer loop
      vertex 52 -325 150
      vertex 50 -325 50
      vertex 52 -325 50
    endloop
  endfacet
  facet normal 0 -1 0
    outer loop
      vertex -50 -329 50
      vertex 50 -329 150
      vertex -50 -329 150
    endloop
  endfacet
  facet normal 0 -1 -0
    outer loop
      vertex 50 -329 150
      vertex -50 -329 50
      vertex 50 -329 50
    endloop
  endfacet
  facet normal 1 0 0
    outer loop
      vertex 52 325 150
      vertex 52 312.5 123
      vertex 52 325 50
    endloop
  endfacet
  facet normal 1 0 0
    outer loop
      vertex 52 325 150
      vertex 52 237.5 123
      vertex 52 312.5 123
    endloop
  endfacet
  facet normal 1 0 0
    outer loop
      vertex 52 237.5 123
      vertex 52 -237.5 123
      vertex 52 237.5 50
    endloop
  endfacet
  facet normal 1 0 0
    outer loop
      vertex 52 325 150
      vertex 52 -237.5 123
      vertex 52 237.5 123
    endloop
  endfacet
  facet normal 1 -0 0
    outer loop
      vertex 52 -325 150
      vertex 52 -237.5 123
      vertex 52 325 150
    endloop
  endfacet
  facet normal 1 0 0
    outer loop
      vertex 52 -237.5 123
      vertex 52 -325 150
      vertex 52 -312.5 123
    endloop
  endfacet
  facet normal 1 0 0
    outer loop
      vertex 52 -325 50
      vertex 52 -312.5 123
      vertex 52 -325 150
    endloop
  endfacet
  facet normal 1 0 0
    outer loop
      vertex 52 -312.5 123
      vertex 52 -325 50
      vertex 52 -312.5 50
    endloop
  endfacet
  facet normal 1 0 0
    outer loop
      vertex 52 325 50
      vertex 52 312.5 123
      vertex 52 312.5 50
    endloop
  endfacet
  facet normal 1 0 0
    outer loop
      vertex 52 237.5 50
      vertex 52 -237.5 123
      vertex 52 -237.5 50
    endloop
  endfacet
  facet normal -1 0 0
    outer loop
      vertex 48 -321 50
      vertex 48 321 150
      vertex 48 321 50
    endloop
  endfacet
  facet normal -1 -0 0
    outer loop
      vertex 48 321 150
      vertex 48 -321 50
      vertex 48 -321 150
    endloop
  endfacet
  facet normal 1 -0 0
    outer loop
      vertex 54 237.5 123
      vertex 54 312.5 50
      vertex 54 312.5 123
    endloop
  endfacet
  facet normal 1 0 0
    outer loop
      vertex 54 312.5 50
      vertex 54 237.5 123
      vertex 54 237.5 50
    endloop
  endfacet
  facet normal -0 0 1
    outer loop
      vertex 52 312.5 123
      vertex 54 237.5 123
      vertex 54 312.5 123
    endloop
  endfacet
  facet normal 0 0 1
    outer loop
      vertex 54 237.5 123
      vertex 52 312.5 123
      vertex 52 237.5 123
    endloop
  endfacet
  facet normal -1 0 0
    outer loop
      vertex 50 237.5 46
      vertex 50 312.5 50
      vertex 50 312.5 46
    endloop
  endfacet
  facet normal -1 -0 0
    outer loop
      vertex 50 312.5 50
      vertex 50 237.5 46
      vertex 50 237.5 50
    endloop
  endfacet
  facet normal 0 1 -0
    outer loop
      vertex 750 312.5 46
      vertex 54 312.5 50
      vertex 750 312.5 50
    endloop
  endfacet
  facet normal 0 1 0
    outer loop
      vertex 50 312.5 46
      vertex 54 312.5 50
      vertex 750 312.5 46
    endloop
  endfacet
  facet normal 0 1 0
    outer loop
      vertex 54 312.5 50
      vertex 50 312.5 46
      vertex 52 312.5 50
    endloop
  endfacet
  facet normal 0 1 0
    outer loop
      vertex 52 312.5 50
      vertex 50 312.5 46
      vertex 50 312.5 50
    endloop
  endfacet
  facet normal 0 1 -0
    outer loop
      vertex 54 312.5 50
      vertex 52 312.5 123
      vertex 54 312.5 123
    endloop
  endfacet
  facet normal 0 1 0
    outer loop
      vertex 52 312.5 123
      vertex 54 312.5 50
      vertex 52 312.5 50
    endloop
  endfacet
  facet normal 0 -1 0
    outer loop
      vertex 50 237.5 46
      vertex 52 237.5 50
      vertex 50 237.5 50
    endloop
  endfacet
  facet normal 0 -1 -0
    outer loop
      vertex 52 237.5 50
      vertex 50 237.5 46
      vertex 54 237.5 50
    endloop
  endfacet
  facet normal 0 -1 0
    outer loop
      vertex 750 237.5 46
      vertex 54 237.5 50
      vertex 50 237.5 46
    endloop
  endfacet
  facet normal 0 -1 0
    outer loop
      vertex 54 237.5 50
      vertex 750 237.5 46
      vertex 750 237.5 50
    endloop
  endfacet
  facet normal 0 -1 0
    outer loop
      vertex 52 237.5 50
      vertex 54 237.5 123
      vertex 52 237.5 123
    endloop
  endfacet
  facet normal 0 -1 -0
    outer loop
      vertex 54 237.5 123
      vertex 52 237.5 50
      vertex 54 237.5 50
    endloop
  endfacet
  facet normal 1 -0 0
    outer loop
      vertex 750 237.5 50
      vertex 750 312.5 46
      vertex 750 312.5 50
    endloop
  endfacet
  facet normal 1 0 0
    outer loop
      vertex 750 312.5 46
      vertex 750 237.5 50
      vertex 750 237.5 46
    endloop
  endfacet
  facet normal -0 0 1
    outer loop
      vertex 54 312.5 50
      vertex 750 237.5 50
      vertex 750 312.5 50
    endloop
  endfacet
  facet normal 0 0 1
    outer loop
      vertex 750 237.5 50
      vertex 54 312.5 50
      vertex 54 237.5 50
    endloop
  endfacet
  facet normal 0 0 -1
    outer loop
      vertex 50 237.5 46
      vertex 750 312.5 46
      vertex 750 237.5 46
    endloop
  endfacet
  facet normal -0 0 -1
    outer loop
      vertex 750 312.5 46
      vertex 50 237.5 46
      vertex 50 312.5 46
    endloop
  endfacet
  facet normal 1 -0 0
    outer loop
      vertex 54 -312.5 123
      vertex 54 -237.5 50
      vertex 54 -237.5 123
    endloop
  endfacet
  facet normal 1 0 0
    outer loop
      vertex 54 -237.5 50
      vertex 54 -312.5 123
      vertex 54 -312.5 50
    endloop
  endfacet
  facet normal -0 0 1
    outer loop
      vertex 52 -237.5 123
      vertex 54 -312.5 123
      vertex 54 -237.5 123
    endloop
  endfacet
  facet normal 0 0 1
    outer loop
      vertex 54 -312.5 123
      vertex 52 -237.5 123
      vertex 52 -312.5 123
    endloop
  endfacet
  facet normal -1 0 0
    outer loop
      vertex 50 -312.5 46
      vertex 50 -237.5 50
      vertex 50 -237.5 46
    endloop
  endfacet
  facet normal -1 -0 0
    outer loop
      vertex 50 -237.5 50
      vertex 50 -312.5 46
      vertex 50 -312.5 50
    endloop
  endfacet
  facet normal 0 1 -0
    outer loop
      vertex 750 -237.5 46
      vertex 54 -237.5 50
      vertex 750 -237.5 50
    endloop
  endfacet
  facet normal 0 1 0
    outer loop
      vertex 50 -237.5 46
      vertex 54 -237.5 50
      vertex 750 -237.5 46
    endloop
  endfacet
  facet normal 0 1 0
    outer loop
      vertex 54 -237.5 50
      vertex 50 -237.5 46
      vertex 52 -237.5 50
    endloop
  endfacet
  facet normal 0 1 0
    outer loop
      vertex 52 -237.5 50
      vertex 50 -237.5 46
      vertex 50 -237.5 50
    endloop
  endfacet
  facet normal 0 1 -0
    outer loop
      vertex 54 -237.5 50
      vertex 52 -237.5 123
      vertex 54 -237.5 123
    endloop
  endfacet
  facet normal 0 1 0
    outer loop
      vertex 52 -237.5 123
      vertex 54 -237.5 50
      vertex 52 -237.5 50
    endloop
  endfacet
  facet normal 0 -1 0
    outer loop
      vertex 50 -312.5 46
      vertex 52 -312.5 50
      vertex 50 -312.5 50
    endloop
  endfacet
  facet normal 0 -1 -0
    outer loop
      vertex 52 -312.5 50
      vertex 50 -312.5 46
      vertex 54 -312.5 50
    endloop
  endfacet
  facet normal 0 -1 0
    outer loop
      vertex 750 -312.5 46
      vertex 54 -312.5 50
      vertex 50 -312.5 46
    endloop
  endfacet
  facet normal 0 -1 0
    outer loop
      vertex 54 -312.5 50
      vertex 750 -312.5 46
      vertex 750 -312.5 50
    endloop
  endfacet
  facet normal 0 -1 0
    outer loop
      vertex 52 -312.5 50
      vertex 54 -312.5 123
      vertex 52 -312.5 123
    endloop
  endfacet
  facet normal 0 -1 -0
    outer loop
      vertex 54 -312.5 123
      vertex 52 -312.5 50
      vertex 54 -312.5 50
    endloop
  endfacet
  facet normal 1 -0 0
    outer loop
      vertex 750 -312.5 50
      vertex 750 -237.5 46
      vertex 750 -237.5 50
    endloop
  endfacet
  facet normal 1 0 0
    outer loop
      vertex 750 -237.5 46
      vertex 750 -312.5 50
      vertex 750 -312.5 46
    endloop
  endfacet
  facet normal -0 0 1
    outer loop
      vertex 54 -237.5 50
      vertex 750 -312.5 50
      vertex 750 -237.5 50
    endloop
  endfacet
  facet normal 0 0 1
    outer loop
      vertex 750 -312.5 50
      vertex 54 -237.5 50
      vertex 54 -312.5 50
    endloop
  endfacet
  facet normal 0 0 -1
    outer loop
      vertex 50 -312.5 46
      vertex 750 -237.5 46
      vertex 750 -312.5 46
    endloop
  endfacet
  facet normal -0 0 -1
    outer loop
      vertex 750 -237.5 46
      vertex 50 -312.5 46
      vertex 50 -237.5 46
    endloop
  endfacet
endsolid OpenSCAD_Model
