solid OpenSCAD_Model
  facet normal 1 -0 0
    outer loop
      vertex 75 325 50
      vertex 75 329 -50
      vertex 75 329 50
    endloop
  endfacet
  facet normal 1 0 0
    outer loop
      vertex 75 329 -50
      vertex 75 325 50
      vertex 75 325 -50
    endloop
  endfacet
  facet normal 0 0 1
    outer loop
      vertex 73 325 50
      vertex 75 325 50
      vertex 75 329 50
    endloop
  endfacet
  facet normal 0 0 1
    outer loop
      vertex 75 325 50
      vertex 73 325 50
      vertex 75 -325 50
    endloop
  endfacet
  facet normal 0 0 1
    outer loop
      vertex 73 -325 50
      vertex 75 -325 50
      vertex 73 325 50
    endloop
  endfacet
  facet normal -0 0 1
    outer loop
      vertex -50 329 50
      vertex 73 325 50
      vertex 75 329 50
    endloop
  endfacet
  facet normal 0 0 1
    outer loop
      vertex 73 325 50
      vertex -50 329 50
      vertex -50 325 50
    endloop
  endfacet
  facet normal -0 0 1
    outer loop
      vertex 75 325 50
      vertex 77 -325 50
      vertex 77 325 50
    endloop
  endfacet
  facet normal 0 0 1
    outer loop
      vertex 77 -325 50
      vertex 75 325 50
      vertex 75 -325 50
    endloop
  endfacet
  facet normal 0 0 1
    outer loop
      vertex 75 -325 50
      vertex 73 -325 50
      vertex 75 -329 50
    endloop
  endfacet
  facet normal 0 0 1
    outer loop
      vertex -50 -329 50
      vertex 73 -325 50
      vertex -50 -325 50
    endloop
  endfacet
  facet normal 0 0 1
    outer loop
      vertex 73 -325 50
      vertex -50 -329 50
      vertex 75 -329 50
    endloop
  endfacet
  facet normal 0 0 -1
    outer loop
      vertex 73 -325 -50
      vertex 75 -325 -50
      vertex 75 -329 -50
    endloop
  endfacet
  facet normal 0 0 -1
    outer loop
      vertex 75 -325 -50
      vertex 73 -325 -50
      vertex 75 325 -50
    endloop
  endfacet
  facet normal 0 0 -1
    outer loop
      vertex 73 325 -50
      vertex 75 325 -50
      vertex 73 -325 -50
    endloop
  endfacet
  facet normal 0 0 -1
    outer loop
      vertex -50 -329 -50
      vertex 73 -325 -50
      vertex 75 -329 -50
    endloop
  endfacet
  facet normal -0 0 -1
    outer loop
      vertex 73 -325 -50
      vertex -50 -329 -50
      vertex -50 -325 -50
    endloop
  endfacet
  facet normal 0 0 -1
    outer loop
      vertex 75 -325 -50
      vertex 77 325 -50
      vertex 77 -325 -50
    endloop
  endfacet
  facet normal -0 0 -1
    outer loop
      vertex 77 325 -50
      vertex 75 -325 -50
      vertex 75 325 -50
    endloop
  endfacet
  facet normal 0 0 -1
    outer loop
      vertex 75 325 -50
      vertex 73 325 -50
      vertex 75 329 -50
    endloop
  endfacet
  facet normal 0 0 -1
    outer loop
      vertex -50 329 -50
      vertex 73 325 -50
      vertex -50 325 -50
    endloop
  endfacet
  facet normal 0 0 -1
    outer loop
      vertex 73 325 -50
      vertex -50 329 -50
      vertex 75 329 -50
    endloop
  endfacet
  facet normal -1 0 0
    outer loop
      vertex -50 325 -50
      vertex -50 329 50
      vertex -50 329 -50
    endloop
  endfacet
  facet normal -1 -0 0
    outer loop
      vertex -50 329 50
      vertex -50 325 -50
      vertex -50 325 50
    endloop
  endfacet
  facet normal 0 1 -0
    outer loop
      vertex 75 329 -50
      vertex -50 329 50
      vertex 75 329 50
    endloop
  endfacet
  facet normal 0 1 0
    outer loop
      vertex -50 329 50
      vertex 75 329 -50
      vertex -50 329 -50
    endloop
  endfacet
  facet normal 0 -1 0
    outer loop
      vertex -50 325 -50
      vertex 73 325 50
      vertex -50 325 50
    endloop
  endfacet
  facet normal 0 -1 -0
    outer loop
      vertex 73 325 50
      vertex -50 325 -50
      vertex 73 325 -50
    endloop
  endfacet
  facet normal 0 1 -0
    outer loop
      vertex 77 325 -50
      vertex 75 325 50
      vertex 77 325 50
    endloop
  endfacet
  facet normal 0 1 0
    outer loop
      vertex 75 325 50
      vertex 77 325 -50
      vertex 75 325 -50
    endloop
  endfacet
  facet normal 1 -0 0
    outer loop
      vertex 75 -329 50
      vertex 75 -325 -50
      vertex 75 -325 50
    endloop
  endfacet
  facet normal 1 0 0
    outer loop
      vertex 75 -325 -50
      vertex 75 -329 50
      vertex 75 -329 -50
    endloop
  endfacet
  facet normal -1 0 0
    outer loop
      vertex -50 -329 -50
      vertex -50 -325 50
      vertex -50 -325 -50
    endloop
  endfacet
  facet normal -1 -0 0
    outer loop
      vertex -50 -325 50
      vertex -50 -329 -50
      vertex -50 -329 50
    endloop
  endfacet
  facet normal 0 1 -0
    outer loop
      vertex 73 -325 -50
      vertex -50 -325 50
      vertex 73 -325 50
    endloop
  endfacet
  facet normal 0 1 0
    outer loop
      vertex -50 -325 50
      vertex 73 -325 -50
      vertex -50 -325 -50
    endloop
  endfacet
  facet normal 0 -1 0
    outer loop
      vertex 75 -325 -50
      vertex 77 -325 50
      vertex 75 -325 50
    endloop
  endfacet
  facet normal 0 -1 -0
    outer loop
      vertex 77 -325 50
      vertex 75 -325 -50
      vertex 77 -325 -50
    endloop
  endfacet
  facet normal 0 -1 0
    outer loop
      vertex -50 -329 -50
      vertex 75 -329 50
      vertex -50 -329 50
    endloop
  endfacet
  facet normal 0 -1 -0
    outer loop
      vertex 75 -329 50
      vertex -50 -329 -50
      vertex 75 -329 -50
    endloop
  endfacet
  facet normal 1 -0 0
    outer loop
      vertex 77 -325 50
      vertex 77 325 -50
      vertex 77 325 50
    endloop
  endfacet
  facet normal 1 0 0
    outer loop
      vertex 77 325 -50
      vertex 77 -325 50
      vertex 77 -325 -50
    endloop
  endfacet
  facet normal -1 0 0
    outer loop
      vertex 73 -325 -50
      vertex 73 325 50
      vertex 73 325 -50
    endloop
  endfacet
  facet normal -1 -0 0
    outer loop
      vertex 73 325 50
      vertex 73 -325 -50
      vertex 73 -325 50
    endloop
  endfacet
endsolid OpenSCAD_Model
