solid OpenSCAD_Model
  facet normal 1 0 0
    outer loop
      vertex 50 325 1372
      vertex 50 321 1368
      vertex 50 325 -50
    endloop
  endfacet
  facet normal 1 0 0
    outer loop
      vertex 50 325 1372
      vertex 50 -321 1368
      vertex 50 321 1368
    endloop
  endfacet
  facet normal 1 -0 0
    outer loop
      vertex 50 -325 1372
      vertex 50 -321 1368
      vertex 50 325 1372
    endloop
  endfacet
  facet normal 1 0 0
    outer loop
      vertex 50 -325 -50
      vertex 50 -321 1368
      vertex 50 -325 1372
    endloop
  endfacet
  facet normal 1 0 0
    outer loop
      vertex 50 -321 1368
      vertex 50 -325 -50
      vertex 50 -321 -50
    endloop
  endfacet
  facet normal 1 0 0
    outer loop
      vertex 50 325 -50
      vertex 50 321 1368
      vertex 50 321 -50
    endloop
  endfacet
  facet normal 0 0 -1
    outer loop
      vertex -50 321 -50
      vertex 50 325 -50
      vertex 50 321 -50
    endloop
  endfacet
  facet normal -0 0 -1
    outer loop
      vertex 50 325 -50
      vertex -50 321 -50
      vertex -50 325 -50
    endloop
  endfacet
  facet normal -1 0 0
    outer loop
      vertex -50 -321 -50
      vertex -50 -325 -50
      vertex -50 -321 1368
    endloop
  endfacet
  facet normal -1 0 0
    outer loop
      vertex -50 321 1368
      vertex -50 325 -50
      vertex -50 321 -50
    endloop
  endfacet
  facet normal -1 0 0
    outer loop
      vertex -50 325 -50
      vertex -50 321 1368
      vertex -50 325 1372
    endloop
  endfacet
  facet normal -1 0 0
    outer loop
      vertex -50 -321 1368
      vertex -50 325 1372
      vertex -50 321 1368
    endloop
  endfacet
  facet normal -1 0 0
    outer loop
      vertex -50 -321 1368
      vertex -50 -325 1372
      vertex -50 325 1372
    endloop
  endfacet
  facet normal -1 0 0
    outer loop
      vertex -50 -325 1372
      vertex -50 -321 1368
      vertex -50 -325 -50
    endloop
  endfacet
  facet normal 0 1 -0
    outer loop
      vertex 50 325 -50
      vertex -50 325 1372
      vertex 50 325 1372
    endloop
  endfacet
  facet normal 0 1 0
    outer loop
      vertex -50 325 1372
      vertex 50 325 -50
      vertex -50 325 -50
    endloop
  endfacet
  facet normal 0 -1 0
    outer loop
      vertex -50 321 -50
      vertex 50 321 1368
      vertex -50 321 1368
    endloop
  endfacet
  facet normal 0 -1 -0
    outer loop
      vertex 50 321 1368
      vertex -50 321 -50
      vertex 50 321 -50
    endloop
  endfacet
  facet normal 0 0 -1
    outer loop
      vertex -50 -325 -50
      vertex 50 -321 -50
      vertex 50 -325 -50
    endloop
  endfacet
  facet normal -0 0 -1
    outer loop
      vertex 50 -321 -50
      vertex -50 -325 -50
      vertex -50 -321 -50
    endloop
  endfacet
  facet normal 0 1 -0
    outer loop
      vertex 50 -321 -50
      vertex -50 -321 1368
      vertex 50 -321 1368
    endloop
  endfacet
  facet normal 0 1 0
    outer loop
      vertex -50 -321 1368
      vertex 50 -321 -50
      vertex -50 -321 -50
    endloop
  endfacet
  facet normal 0 -1 0
    outer loop
      vertex -50 -325 -50
      vertex 50 -325 1372
      vertex -50 -325 1372
    endloop
  endfacet
  facet normal 0 -1 -0
    outer loop
      vertex 50 -325 1372
      vertex -50 -325 -50
      vertex 50 -325 -50
    endloop
  endfacet
  facet normal -0 0 1
    outer loop
      vertex -50 325 1372
      vertex 50 -325 1372
      vertex 50 325 1372
    endloop
  endfacet
  facet normal 0 0 1
    outer loop
      vertex 50 -325 1372
      vertex -50 325 1372
      vertex -50 -325 1372
    endloop
  endfacet
  facet normal 0 0 -1
    outer loop
      vertex -50 -321 1368
      vertex 50 321 1368
      vertex 50 -321 1368
    endloop
  endfacet
  facet normal -0 0 -1
    outer loop
      vertex 50 321 1368
      vertex -50 -321 1368
      vertex -50 321 1368
    endloop
  endfacet
endsolid OpenSCAD_Model
