solid OpenSCAD_Model
  facet normal 0 -1 0
    outer loop
      vertex -400 -400 320
      vertex -380 -400 300
      vertex 400 -400 320
    endloop
  endfacet
  facet normal 0 -1 0
    outer loop
      vertex -400 -400 320
      vertex -380 -400 40
      vertex -380 -400 300
    endloop
  endfacet
  facet normal 0 -1 -0
    outer loop
      vertex -380 -400 40
      vertex -400 -400 0
      vertex 380 -400 40
    endloop
  endfacet
  facet normal 0 -1 0
    outer loop
      vertex -400 -400 0
      vertex -380 -400 40
      vertex -400 -400 320
    endloop
  endfacet
  facet normal 0 -1 0
    outer loop
      vertex 380 -400 300
      vertex 400 -400 320
      vertex -380 -400 300
    endloop
  endfacet
  facet normal 0 -1 0
    outer loop
      vertex 380 -400 40
      vertex 400 -400 320
      vertex 380 -400 300
    endloop
  endfacet
  facet normal 0 -1 0
    outer loop
      vertex 380 -400 40
      vertex 400 -400 0
      vertex 400 -400 320
    endloop
  endfacet
  facet normal 0 -1 0
    outer loop
      vertex 400 -400 0
      vertex 380 -400 40
      vertex -400 -400 0
    endloop
  endfacet
  facet normal -0 0 1
    outer loop
      vertex 380 380 40
      vertex 400 -380 40
      vertex 400 380 40
    endloop
  endfacet
  facet normal 0 0 1
    outer loop
      vertex 400 -380 40
      vertex 380 380 40
      vertex 380 -380 40
    endloop
  endfacet
  facet normal 0 0 1
    outer loop
      vertex 380 400 40
      vertex 138.7 380 40
      vertex 380 380 40
    endloop
  endfacet
  facet normal 0 0 1
    outer loop
      vertex 138.7 380 40
      vertex 118.7 380 40
      vertex 138.7 -380 40
    endloop
  endfacet
  facet normal 0 0 1
    outer loop
      vertex 380 400 40
      vertex 118.7 380 40
      vertex 138.7 380 40
    endloop
  endfacet
  facet normal 0 0 1
    outer loop
      vertex 380 400 40
      vertex -118.7 380 40
      vertex 118.7 380 40
    endloop
  endfacet
  facet normal 0 0 1
    outer loop
      vertex -118.7 380 40
      vertex -138.7 380 40
      vertex -118.7 -380 40
    endloop
  endfacet
  facet normal -0 0 1
    outer loop
      vertex -380 400 40
      vertex -118.7 380 40
      vertex 380 400 40
    endloop
  endfacet
  facet normal 0 0 1
    outer loop
      vertex -118.7 380 40
      vertex -380 400 40
      vertex -138.7 380 40
    endloop
  endfacet
  facet normal 0 0 1
    outer loop
      vertex -138.7 380 40
      vertex -380 400 40
      vertex -380 380 40
    endloop
  endfacet
  facet normal -0 0 1
    outer loop
      vertex 138.7 -380 40
      vertex 380 -400 40
      vertex 380 -380 40
    endloop
  endfacet
  facet normal 0 0 1
    outer loop
      vertex 118.7 -380 40
      vertex 138.7 -380 40
      vertex 118.7 380 40
    endloop
  endfacet
  facet normal -0 0 1
    outer loop
      vertex 118.7 -380 40
      vertex 380 -400 40
      vertex 138.7 -380 40
    endloop
  endfacet
  facet normal -0 0 1
    outer loop
      vertex -118.7 -380 40
      vertex 380 -400 40
      vertex 118.7 -380 40
    endloop
  endfacet
  facet normal 0 0 1
    outer loop
      vertex -138.7 -380 40
      vertex -118.7 -380 40
      vertex -138.7 380 40
    endloop
  endfacet
  facet normal 0 0 1
    outer loop
      vertex -380 -400 40
      vertex -118.7 -380 40
      vertex -138.7 -380 40
    endloop
  endfacet
  facet normal 0 0 1
    outer loop
      vertex -380 -400 40
      vertex -138.7 -380 40
      vertex -380 -380 40
    endloop
  endfacet
  facet normal 0 0 1
    outer loop
      vertex -118.7 -380 40
      vertex -380 -400 40
      vertex 380 -400 40
    endloop
  endfacet
  facet normal -0 0 1
    outer loop
      vertex -400 380 40
      vertex -380 -380 40
      vertex -380 380 40
    endloop
  endfacet
  facet normal 0 0 1
    outer loop
      vertex -380 -380 40
      vertex -400 380 40
      vertex -400 -380 40
    endloop
  endfacet
  facet normal 1 -0 0
    outer loop
      vertex -380 -380 40
      vertex -380 380 0
      vertex -380 380 40
    endloop
  endfacet
  facet normal 1 0 0
    outer loop
      vertex -380 380 0
      vertex -380 -380 40
      vertex -380 -380 0
    endloop
  endfacet
  facet normal 0 1 0
    outer loop
      vertex 400 400 320
      vertex 380 400 300
      vertex -400 400 320
    endloop
  endfacet
  facet normal 0 1 0
    outer loop
      vertex 400 400 320
      vertex 380 400 40
      vertex 380 400 300
    endloop
  endfacet
  facet normal 0 1 0
    outer loop
      vertex 380 400 40
      vertex 400 400 0
      vertex -380 400 40
    endloop
  endfacet
  facet normal 0 1 -0
    outer loop
      vertex 400 400 0
      vertex 380 400 40
      vertex 400 400 320
    endloop
  endfacet
  facet normal 0 1 -0
    outer loop
      vertex -380 400 300
      vertex -400 400 320
      vertex 380 400 300
    endloop
  endfacet
  facet normal 0 1 -0
    outer loop
      vertex -380 400 40
      vertex -400 400 320
      vertex -380 400 300
    endloop
  endfacet
  facet normal 0 1 0
    outer loop
      vertex -380 400 40
      vertex -400 400 0
      vertex -400 400 320
    endloop
  endfacet
  facet normal 0 1 0
    outer loop
      vertex -400 400 0
      vertex -380 400 40
      vertex 400 400 0
    endloop
  endfacet
  facet normal 0 0 -1
    outer loop
      vertex 400 -400 0
      vertex 380 -380 0
      vertex 400 400 0
    endloop
  endfacet
  facet normal 0 0 -1
    outer loop
      vertex 400 -400 0
      vertex 138.7 -380 0
      vertex 380 -380 0
    endloop
  endfacet
  facet normal 0 0 -1
    outer loop
      vertex 138.7 -380 0
      vertex 118.7 -380 0
      vertex 138.7 380 0
    endloop
  endfacet
  facet normal 0 0 -1
    outer loop
      vertex 400 -400 0
      vertex 118.7 -380 0
      vertex 138.7 -380 0
    endloop
  endfacet
  facet normal 0 0 -1
    outer loop
      vertex 400 -400 0
      vertex -118.7 -380 0
      vertex 118.7 -380 0
    endloop
  endfacet
  facet normal 0 0 -1
    outer loop
      vertex -118.7 -380 0
      vertex -138.7 -380 0
      vertex -118.7 380 0
    endloop
  endfacet
  facet normal 0 0 -1
    outer loop
      vertex -400 -400 0
      vertex -118.7 -380 0
      vertex 400 -400 0
    endloop
  endfacet
  facet normal -0 0 -1
    outer loop
      vertex -118.7 -380 0
      vertex -400 -400 0
      vertex -138.7 -380 0
    endloop
  endfacet
  facet normal -0 0 -1
    outer loop
      vertex -380 -380 0
      vertex -400 -400 0
      vertex -380 380 0
    endloop
  endfacet
  facet normal -0 0 -1
    outer loop
      vertex -138.7 -380 0
      vertex -400 -400 0
      vertex -380 -380 0
    endloop
  endfacet
  facet normal 0 0 -1
    outer loop
      vertex 380 380 0
      vertex 400 400 0
      vertex 380 -380 0
    endloop
  endfacet
  facet normal 0 0 -1
    outer loop
      vertex 138.7 380 0
      vertex 400 400 0
      vertex 380 380 0
    endloop
  endfacet
  facet normal 0 0 -1
    outer loop
      vertex 118.7 380 0
      vertex 138.7 380 0
      vertex 118.7 -380 0
    endloop
  endfacet
  facet normal 0 0 -1
    outer loop
      vertex 118.7 380 0
      vertex 400 400 0
      vertex 138.7 380 0
    endloop
  endfacet
  facet normal 0 0 -1
    outer loop
      vertex -118.7 380 0
      vertex 400 400 0
      vertex 118.7 380 0
    endloop
  endfacet
  facet normal 0 0 -1
    outer loop
      vertex -138.7 380 0
      vertex -118.7 380 0
      vertex -138.7 -380 0
    endloop
  endfacet
  facet normal 0 0 -1
    outer loop
      vertex -400 400 0
      vertex -118.7 380 0
      vertex -138.7 380 0
    endloop
  endfacet
  facet normal 0 0 -1
    outer loop
      vertex -400 400 0
      vertex -138.7 380 0
      vertex -380 380 0
    endloop
  endfacet
  facet normal 0 0 -1
    outer loop
      vertex -118.7 380 0
      vertex -400 400 0
      vertex 400 400 0
    endloop
  endfacet
  facet normal 0 0 -1
    outer loop
      vertex -400 400 0
      vertex -380 380 0
      vertex -400 -400 0
    endloop
  endfacet
  facet normal -1 0 0
    outer loop
      vertex -400 400 0
      vertex -400 380 40
      vertex -400 400 320
    endloop
  endfacet
  facet normal -1 0 0
    outer loop
      vertex -400 400 0
      vertex -400 -380 40
      vertex -400 380 40
    endloop
  endfacet
  facet normal -1 0 0
    outer loop
      vertex -400 -400 320
      vertex -400 -380 40
      vertex -400 -400 0
    endloop
  endfacet
  facet normal -1 0 0
    outer loop
      vertex -400 -400 0
      vertex -400 -380 40
      vertex -400 400 0
    endloop
  endfacet
  facet normal -1 0 0
    outer loop
      vertex -400 380 300
      vertex -400 400 320
      vertex -400 380 40
    endloop
  endfacet
  facet normal -1 0 0
    outer loop
      vertex -400 -380 300
      vertex -400 400 320
      vertex -400 380 300
    endloop
  endfacet
  facet normal -1 0 0
    outer loop
      vertex -400 -380 300
      vertex -400 -400 320
      vertex -400 400 320
    endloop
  endfacet
  facet normal -1 0 0
    outer loop
      vertex -400 -380 40
      vertex -400 -400 320
      vertex -400 -380 300
    endloop
  endfacet
  facet normal 1 -0 0
    outer loop
      vertex -118.7 -380 40
      vertex -118.7 380 0
      vertex -118.7 380 40
    endloop
  endfacet
  facet normal 1 0 0
    outer loop
      vertex -118.7 380 0
      vertex -118.7 -380 40
      vertex -118.7 -380 0
    endloop
  endfacet
  facet normal -1 0 0
    outer loop
      vertex -138.7 -380 0
      vertex -138.7 380 40
      vertex -138.7 380 0
    endloop
  endfacet
  facet normal -1 -0 0
    outer loop
      vertex -138.7 380 40
      vertex -138.7 -380 0
      vertex -138.7 -380 40
    endloop
  endfacet
  facet normal 1 -0 0
    outer loop
      vertex 138.7 -380 40
      vertex 138.7 380 0
      vertex 138.7 380 40
    endloop
  endfacet
  facet normal 1 0 0
    outer loop
      vertex 138.7 380 0
      vertex 138.7 -380 40
      vertex 138.7 -380 0
    endloop
  endfacet
  facet normal -1 0 0
    outer loop
      vertex 118.7 -380 0
      vertex 118.7 380 40
      vertex 118.7 380 0
    endloop
  endfacet
  facet normal -1 -0 0
    outer loop
      vertex 118.7 380 40
      vertex 118.7 -380 0
      vertex 118.7 -380 40
    endloop
  endfacet
  facet normal 1 -0 0
    outer loop
      vertex 400 -380 142.4
      vertex 400 380 122.4
      vertex 400 380 142.4
    endloop
  endfacet
  facet normal 1 0 0
    outer loop
      vertex 400 380 122.4
      vertex 400 -380 142.4
      vertex 400 -380 122.4
    endloop
  endfacet
  facet normal 1 0 0
    outer loop
      vertex 400 380 142.4
      vertex 400 400 320
      vertex 400 380 300
    endloop
  endfacet
  facet normal 1 0 0
    outer loop
      vertex 400 400 320
      vertex 400 -380 300
      vertex 400 380 300
    endloop
  endfacet
  facet normal 1 0 0
    outer loop
      vertex 400 -400 320
      vertex 400 -380 142.4
      vertex 400 -380 300
    endloop
  endfacet
  facet normal 1 0 0
    outer loop
      vertex 400 -400 0
      vertex 400 -380 142.4
      vertex 400 -400 320
    endloop
  endfacet
  facet normal 1 0 0
    outer loop
      vertex 400 -380 142.4
      vertex 400 -400 0
      vertex 400 -380 122.4
    endloop
  endfacet
  facet normal 1 -0 0
    outer loop
      vertex 400 -400 320
      vertex 400 -380 300
      vertex 400 400 320
    endloop
  endfacet
  facet normal 1 0 0
    outer loop
      vertex 400 400 320
      vertex 400 380 142.4
      vertex 400 400 0
    endloop
  endfacet
  facet normal 1 -0 0
    outer loop
      vertex 400 380 122.4
      vertex 400 400 0
      vertex 400 380 142.4
    endloop
  endfacet
  facet normal 1 -0 0
    outer loop
      vertex 400 380 40
      vertex 400 400 0
      vertex 400 380 122.4
    endloop
  endfacet
  facet normal 1 -0 0
    outer loop
      vertex 400 -380 40
      vertex 400 400 0
      vertex 400 380 40
    endloop
  endfacet
  facet normal 1 0 0
    outer loop
      vertex 400 -380 40
      vertex 400 -400 0
      vertex 400 400 0
    endloop
  endfacet
  facet normal 1 0 0
    outer loop
      vertex 400 -380 122.4
      vertex 400 -400 0
      vertex 400 -380 40
    endloop
  endfacet
  facet normal -1 0 0
    outer loop
      vertex 380 -380 0
      vertex 380 380 40
      vertex 380 380 0
    endloop
  endfacet
  facet normal -1 -0 0
    outer loop
      vertex 380 380 40
      vertex 380 -380 0
      vertex 380 -380 40
    endloop
  endfacet
  facet normal 0 -1 0
    outer loop
      vertex 138.7 380 0
      vertex 380 380 40
      vertex 138.7 380 40
    endloop
  endfacet
  facet normal 0 -1 -0
    outer loop
      vertex 380 380 40
      vertex 138.7 380 0
      vertex 380 380 0
    endloop
  endfacet
  facet normal 0 -1 0
    outer loop
      vertex -118.7 380 0
      vertex 118.7 380 40
      vertex -118.7 380 40
    endloop
  endfacet
  facet normal 0 -1 -0
    outer loop
      vertex 118.7 380 40
      vertex -118.7 380 0
      vertex 118.7 380 0
    endloop
  endfacet
  facet normal 0 -1 0
    outer loop
      vertex -380 380 0
      vertex -138.7 380 40
      vertex -380 380 40
    endloop
  endfacet
  facet normal 0 -1 -0
    outer loop
      vertex -138.7 380 40
      vertex -380 380 0
      vertex -138.7 380 0
    endloop
  endfacet
  facet normal 0 1 -0
    outer loop
      vertex 380 -380 0
      vertex 138.7 -380 40
      vertex 380 -380 40
    endloop
  endfacet
  facet normal 0 1 0
    outer loop
      vertex 138.7 -380 40
      vertex 380 -380 0
      vertex 138.7 -380 0
    endloop
  endfacet
  facet normal 0 1 -0
    outer loop
      vertex 118.7 -380 0
      vertex -118.7 -380 40
      vertex 118.7 -380 40
    endloop
  endfacet
  facet normal 0 1 0
    outer loop
      vertex -118.7 -380 40
      vertex 118.7 -380 0
      vertex -118.7 -380 0
    endloop
  endfacet
  facet normal 0 1 -0
    outer loop
      vertex -138.7 -380 0
      vertex -380 -380 40
      vertex -138.7 -380 40
    endloop
  endfacet
  facet normal 0 1 0
    outer loop
      vertex -380 -380 40
      vertex -138.7 -380 0
      vertex -380 -380 0
    endloop
  endfacet
  facet normal 0 0 1
    outer loop
      vertex 400 400 320
      vertex 380 380 320
      vertex 400 -400 320
    endloop
  endfacet
  facet normal 0 0 1
    outer loop
      vertex 400 400 320
      vertex 10 380 320
      vertex 380 380 320
    endloop
  endfacet
  facet normal 0 0 1
    outer loop
      vertex 10 380 320
      vertex -10 380 320
      vertex 10 -380 320
    endloop
  endfacet
  facet normal 0 0 1
    outer loop
      vertex 400 400 320
      vertex -10 380 320
      vertex 10 380 320
    endloop
  endfacet
  facet normal -0 0 1
    outer loop
      vertex -400 400 320
      vertex -10 380 320
      vertex 400 400 320
    endloop
  endfacet
  facet normal 0 0 1
    outer loop
      vertex -380 380 320
      vertex -400 400 320
      vertex -380 -380 320
    endloop
  endfacet
  facet normal 0 0 1
    outer loop
      vertex -10 380 320
      vertex -400 400 320
      vertex -380 380 320
    endloop
  endfacet
  facet normal -0 0 1
    outer loop
      vertex 380 -380 320
      vertex 400 -400 320
      vertex 380 380 320
    endloop
  endfacet
  facet normal -0 0 1
    outer loop
      vertex 10 -380 320
      vertex 400 -400 320
      vertex 380 -380 320
    endloop
  endfacet
  facet normal 0 0 1
    outer loop
      vertex -10 -380 320
      vertex 10 -380 320
      vertex -10 380 320
    endloop
  endfacet
  facet normal -0 0 1
    outer loop
      vertex -10 -380 320
      vertex 400 -400 320
      vertex 10 -380 320
    endloop
  endfacet
  facet normal 0 0 1
    outer loop
      vertex -400 -400 320
      vertex -10 -380 320
      vertex -380 -380 320
    endloop
  endfacet
  facet normal 0 0 1
    outer loop
      vertex -10 -380 320
      vertex -400 -400 320
      vertex 400 -400 320
    endloop
  endfacet
  facet normal 0 0 1
    outer loop
      vertex -400 -400 320
      vertex -380 -380 320
      vertex -400 400 320
    endloop
  endfacet
  facet normal -1 0 0
    outer loop
      vertex 380 -400 40
      vertex 380 -380 122.4
      vertex 380 -380 40
    endloop
  endfacet
  facet normal -1 -0 0
    outer loop
      vertex 380 -380 122.4
      vertex 380 -400 40
      vertex 380 -380 142.4
    endloop
  endfacet
  facet normal -1 0 0
    outer loop
      vertex 380 -400 300
      vertex 380 -380 142.4
      vertex 380 -400 40
    endloop
  endfacet
  facet normal -1 0 0
    outer loop
      vertex 380 -380 142.4
      vertex 380 -400 300
      vertex 380 -380 300
    endloop
  endfacet
  facet normal -1 0 0
    outer loop
      vertex 380 -380 122.4
      vertex 380 380 142.4
      vertex 380 380 122.4
    endloop
  endfacet
  facet normal -1 -0 0
    outer loop
      vertex 380 380 142.4
      vertex 380 -380 122.4
      vertex 380 -380 142.4
    endloop
  endfacet
  facet normal -1 0 0
    outer loop
      vertex 380 380 122.4
      vertex 380 400 40
      vertex 380 380 40
    endloop
  endfacet
  facet normal -1 0 0
    outer loop
      vertex 380 380 142.4
      vertex 380 400 40
      vertex 380 380 122.4
    endloop
  endfacet
  facet normal -1 0 0
    outer loop
      vertex 380 400 40
      vertex 380 380 142.4
      vertex 380 400 300
    endloop
  endfacet
  facet normal -1 -0 0
    outer loop
      vertex 380 400 300
      vertex 380 380 142.4
      vertex 380 380 300
    endloop
  endfacet
  facet normal 0 -1 0
    outer loop
      vertex 380 380 142.4
      vertex 400 380 300
      vertex 380 380 300
    endloop
  endfacet
  facet normal 0 -1 -0
    outer loop
      vertex 400 380 300
      vertex 380 380 142.4
      vertex 400 380 142.4
    endloop
  endfacet
  facet normal 0 -1 0
    outer loop
      vertex 380 380 40
      vertex 400 380 122.4
      vertex 380 380 122.4
    endloop
  endfacet
  facet normal 0 -1 -0
    outer loop
      vertex 400 380 122.4
      vertex 380 380 40
      vertex 400 380 40
    endloop
  endfacet
  facet normal 0 1 -0
    outer loop
      vertex 400 -380 142.4
      vertex 380 -380 300
      vertex 400 -380 300
    endloop
  endfacet
  facet normal 0 1 0
    outer loop
      vertex 380 -380 300
      vertex 400 -380 142.4
      vertex 380 -380 142.4
    endloop
  endfacet
  facet normal 0 1 -0
    outer loop
      vertex 400 -380 40
      vertex 380 -380 122.4
      vertex 400 -380 122.4
    endloop
  endfacet
  facet normal 0 1 0
    outer loop
      vertex 380 -380 122.4
      vertex 400 -380 40
      vertex 380 -380 40
    endloop
  endfacet
  facet normal 1 -0 0
    outer loop
      vertex -380 -400 300
      vertex -380 -380 40
      vertex -380 -380 300
    endloop
  endfacet
  facet normal 1 0 0
    outer loop
      vertex -380 -380 40
      vertex -380 -400 300
      vertex -380 -400 40
    endloop
  endfacet
  facet normal 0 1 -0
    outer loop
      vertex -380 -380 40
      vertex -400 -380 300
      vertex -380 -380 300
    endloop
  endfacet
  facet normal 0 1 0
    outer loop
      vertex -400 -380 300
      vertex -380 -380 40
      vertex -400 -380 40
    endloop
  endfacet
  facet normal 1 -0 0
    outer loop
      vertex -380 380 300
      vertex -380 400 40
      vertex -380 400 300
    endloop
  endfacet
  facet normal 1 0 0
    outer loop
      vertex -380 400 40
      vertex -380 380 300
      vertex -380 380 40
    endloop
  endfacet
  facet normal 0 -1 0
    outer loop
      vertex -400 380 40
      vertex -380 380 300
      vertex -400 380 300
    endloop
  endfacet
  facet normal 0 -1 -0
    outer loop
      vertex -380 380 300
      vertex -400 380 40
      vertex -380 380 40
    endloop
  endfacet
  facet normal 0 0 -1
    outer loop
      vertex -400 -380 300
      vertex -380 380 300
      vertex -380 -380 300
    endloop
  endfacet
  facet normal -0 0 -1
    outer loop
      vertex -380 380 300
      vertex -400 -380 300
      vertex -400 380 300
    endloop
  endfacet
  facet normal 0 0 -1
    outer loop
      vertex 380 -400 300
      vertex 10 -380 300
      vertex 380 -380 300
    endloop
  endfacet
  facet normal 0 0 -1
    outer loop
      vertex 10 -380 300
      vertex -10 -380 300
      vertex 10 380 300
    endloop
  endfacet
  facet normal 0 0 -1
    outer loop
      vertex 380 -400 300
      vertex -10 -380 300
      vertex 10 -380 300
    endloop
  endfacet
  facet normal 0 0 -1
    outer loop
      vertex -380 -400 300
      vertex -10 -380 300
      vertex 380 -400 300
    endloop
  endfacet
  facet normal -0 0 -1
    outer loop
      vertex -10 -380 300
      vertex -380 -400 300
      vertex -380 -380 300
    endloop
  endfacet
  facet normal 0 0 -1
    outer loop
      vertex 10 380 300
      vertex 380 400 300
      vertex 380 380 300
    endloop
  endfacet
  facet normal 0 0 -1
    outer loop
      vertex -10 380 300
      vertex 10 380 300
      vertex -10 -380 300
    endloop
  endfacet
  facet normal 0 0 -1
    outer loop
      vertex -10 380 300
      vertex 380 400 300
      vertex 10 380 300
    endloop
  endfacet
  facet normal 0 0 -1
    outer loop
      vertex -380 400 300
      vertex -10 380 300
      vertex -380 380 300
    endloop
  endfacet
  facet normal 0 0 -1
    outer loop
      vertex -10 380 300
      vertex -380 400 300
      vertex 380 400 300
    endloop
  endfacet
  facet normal 0 0 -1
    outer loop
      vertex 380 -380 300
      vertex 400 380 300
      vertex 400 -380 300
    endloop
  endfacet
  facet normal -0 0 -1
    outer loop
      vertex 400 380 300
      vertex 380 -380 300
      vertex 380 380 300
    endloop
  endfacet
  facet normal 0 -1 0
    outer loop
      vertex -380 380 300
      vertex -10 380 320
      vertex -380 380 320
    endloop
  endfacet
  facet normal 0 -1 -0
    outer loop
      vertex -10 380 320
      vertex -380 380 300
      vertex -10 380 300
    endloop
  endfacet
  facet normal 0 -1 0
    outer loop
      vertex 10 380 300
      vertex 380 380 320
      vertex 10 380 320
    endloop
  endfacet
  facet normal 0 -1 -0
    outer loop
      vertex 380 380 320
      vertex 10 380 300
      vertex 380 380 300
    endloop
  endfacet
  facet normal 0 1 -0
    outer loop
      vertex -10 -380 300
      vertex -380 -380 320
      vertex -10 -380 320
    endloop
  endfacet
  facet normal 0 1 0
    outer loop
      vertex -380 -380 320
      vertex -10 -380 300
      vertex -380 -380 300
    endloop
  endfacet
  facet normal 0 1 -0
    outer loop
      vertex 380 -380 300
      vertex 10 -380 320
      vertex 380 -380 320
    endloop
  endfacet
  facet normal 0 1 0
    outer loop
      vertex 10 -380 320
      vertex 380 -380 300
      vertex 10 -380 300
    endloop
  endfacet
  facet normal -1 0 0
    outer loop
      vertex 380 -380 300
      vertex 380 380 320
      vertex 380 380 300
    endloop
  endfacet
  facet normal -1 -0 0
    outer loop
      vertex 380 380 320
      vertex 380 -380 300
      vertex 380 -380 320
    endloop
  endfacet
  facet normal 1 -0 0
    outer loop
      vertex 10 -380 320
      vertex 10 380 300
      vertex 10 380 320
    endloop
  endfacet
  facet normal 1 0 0
    outer loop
      vertex 10 380 300
      vertex 10 -380 320
      vertex 10 -380 300
    endloop
  endfacet
  facet normal -1 0 0
    outer loop
      vertex -10 -380 300
      vertex -10 380 320
      vertex -10 380 300
    endloop
  endfacet
  facet normal -1 -0 0
    outer loop
      vertex -10 380 320
      vertex -10 -380 300
      vertex -10 -380 320
    endloop
  endfacet
  facet normal 1 -0 0
    outer loop
      vertex -380 -380 320
      vertex -380 380 300
      vertex -380 380 320
    endloop
  endfacet
  facet normal 1 0 0
    outer loop
      vertex -380 380 300
      vertex -380 -380 320
      vertex -380 -380 300
    endloop
  endfacet
  facet normal -0 0 1
    outer loop
      vertex 380 380 142.4
      vertex 400 -380 142.4
      vertex 400 380 142.4
    endloop
  endfacet
  facet normal 0 0 1
    outer loop
      vertex 400 -380 142.4
      vertex 380 380 142.4
      vertex 380 -380 142.4
    endloop
  endfacet
  facet normal 0 0 -1
    outer loop
      vertex 380 -380 122.4
      vertex 400 380 122.4
      vertex 400 -380 122.4
    endloop
  endfacet
  facet normal -0 0 -1
    outer loop
      vertex 400 380 122.4
      vertex 380 -380 122.4
      vertex 380 380 122.4
    endloop
  endfacet
endsolid OpenSCAD_Model
